<?xml version="1.0" encoding="UTF-8" standalone="no"?>
<!-- Created with Inkscape (http://www.inkscape.org/) -->

<svg
   xmlns:dc="http://purl.org/dc/elements/1.1/"
   xmlns:cc="http://creativecommons.org/ns#"
   xmlns:rdf="http://www.w3.org/1999/02/22-rdf-syntax-ns#"
   xmlns:svg="http://www.w3.org/2000/svg"
   xmlns="http://www.w3.org/2000/svg"
   xmlns:sodipodi="http://sodipodi.sourceforge.net/DTD/sodipodi-0.dtd"
   xmlns:inkscape="http://www.inkscape.org/namespaces/inkscape"
   id="svg2"
   version="1.1"
   inkscape:version="0.91 r13725"
   xml:space="preserve"
   width="944.71796"
   height="804.98676"
   viewBox="0 0 944.71795 804.98676"
   sodipodi:docname="stick_cardsorting.svg"><metadata
     id="metadata8"><rdf:RDF><cc:Work
         rdf:about=""><dc:format>image/svg+xml</dc:format><dc:type
           rdf:resource="http://purl.org/dc/dcmitype/StillImage" /><dc:title></dc:title></cc:Work></rdf:RDF></metadata><defs
     id="defs6" /><sodipodi:namedview
     pagecolor="#ffffff"
     bordercolor="#666666"
     borderopacity="1"
     objecttolerance="10"
     gridtolerance="10"
     guidetolerance="10"
     inkscape:pageopacity="0"
     inkscape:pageshadow="2"
     inkscape:window-width="1680"
     inkscape:window-height="948"
     id="namedview4"
     showgrid="false"
     fit-margin-top="0"
     fit-margin-left="0"
     fit-margin-right="0"
     fit-margin-bottom="0"
     inkscape:zoom="0.58092308"
     inkscape:cx="643.49849"
     inkscape:cy="433.86683"
     inkscape:window-x="0"
     inkscape:window-y="30"
     inkscape:window-maximized="1"
     inkscape:current-layer="g12" /><g
     id="g10"
     inkscape:groupmode="layer"
     inkscape:label="Teuns website diensten drawings_5"
     transform="matrix(1.25,0,0,-1.25,-381.27759,2890.0074)"><g
       id="g12"
       transform="matrix(1600,0,0,2560,10,20)"><path
         id="path3453"
         style="fill:#000099;fill-opacity:1"
         d="m 0.44593803,0.80978789 c -0.001719,1.6964e-4 -0.00432,2.1409e-4 -0.005781,9.876e-5 -0.003152,-2.488e-4 -0.00367,5.4586e-4 -0.001055,0.001617 0.003245,0.001329 0.005628,0.004556 0.007446,0.010082 3.4212e-4,0.00104 4.0677e-4,0.001056 0.001856,4.6268e-4 0.001082,-4.4314e-4 0.002782,-5.9129e-4 0.00608,-5.2996e-4 0.008876,1.6501e-4 0.016766,-3.266e-5 0.016766,-4.2001e-4 0,-6.4354e-4 -0.0125403,-0.0111178 -0.0136521,-0.0114029 -0.001356,-3.4775e-4 -0.007711,-2.9738e-4 -0.0116604,9.241e-5 z m 0.010684,0.001842 c 7.1996e-4,3.712e-4 0.002089,0.001334 0.003043,0.00214 l 0.001734,0.001465 -0.00148,5.98e-6 c -8.1424e-4,3.13e-6 -0.001886,1.6624e-4 -0.002381,3.621e-4 -5.8147e-4,2.2995e-4 -0.001512,1.5863e-4 -0.002625,-2.0129e-4 -0.003275,-0.001059 -0.005679,-4.1667e-4 -0.004659,0.001244 2.9722e-4,4.8409e-4 5.8468e-4,5.2727e-4 0.001242,1.865e-4 6.5005e-4,-3.3718e-4 0.001311,-2.7969e-4 0.00276,2.3997e-4 0.001626,5.833e-4 0.002216,6.132e-4 0.004026,2.0412e-4 0.003467,-7.836e-4 0.005047,-5.9366e-4 0.007335,8.8207e-4 0.001161,7.4873e-4 0.00199,0.001432 0.001841,0.001518 -1.4838e-4,8.592e-5 -0.004507,2.2868e-4 -0.009686,3.1723e-4 l -0.009417,1.6101e-4 -1.3956e-4,-0.001478 c -1.7423e-4,-0.001846 -0.001547,-0.004322 -0.003202,-0.005774 -6.9474e-4,-6.098e-4 -0.001263,-0.001191 -0.001263,-0.001291 0,-1.0027e-4 0.00188,-2.0778e-4 0.004177,-2.3891e-4 0.002297,-3.114e-5 0.004313,-1.4169e-4 0.004479,-2.4567e-4 6.5931e-4,-4.1207e-4 0.002977,-1.3541e-4 0.004216,5.0322e-4 z m 0.001034,0.0255031 c -0.001771,4.3271e-4 -0.001792,0.001206 -5.969e-5,0.002164 0.001879,0.001038 0.006701,0.007507 0.007161,0.009608 3.2313e-4,0.001473 6.6613e-4,0.001807 0.002237,0.002178 0.00102,2.4072e-4 0.003176,3.3995e-4 0.004789,2.205e-4 0.003553,-2.63e-4 0.0163212,5.4621e-4 0.0173934,0.001102 0.001445,7.4959e-4 0.002072,-1.0693e-4 0.002072,-0.00283 0,-0.002955 -9.432e-4,-0.004791 -0.003566,-0.00694 -0.001569,-0.001286 -0.001585,-0.001343 -3.1615e-4,-0.001136 0.001507,2.463e-4 0.003153,-6.2555e-4 0.002013,-0.001066 -0.001349,-5.2098e-4 -0.0111135,-0.001816 -0.0193804,-0.00257 -0.004641,-4.2339e-4 -0.009,-8.3826e-4 -0.009687,-9.2192e-4 -6.875e-4,-8.366e-5 -0.001883,2.34e-6 -0.002656,1.9154e-4 z m 0.003541,0.001132 c 6.1306e-4,2.0507e-4 0.005165,8.2975e-4 0.0101152,0.001388 0.00495,5.5844e-4 0.009631,0.001112 0.0104019,0.001231 0.001886,2.9051e-4 0.005779,0.004361 0.006802,0.007111 4.436e-4,0.001193 7.2256e-4,0.002221 6.1992e-4,0.002285 -1.0265e-4,6.415e-5 -0.003114,-3.997e-5 -0.006693,-2.3138e-4 -0.004073,-2.1786e-4 -0.007997,-2.045e-4 -0.0104936,3.57e-5 -0.004622,4.4483e-4 -0.004737,3.8985e-4 -0.005292,-0.002538 -4.0995e-4,-0.002163 -0.004081,-0.007374 -0.006183,-0.008776 -0.001395,-9.3052e-4 -0.001121,-0.001123 7.2198e-4,-5.0606e-4 z m 0.00922,0.004966 c -8.6261e-4,5.3913e-4 -3.4089e-4,0.001135 0.001785,0.00204 0.002047,8.7148e-4 0.002269,8.9084e-4 0.00333,2.9075e-4 0.001051,-5.9447e-4 0.00129,-5.9509e-4 0.003172,-8.32e-6 0.001591,4.9619e-4 0.002364,5.411e-4 0.003541,2.059e-4 0.001956,-5.5701e-4 0.001982,-0.001617 3.888e-5,-0.001617 -8.0656e-4,0 -0.002405,-2.9249e-4 -0.003551,-6.4998e-4 -0.001911,-5.9579e-4 -0.002229,-5.9836e-4 -0.003811,-3.089e-5 -0.001486,5.3298e-4 -0.001828,5.4189e-4 -0.002463,6.403e-5 -8.0777e-4,-6.0831e-4 -0.001403,-6.9418e-4 -0.002042,-2.9462e-4 z m -0.0399479,0.009178 c -0.002134,4.871e-4 -0.002144,7.854e-4 -7.338e-5,0.002163 0.002583,0.001718 0.00345,0.00342 0.003292,0.006464 l -1.4205e-4,0.002737 0.0113525,-7.203e-5 c 0.007635,-4.844e-5 0.0113525,6.322e-5 0.0113525,3.4099e-4 0,2.2716e-4 4.6105e-4,4.1302e-4 0.001025,4.1302e-4 8.6422e-4,0 9.6574e-4,-3.1036e-4 6.4873e-4,-0.001983 -2.067e-4,-0.001091 -0.001088,-0.002955 -0.001958,-0.004143 -9.3711e-4,-0.001279 -0.001439,-0.002515 -0.001231,-0.003032 2.6212e-4,-6.527e-4 -6.739e-5,-0.001044 -0.001305,-0.001551 -9.1063e-4,-3.7291e-4 -0.002031,-5.8795e-4 -0.00249,-4.7785e-4 -4.5904e-4,1.101e-4 -0.004163,-1.3702e-4 -0.008231,-5.4915e-4 -0.008259,-8.3678e-4 -0.009763,-8.7481e-4 -0.0122399,-3.0952e-4 z m 0.0121861,0.002024 c 0.004382,4.9783e-4 0.008052,9.7879e-4 0.008155,0.001069 4.7433e-4,4.1413e-4 0.004815,0.00648 0.004815,0.006729 0,1.5435e-4 -0.004428,1.9373e-4 -0.00984,8.752e-5 l -0.00984,-1.9312e-4 1.9476e-4,-0.002449 c 1.6083e-4,-0.002022 -8.177e-5,-0.002772 -0.001392,-0.004304 -0.001006,-0.001176 -0.001307,-0.001853 -8.2342e-4,-0.00185 4.2002e-4,3.12e-6 0.004349,4.1273e-4 0.008731,9.1056e-4 z m -1.6003e-4,0.002893 c -4.9579e-4,4.8953e-4 -7.8553e-4,5.4498e-4 -0.001021,1.9531e-4 -3.1374e-4,-4.6661e-4 -0.002099,-7.0867e-4 -0.002099,-2.8459e-4 0,1.1202e-4 7.4838e-4,9.1048e-4 0.001663,0.001774 0.001788,0.001689 0.003518,0.00191 0.003842,4.915e-4 l 1.9298e-4,-8.428e-4 0.002813,7.7769e-4 c 0.002208,6.1035e-4 0.003005,6.7796e-4 0.003706,3.1424e-4 0.001249,-6.4792e-4 6.1516e-4,-0.001095 -0.003076,-0.002169 -0.003828,-0.001114 -0.005099,-0.001168 -0.006022,-2.5664e-4 z M 0.4058663,0.83028949 c -0.001014,6.3399e-4 -2.384e-4,0.001357 0.002238,0.002084 0.002135,6.2736e-4 0.003491,0.001547 0.006862,0.004653 0.00231,0.002129 0.004546,0.004679 0.004968,0.005666 7.5592e-4,0.001766 0.001325,0.002159 0.002056,0.001419 2.3782e-4,-2.405e-4 9.4077e-4,-2.4043e-4 0.001953,1.9e-7 0.001672,3.974e-4 0.0213585,5.228e-5 0.0217878,-3.8196e-4 4.5663e-4,-4.6178e-4 -0.001586,-0.005692 -0.002872,-0.007355 -7.0919e-4,-9.1688e-4 -0.002879,-0.002556 -0.004822,-0.003643 l -0.003533,-0.001976 -0.0130819,-1.6188e-4 c -0.007195,-8.905e-5 -0.0135435,-2.5346e-4 -0.0141077,-3.6537e-4 -5.6418e-4,-1.1192e-4 -0.001216,-8.436e-5 -0.001449,6.123e-5 z m 0.0214515,0.001922 0.006563,2.5528e-4 0.003489,0.002217 c 0.002517,0.001599 0.003921,0.002921 0.005038,0.00474 l 0.001548,0.002523 -0.001749,2.4274e-4 c -9.6213e-4,1.3351e-4 -0.005971,3.6999e-4 -0.0111313,5.255e-4 l -0.009382,2.8277e-4 -1.375e-5,-9.1613e-4 c -2.05e-5,-0.001369 -0.002054,-0.003919 -0.005929,-0.007435 l -0.003465,-0.003144 0.004235,2.2654e-4 c 0.00233,1.246e-4 0.007189,3.4142e-4 0.010798,4.8183e-4 z m -0.006771,0.003634 c 5.2442e-4,8.6432e-4 0.004999,0.003563 0.005908,0.003563 8.3194e-4,0 8.7492e-4,-1.0598e-4 2.376e-4,-5.8594e-4 -4.2793e-4,-3.2226e-4 -5.3268e-4,-5.9128e-4 -2.3277e-4,-5.9781e-4 2.999e-4,-6.53e-6 5.306e-5,-1.9105e-4 -5.4848e-4,-4.1004e-4 -6.0156e-4,-2.1898e-4 -0.001094,-6.5309e-4 -0.001094,-9.6468e-4 0,-3.1159e-4 -5.459e-4,-5.6653e-4 -0.001213,-5.6653e-4 -6.6721e-4,0 -0.001387,-1.7578e-4 -0.001599,-3.9063e-4 -4.7567e-4,-4.8103e-4 -0.001747,-5.2221e-4 -0.001458,-4.726e-5 z m 0.006927,3.2791e-4 c -9.4163e-4,2.1102e-4 -0.001051,0.001282 -1.3094e-4,0.001282 3.5767e-4,0 0.001429,3.5985e-4 0.002381,7.9967e-4 0.001582,7.311e-4 0.001984,7.5736e-4 0.004682,3.0629e-4 0.002077,-3.4712e-4 0.002894,-6.7102e-4 0.002759,-0.001093 -1.4209e-4,-4.4214e-4 -0.001008,-5.9926e-4 -0.003301,-5.9926e-4 -0.00171,0 -0.003671,-1.9598e-4 -0.004359,-4.355e-4 -6.875e-4,-2.3952e-4 -0.001602,-3.5671e-4 -0.002031,-2.6042e-4 z"
         inkscape:connector-curvature="0" /><path
         id="path3426"
         style="fill:#000000"
         d="M 0.27578125,0.72861808 C 0.27535156,0.72872644 0.275,0.72896368 0.275,0.72914527 c 0,5.3041e-4 0.001884,0.001558 0.002857,0.001558 0.001455,0 0.001015,-0.001103 -5.1339e-4,-0.001287 -0.001181,-1.4212e-4 -0.001125,-1.7782e-4 3.4939e-4,-2.2248e-4 9.9485e-4,-3.016e-5 0.001588,-2.2246e-4 0.001369,-4.4382e-4 C 0.27865889,0.72834231 0.27712,0.72828042 0.275781,0.72861805 Z m 0.0627022,-0.0705902 c -2.3868e-4,0.001514 -2.3864e-4,0.004415 9e-8,0.006448 2.7541e-4,0.002345 1.422e-4,0.005074 -3.6448e-4,0.007466 L 0.3373205,0.67571287 0.3231243,0.67542959 C 0.30967079,0.67516122 0.30625,0.67527434 0.30625,0.6759877 c 0,5.4373e-4 0.016161,0.001526 0.0257047,0.001563 0.005106,1.95e-5 0.007455,-1.1744e-4 0.0079,-4.6052e-4 0.002345,-0.00181 0.002411,-0.0214149 7.287e-5,-0.0216939 -8.2159e-4,-9.804e-5 -0.001091,3.9307e-4 -0.001444,0.002632 z m -0.0887959,0.0404608 c -0.002256,0.001156 -0.002612,0.001171 -0.004944,2.1003e-4 l -0.001819,-7.4927e-4 0.002131,-1.622e-4 c 0.001172,-8.921e-5 0.003115,-1.8401e-4 0.004319,-2.1067e-4 l 0.002188,-4.846e-5 -0.001875,9.6057e-4 z m 0.0120035,6.3194e-4 0.00243,0.002402 -0.001031,0.001903 c -5.669e-4,0.001047 -0.001179,0.001996 -0.00136,0.002109 -1.8117e-4,1.1322e-4 -0.002894,-9.2871e-4 -0.006029,-0.002315 l -0.005699,-0.002521 0.003906,-0.001963 c 0.002148,-0.00108 0.004232,-0.001975 0.00463,-0.001989 3.9835e-4,-1.449e-5 0.001818,0.001054 0.003154,0.002375 z m 0.004559,-0.009426 c -0.003266,0.00192 -0.006131,0.003495 -0.006367,0.0035 -5.5339e-4,1.121e-5 -0.004087,-0.004543 -0.004615,-0.005948 l -4.0371e-4,-0.001074 0.008661,1.583e-5 0.008662,1.582e-5 -0.005938,0.003491 z m 0.0382628,-0.0456083 c -3.951e-4,3.0409e-4 -4.3527e-4,0.00121 -1.0808e-4,0.002437 8.322e-4,0.003121 6.7291e-4,0.009639 -3.1439e-4,0.0128637 -5.353e-4,0.001749 -0.001841,0.00408 -0.003174,0.005664 -0.00284,0.003378 -0.0111871,0.009943 -0.0192787,0.0151634 l -0.006206,0.004004 -0.0107961,0 c -0.009275,0 -0.0109439,9.241e-5 -0.0118455,6.5589e-4 -0.001526,9.537e-4 -8.8944e-4,0.002989 0.002103,0.006726 0.002469,0.003083 0.002499,0.003168 0.001292,0.003696 -7.9702e-4,3.4891e-4 -0.002201,4.728e-4 -0.003957,3.4911e-4 -0.003409,-2.4017e-4 -0.0130378,5.8997e-4 -0.0144782,0.001248 -0.001696,7.7498e-4 -6.1317e-4,0.001717 0.003242,0.00282 l 0.003507,0.001003 -0.003655,0.001435 c -0.00201,7.8941e-4 -0.005624,0.002104 -0.00803,0.00292 -0.002406,8.1683e-4 -0.004938,0.001802 -0.005625,0.00219 -6.875e-4,3.8768e-4 -0.002516,9.6725e-4 -0.004062,0.001288 -0.00467,9.6824e-4 -0.0193217,0.002942 -0.0253125,0.003411 -0.006295,4.9211e-4 -0.012657,0.001471 -0.0132125,0.002033 -0.001027,0.001039 0.001452,0.001018 0.0119735,-1.0053e-4 0.011434,-0.001216 0.0242647,-0.00306 0.028739,-0.00413 0.001375,-3.2898e-4 0.0035,-0.001094 0.004723,-0.001701 0.001222,-6.0664e-4 0.004572,-0.001841 0.007443,-0.002744 0.002871,-9.0232e-4 0.006268,-0.002074 0.007547,-0.002603 l 0.002326,-9.6223e-4 0.005364,0.002185 c 0.00295,0.001202 0.006211,0.00237 0.007245,0.002595 0.001716,3.7386e-4 0.001872,5.532e-4 0.001768,0.002035 l -1.1334e-4,0.001625 -0.008152,3.348e-5 c -0.007065,2.898e-5 -0.008832,1.7292e-4 -0.0132503,0.00108 -0.011636,0.002388 -0.0182928,0.006958 -0.0183254,0.0125796 -1.024e-5,0.001764 3.9109e-4,0.002872 0.00158,0.004363 0.002022,0.002536 0.009593,0.007071 0.0141136,0.008453 0.005551,0.001697 0.0142929,0.002309 0.0142929,9.994e-4 0,-2.2343e-4 -2.8791e-4,-2.9502e-4 -6.398e-4,-1.591e-4 -8.6616e-4,3.3457e-4 -0.008237,-0.001203 -0.0125636,-0.002621 -0.004371,-0.001433 -0.010655,-0.00526 -0.0124581,-0.007588 -0.001067,-0.001377 -0.001301,-0.002251 -0.001091,-0.004063 0.001085,-0.009375 0.0264761,-0.0145186 0.0443332,-0.008981 0.004111,0.001275 0.009761,0.003965 0.0119056,0.005669 l 0.001249,9.9202e-4 -0.003408,-2.5036e-4 c -0.002205,-1.62e-4 -0.004265,-6.706e-5 -0.005836,2.6903e-4 l -0.002428,5.1939e-4 0.003125,2.8609e-4 c 0.006116,5.5993e-4 0.009719,0.001003 0.0101033,0.001244 7.8813e-4,4.9258e-4 9.434e-4,0.004026 2.4786e-4,0.00564 -0.002767,0.006424 -0.0172718,0.008048 -0.0401819,0.004501 -0.004342,-6.7232e-4 -0.005584,-5.4693e-4 -0.004284,4.3238e-4 9.7526e-4,7.3445e-4 0.0152768,0.002892 0.021657,0.003268 0.0166045,9.7705e-4 0.0265203,-0.003086 0.0265203,-0.0108675 0,-0.004302 -0.004079,-0.008135 -0.0123238,-0.0115803 -0.003019,-0.001261 -0.00713,-0.002616 -0.009136,-0.00301 -0.003208,-6.3008e-4 -0.003602,-8.1627e-4 -0.003274,-0.001548 2.0524e-4,-4.5764e-4 8.2592e-4,-0.001931 0.001379,-0.003273 5.5336e-4,-0.001343 0.001253,-0.002441 0.001555,-0.002441 3.0196e-4,0 5.4902e-4,-3.1362e-4 5.4902e-4,-6.9693e-4 0,-3.8332e-4 0.001477,-0.001605 0.003281,-0.002715 0.006961,-0.004282 0.0347716,-0.0131345 0.0499912,-0.0159136 0.00181,-3.3043e-4 0.004134,-9.4844e-4 0.005165,-0.001373 0.001555,-6.4081e-4 0.002568,-7.3671e-4 0.005937,-5.622e-4 0.002234,1.1572e-4 0.008081,5.88e-5 0.0129929,-1.2648e-4 0.008756,-3.3031e-4 0.008966,-3.5948e-4 0.0107849,-0.001496 0.001519,-9.4942e-4 0.002181,-0.002006 0.00366,-0.005837 0.001845,-0.004779 0.004185,-0.0145359 0.003578,-0.0149154 -0.001597,-9.9826e-4 -0.003456,0.002384 -0.004769,0.008675 -9.6074e-4,0.004606 -0.003435,0.0100304 -0.004918,0.0107806 -9.3231e-4,4.7184e-4 -0.003304,7.0477e-4 -0.00926,9.0942e-4 -0.004404,1.5132e-4 -0.009822,4.3122e-4 -0.0120402,6.22e-4 -0.00264,2.2706e-4 -0.004299,2.0921e-4 -0.004802,-5.169e-5 -5.3365e-4,-2.7681e-4 -0.001211,-2.2384e-4 -0.002216,1.7338e-4 -7.9644e-4,3.1457e-4 -0.003136,8.7069e-4 -0.005198,0.001236 -0.009947,0.001761 -0.0310034,0.007737 -0.0377818,0.0107237 -8.7624e-4,3.8602e-4 -0.003027,0.001153 -0.00478,0.001705 -0.001753,5.5187e-4 -0.004847,0.001891 -0.006875,0.002976 -0.002028,0.001085 -0.003839,0.001974 -0.004023,0.001976 -1.8403e-4,1.96e-6 -0.001235,-0.001138 -0.002335,-0.002532 l -0.002001,-0.002536 0.002932,-0.001663 c 0.001612,-9.1485e-4 0.005016,-0.002894 0.007564,-0.004398 l 0.004633,-0.002734 0.007299,1.3629e-4 c 0.006026,1.1253e-4 0.00744,3.036e-5 0.008106,-4.7117e-4 0.001486,-0.001119 1.4701e-4,-0.001423 -0.006279,-0.001423 l -0.006279,0 0.00616,-0.004033 c 0.007541,-0.004937 0.0164105,-0.0120043 0.0186399,-0.0148522 0.003828,-0.00489 0.005068,-0.0120371 0.003155,-0.0181915 -0.001143,-0.003679 -0.001608,-0.004276 -0.002685,-0.003447 z"
         inkscape:connector-curvature="0" /><path
         id="path3412"
         style="fill:#000000"
         d="m 0.3658676,0.81285984 c -0.002268,6.1314e-4 -0.003993,0.00235 -0.003993,0.004023 0,0.001777 0.001318,0.001896 0.001617,1.4657e-4 6.7616e-4,-0.003964 0.008636,-0.003384 0.022376,0.001629 0.00405,0.001478 0.00767,0.00345 0.0180044,0.009809 0.009362,0.005761 0.0129873,0.008242 0.013125,0.008984 2.8983e-4,0.001562 0.002629,0.001418 0.002878,-1.7701e-4 C 0.42004461,0.8361884 0.41899192,0.8353834 0.4090234,0.8289694 0.3960915,0.8206494 0.3903969,0.817827 0.3807198,0.8149413 0.3734478,0.8127733 0.3686668,0.8121023 0.3658672,0.8128593 Z m 0.26922417,-0.0273348 c 0.0114936,0.002699 0.0152431,0.009763 0.008875,0.0167207 -0.001758,0.001921 -0.00225,0.002025 -0.003228,6.836e-4 -4.1763e-4,-5.7286e-4 -0.001234,-9.7656e-4 -0.001975,-9.7656e-4 -0.001287,0 -0.00171,5.626e-4 -7.13e-4,9.4773e-4 3.0269e-4,1.1693e-4 6.8144e-4,6.4119e-4 8.4169e-4,0.001165 3.3056e-4,0.001081 -7.1081e-4,0.001389 -0.00473,0.001398 l -0.0024,5.31e-6 2.125e-4,-0.001821 c 2.6018e-4,-0.002229 -9.2788e-4,-0.002701 -0.001946,-7.729e-4 -3.9294e-4,7.4408e-4 -0.001146,0.001456 -0.001673,0.001583 -0.003103,7.4411e-4 -0.00578,-3.5256e-4 -0.004502,-0.001844 3.4246e-4,-3.9992e-4 4.3503e-4,-8.4392e-4 2.0571e-4,-9.8665e-4 -5.9342e-4,-3.6934e-4 -0.002809,0.001445 -0.002809,0.0023 0,0.0012 -0.001206,0.001274 -0.003736,2.2745e-4 -0.004553,-0.001883 -0.007838,-0.005526 -0.008793,-0.00975 -6.2854e-4,-0.002779 2.5885e-4,-0.005802 0.001608,-0.005478 5.4407e-4,1.3049e-4 8.9755e-4,-1.8036e-4 0.001031,-9.0631e-4 1.5942e-4,-8.6979e-4 8.1122e-4,-0.001294 0.003063,-0.001993 0.005872,-0.001822 0.0141834,-0.002024 0.020669,-5.0092e-4 z m -0.024717,-0.0221465 c -0.002944,0.001987 -0.007959,0.004853 -0.0111447,0.006368 -0.004456,0.002119 -0.005839,0.002999 -0.005991,0.003813 -2.7057e-4,0.001443 0.00247,0.004282 0.008897,0.009216 l 0.005295,0.004065 -9.8522e-4,0.001191 c -5.4186e-4,6.5491e-4 -0.001122,0.002256 -0.001289,0.003558 -7.7435e-4,0.006029 0.00517,0.0130482 0.0128933,0.015225 0.002211,6.2318e-4 0.002576,8.9685e-4 0.002579,0.001936 9.17e-6,0.003184 0.003164,0.006093 0.006607,0.006093 0.001999,0 0.001988,-0.001054 -1.813e-5,-0.001625 -0.001875,-5.3382e-4 -0.003468,-0.002522 -0.003468,-0.004328 0,-0.001024 3.4298e-4,-0.001441 0.001442,-0.001754 0.002088,-5.9468e-4 0.005018,2.7916e-4 0.006024,0.001797 0.001502,0.002266 0.006838,0.004653 0.008324,0.003724 5.9144e-4,-3.6962e-4 -2.15e-4,-0.001329 -0.001117,-0.001329 -7.16e-4,0 -0.004673,-0.002733 -0.004673,-0.003228 0,-1.0226e-4 0.001698,-3.9472e-4 0.003773,-6.499e-4 0.003604,-4.4317e-4 0.003852,-4.2228e-4 0.005542,4.6623e-4 0.002963,0.001559 0.005412,0.002014 0.008697,0.001616 0.001997,-2.4165e-4 0.002981,-5.6819e-4 0.003123,-0.001036 1.7356e-4,-5.7337e-4 -2.725e-4,-6.8359e-4 -0.002767,-6.8359e-4 -0.001728,0 -0.004091,-3.3808e-4 -0.00564,-8.0687e-4 l -0.002667,-8.0687e-4 0.00207,-0.00183 c 0.003275,-0.002895 0.004432,-0.005263 0.004424,-0.009056 -8.75e-6,-0.003882 -0.001186,-0.005649 -0.005601,-0.008409 -0.00483,-0.003019 -0.0110402,-0.004469 -0.0191694,-0.004477 -0.005363,-5.19e-6 -0.0118473,0.001057 -0.0145438,0.002383 -9.249e-4,4.547e-4 -0.001748,7.6275e-4 -0.00183,6.8454e-4 -8.156e-5,-7.82e-5 -0.001825,-0.00152 -0.003873,-0.003205 -0.00542,-0.004456 -0.009037,-0.007764 -0.009037,-0.008264 0,-2.4035e-4 0.001898,-0.001303 0.004219,-0.00236 0.005063,-0.002308 0.0130438,-0.007195 0.0154276,-0.009446 0.001578,-0.00149 0.001722,-0.002453 3.6771e-4,-0.002453 -2.9544e-4,0 -0.002946,0.001626 -0.005889,0.003613 z m 0.010944,-0.0167512 c -8.0012e-4,6.0256e-4 0.003652,0.005069 0.008881,0.00891 0.001953,0.001434 0.00355,0.002793 0.00355,0.00302 0,2.2642e-4 -0.001683,0.001573 -0.003741,0.002992 -0.003765,0.002597 -0.005333,0.004659 -0.004892,0.006437 2.1181e-4,8.5432e-4 4.1781e-4,7.4549e-4 0.001881,-9.9373e-4 9.0394e-4,-0.001074 0.002827,-0.002656 0.004273,-0.003516 0.003075,-0.001827 0.006228,-0.004404 0.006228,-0.005089 0,-2.6372e-4 -0.001684,-0.001736 -0.003741,-0.003271 -0.002058,-0.001536 -0.005136,-0.004083 -0.00684,-0.005662 -0.003237,-0.002998 -0.004515,-0.003643 -0.0056,-0.002827 z m -0.003811,-0.001516 c -8.5522e-4,6.4405e-4 -6.6728e-4,0.00393 6.259e-4,0.0109434 3.5654e-4,0.001934 8.9542e-4,0.005537 0.001198,0.008008 3.264e-4,0.00267 0.001056,0.005384 0.001799,0.00669 6.871e-4,0.001209 0.00159,0.00323 0.002007,0.004492 0.001139,0.003448 0.004359,0.006946 0.005652,0.006138 4.6188e-4,-2.8866e-4 2.8557e-4,-8.6644e-4 -5.895e-4,-0.001932 -6.8662e-4,-8.3618e-4 -0.001691,-0.003014 -0.002233,-0.004841 -5.4138e-4,-0.001826 -0.001518,-0.004375 -0.00217,-0.005664 -7.314e-4,-0.001446 -0.001316,-0.004065 -0.001526,-0.006836 -1.8706e-4,-0.002471 -6.3897e-4,-0.006162 -0.001004,-0.008203 -3.6527e-4,-0.002041 -8.6984e-4,-0.004927 -0.001121,-0.006414 -4.6861e-4,-0.002771 -0.00122,-0.003449 -0.002637,-0.002381 z M 0.36571,0.82653404 c 0.003602,0.001062 0.007774,0.003261 0.009004,0.004748 l 9.3083e-4,0.001125 -0.002284,-9.6892e-4 c -0.002789,-0.001183 -0.005762,-0.001241 -0.007969,-1.5638e-4 -0.001985,9.7583e-4 -0.001617,0.001655 6.0948e-4,0.001126 0.002564,-6.0926e-4 0.003605,-4.5452e-4 0.007327,0.001089 l 0.003532,0.001465 7.88e-6,0.002848 c 8.5e-6,0.003081 -0.001439,0.005562 -0.003683,0.006312 -0.001095,3.6612e-4 -0.001161,2.7584e-4 -8.5317e-4,-0.001159 2.7234e-4,-0.001269 1.4404e-4,-0.001556 -6.9601e-4,-0.001556 -5.6645e-4,0 -0.001492,6.0546e-4 -0.002056,0.001345 -0.00133,0.001743 -0.003873,0.002448 -0.006439,0.001783 l -0.00186,-4.8164e-4 0.001596,-0.001703 c 0.001556,-0.001659 0.001572,-0.002507 4.907e-5,-0.002507 -4.1343e-4,0 -0.002062,0.00113 -0.003664,0.00251 -0.00356,0.003068 -0.005749,0.004078 -0.007422,0.003426 -6.402e-4,-2.4988e-4 -0.001582,-3.5411e-4 -0.002093,-2.3162e-4 -5.612e-4,1.3459e-4 -0.001993,-4.0495e-4 -0.003618,-0.001364 l -0.00269,-0.001586 0.00225,-9.77e-6 c 0.003264,-1.418e-5 0.0111875,-0.003653 0.0111875,-0.005138 0,-0.001346 -0.001326,-0.001151 -0.004545,6.6608e-4 -0.001797,0.001015 -0.004111,0.002169 -0.005142,0.002566 -0.002319,8.9223e-4 -0.004688,9.5042e-4 -0.004688,1.1519e-4 0,-3.3494e-4 -2.6714e-4,-5.058e-4 -5.9365e-4,-3.7968e-4 -8.078e-4,3.1203e-4 -0.001764,-9.009e-4 -0.002576,-0.003269 -0.001718,-0.005006 0.004111,-0.00986 0.0136361,-0.011357 0.003585,-5.6333e-4 0.009478,-2.1999e-4 0.0127439,7.4239e-4 z m 0.004915,-0.0760102 c 0,3.9397e-4 -0.0151723,0.0239427 -0.0156052,0.0242206 -5.3336e-4,3.4246e-4 -7.8057e-4,-4.2208e-4 -0.001926,-0.005958 -7.5014e-4,-0.003624 -0.002989,-0.009337 -0.005267,-0.0134395 -0.00104,-0.001873 -0.001261,-0.002705 -7.4553e-4,-0.00281 4.026e-4,-8.212e-5 0.005091,-5.2919e-4 0.0104195,-9.9347e-4 0.005328,-4.6429e-4 0.009805,-9.1361e-4 0.009948,-9.9849e-4 3.1803e-4,-1.8848e-4 0.003177,-2.0749e-4 0.003177,-2.113e-5 z m 0.25286832,-0.0505803 c -6.2955e-4,6.3664e-4 -0.002155,0.00691 -0.002591,0.010658 l -4.3849e-4,0.003766 -0.008271,8.2422e-4 c -0.004549,4.5332e-4 -0.008421,8.2423e-4 -0.008605,8.2423e-4 -8.6801e-4,0 -0.009382,-0.00924 -0.0114641,-0.0124424 -0.001485,-0.002283 -0.002913,-0.002861 -0.003262,-0.00132 -3.2964e-4,0.001452 9.2059e-4,0.003231 0.006128,0.008722 0.002719,0.002867 0.004855,0.005269 0.004747,0.005336 -1.084e-4,6.774e-5 -0.006773,7.2499e-4 -0.0148101,0.001461 -0.0224662,0.002056 -0.0308323,0.003023 -0.0586755,0.006784 -0.0129186,0.001745 -0.0318071,0.004082 -0.0478125,0.005917 -0.0213674,0.002449 -0.040733,0.005578 -0.0640625,0.0103533 -0.0213022,0.00436 -0.0371336,0.007105 -0.0380535,0.006597 -1.3257e-4,-7.314e-5 0.001063,-0.001775 0.002656,-0.003782 0.003088,-0.003889 0.003396,-0.004579 0.002043,-0.004579 -0.001053,0 -0.003289,0.002077 -0.006345,0.005891 -0.001277,0.001594 -0.002359,0.002926 -0.002405,0.00296 -3.6292e-4,2.7004e-4 -0.0243681,0.002494 -0.0266057,0.002465 -5.3748e-4,-6.99e-6 -0.001415,-5.7828e-4 -0.001951,-0.00127 -0.003194,-0.004124 -0.006374,-0.007702 -0.006845,-0.007702 -0.001452,0 -0.001011,0.001065 0.002021,0.004875 0.003519,0.004422 0.00351,0.00487 -9.979e-5,0.004885 -8.3725e-4,3.13e-6 -0.005478,6.1272e-4 -0.0103125,0.001354 -0.0109716,0.001683 -0.0215706,0.00308 -0.023009,0.003033 -6.0156e-4,-1.969e-5 -0.001094,1.941e-4 -0.001094,4.7507e-4 0,0.001417 0.009701,8.8932e-4 0.0234375,-0.001274 0.004125,-6.4956e-4 0.008906,-0.001297 0.010625,-0.001438 0.001719,-1.4139e-4 0.003601,-3.3875e-4 0.004182,-4.3857e-4 8.4803e-4,-1.4562e-4 0.001381,4.5926e-4 0.002697,0.00306 0.002251,0.004449 0.003767,0.008681 0.004996,0.0139444 5.7181e-4,0.002449 0.001271,0.004832 0.001553,0.005296 2.8216e-4,4.6384e-4 8.3342e-4,0.003558 0.001225,0.006875 3.916e-4,0.003318 0.001119,0.008405 0.001617,0.0113055 0.00214,0.0124698 0.002683,0.0201221 0.001846,0.0260228 -3.4447e-4,0.002429 -2.588e-4,0.003245 3.6618e-4,0.003486 5.1806e-4,2.0011e-4 -6.0511e-4,4.9628e-4 -0.003077,8.1146e-4 -0.0114942,0.001465 -0.0179391,0.005818 -0.0178598,0.0120623 4.506e-5,0.003549 0.001624,0.005753 0.006335,0.008841 0.004912,0.00322 0.00751,0.004016 0.0120113,0.003678 0.001917,-1.4397e-4 0.005453,-4.0928e-4 0.00786,-5.8959e-4 0.006946,-5.2044e-4 0.012314,-0.001521 0.0142077,-0.002648 0.003829,-0.002279 0.005085,-0.008059 0.002718,-0.0125089 -0.002177,-0.004092 -0.0106967,-0.00837 -0.0178675,-0.008971 l -0.002651,-2.2226e-4 4.334e-4,-0.002188 c 2.3836e-4,-0.001203 6.6051e-4,-0.003419 9.3811e-4,-0.004923 2.7761e-4,-0.001504 0.001201,-0.003789 0.002053,-0.005078 8.5136e-4,-0.001289 0.002061,-0.003222 0.002687,-0.004295 6.2667e-4,-0.001073 0.002285,-0.002708 0.003686,-0.003633 l 0.002546,-0.001682 0.0170161,-1.3909e-4 c 0.0149797,-1.2244e-4 0.0172984,-2.2528e-4 0.019375,-8.5937e-4 0.001297,-3.9615e-4 0.002457,-0.001052 0.002577,-0.001457 1.8609e-4,-6.2761e-4 -4.5e-5,-6.9737e-4 -0.001562,-4.7165e-4 -9.7949e-4,1.457e-4 -0.003047,4.4575e-4 -0.004593,6.668e-4 -0.003106,4.4384e-4 -0.0215105,5.2447e-4 -0.0285341,1.25e-4 l -0.004472,-2.5433e-4 -0.002916,0.00168 c -0.00369,0.002126 -0.005697,0.004263 -0.006773,0.007213 l -8.481e-4,0.002324 -7.4926e-4,-0.005664 c -4.1209e-4,-0.003115 -0.00116,-0.008301 -0.001663,-0.0115234 -0.001462,-0.009376 -0.001982,-0.0152132 -0.001378,-0.0154713 3.0488e-4,-1.303e-4 4.6766e-4,-4.8186e-4 3.6172e-4,-7.8125e-4 -1.0593e-4,-2.9939e-4 6.9064e-4,-0.001511 0.00177,-0.002693 0.001622,-0.001775 0.0115319,-0.0169367 0.0146336,-0.022388 4.6615e-4,-8.1926e-4 0.001136,-0.001624 0.001489,-0.001789 3.5277e-4,-1.6456e-4 0.003605,-6.7851e-4 0.007227,-0.001142 0.006714,-8.5931e-4 0.0232885,-0.003932 0.0348106,-0.006454 0.0165955,-0.003632 0.0433817,-0.008059 0.0617288,-0.0102028 0.0148928,-0.00174 0.0393324,-0.004843 0.054375,-0.006903 0.0267481,-0.003663 0.0678616,-0.007906 0.069057,-0.007127 9.1663e-4,5.9773e-4 0.007569,0.009143 0.009111,0.0117027 8.1695e-4,0.001357 0.002335,0.004571 0.003374,0.007143 0.00226,0.005594 0.002887,0.006691 0.003828,0.006691 0.001017,0 1.7965e-4,-0.0044 -0.001702,-0.008938 -0.001814,-0.004375 -0.004921,-0.009209 -0.008775,-0.0136496 -0.001552,-0.001788 -0.002654,-0.003356 -0.00245,-0.003484 4.7809e-4,-2.988e-4 0.0143028,-0.001678 0.0146493,-0.001462 1.4372e-4,8.983e-5 -4.75e-5,0.001795 -4.2497e-4,0.00379 -9.0757e-4,0.004796 -0.00141,0.0135873 -7.7718e-4,0.0135873 5.9314e-4,0 0.001742,-0.003534 0.002221,-0.006836 1.873e-4,-0.001289 8.0535e-4,-0.004299 0.001373,-0.00669 l 0.001033,-0.004346 0.008491,-8.7535e-4 c 0.0154902,-0.001597 0.0239109,-0.002648 0.0245847,-0.003069 4.7112e-4,-2.9444e-4 4.525e-4,-5.768e-4 -6.363e-5,-9.6549e-4 -6.2206e-4,-4.6847e-4 -0.001269,-4.7147e-4 -0.004393,-2.039e-5 -0.005903,8.523e-4 -0.0278497,0.003229 -0.0281401,0.003048 -2.3803e-4,-1.4876e-4 6.3847e-4,-0.006748 0.001618,-0.0121792 3.0749e-4,-0.001706 2.0362e-4,-0.002051 -6.1694e-4,-0.002051 -5.4267e-4,0 -0.001135,1.5037e-4 -0.001317,3.3416e-4 z"
         inkscape:connector-curvature="0" /><path
         style="fill:#000099;fill-opacity:1"
         d="m 0.60006334,0.8813989 c -5.079e-4,3.8249e-4 -5.3006e-4,8.4237e-4 -7.653e-5,0.001588 3.5115e-4,5.7723e-4 6.3844e-4,0.001741 6.3844e-4,0.002587 0,0.001017 2.8074e-4,0.001537 8.2926e-4,0.001537 5.6588e-4,0 7.4185e-4,-3.7219e-4 5.5406e-4,-0.001172 -1.5136e-4,-6.4453e-4 -1.1628e-4,-0.001172 7.796e-5,-0.001172 1.9424e-4,0 0.001627,0.00123 0.003183,0.002734 0.001557,0.001504 0.003083,0.002734 0.003391,0.002734 0.001459,0 0.001835,-0.001022 0.001068,-0.002905 l -7.8494e-4,-0.001929 0.002247,-7.1693e-4 c 0.002445,-7.8015e-4 0.006439,-6.2461e-4 0.005121,1.9941e-4 -8.61e-4,5.3812e-4 -9.0014e-4,0.002488 -5.65e-5,0.002814 3.4666e-4,1.339e-4 8.4688e-4,-1.2248e-4 0.001112,-5.6974e-4 2.6472e-4,-4.4726e-4 0.001432,-0.001118 0.002593,-0.00149 0.002653,-8.5025e-4 0.002513,-0.001484 -3.0365e-4,-0.001372 -0.001411,5.626e-5 -0.002156,-8.75e-5 -0.002156,-4.1593e-4 0,-5.1679e-4 -0.003763,-0.001818 -0.005257,-0.001818 -4.6188e-4,0 -0.001206,2.7589e-4 -0.001654,6.1309e-4 -4.4776e-4,3.3721e-4 -0.001347,5.2607e-4 -0.001997,4.1969e-4 -6.968e-4,-1.1388e-4 -0.001604,1.1356e-4 -0.002206,5.5316e-4 -9.8703e-4,7.2047e-4 -0.001084,6.8533e-4 -0.002768,-0.001006 -0.001864,-0.001872 -0.002426,-0.002064 -0.003555,-0.001214 z"
         id="path3499"
         inkscape:connector-curvature="0" /><path
         style="fill:#000000"
         d="m 0.58459024,0.8756629 c -8.2908e-4,1.0119e-4 -0.00151,5.6914e-4 -0.00177,0.001216 -3.5605e-4,8.8591e-4 -9.488e-5,0.001206 0.001655,0.002028 0.007734,0.003635 0.009942,0.005879 0.0110758,0.0112609 7.1439e-4,0.00339 0.001006,0.003974 0.001986,0.003974 9.8263e-4,0 6.6203e-4,-0.006229 -4.4784e-4,-0.008702 -0.001136,-0.00253 -0.004889,-0.005474 -0.00956,-0.007497 -0.001404,-6.0797e-4 -0.002442,-0.001174 -0.002308,-0.001258 1.3439e-4,-8.399e-5 0.002078,3.035e-5 0.004319,2.5413e-4 0.002241,2.2377e-4 0.009763,5.9062e-4 0.0167163,8.1523e-4 0.009542,3.0826e-4 0.0128641,5.475e-4 0.0135493,9.7577e-4 4.9931e-4,3.1207e-4 0.001619,5.6739e-4 0.002487,5.6739e-4 0.002619,0 0.005667,0.001144 0.00671,0.002517 0.001142,0.001504 0.00259,0.005372 0.003152,0.008421 l 3.9637e-4,0.002148 -0.006745,-1.2254e-4 c -0.00371,-6.74e-5 -0.0111746,-2.4318e-4 -0.0165888,-3.9063e-4 -0.005414,-1.4744e-4 -0.009844,-1.4243e-4 -0.009844,1.113e-5 6.2e-7,0.001067 0.008966,0.001808 0.0239064,0.001978 0.009069,1.029e-4 0.00985,5.688e-5 0.009922,-5.8445e-4 4.313e-5,-3.8288e-4 1.3375e-4,-8.2798e-4 2.0175e-4,-9.8911e-4 0.001876,-0.004446 2.9288e-4,-0.0102357 -0.003512,-0.0128407 -0.001052,-7.2044e-4 -0.001084,-8.5949e-4 -2.3938e-4,-0.001062 0.001488,-3.5686e-4 0.001159,-0.001011 -7.4737e-4,-0.001487 -9.4531e-4,-2.3603e-4 -0.009875,-6.6252e-4 -0.0198438,-9.4774e-4 -0.0185662,-5.312e-4 -0.0221232,-5.7277e-4 -0.0244725,-2.8603e-4 z"
         id="path3497"
         inkscape:connector-curvature="0" /><path
         id="path3370"
         style="fill:#00bb00;fill-opacity:1"
         d="m 0.58218484,0.8152379 c -2.5116e-4,2.5398e-4 9.54e-5,9.2848e-4 7.7013e-4,0.001499 0.002619,0.002214 0.003451,0.00375 0.003772,0.006961 2.312e-4,0.002316 9.498e-5,0.003411 -4.7802e-4,0.003843 -0.001118,8.4217e-4 -6.268e-4,0.001011 0.003541,0.001217 0.002007,9.919e-5 0.005177,3.4902e-4 0.007045,5.5516e-4 0.004286,4.7306e-4 0.008273,4.7878e-4 0.0102256,1.469e-5 0.002169,-5.1544e-4 0.002603,-0.002784 0.001347,-0.007053 -0.001125,-0.003825 -0.00267,-0.005764 -0.004793,-0.006017 -7.841e-4,-9.336e-5 -0.005223,-3.6382e-4 -0.009863,-6.0101e-4 -0.004641,-2.372e-4 -0.009039,-5.3241e-4 -0.009773,-6.5602e-4 -7.3465e-4,-1.2361e-4 -0.001541,-1.695e-5 -0.001792,2.3705e-4 z m 0.0121906,0.002362 c 0.001891,2.0086e-4 0.004647,3.6622e-4 0.006126,3.6747e-4 0.002444,1.95e-6 0.002763,1.1737e-4 0.003518,0.001272 0.001313,0.002007 0.002265,0.00622 0.001701,0.00752 -5.7952e-4,0.001334 -5.9665e-4,0.001335 -0.0105045,7.9261e-4 l -0.005722,-3.1321e-4 9.695e-5,-0.003365 c 7.922e-5,-0.002749 -1.6006e-4,-0.003713 -0.001308,-0.005269 l -0.001405,-0.001904 0.002031,2.6722e-4 c 0.001117,1.4697e-4 0.003577,4.3156e-4 0.005468,6.3242e-4 z m -0.001875,0.00483 c 0,3.0474e-4 9.4726e-4,9.1997e-4 0.002105,0.001367 0.002606,0.001006 0.00977,0.00119 0.00977,2.5022e-4 0,-8.0723e-4 -6.7217e-4,-9.7257e-4 -0.004679,-0.001151 -0.001962,-8.73e-5 -0.003878,-3.5266e-4 -0.004257,-5.897e-4 -9.8401e-4,-6.15e-4 -0.00294,-5.331e-4 -0.00294,1.2312e-4 z m 0.0119707,0.0143861 c -0.001108,6.9225e-4 -9.4408e-4,9.1306e-4 0.00237,0.0032 0.003696,0.002551 0.004144,0.003601 0.003965,0.009301 -1.1159e-4,0.003572 1.388e-5,0.004199 8.3976e-4,0.004199 5.3402e-4,0 0.001118,-3.5157e-4 0.001298,-7.8125e-4 4.0006e-4,-9.5617e-4 3.0714e-4,-9.5622e-4 0.003312,1.95e-6 0.001351,4.3071e-4 0.004082,0.00105 0.006069,0.001375 0.003863,6.3314e-4 0.0180664,0.001494 0.0189595,0.001149 0.001119,-4.3244e-4 -2.3357e-4,-0.001354 -0.001988,-0.001354 -0.001685,0 -0.001784,-7.949e-5 -0.001339,-0.001074 2.6438e-4,-5.9082e-4 4.5431e-4,-0.002568 4.2213e-4,-0.004395 -6.638e-5,-0.003763 -0.001612,-0.006592 -0.004569,-0.008363 -0.001511,-9.0468e-4 -0.002646,-0.001104 -0.00915,-0.001608 -0.004084,-3.1662e-4 -0.009458,-5.7567e-4 -0.011943,-5.7567e-4 -0.002485,0 -0.004691,-1.7484e-4 -0.004902,-3.8852e-4 -7.6875e-4,-7.7743e-4 -0.002598,-0.001153 -0.003344,-6.8695e-4 z m 0.0188958,0.003455 c 0.00168,1.9524e-4 0.004121,3.5498e-4 0.005426,3.5498e-4 0.001875,0 0.002629,2.2527e-4 0.003595,0.001074 0.001984,0.001743 0.003237,0.00506 0.003237,0.008567 l 0,0.003249 -0.001719,-3.13e-6 c -0.003415,-5.86e-6 -0.009948,-8.0042e-4 -0.015,-0.001824 l -0.005156,-0.001045 0,-0.003771 c 0,-0.003214 -2.2329e-4,-0.004047 -0.001512,-0.005638 l -0.001512,-0.001867 0.004794,2.7392e-4 c 0.002636,1.5065e-4 0.006168,4.3365e-4 0.007848,6.2889e-4 z m -0.005642,0.003287 c -4.4855e-4,7.3057e-4 0.00113,0.004196 0.001731,0.003801 2.4104e-4,-1.581e-4 5.4854e-4,-7.269e-4 6.8335e-4,-0.001264 2.1062e-4,-8.3919e-4 3.5332e-4,-7.4303e-4 0.001015,6.8359e-4 5.8329e-4,0.001259 0.00108,0.00166 0.002054,0.00166 7.4052e-4,0 0.001417,-3.1729e-4 0.001598,-7.4927e-4 1.7243e-4,-4.1209e-4 0.00113,-9.6076e-4 0.002129,-0.001219 0.001093,-2.8293e-4 0.001816,-7.6209e-4 0.001816,-0.001204 0,-8.2881e-4 -0.001004,-9.2161e-4 -0.003514,-3.2498e-4 -0.001542,3.6642e-4 -0.001876,2.8528e-4 -0.003211,-7.8125e-4 -0.001592,-0.001271 -0.003707,-0.001567 -0.0043,-6.0224e-4 z m -0.0560362,0.001538 c -0.00135,8.4385e-4 -0.001383,7.4436e-4 7.4207e-4,0.002257 0.002778,0.001977 0.004322,0.004147 0.005075,0.007129 3.7824e-4,0.001498 7.4269e-4,0.002738 8.0989e-4,0.002755 0.004108,0.001081 0.006301,0.001399 0.0119495,0.001734 0.009668,5.7317e-4 0.0147352,5.3325e-4 0.0147352,-1.1607e-4 0,-2.8646e-4 -2.0259e-4,-6.4745e-4 -4.5019e-4,-8.0221e-4 -2.476e-4,-1.5475e-4 -3.6943e-4,-8.6719e-4 -2.7073e-4,-0.001583 2.2739e-4,-0.00165 -0.002617,-0.007533 -0.004476,-0.009259 -0.002306,-0.002141 -0.003904,-0.0024 -0.016076,-0.002599 -0.00974,-1.5974e-4 -0.0110954,-1.0521e-4 -0.0120388,4.8439e-4 z m 0.0204995,0.001807 c 0.002649,2.432e-4 0.004079,5.953e-4 0.00487,0.001199 0.001911,0.001459 0.001163,0.00208 -0.002669,0.002216 -0.001877,6.657e-5 -0.003773,3.0782e-4 -0.004213,5.3611e-4 -4.9512e-4,2.5682e-4 -8.0019e-4,2.6799e-4 -8.0019e-4,2.929e-5 0,-2.1218e-4 -5.6225e-4,-8.3252e-4 -0.001249,-0.001379 -0.001493,-0.001186 -0.003218,-0.001046 -0.004717,3.8403e-4 -0.001324,0.001263 -3.0895e-4,0.002117 0.001621,0.001364 0.001383,-5.3977e-4 0.001382,-5.4081e-4 0.002316,0.001848 6.3264e-4,0.001617 0.001838,0.001981 0.002555,7.698e-4 4.981e-4,-8.4157e-4 5.6008e-4,-8.1936e-4 0.001272,4.5557e-4 5.7602e-4,0.001032 8.7702e-4,0.00121 0.00131,7.7272e-4 3.0893e-4,-3.1215e-4 4.1203e-4,-0.001035 2.2912e-4,-0.001607 -3.2112e-4,-0.001004 -2.1767e-4,-0.001046 0.00301,-0.001244 0.001838,-1.1287e-4 0.003509,-1.4379e-4 0.003712,-6.871e-5 5.3003e-4,1.959e-4 0.002655,0.005243 0.002301,0.005465 -1.6283e-4,1.0177e-4 -0.003502,7.69e-6 -0.007421,-2.0907e-4 -0.003918,-2.1676e-4 -0.008742,-3.9562e-4 -0.0107182,-3.9746e-4 L 0.57,0.8570313 l 0,-0.002706 c 0,-0.002318 -3.0511e-4,-0.003072 -0.002126,-0.005256 l -0.002126,-0.00255 0.003845,-1.3132e-4 c 0.004093,-1.3979e-4 0.006594,-3.789e-5 0.0125952,5.1308e-4 z"
         inkscape:connector-curvature="0" /><path
         style="fill:#000099;fill-opacity:1"
         d="m 0.43727748,0.88194161 c -3.8156e-4,3.8586e-4 0.006823,0.007581 0.008005,0.007994 0.001273,4.4531e-4 0.002308,-8.1789e-4 0.001471,-0.001795 -0.001226,-0.001432 -0.001729,-0.003011 -9.3385e-4,-0.002933 4.0863e-4,4.028e-5 0.001249,-6.462e-5 0.001869,-2.331e-4 7.8496e-4,-2.1365e-4 0.001581,-3.912e-5 0.00263,5.7675e-4 0.001489,8.7401e-4 0.001528,8.7584e-4 0.003874,1.786e-4 0.001304,-3.8747e-4 0.003355,-7.1868e-4 0.004558,-7.3602e-4 0.002698,-3.89e-5 0.002988,-0.001013 4.2879e-4,-0.001441 -9.6729e-4,-1.6168e-4 -0.002161,-5.0252e-4 -0.002652,-7.5741e-4 -6.9989e-4,-3.6303e-4 -0.001402,-3.1114e-4 -0.003241,2.3952e-4 -0.002793,8.3612e-4 -0.007496,0.001001 -0.00794,2.775e-4 -4.3111e-4,-7.0218e-4 -0.002674,-6.2064e-4 -0.003338,1.2136e-4 -4.7114e-4,5.2617e-4 -8.0011e-4,4.3768e-4 -0.002178,-5.8593e-4 -0.001706,-0.001267 -0.002068,-0.001395 -0.002552,-9.0583e-4 z"
         id="path3479"
         inkscape:connector-curvature="0" /><path
         style="fill:#000000"
         d="m 0.419836,0.8743179 c -0.00134,6.3637e-4 -2.5499e-4,0.001612 0.002221,0.001998 0.003474,5.4072e-4 0.009165,0.007728 0.0114177,0.0144209 0.001133,0.003366 0.001142,0.003275 -3.4944e-4,0.003519 -0.001497,2.4461e-4 -0.001676,0.001059 -2.3367e-4,0.001059 5.5899e-4,0 0.003681,-2.839e-4 0.006938,-6.3089e-4 0.005804,-6.1836e-4 0.017067,-5.7918e-4 0.0244487,8.505e-5 0.002384,2.1452e-4 0.002689,1.59e-4 0.0025,-4.5433e-4 -2.5053e-4,-8.1113e-4 -0.004586,-0.001548 -0.0114658,-0.001948 -0.00391,-2.2747e-4 -0.0126991,2.0186e-4 -0.0173437,8.472e-4 l -0.001719,2.3881e-4 0,-0.002232 c 0,-0.002865 -0.003792,-0.0101289 -0.006695,-0.0128254 -0.001156,-0.001074 -0.002238,-0.00209 -0.002403,-0.002257 -1.655e-4,-1.6737e-4 6.1858e-4,-1.2019e-4 0.001742,1.0482e-4 0.001197,2.3964e-4 0.008128,4.0162e-4 0.0167308,3.9101e-4 0.008927,-1.101e-5 0.0161493,1.6341e-4 0.0184144,4.4468e-4 0.003451,4.2857e-4 0.003854,5.9277e-4 0.005447,0.002221 0.00224,0.002289 0.003638,0.005761 0.003638,0.009037 0,0.002816 0.001135,0.006588 0.001982,0.006588 7.6968e-4,0 6.2007e-4,-0.0104931 -1.7543e-4,-0.0123047 -0.001697,-0.003865 -0.007063,-0.008829 -0.008813,-0.008153 -0.001535,5.9302e-4 -0.0298784,5.4727e-4 -0.0363854,-5.874e-5 -0.00755,-7.0318e-4 -0.008586,-7.1254e-4 -0.009898,-8.948e-5 z"
         id="path3477"
         inkscape:connector-curvature="0" /><path
         style="fill:#000000"
         d="m 0.36996603,0.83870659 c -7.62e-4,3.1261e-4 -7.1165e-4,4.624e-4 3.2089e-4,9.5457e-4 0.001321,6.2944e-4 0.002308,5.8952e-4 0.00268,-1.0831e-4 3.4829e-4,-6.5305e-4 -0.001916,-0.001292 -0.003001,-8.4626e-4 z"
         id="path3368"
         inkscape:connector-curvature="0" /></g></g></svg>