<?xml version="1.0" encoding="UTF-8" standalone="no"?>
<!-- Created with Inkscape (http://www.inkscape.org/) -->

<svg
   xmlns:dc="http://purl.org/dc/elements/1.1/"
   xmlns:cc="http://creativecommons.org/ns#"
   xmlns:rdf="http://www.w3.org/1999/02/22-rdf-syntax-ns#"
   xmlns:svg="http://www.w3.org/2000/svg"
   xmlns="http://www.w3.org/2000/svg"
   xmlns:sodipodi="http://sodipodi.sourceforge.net/DTD/sodipodi-0.dtd"
   xmlns:inkscape="http://www.inkscape.org/namespaces/inkscape"
   id="svg2"
   version="1.1"
   inkscape:version="0.91 r13725"
   xml:space="preserve"
   width="848.02783"
   height="394.08304"
   viewBox="0 0 848.02783 394.08304"
   sodipodi:docname="stick_abtesting.svg"><metadata
     id="metadata8"><rdf:RDF><cc:Work
         rdf:about=""><dc:format>image/svg+xml</dc:format><dc:type
           rdf:resource="http://purl.org/dc/dcmitype/StillImage" /><dc:title></dc:title></cc:Work></rdf:RDF></metadata><defs
     id="defs6" /><sodipodi:namedview
     pagecolor="#ffffff"
     bordercolor="#666666"
     borderopacity="1"
     objecttolerance="10"
     gridtolerance="10"
     guidetolerance="10"
     inkscape:pageopacity="0"
     inkscape:pageshadow="2"
     inkscape:window-width="1680"
     inkscape:window-height="948"
     id="namedview4"
     showgrid="false"
     inkscape:zoom="0.58092308"
     inkscape:cx="263.81422"
     inkscape:cy="296.7356"
     inkscape:window-x="0"
     inkscape:window-y="30"
     inkscape:window-maximized="1"
     inkscape:current-layer="g12"
     fit-margin-top="0"
     fit-margin-left="0"
     fit-margin-right="0"
     fit-margin-bottom="0" /><g
     id="g10"
     inkscape:groupmode="layer"
     inkscape:label="Teuns website diensten drawings_4"
     transform="matrix(1.25,0,0,-1.25,-647.7617,2930.5105)"><g
       id="g12"
       transform="matrix(1600,0,0,2560,10,20)"><path
         style="fill:#000000"
         d="m 0.70320848,0.80082619 c -0.002112,5.0554e-4 -0.0101603,0.004813 -0.0161004,0.008616 -0.009688,0.006203 -0.0182995,0.0134858 -0.0263445,0.0222782 -0.004839,0.005289 -0.006869,0.008278 -0.006017,0.008862 4.8556e-4,3.3339e-4 0.002128,-8.7864e-4 0.002128,-0.00157 0,-8.4154e-4 0.007327,-0.009176 0.0121485,-0.0138174 0.00476,-0.004583 0.0150801,-0.0124545 0.0208064,-0.0158698 0.005136,-0.003063 0.0138219,-0.007535 0.015284,-0.007868 5.5107e-4,-1.2569e-4 6.1675e-4,-3.1979e-4 1.9863e-4,-5.865e-4 -3.9669e-4,-2.5302e-4 -0.001165,-2.6931e-4 -0.002104,-4.459e-5 z"
         id="path4252"
         inkscape:connector-curvature="0" /><path
         style="fill:#000000"
         d="m 0.70527648,0.80489819 c -6.6781e-4,0.002784 0.001279,0.00832 0.005144,0.0146326 0.008559,0.013976 0.0105691,0.0181659 0.0149015,0.0310547 0.005899,0.0175477 0.007205,0.022585 0.008765,0.0337891 5.5319e-4,0.003975 0.001418,0.008369 0.001921,0.009766 0.001026,0.002845 0.003146,0.005859 0.004121,0.005859 3.5319e-4,0 4.9513e-4,3.5139e-4 3.1544e-4,7.8086e-4 -4.3556e-4,0.001041 6.0394e-4,0.001404 0.001119,3.9077e-4 2.4638e-4,-4.8513e-4 -7.693e-5,-0.001283 -8.3293e-4,-0.002056 -0.002121,-0.002169 -0.003186,-0.00525 -0.004479,-0.0129547 -0.002424,-0.0144436 -0.003782,-0.0193531 -0.0110264,-0.0398715 -0.003317,-0.009396 -0.004738,-0.0123428 -0.013554,-0.028125 -0.003548,-0.006351 -0.005257,-0.0116648 -0.00447,-0.013902 3.0431e-4,-8.6602e-4 1.7337e-4,-0.001137 -5.4931e-4,-0.001137 -6.4669e-4,0 -0.001084,5.6485e-4 -0.001374,0.001774 z"
         id="path4250"
         inkscape:connector-curvature="0" /><path
         style="fill:#000000"
         d="m 0.45371917,0.80746719 c -0.0129863,0.006439 -0.0273478,0.0172537 -0.0372883,0.0280793 -0.004932,0.005371 -0.006167,0.006956 -0.006647,0.008527 -5.7308e-4,0.001877 7.4328e-4,0.001409 0.002051,-7.2993e-4 0.001305,-0.002135 0.0106028,-0.012345 0.0136817,-0.0150241 0.004231,-0.003682 0.0116731,-0.009365 0.0160468,-0.0122549 0.004952,-0.003272 0.0155351,-0.008939 0.0176562,-0.009454 0.001828,-4.4435e-4 0.001809,-0.001142 -3.131e-5,-0.001142 -7.9066e-4,0 -0.003252,8.9945e-4 -0.005469,0.001999 z"
         id="path4248"
         inkscape:connector-curvature="0" /><path
         style="fill:#000000"
         d="m 0.46038017,0.80843005 c -6.6582e-4,0.001084 -4.0847e-4,0.004715 5.2902e-4,0.007462 0.001066,0.003125 0.002689,0.006104 0.007454,0.0136835 0.00472,0.007508 0.007453,0.0134445 0.0111051,0.024124 0.00655,0.0191538 0.00744,0.0225017 0.0093,0.0349719 0.001593,0.0106865 0.002979,0.0144899 0.005815,0.0159608 5.028e-4,2.608e-4 7.6979e-4,8.1929e-4 5.9331e-4,0.001241 -1.7739e-4,4.2397e-4 -8.8e-6,7.6688e-4 3.7703e-4,7.6688e-4 0.001096,0 8.1721e-4,-0.00178 -5.0177e-4,-0.0032 -0.001899,-0.002045 -0.002457,-0.003906 -0.004448,-0.01484 -0.002117,-0.0116232 -0.002693,-0.0138756 -0.006627,-0.025905 -0.006217,-0.0190107 -0.008511,-0.0243089 -0.0156147,-0.0360631 -0.004673,-0.007732 -0.005876,-0.0105981 -0.0063,-0.0150111 -3.4898e-4,-0.003625 -8.4085e-4,-0.004558 -0.001681,-0.003191 z"
         id="path4246"
         inkscape:connector-curvature="0" /><path
         style="fill:#000000"
         d="m 0.69171832,0.81468172 c -2.1575e-4,1.3485e-4 2.4569e-4,0.001149 0.001025,0.002254 7.7969e-4,0.001105 0.001769,0.003415 0.002198,0.005134 4.2944e-4,0.001719 0.001884,0.0057 0.003233,0.008847 0.001348,0.003147 0.002452,0.005888 0.002452,0.006091 0,7.2168e-4 -0.004193,0.001701 -0.01375,0.003213 -0.005328,8.4256e-4 -0.0107331,0.001806 -0.0120112,0.00214 -0.002755,7.2106e-4 -0.003853,7.7545e-4 -0.003245,1.6082e-4 3.0406e-4,-3.0751e-4 -6.25e-5,-3.8698e-4 -0.001173,-2.5433e-4 -0.001565,1.8703e-4 -0.001637,1.08e-4 -0.002321,-0.00258 -9.0356e-4,-0.003549 -0.001019,-0.00375 -0.002168,-0.00375 -5.2643e-4,0 -9.5231e-4,2.1973e-4 -9.4643e-4,4.8828e-4 2.625e-5,0.001208 0.002491,0.006302 0.003178,0.006568 5.0262e-4,1.9418e-4 2.6506e-4,3.406e-4 -6.9475e-4,4.2821e-4 -8.0219e-4,7.321e-5 -0.001559,3.2415e-4 -0.001682,5.5764e-4 -4.2693e-4,8.1167e-4 0.005407,5.806e-4 0.0100021,-3.962e-4 0.002474,-5.2586e-4 0.006889,-0.001319 0.009811,-0.001762 0.0129418,-0.001964 0.0175,-0.003104 0.0175,-0.004378 0,-3.6293e-4 -0.001119,-0.003203 -0.002488,-0.006312 -0.001368,-0.003109 -0.002933,-0.007386 -0.003478,-0.009505 -0.001195,-0.004646 -0.0038,-0.00797 -0.005442,-0.006944 z"
         id="path4236"
         inkscape:connector-curvature="0" /><path
         style="fill:#000000"
         d="m 0.44658697,0.81950772 c -2.2032e-4,2.228e-4 1.928e-4,0.001242 9.1803e-4,0.002265 7.2523e-4,0.001023 0.001849,0.003706 0.002497,0.005962 6.4797e-4,0.002256 0.002039,0.006035 0.003091,0.008398 0.001052,0.002363 0.002066,0.00465 0.002253,0.005081 5.1093e-4,0.001178 -0.00213,0.001955 -0.0120115,0.003532 -0.004755,7.5882e-4 -0.0107133,0.001823 -0.0132408,0.002366 -0.002528,5.4226e-4 -0.004754,8.8682e-4 -0.004948,7.6569e-4 -1.9381e-4,-1.2113e-4 -2.425e-5,-2.2024e-4 3.7678e-4,-2.2024e-4 4.0105e-4,0 7.2917e-4,-1.7371e-4 7.2917e-4,-3.8602e-4 0,-2.1231e-4 -6.3281e-4,-3.4415e-4 -0.001406,-2.9297e-4 -0.001301,8.608e-5 -0.001462,-1.4119e-4 -0.002147,-0.003032 -4.0732e-4,-0.001719 -7.5889e-4,-0.003169 -7.8125e-4,-0.003223 -2.237e-5,-5.371e-5 -4.6252e-4,-9.766e-5 -9.7815e-4,-9.766e-5 -5.3651e-4,0 -9.375e-4,3.5181e-4 -9.375e-4,8.2252e-4 0,0.001388 0.001928,0.005586 0.002866,0.00624 7.7872e-4,5.428e-4 7.2362e-4,6.1325e-4 -4.5826e-4,5.8594e-4 -7.3888e-4,-1.707e-5 -0.001466,1.8868e-4 -0.001615,4.5724e-4 -4.4327e-4,7.9694e-4 0.005627,5.9328e-4 0.0100085,-3.358e-4 0.002138,-4.5325e-4 0.006558,-0.001245 0.009824,-0.001759 0.0100312,-0.001579 0.0122226,-0.002 0.0149739,-0.002878 0.002138,-6.8169e-4 0.002598,-0.001012 0.002362,-0.001697 -1.606e-4,-4.6778e-4 -0.00143,-0.003575 -0.00282,-0.006905 -0.00139,-0.00333 -0.002863,-0.007373 -0.003273,-0.008984 -4.0954e-4,-0.001611 -0.001233,-0.003633 -0.00183,-0.004492 -0.001243,-0.00179 -0.002839,-0.002793 -0.003453,-0.002172 z"
         id="path4234"
         inkscape:connector-curvature="0" /><path
         id="path4224"
         style="fill:#a13a0d;fill-opacity:1"
         d="m 0.69000267,0.83238772 c -0.003119,2.0814e-4 -0.003576,3.6445e-4 -0.004948,0.001694 -9.3063e-4,9.0136e-4 -0.002013,0.001471 -0.002814,0.001482 -0.002436,3.211e-5 -0.00628,0.001123 -0.007428,0.002108 l -0.001145,9.8227e-4 -0.00152,-0.001066 -0.00152,-0.001065 8.7925e-4,0.001367 c 0.001052,0.001636 0.003065,0.002013 0.004127,7.7188e-4 8.5069e-4,-9.9341e-4 0.004194,-0.001944 0.006839,-0.001944 0.001512,0 0.002191,-3.0097e-4 0.003414,-0.001512 0.001424,-0.00141 0.001765,-0.001524 0.00504,-0.001694 0.002112,-1.0949e-4 0.003927,-4.4107e-4 0.004552,-8.3187e-4 0.001178,-7.3629e-4 0.00117,-7.3672e-4 -0.005477,-2.9317e-4 z m -0.002515,-0.00687 c -0.001539,9.2951e-4 -0.004346,0.002869 -0.006236,0.00431 -0.001891,0.001441 -0.004422,0.002975 -0.005625,0.003408 l -0.002188,7.8803e-4 0.002188,-2.1557e-4 c 0.001663,-1.6387e-4 0.003087,-8.1701e-4 0.005937,-0.002723 0.007522,-0.005031 0.009063,-0.006171 0.009063,-0.006709 0,-7.5506e-4 6.87e-6,-7.5748e-4 -0.003139,0.001142 z m -0.001741,-0.003509 c -0.00182,9.3289e-4 -0.003963,0.002295 -0.004763,0.003027 -7.9994e-4,7.3215e-4 -0.002614,0.001911 -0.004031,0.002619 -0.002354,0.001177 -0.00349,0.002814 -0.001952,0.002814 3.4375e-4,0 6.25e-4,-2.489e-4 6.25e-4,-5.5311e-4 0,-3.0421e-4 0.001195,-0.001136 0.002656,-0.001848 0.001461,-7.1212e-4 0.003054,-0.00165 0.003541,-0.002084 4.8669e-4,-4.3387e-4 0.002527,-0.001756 0.004534,-0.002937 0.003443,-0.002027 0.004263,-0.002734 0.003171,-0.002734 -2.6025e-4,0 -0.001962,7.6327e-4 -0.003782,0.001696 z"
         inkscape:connector-curvature="0" /><path
         id="path4222"
         style="fill:#0000df;fill-opacity:1"
         d="m 0.44593873,0.83737672 c -0.004314,2.3488e-4 -0.00515,4.7232e-4 -0.006428,0.001827 -9.4332e-4,9.9925e-4 -0.001823,0.001386 -0.003636,0.001599 -0.003212,3.7658e-4 -0.005684,0.001216 -0.006546,0.002223 -7.0348e-4,8.2155e-4 -7.2355e-4,8.1882e-4 -0.002184,-2.9701e-4 -0.00173,-0.001322 -0.001901,-0.001139 -5.3521e-4,5.7162e-4 0.001184,0.001484 0.002871,0.001591 0.004255,2.7148e-4 9.2267e-4,-8.8011e-4 0.002742,-0.001362 0.007354,-0.001949 0.001023,-1.301e-4 0.002148,-7.3336e-4 0.002948,-0.00158 0.001143,-0.00121 0.00159,-0.00137 0.003845,-0.00137 0.002259,0 0.00624,-8.7858e-4 0.00624,-0.001377 0,-1.8468e-4 -5.7459e-4,-1.7579e-4 -0.005312,8.216e-5 z m -0.004114,-0.006569 c -0.001518,0.00106 -0.004167,0.002979 -0.005886,0.004264 -0.001719,0.001285 -0.004109,0.002705 -0.005312,0.003154 -0.00147,5.4953e-4 -0.001819,8.2065e-4 -0.001063,8.2668e-4 0.00196,1.562e-5 0.004404,-0.001054 0.007625,-0.003335 0.001719,-0.001217 0.004367,-0.003078 0.005886,-0.004135 0.001841,-0.001281 0.002553,-0.002052 0.002136,-0.002312 -4.1667e-4,-2.6042e-4 -0.001545,2.5188e-4 -0.003386,0.001537 z m -0.001791,-0.00345 c -0.00208,0.001082 -0.003782,0.002138 -0.003782,0.002346 0,2.0841e-4 -0.001688,0.001417 -0.00375,0.002687 -0.003789,0.002332 -0.004524,0.003156 -0.002812,0.003156 5.2083e-4,0 9.375e-4,-3.4723e-4 9.375e-4,-7.8126e-4 0,-4.2968e-4 2.8631e-4,-7.8124e-4 6.3624e-4,-7.8124e-4 6.2723e-4,0 0.0137388,-0.008013 0.0137388,-0.008396 0,-5.5887e-4 -0.001556,-4.42e-6 -0.004968,0.00177 z"
         inkscape:connector-curvature="0" /><path
         style="fill:#000000"
         d="m 0.64826335,0.83779287 c 0.001728,0.002098 0.002617,0.004486 0.00476,0.012793 0.001386,0.005371 0.0031,0.0124902 0.003808,0.0158203 7.0875e-4,0.00333 0.001571,0.00713 0.001917,0.008443 3.4538e-4,0.001314 6.2794e-4,0.00294 6.2794e-4,0.003613 0,6.7347e-4 2.8125e-4,0.001224 6.25e-4,0.001224 3.4375e-4,0 6.25e-4,-3.3484e-4 6.25e-4,-7.4409e-4 0,-6.9822e-4 -0.00162,-0.00977 -0.002204,-0.0123418 -1.4637e-4,-6.4453e-4 -8.2668e-4,-0.003721 -0.001512,-0.006836 -0.003999,-0.0181839 -0.00546,-0.0222656 -0.007971,-0.0222656 -5.0475e-4,0 -8.0912e-4,1.3184e-4 -6.7644e-4,2.9297e-4 z"
         id="path4220"
         inkscape:connector-curvature="0" /><path
         style="fill:#000000"
         d="m 0.403125,0.84255932 c 0,2.403e-4 4.1619e-4,8.3391e-4 9.2487e-4,0.001319 0.001309,0.001248 0.007135,0.0233244 0.00878,0.03327 2.1325e-4,0.001289 6.4661e-4,0.002959 9.6301e-4,0.003711 3.164e-4,7.5195e-4 5.7684e-4,0.001974 5.7875e-4,0.002715 2.5e-6,9.3449e-4 2.0311e-4,0.001223 6.5462e-4,9.407e-4 0.001377,-8.6033e-4 -0.007351,-0.039476 -0.009296,-0.0411309 -0.001249,-0.001063 -0.002605,-0.001492 -0.002605,-8.2468e-4 z"
         id="path4218"
         inkscape:connector-curvature="0" /><path
         id="path4206"
         style="fill:#a13a0d;fill-opacity:1"
         d="m 0.69796858,0.85415748 c 0.001613,6.2837e-4 0.0018,0.001607 5.1712e-4,0.002701 -7.0006e-4,5.9702e-4 -0.001647,7.5826e-4 -0.004454,7.5826e-4 -0.002712,0 -0.003732,1.6351e-4 -0.004264,6.8359e-4 -0.00116,0.001135 2.8163e-4,0.002005 0.004046,0.002443 0.005409,6.2942e-4 0.007806,0.001903 0.006059,0.003219 -0.00161,0.001212 -0.0120763,-1.57e-5 -0.0137694,-0.001615 -2.5256e-4,-2.3858e-4 -4.635e-4,-0.001772 -4.6875e-4,-0.003408 -7.5e-6,-0.002419 2.3113e-4,-0.003166 0.00128,-0.003999 0.00217,-0.001724 0.007644,-0.002112 0.0110544,-7.8278e-4 z m -0.0101616,-0.003063 c -0.001378,4.0478e-4 -0.003403,0.001375 -0.0045,0.002156 -0.002065,0.00147 -0.003416,0.004214 -0.0022,0.004467 3.6719e-4,7.649e-5 0.001015,0.001404 0.001439,0.002949 8.76e-4,0.00319 0.002115,0.004315 0.005941,0.005391 0.005518,0.001552 0.0123947,0.001333 0.0150171,-4.7834e-4 0.001807,-0.001248 0.001529,-0.003584 -5.9219e-4,-0.004967 l -0.001747,-0.00114 0.001293,-0.001507 c 0.001656,-0.001931 0.001689,-0.004201 7.6e-5,-0.005209 -0.003397,-0.002123 -0.0104464,-0.002918 -0.0147261,-0.001661 z"
         inkscape:connector-curvature="0" /><path
         id="path4202"
         style="fill:#0000df;fill-opacity:1"
         d="m 0.45249984,0.86418687 c 0,9.0177e-4 -0.001906,0.004564 -0.002368,0.00455 -2.445e-4,-6.99e-6 -0.00162,-0.001018 -0.003056,-0.002246 l -0.002611,-0.002233 0.002924,-2.316e-4 c 0.004836,-3.8313e-4 0.005111,-3.7447e-4 0.005111,1.6064e-4 z m 0.003875,-0.00864 c -4.125e-4,2.5782e-4 -7.5e-4,6.8862e-4 -7.5e-4,9.5734e-4 0,2.6872e-4 -2.9977e-4,0.001362 -6.6617e-4,0.00243 l -6.6617e-4,0.001941 -0.00449,4.4659e-4 c -0.00247,2.4562e-4 -0.005277,6.048e-4 -0.006238,7.9817e-4 -0.001525,3.067e-4 -0.001981,1.9131e-4 -0.003575,-9.0391e-4 -0.001005,-6.9053e-4 -0.001836,-0.001465 -0.001846,-0.001721 -5.1e-5,-0.001296 -0.003143,-8.8772e-4 -0.003143,4.1458e-4 0,0.001315 0.0104518,0.0100939 0.013973,0.011737 0.001576,7.3532e-4 0.001841,7.5137e-4 0.003399,2.0562e-4 0.001399,-4.8987e-4 0.002027,-0.001292 0.003642,-0.004653 0.001074,-0.002234 0.00228,-0.00439 0.002682,-0.004791 0.001033,-0.001034 0.001489,-0.006134 6.0739e-4,-0.006798 -8.7236e-4,-6.5695e-4 -0.001942,-6.8015e-4 -0.002929,-6.349e-5 z"
         inkscape:connector-curvature="0" /><path
         id="path4200"
         style="fill:#000000"
         d="M 0.59328125,0.87057087 C 0.59285156,0.87067957 0.5925,0.87103606 0.5925,0.87136341 c 0,3.5179e-4 3.6052e-4,5.0871e-4 8.8162e-4,3.8373e-4 8.3008e-4,-1.9908e-4 0.004118,0.002353 0.004118,0.003197 0,6.1301e-4 0.001724,0.001306 0.002157,8.6789e-4 4.5629e-4,-4.6143e-4 -0.001013,-0.002403 -0.0032,-0.00423 -0.001541,-0.001287 -0.00178,-0.001363 -0.003176,-0.001011 z m 0.0260947,-0.0617666 c 0,1.1598e-4 5.5017e-4,8.8488e-4 0.001223,0.001709 0.002578,0.003159 0.008502,0.005226 0.0151205,0.005276 0.00378,2.856e-5 0.004302,-6.749e-5 0.005781,-0.001063 0.001788,-0.001204 0.001986,-0.00165 9.1494e-4,-0.002064 -3.9337e-4,-1.5194e-4 -0.001177,1.115e-4 -0.001754,5.8991e-4 -0.001493,0.001237 -0.005321,0.001463 -0.009825,5.7897e-4 -0.002798,-5.4921e-4 -0.004514,-0.001242 -0.00737,-0.002977 -0.003723,-0.002261 -0.00409,-0.002445 -0.00409,-0.00205 z m 0.005807,-7.919e-5 c -7.8421e-4,7.9324e-4 0.001458,0.001132 0.008662,0.001309 0.008085,1.9851e-4 0.0127179,-1.6192e-4 0.0127179,-9.8946e-4 0,-3.7105e-4 -0.002564,-5.0946e-4 -0.0105285,-5.6846e-4 -0.005791,-4.288e-5 -0.010674,6.918e-5 -0.0108518,2.4903e-4 z m -0.0270582,0.0488503 c 0,8.9689e-4 0.001348,0.001608 0.002126,0.001122 2.0549e-4,-1.2842e-4 3.7361e-4,-6.4365e-4 3.7361e-4,-0.001145 0,-6.5104e-4 -3.5714e-4,-9.1145e-4 -0.00125,-9.1145e-4 -9.0176e-4,0 -0.00125,2.6041e-4 -0.00125,9.3476e-4 z m -0.009957,-0.0155568 c 0.007012,0.001265 0.0117416,0.004097 0.0157226,0.009414 0.003728,0.004979 0.002983,0.0114749 -0.001704,0.014864 -0.001739,0.001257 -0.002162,0.00139 -0.003015,9.48e-4 -0.001198,-6.2137e-4 -0.002526,-2.1233e-4 -0.002015,6.2051e-4 3.0682e-4,4.9971e-4 -1.0242e-4,5.6499e-4 -0.002488,3.9691e-4 -0.00347,-2.4444e-4 -0.00411,-5.7322e-4 -0.002526,-0.001297 0.00153,-6.9908e-4 9.0481e-4,-0.001139 -8.32e-4,-5.8511e-4 -7.2097e-4,2.2973e-4 -0.00187,5.9348e-4 -0.002552,8.0832e-4 -6.8284e-4,2.1484e-4 -0.002084,3.9062e-4 -0.003113,3.9062e-4 -0.001884,0 -0.002064,-1.6676e-4 -0.002652,-0.002462 -3.0881e-4,-0.001204 -0.001421,-9.2318e-4 -0.001626,4.1125e-4 -1.0772e-4,6.9825e-4 -3.2986e-4,0.00127 -4.9365e-4,0.00127 -0.001006,0 -0.005384,-0.001709 -0.006027,-0.002353 -4.2431e-4,-4.2464e-4 -0.001093,-7.7208e-4 -0.001486,-7.7208e-4 -0.001222,0 -0.005308,-0.00313 -0.006824,-0.005227 C 0.5644107,0.855505 0.5640567,0.853234 0.5653017,0.850527 0.5685567,0.843448 0.5775468,0.8401037 0.5881681,0.84202 Z m 0.0121594,-0.0531514 c -0.007116,0.002256 -0.0133054,0.004102 -0.0137536,0.004102 -4.4821e-4,0 -9.7681e-4,-2.6367e-4 -0.001175,-5.8594e-4 -5.6677e-4,-9.2311e-4 -0.002229,-6.8497e-4 -0.003046,4.3651e-4 -6.4645e-4,8.8676e-4 -5.7536e-4,0.001108 5.357e-4,0.001671 0.001664,8.4202e-4 0.001874,0.001441 0.003022,0.008593 0.001188,0.007403 0.001268,0.0133681 1.8847e-4,0.0140428 -6.1804e-4,3.8627e-4 -5.931e-4,5.5568e-4 1.2247e-4,8.3208e-4 7.7984e-4,3.0123e-4 7.6294e-4,0.001421 -1.2791e-4,0.00848 -5.6453e-4,0.004473 -8.6987e-4,0.009294 -6.7853e-4,0.0107139 l 3.4787e-4,0.002581 -0.004343,1.9419e-4 c -0.010083,4.509e-4 -0.0175296,0.005086 -0.0193022,0.012014 -0.001037,0.004052 0.002606,0.009403 0.008673,0.0127406 l 0.002888,0.001589 3.1249e-4,0.006025 c 2.692e-4,0.00519 4.5555e-4,0.006043 0.001345,0.006158 9.306e-4,1.203e-4 0.001011,-4.3032e-4 8.1669e-4,-0.005567 -1.1885e-4,-0.003135 -1.5329e-4,-0.0057 -7.655e-5,-0.0057 7.675e-5,1.6e-7 0.001403,3.8399e-4 0.002948,8.5295e-4 0.002525,7.6672e-4 0.002848,0.001021 0.003208,0.002521 4.151e-4,0.00173 0.00174,0.003258 0.002443,0.002818 2.2196e-4,-1.3873e-4 1.4668e-4,-0.001136 -1.673e-4,-0.002215 -5.2815e-4,-0.001816 -4.7267e-4,-0.00198 7.4127e-4,-0.002183 0.002416,-4.0536e-4 0.002875,-2.5427e-4 0.002875,9.4706e-4 0,0.001168 0.004001,0.005463 0.005088,0.005463 0.001041,0 5.1317e-4,-8.9178e-4 -0.001587,-0.002682 -0.001981,-0.001688 -0.002501,-0.002567 -0.002324,-0.003921 5.575e-5,-4.2507e-4 3.5599e-4,-3.8817e-4 0.001332,1.6368e-4 7.7323e-4,4.3735e-4 0.002574,7.806e-4 0.004662,8.8886e-4 l 0.003403,1.7635e-4 0.001011,0.001901 c 5.5578e-4,0.001046 0.001251,0.001994 0.001545,0.002108 0.00115,4.4404e-4 0.001289,-6.9546e-4 3.0967e-4,-0.002538 l -0.001027,-0.001932 0.002206,-0.001211 c 0.005369,-0.002946 0.007523,-0.009623 0.004865,-0.0150775 -0.002102,-0.004315 -0.006691,-0.008579 -0.0116183,-0.0107958 -0.001002,-4.509e-4 -0.003533,-0.001211 -0.005625,-0.001689 -0.002969,-6.7884e-4 -0.003761,-0.001027 -0.003611,-0.001588 2.419e-4,-9.0254e-4 4.7317e-4,-0.003006 0.00144,-0.0131008 l 7.7471e-4,-0.008086 0.003171,-1.985e-4 c 0.001744,-1.0917e-4 0.009177,-2.9732e-4 0.0165174,-4.181e-4 0.00734,-1.2078e-4 0.0138794,-3.9799e-4 0.0145312,-6.1602e-4 6.5182e-4,-2.1802e-4 0.001185,-7.4178e-4 0.001185,-0.001164 0,-8.1869e-4 -0.001217,-0.001022 -0.002251,-3.7651e-4 -3.4408e-4,2.1505e-4 -0.00708,5.5893e-4 -0.0149687,7.6416e-4 -0.007889,2.0525e-4 -0.0152572,4.9072e-4 -0.0163744,6.3439e-4 l -0.002031,2.6123e-4 -1.281e-5,-0.005225 c -7.07e-6,-0.002874 -4.2548e-4,-0.007861 -9.2984e-4,-0.011084 -5.0436e-4,-0.003223 -9.2047e-4,-0.005884 -9.2468e-4,-0.005915 -4.38e-6,-3.039e-5 0.001188,-3.5062e-4 0.002649,-7.1164e-4 0.003895,-9.6252e-4 0.0254688,-0.008467 0.0254688,-0.008859 0,-7.4634e-4 -0.002293,-1.5766e-4 -0.0146728,0.003767 z"
         inkscape:connector-curvature="0" /><path
         id="path4198"
         style="fill:#000000"
         d="m 0.3482292,0.87199187 c -8.303e-4,6.2528e-4 -3.5469e-4,0.001091 8.2542e-4,8.0756e-4 4.9054e-4,-1.1765e-4 0.001588,6.5943e-4 0.002797,0.00198 0.002017,0.002203 0.003148,0.002737 0.003148,0.001486 0,-9.6629e-4 -0.003864,-0.004551 -0.005061,-0.004695 -5.4518e-4,-6.562e-5 -0.001314,1.2413e-4 -0.00171,4.2166e-4 z m 0.0270445,-0.0612111 c 0.001374,0.003421 0.009014,0.006406 0.0163971,0.006406 0.002763,0 0.00367,-1.767e-4 0.004921,-9.5881e-4 0.001553,-9.7071e-4 0.002055,-0.002166 9.0909e-4,-0.002166 -3.4375e-4,0 -0.001188,3.5156e-4 -0.001875,7.8125e-4 -0.001565,9.7811e-4 -0.006026,0.001048 -0.0101975,1.5936e-4 -0.003099,-6.6003e-4 -0.009177,-0.003765 -0.009177,-0.004688 0,-3.0235e-4 -3.1174e-4,-5.4973e-4 -6.9276e-4,-5.4973e-4 -4.3397e-4,0 -5.4038e-4,3.7943e-4 -2.8485e-4,0.001016 z m 0.0049,-8.7443e-4 c -5.9617e-4,6.0305e-4 0.001111,9.2485e-4 0.006296,0.001187 0.004919,2.484e-4 0.0145218,-9.69e-6 0.0155809,-4.1879e-4 2.8412e-4,-1.0975e-4 4.2451e-4,-3.7216e-4 3.1199e-4,-5.8313e-4 -2.5561e-4,-4.7926e-4 -0.0217209,-6.5798e-4 -0.0221887,-1.8474e-4 z m -0.0250486,0.0483749 c -0.001145,7.1582e-4 -8.9424e-4,0.00176 4.7702e-4,0.001984 0.001746,2.8532e-4 0.0028,-6.1901e-4 0.001919,-0.001647 -7.9093e-4,-9.2367e-4 -0.001336,-0.001 -0.002396,-3.3747e-4 z m -0.008189,-0.0144306 c 0.0132765,0.004063 0.0191993,0.0163635 0.0112014,0.023264 -0.001663,0.001435 -0.002087,0.001591 -0.003756,0.001382 -0.001474,-1.843e-4 -0.001881,-9.786e-5 -0.001881,3.9958e-4 0,7.3061e-4 -0.003427,8.8873e-4 -0.005,2.3074e-4 -8.1201e-4,-3.3958e-4 -7.7628e-4,-4.6897e-4 2.6688e-4,-9.6654e-4 6.624e-4,-3.1597e-4 0.001066,-6.6113e-4 8.9628e-4,-7.6704e-4 -3.8444e-4,-2.4027e-4 -0.004465,6.5509e-4 -0.004979,0.001092 -2.0792e-4,1.7707e-4 -0.001333,2.6496e-4 -0.0025,1.9531e-4 -0.001958,-1.1685e-4 -0.002137,-2.3983e-4 -0.002316,-0.001591 -2.4174e-4,-0.001826 -0.001994,-0.002083 -0.001994,-2.9296e-4 0,0.001346 -2.1735e-4,0.001381 -0.002924,4.719e-4 -0.004085,-0.001372 -0.0100622,-0.0051 -0.0118735,-0.007405 -0.003682,-0.004686 -0.001639,-0.0111 0.004633,-0.0145509 0.003708,-0.00204 0.006972,-0.002733 0.0123519,-0.002623 0.003296,6.773e-5 0.005238,3.5392e-4 0.007874,0.001161 z m 0.0111888,-0.0545917 c -0.005672,0.001809 -0.0116752,0.00366 -0.0133408,0.004112 -0.002862,7.7776e-4 -0.003093,7.8635e-4 -0.004207,1.5629e-4 -9.6267e-4,-5.445e-4 -0.001353,-5.7646e-4 -0.002128,-1.7435e-4 -0.001043,5.4083e-4 -0.001309,0.00235 -3.4622e-4,0.00235 0.001183,0 0.001782,0.001439 0.002765,0.006641 0.001365,0.007226 0.001375,0.0127035 5.625e-5,0.0317383 l -4.8041e-4,0.006934 -0.002738,0 c -0.003403,0 -0.009032,0.001208 -0.011817,0.002536 -0.003018,0.001438 -0.005597,0.003962 -0.007179,0.007023 -0.002723,0.005269 -2.5508e-4,0.0105186 0.006991,0.0148686 l 0.003674,0.002206 0,0.005996 c 0,0.005606 4.1861e-4,0.00709 0.00176,0.006241 2.3495e-4,-1.4874e-4 4.0779e-4,-0.002803 3.841e-4,-0.005899 -2.369e-5,-0.003095 1.088e-5,-0.005628 7.68e-5,-0.005628 6.593e-5,0 0.001384,3.4949e-4 0.002929,7.7664e-4 0.002707,7.4847e-4 0.002836,8.6186e-4 0.003548,0.003125 4.9682e-4,0.001578 0.001036,0.002348 0.001645,0.002348 0.001036,0 0.001035,9.1e-6 3.0962e-4,-0.002342 -5.8904e-4,-0.001909 -1.7343e-4,-0.002329 0.002315,-0.002339 0.00111,-4.73e-6 0.001406,2.1403e-4 0.001406,0.001037 0,0.001013 0.004216,0.005587 0.005156,0.005594 0.001022,7.46e-6 3.6379e-4,-0.001123 -0.001719,-0.002954 -0.001203,-0.001058 -0.002188,-0.002319 -0.002188,-0.002803 0,-9.3555e-4 6.0928e-4,-0.001124 0.00161,-4.9891e-4 3.355e-4,2.0968e-4 0.002125,5.1755e-4 0.003978,6.8415e-4 0.003359,3.0217e-4 0.00337,3.0755e-4 0.0044,0.002231 0.001004,0.001875 0.002038,0.002577 0.002745,0.001863 1.9065e-4,-1.9279e-4 -1.9472e-4,-0.001241 -8.5639e-4,-0.002329 l -0.001203,-0.001979 0.002111,-0.001006 c 0.002917,-0.00139 0.005765,-0.00511 0.006299,-0.008225 0.001447,-0.008443 -0.007784,-0.0179735 -0.0191745,-0.0197981 l -0.003017,-4.8319e-4 2.8109e-4,-0.001978 c 1.546e-4,-0.001088 5.8792e-4,-0.005406 9.6293e-4,-0.009595 9.5474e-4,-0.0106661 0.001021,-0.0109363 0.002684,-0.0109432 0.003324,-1.375e-5 0.020692,-4.2402e-4 0.026479,-6.2548e-4 0.00504,-1.7545e-4 0.006574,-3.6823e-4 0.007384,-9.2824e-4 0.001456,-0.001005 4.6771e-4,-0.001194 -0.004113,-7.8594e-4 -0.002204,1.9635e-4 -0.009648,5.3305e-4 -0.0165417,7.4823e-4 -0.006894,2.1518e-4 -0.0129679,4.9524e-4 -0.013498,6.2236e-4 -8.3242e-4,1.9964e-4 -0.001023,-6.0932e-4 -0.001399,-0.00594 -4.311e-4,-0.006104 -0.001348,-0.0130343 -0.001984,-0.014998 -2.9627e-4,-9.1428e-4 -3.306e-5,-0.001085 0.002669,-0.001727 0.00391,-9.2921e-4 0.0247818,-0.008222 0.0250683,-0.008759 4.4492e-4,-8.3422e-4 -0.001659,-3.1392e-4 -0.0117584,0.002908 z"
         inkscape:connector-curvature="0" /><path
         id="path4194"
         style="fill:#000000;fill-opacity:1"
         d="m 0.7007384,0.84551977 c -0.002859,5.0626e-4 -0.006375,0.001195 -0.007813,0.001529 -0.002845,6.6289e-4 -0.0134127,0.001769 -0.0196513,0.002056 -0.002814,1.2972e-4 -0.004062,3.6286e-4 -0.004444,8.3043e-4 -6.1532e-4,7.5348e-4 2e-5,0.004535 0.001422,0.008463 5.3675e-4,0.001504 9.8075e-4,0.003262 9.8663e-4,0.003906 1.25e-5,0.00136 0.002576,0.006055 0.003306,0.006055 0.001102,0 0.001214,-0.00137 2.5219e-4,-0.003075 -5.6088e-4,-9.9434e-4 -0.001184,-0.002599 -0.001385,-0.003566 -2.0094e-4,-9.668e-4 -7.5281e-4,-0.0029 -0.001226,-0.004297 -4.7363e-4,-0.001396 -0.001028,-0.003462 -0.001232,-0.00459 l -3.715e-4,-0.002051 0.002369,0 c 0.001303,0 0.003323,-1.7095e-4 0.004489,-3.799e-4 0.001166,-2.0894e-4 0.004398,-5.6633e-4 0.007183,-7.9419e-4 0.002785,-2.2786e-4 0.007173,-8.4302e-4 0.009751,-0.001367 0.008387,-0.001705 0.0111359,-0.002146 0.0133566,-0.002146 0.002356,0 0.002495,1.294e-4 0.0032,0.002969 4.8675e-4,0.001962 0.002119,0.00518 0.007512,0.014804 0.005377,0.009595 0.00507,0.008817 0.003724,0.009432 -0.001111,5.0763e-4 -0.001092,6.561e-4 5.2769e-4,0.004161 9.2369e-4,0.001999 0.001679,0.003868 0.001679,0.004153 0,4.0412e-4 -8.4231e-4,4.5932e-4 -0.003808,2.4959e-4 -0.002094,-1.481e-4 -0.004511,-4.363e-4 -0.00537,-6.4044e-4 -0.001467,-3.4869e-4 -0.001536,-4.8918e-4 -0.001133,-0.00232 3.5544e-4,-0.001615 2.6301e-4,-0.001949 -5.395e-4,-0.001949 -5.3256e-4,0 -0.001979,-4.2884e-4 -0.003215,-9.5297e-4 -0.001236,-5.2413e-4 -0.00385,-0.001145 -0.005809,-0.00138 -0.009101,-0.00109 -0.0230678,-0.003868 -0.0306995,-0.006106 -0.003185,-9.3403e-4 -0.003425,-9.5182e-4 -0.00401,-2.9813e-4 -6.1388e-4,6.8554e-4 -6.4619e-4,0.004801 -4.75e-5,0.006066 3.3424e-4,7.0661e-4 0.009913,0.003842 0.0117371,0.003842 7.2712e-4,0 0.001466,-5.4871e-4 0.002103,-0.001563 5.4012e-4,-8.5938e-4 0.001361,-0.001563 0.001825,-0.001563 0.001141,0 0.001072,-7.5088e-4 -9.482e-5,-0.001031 -0.001353,-3.2441e-4 -0.001207,-0.001452 1.5625e-4,-0.00121 0.0112294,0.001993 0.0113912,0.002057 0.0108834,0.004292 -2.8675e-4,0.001262 -0.001367,0.001356 -0.00606,5.2407e-4 -0.00678,-0.001201 -0.006468,-0.001196 -0.004366,-7.485e-5 0.001143,6.0977e-4 0.003557,0.001235 0.006242,0.001617 0.004326,6.1497e-4 0.004391,6.1225e-4 0.00548,-2.279e-4 6.0588e-4,-4.6766e-4 0.001102,-0.001469 0.001102,-0.002224 l 0,-0.001374 0.002656,2.6108e-4 c 0.004686,4.6057e-4 0.0074,0.001028 0.006974,0.001459 -2.2394e-4,2.2646e-4 -0.001191,3.1372e-4 -0.00215,1.9391e-4 -0.001658,-2.0729e-4 -0.002963,4.8849e-4 -0.002021,0.001078 7.2825e-4,4.5517e-4 0.00384,2.2497e-4 0.004763,-3.5243e-4 5.1563e-4,-3.2227e-4 0.001076,-5.8594e-4 0.001245,-5.8594e-4 6.6682e-4,0 0.001123,0.002443 5.2563e-4,0.002816 -5.48e-4,3.4247e-4 -0.004256,-2.3373e-4 -0.009963,-0.001548 -4.2968e-4,-9.897e-5 -7.8125e-4,2.211e-5 -7.8125e-4,2.6905e-4 0,6.4726e-4 0.00746,0.002759 0.009748,0.002759 0.001064,1.6e-7 0.002768,2.6003e-4 0.003786,5.7747e-4 0.002256,7.0348e-4 0.0110361,0.001563 0.0124654,0.00122 8.5063e-4,-2.04e-4 9.6119e-4,-5.8954e-4 6.2432e-4,-0.002177 -2.2519e-4,-0.001061 -8.5725e-4,-0.002684 -0.001405,-0.003607 -5.4731e-4,-9.2276e-4 -0.001074,-0.002996 -0.001171,-0.004607 -1.4694e-4,-0.002448 -0.001005,-0.004487 -0.005217,-0.0123962 -0.002773,-0.005207 -0.005367,-0.0106558 -0.005764,-0.0121094 -3.9775e-4,-0.001454 -9.7913e-4,-0.00295 -0.001292,-0.003326 -7.8869e-4,-9.4775e-4 -0.004548,-8.439e-4 -0.0110365,3.0491e-4 z M 0.679504,0.87129087 c 0.003436,8.5629e-4 0.004056,0.001141 0.003437,0.001578 -6.29e-4,4.4485e-4 -8.9619e-4,4.0671e-4 -0.001611,-2.3003e-4 -4.7162e-4,-4.1982e-4 -0.001263,-7.633e-4 -0.00176,-7.633e-4 -0.00164,0 -0.003285,7.7416e-4 -0.002918,0.001373 4.2144e-4,6.8637e-4 0.002097,7.8327e-4 0.002097,1.2127e-4 0,-2.523e-4 7.0312e-4,-4.587e-5 0.001563,4.5871e-4 0.001705,0.001001 0.002053,0.002251 7.1687e-4,0.002571 -4.6506e-4,1.1154e-4 -0.002784,-3.8269e-4 -0.005153,-0.001098 l -0.004308,-0.001301 -5.2494e-4,-0.002061 c -7.56e-4,-0.002969 -3.1706e-4,-0.003454 0.002238,-0.002473 0.001117,4.2887e-4 0.003918,0.00125 0.006223,0.001824 z m 0.014246,0.003682 c 0,3.8139e-4 -6.67e-4,4.6426e-4 -0.0025,3.1061e-4 -0.002171,-1.8203e-4 -0.0025,-1.1015e-4 -0.0025,5.4676e-4 0,8.667e-4 0.00143,0.001343 0.002626,8.7384e-4 4.4619e-4,-1.7481e-4 0.001305,-2.6702e-4 0.001909,-2.0492e-4 0.001333,1.3705e-4 0.002156,-9.8924e-4 0.001173,-0.001604 -5.2731e-4,-3.2958e-4 -7.08e-4,-3.0975e-4 -7.08e-4,7.769e-5 z m 0.0231396,0.002555 c -0.001228,9.2448e-4 -5.125e-4,0.001962 0.001366,0.001982 9.2194e-4,9.8e-6 0.002207,3.1782e-4 0.002855,6.8444e-4 0.001081,6.1169e-4 0.002015,5.4943e-4 0.002015,-1.344e-4 0,-1.5316e-4 -0.001236,-9.1138e-4 -0.002746,-0.001685 -0.002319,-0.001188 -0.002862,-0.00132 -0.003489,-8.4707e-4 z"
         inkscape:connector-curvature="0" /><path
         style="fill:#000000"
         d="m 0.41729163,0.88346396 c -7.7444e-4,4.8402e-4 -4.2316e-4,9.1145e-4 7.4907e-4,9.1145e-4 6.4117e-4,0 0.004658,0.001476 0.008926,0.00328 0.0100345,0.004242 0.0334521,0.0129933 0.0444871,0.0166259 0.009748,0.003209 0.0138963,0.004161 0.0151962,0.003486 0.001133,-5.8762e-4 4.8148e-4,-0.001127 -0.001361,-0.001127 -0.002167,0 -0.005305,-8.5312e-4 -0.0157626,-0.004285 -0.0112445,-0.003691 -0.0277795,-0.009859 -0.0407121,-0.015187 -0.009312,-0.003836 -0.0106319,-0.004261 -0.0115219,-0.003705 z"
         id="path4184"
         inkscape:connector-curvature="0" /><path
         id="path4174"
         style="fill:#009a00;fill-opacity:1"
         d="m 0.47818287,0.89186696 c -3.1956e-4,4.9869e-4 -7.4595e-4,0.001231 -9.4753e-4,0.001627 -2.0157e-4,3.9637e-4 -9.2758e-4,8.1238e-4 -0.001613,9.2446e-4 -0.001616,2.6419e-4 -0.001614,8.9392e-4 3.16e-6,8.9392e-4 0.001052,0 0.001252,2.6241e-4 0.00126,0.00166 5e-6,9.1308e-4 2.8221e-4,0.001924 6.1543e-4,0.002246 4.3819e-4,4.2379e-4 6.0851e-4,7.245e-5 6.1543e-4,-0.00127 1.069e-5,-0.002072 6.4706e-4,-0.00229 0.003135,-0.001074 8.5937e-4,4.2013e-4 0.001773,7.6779e-4 0.002031,7.7256e-4 0.001077,1.996e-5 2.8486e-4,-6.4861e-4 -0.002046,-0.001726 -0.001367,-6.3203e-4 -0.002485,-0.001453 -0.002485,-0.001824 0,-0.001193 6.9464e-4,-0.001869 0.001678,-0.001633 6.7884e-4,1.6281e-4 8.8457e-4,1.801e-5 7.2235e-4,-5.0846e-4 -3.3924e-4,-0.001101 -0.002281,-0.001159 -0.002967,-8.929e-5 z m -0.0224662,-0.001748 c -4.6066e-4,5.1448e-4 -7.9098e-4,5.6378e-4 -0.001458,2.1765e-4 -5.1313e-4,-2.6616e-4 -0.001212,-3.1262e-4 -0.001724,-1.1465e-4 -7.1542e-4,2.7635e-4 -6.8535e-4,4.4302e-4 1.7721e-4,9.8212e-4 5.7137e-4,3.5711e-4 0.001039,9.7792e-4 0.001039,0.00138 0,0.00143 0.001314,0.001225 0.002311,-3.6129e-4 0.00141,-0.002243 0.003233,-0.002192 0.004764,1.3498e-4 0.002175,0.003305 0.004429,0.004111 0.008952,0.0032 0.002042,-4.1151e-4 0.004357,-0.004541 0.002546,-0.004541 -0.001055,0 -0.001697,8.0268e-4 -0.001697,0.00212 0,0.001137 -0.001912,0.002255 -0.003083,0.001803 -4.766e-4,-1.8409e-4 -0.001206,-2.5341e-4 -0.00162,-1.5403e-4 -9.8132e-4,2.3535e-4 -0.003753,-0.001837 -0.004741,-0.003545 -0.001017,-0.001758 -0.004292,-0.002429 -0.005464,-0.00112 z m -0.007748,-0.001804 c -0.001213,8.3056e-4 -0.001428,0.00153 -4.6875e-4,0.00153 3.4375e-4,0 6.25e-4,2.6367e-4 6.25e-4,5.8594e-4 0,0.00107 0.001088,6.054e-4 0.001484,-6.3477e-4 7.8088e-4,-0.00244 3.4087e-4,-0.002838 -0.001641,-0.001481 z m -0.0173217,-0.004746 c -0.00108,0.001261 -8.1424e-4,0.003147 4.4676e-4,0.003174 6.0156e-4,1.27e-5 0.002359,4.1582e-4 0.003906,8.9587e-4 0.002373,7.3646e-4 0.002794,0.001038 0.002695,0.00193 -6.472e-5,5.8149e-4 1.4622e-4,0.001057 4.6875e-4,0.001057 3.2252e-4,0 5.8798e-4,-3.0761e-4 5.899e-4,-6.8359e-4 6.56e-6,-0.001292 0.001306,-0.003613 0.002023,-0.003613 3.9472e-4,0 0.00155,4.834e-4 0.002567,0.001074 0.001814,0.001054 0.001753,5.6611e-4 -9.814e-5,-7.8125e-4 -0.001179,-8.5776e-4 -0.004248,-8.9049e-4 -0.004998,-5.328e-5 -5.1932e-4,5.7998e-4 -8.4148e-4,5.7996e-4 -0.004035,-2.7e-7 -0.002964,-5.3854e-4 -0.003422,-7.4544e-4 -0.003141,-0.001418 1.8113e-4,-4.329e-4 5.7663e-4,-8.8261e-4 8.7888e-4,-9.9936e-4 7.4274e-4,-2.869e-4 7.0075e-4,-0.001338 -5.343e-5,-0.001338 -3.3166e-4,0 -8.9416e-4,3.4001e-4 -0.00125,7.5557e-4 z"
         inkscape:connector-curvature="0" /><path
         id="path4186-3"
         style="fill:#009a00;fill-opacity:1"
         d="m 0.67559697,0.87914365 c -0.00108,0.001261 -8.1424e-4,0.003147 4.4676e-4,0.003174 6.0156e-4,1.27e-5 0.002359,4.1582e-4 0.003906,8.9587e-4 0.002373,7.3646e-4 0.002794,0.001038 0.002695,0.00193 -6.472e-5,5.8149e-4 1.4622e-4,0.001057 4.6875e-4,0.001057 3.2252e-4,0 5.8798e-4,-3.0761e-4 5.899e-4,-6.8359e-4 6.56e-6,-0.001292 0.001306,-0.003613 0.002023,-0.003613 3.9472e-4,0 0.00155,4.834e-4 0.002567,0.001074 0.001814,0.001054 0.001753,5.6611e-4 -9.814e-5,-7.8125e-4 -0.001179,-8.5776e-4 -0.004248,-8.9049e-4 -0.004998,-5.328e-5 -5.1932e-4,5.7998e-4 -8.4148e-4,5.7996e-4 -0.004035,-2.7e-7 -0.002964,-5.3854e-4 -0.003422,-7.4544e-4 -0.003141,-0.001418 1.8113e-4,-4.329e-4 5.7663e-4,-8.8261e-4 8.7888e-4,-9.9936e-4 7.4274e-4,-2.869e-4 7.0075e-4,-0.001338 -5.343e-5,-0.001338 -3.3166e-4,0 -8.9416e-4,3.4001e-4 -0.00125,7.5557e-4 z m 0.0478988,0.007642 C 0.72294812,0.88727398 0.7225,0.88805368 0.7225,0.88851792 c 0,5.3682e-4 -5.1194e-4,9.4006e-4 -0.001406,0.001108 -0.001352,2.5356e-4 -0.001359,2.7538e-4 -1.685e-4,5.7052e-4 9.1606e-4,2.2713e-4 0.001258,7.0339e-4 0.001315,0.001833 1.1525e-4,0.002266 1.9975e-4,0.002502 8.9638e-4,0.002502 3.6218e-4,0 4.7262e-4,-4.09e-4 2.5606e-4,-9.4837e-4 -2.095e-4,-5.216e-4 -1.9294e-4,-0.001318 3.687e-5,-0.001771 l 4.1769e-4,-8.2248e-4 0.002056,7.9428e-4 c 0.003225,0.001246 0.003418,9.0334e-4 4.1806e-4,-7.4332e-4 -0.002356,-0.001293 -0.002681,-0.001652 -0.002318,-0.002558 2.9456e-4,-7.3356e-4 7.13e-4,-9.841e-4 0.001378,-8.2473e-4 7.0413e-4,1.6887e-4 9.0213e-4,6.95e-6 7.5506e-4,-6.1748e-4 -2.7987e-4,-0.001188 -0.001467,-0.001303 -0.002641,-2.5512e-4 z m -0.0220589,-0.001643 c -7.7912e-4,5.6873e-4 -0.00126,6.5844e-4 -0.001861,3.4692e-4 -4.455e-4,-2.3109e-4 -0.001236,-3.1813e-4 -0.001756,-1.9341e-4 -0.001135,2.7228e-4 -0.001276,0.001074 -1.6419e-4,9.3486e-4 4.7012e-4,-5.876e-5 8.6037e-4,4.1735e-4 9.7994e-4,0.001195 2.6306e-4,0.001712 0.001892,0.001531 0.002846,-3.1651e-4 0.001158,-0.002243 0.002972,-0.002039 0.004673,5.2631e-4 7.7419e-4,0.001167 0.00197,0.002441 0.002658,0.00283 0.002664,0.001507 0.008687,9.707e-5 0.008687,-0.002034 0,-4.8698e-4 2.8125e-4,-9.9406e-4 6.25e-4,-0.001127 0.001057,-4.0825e-4 6.9319e-4,-9.7656e-4 -6.25e-4,-9.7656e-4 -8.7688e-4,0 -0.001253,2.6233e-4 -0.001259,8.7891e-4 -1.875e-5,0.001788 -0.001422,0.002829 -0.003874,0.002873 -0.002005,3.59e-5 -0.002519,-1.63e-4 -0.004201,-0.001626 -0.001054,-9.1701e-4 -0.001916,-0.001926 -0.001916,-0.002242 0,-5.0263e-4 -0.002485,-0.001837 -0.003422,-0.001837 -1.8732e-4,0 -8.135e-4,3.452e-4 -0.001392,7.671e-4 z m -0.008213,-0.001549 c -0.001615,0.001365 -0.001658,0.001563 -3.45e-4,0.001563 6.36e-4,0 8.7244e-4,2.1491e-4 6.4463e-4,5.8594e-4 -1.9788e-4,3.2226e-4 -1.0631e-4,5.8594e-4 2.035e-4,5.8594e-4 0.001032,0 0.002224,-0.003343 0.001317,-0.003694 -2.5862e-4,-9.991e-5 -0.001077,3.3167e-4 -0.00182,9.5906e-4 z"
         inkscape:connector-curvature="0" /><path
         inkscape:connector-curvature="0"
         style="fill:#000000"
         d="m 0.66224167,0.87903913 c -7.7444e-4,4.8402e-4 -4.2316e-4,9.1145e-4 7.4907e-4,9.1145e-4 6.4117e-4,0 0.004658,0.001476 0.008926,0.00328 0.0100345,0.004242 0.0334521,0.0129933 0.0444871,0.0166259 0.009748,0.00321 0.0138963,0.00416 0.0151962,0.00349 0.001133,-5.876e-4 4.8149e-4,-0.00113 -0.001361,-0.00113 -0.002167,0 -0.005305,-8.531e-4 -0.0157626,-0.00429 -0.0112445,-0.003691 -0.0277795,-0.009859 -0.0407121,-0.015187 -0.009312,-0.003836 -0.0106319,-0.004261 -0.0115219,-0.003705 z"
         id="path4184-6" /><path
         inkscape:connector-curvature="0"
         id="path4660-3-6"
         style="fill:#a13a0d;fill-opacity:1"
         d="m 0.69375,0.87497399 c 0,3.814e-4 -6.67e-4,4.643e-4 -0.0025,3.107e-4 -0.002171,-1.821e-4 -0.0025,-1.102e-4 -0.0025,5.467e-4 0,8.667e-4 0.00143,0.00134 0.002626,8.739e-4 4.4619e-4,-1.749e-4 0.001305,-2.671e-4 0.001909,-2.05e-4 0.001333,1.371e-4 0.002156,-9.892e-4 0.001173,-0.0016 -5.2731e-4,-3.295e-4 -7.08e-4,-3.097e-4 -7.08e-4,7.77e-5 z m 0.0231396,0.00256 c -0.001228,9.245e-4 -5.125e-4,0.00196 0.001366,0.00198 9.2194e-4,9.8e-6 0.002207,3.179e-4 0.002855,6.845e-4 0.001081,6.117e-4 0.002015,5.494e-4 0.002015,-1.344e-4 0,-1.532e-4 -0.001236,-9.114e-4 -0.002746,-0.00168 -0.002319,-0.00119 -0.002862,-0.00132 -0.003489,-8.471e-4 z" /><path
         style="fill:#a13a0d;fill-opacity:1"
         d="M 0.681712,0.87461357 C 0.680414,0.87450305 0.680248,0.87342857 0.679256,0.87356957 0.677259,0.8741385 0.676369,0.87374289 0.676264,0.87308928 c -1.3857e-4,-8.6236e-4 0.002554,-0.001616 0.003818,-0.001227 4.7192e-4,1.4616e-4 4.1306e-4,4.2802e-4 0.001004,3.2851e-4 0.001304,-2.1966e-4 0.002303,8.496e-4 0.001423,0.001519 -4.7199e-4,3.6078e-4 3.8058e-4,8.3146e-4 -6.7654e-4,9.3351e-4 z"
         id="path4778"
         inkscape:connector-curvature="0"
         sodipodi:nodetypes="cccccccc" /><path
         style="fill:#a13a0d;fill-opacity:1"
         d="m 0.70414188,0.87870452 c -7.8228e-4,-9.7729e-4 1.9811e-4,-0.001801 0.001872,-0.001575 8.2189e-4,1.1097e-4 0.002066,5.02e-6 0.002763,-2.3536e-4 0.001164,-4.0114e-4 0.001973,-2.248e-4 0.001745,3.8041e-4 -5.106e-5,1.356e-4 -0.001401,6.4629e-4 -0.002998,0.001131 -0.002456,7.5233e-4 -0.002981,7.9693e-4 -0.00338,2.9702e-4 z"
         id="path4660-3-2"
         inkscape:connector-curvature="0" /><path
         inkscape:connector-curvature="0"
         id="path4194-1"
         style="fill:#000000;fill-opacity:1"
         d="m 0.45546563,0.85022022 c -0.002859,5.0626e-4 -0.006375,0.001195 -0.007813,0.001529 -0.002845,6.6289e-4 -0.0134127,0.001769 -0.0196513,0.002056 -0.002814,1.2972e-4 -0.004062,3.6286e-4 -0.004444,8.3043e-4 -6.1532e-4,7.5348e-4 2e-5,0.004535 0.001422,0.008463 5.3675e-4,0.001504 9.8075e-4,0.003262 9.8663e-4,0.003906 1.25e-5,0.00136 0.002576,0.006055 0.003306,0.006055 0.001102,0 0.001214,-0.00137 2.5219e-4,-0.003075 -5.6088e-4,-9.9434e-4 -0.001184,-0.002599 -0.001385,-0.003566 -2.0094e-4,-9.668e-4 -7.5281e-4,-0.0029 -0.001226,-0.004297 -4.7363e-4,-0.001396 -0.001028,-0.003462 -0.001232,-0.00459 l -3.715e-4,-0.002051 0.002369,0 c 0.001303,0 0.003323,-1.7095e-4 0.004489,-3.799e-4 0.001166,-2.0894e-4 0.004398,-5.6633e-4 0.007183,-7.9419e-4 0.002785,-2.2786e-4 0.007173,-8.4302e-4 0.009751,-0.001367 0.008387,-0.001705 0.0111359,-0.002146 0.0133566,-0.002146 0.002356,0 0.002495,1.294e-4 0.0032,0.002969 4.8675e-4,0.001962 0.002119,0.00518 0.007512,0.014804 0.005377,0.009595 0.00507,0.008817 0.003724,0.009432 -0.001111,5.0763e-4 -0.001092,6.561e-4 5.2769e-4,0.004161 9.2369e-4,0.002 0.001679,0.00387 0.001679,0.00415 0,4.041e-4 -8.4231e-4,4.593e-4 -0.003808,2.496e-4 -0.002094,-1.481e-4 -0.004511,-4.363e-4 -0.00537,-6.404e-4 -0.001467,-3.487e-4 -0.001536,-4.892e-4 -0.001133,-0.00232 3.5544e-4,-0.00162 2.6301e-4,-0.00195 -5.395e-4,-0.00195 -5.3256e-4,0 -0.001979,-4.289e-4 -0.003215,-9.53e-4 -0.001236,-5.2415e-4 -0.00385,-0.001145 -0.005809,-0.00138 -0.009101,-0.00109 -0.0230678,-0.003868 -0.0306995,-0.006106 -0.003185,-9.3403e-4 -0.003425,-9.5182e-4 -0.00401,-2.9813e-4 -6.1388e-4,6.8554e-4 -6.4619e-4,0.004801 -4.75e-5,0.006066 3.3424e-4,7.0661e-4 0.009913,0.003842 0.0117371,0.003842 7.2712e-4,0 0.001466,-5.488e-4 0.002103,-0.00156 5.4012e-4,-8.5943e-4 0.001361,-0.001563 0.001825,-0.001563 0.001141,0 0.001072,-7.5088e-4 -9.482e-5,-0.001031 -0.001353,-3.2441e-4 -0.001207,-0.001452 1.5625e-4,-0.00121 0.0112294,0.001993 0.0113912,0.002057 0.0108834,0.004292 -2.8675e-4,0.00126 -0.001367,0.00136 -0.00606,5.24e-4 -0.00678,-0.0012 -0.006468,-0.0012 -0.004366,-7.48e-5 0.001143,6.097e-4 0.003557,0.00124 0.006242,0.00162 0.004326,6.149e-4 0.004391,6.122e-4 0.00548,-2.279e-4 6.0588e-4,-4.677e-4 0.001102,-0.00147 0.001102,-0.00222 l 0,-0.001374 0.002656,2.6108e-4 c 0.004686,4.6055e-4 0.0074,0.001028 0.006974,0.001459 -2.2394e-4,2.264e-4 -0.001191,3.137e-4 -0.00215,1.939e-4 -0.001658,-2.073e-4 -0.002963,4.885e-4 -0.002021,0.00108 7.2825e-4,4.551e-4 0.00384,2.249e-4 0.004763,-3.525e-4 5.1563e-4,-3.222e-4 0.001076,-5.859e-4 0.001245,-5.859e-4 6.6682e-4,0 0.001123,0.00244 5.2563e-4,0.00282 -5.48e-4,3.425e-4 -0.004256,-2.337e-4 -0.009963,-0.00155 -4.2968e-4,-9.9e-5 -7.8125e-4,2.21e-5 -7.8125e-4,2.69e-4 0,6.473e-4 0.00746,0.00276 0.009748,0.00276 0.001064,2e-7 0.002768,2.601e-4 0.003786,5.775e-4 0.002256,7.035e-4 0.0110361,0.00156 0.0124654,0.00122 8.5063e-4,-2.04e-4 9.6119e-4,-5.895e-4 6.2432e-4,-0.00218 -2.2519e-4,-0.00106 -8.5725e-4,-0.00268 -0.001405,-0.00361 -5.4731e-4,-9.227e-4 -0.001074,-0.002996 -0.001171,-0.004607 -1.4694e-4,-0.002448 -0.001005,-0.004487 -0.005217,-0.0123962 -0.002773,-0.005207 -0.005367,-0.0106558 -0.005764,-0.0121094 -3.9775e-4,-0.001454 -9.7913e-4,-0.00295 -0.001292,-0.003326 -7.8869e-4,-9.4775e-4 -0.004548,-8.439e-4 -0.0110365,3.0491e-4 z m -0.0212344,0.0257711 c 0.003436,8.5629e-4 0.004056,0.001141 0.003437,0.001578 -6.29e-4,4.4485e-4 -8.9619e-4,4.0671e-4 -0.001611,-2.3003e-4 -4.7162e-4,-4.1982e-4 -0.001263,-7.633e-4 -0.00176,-7.633e-4 -0.00164,0 -0.003285,7.7416e-4 -0.002918,0.001373 4.2144e-4,6.8637e-4 0.002097,7.8327e-4 0.002097,1.2127e-4 0,-2.523e-4 7.0312e-4,-4.587e-5 0.001563,4.5871e-4 0.001705,0.001001 0.002053,0.002251 7.1687e-4,0.002571 -4.6506e-4,1.116e-4 -0.002784,-3.827e-4 -0.005153,-0.001098 l -0.004308,-0.001301 -5.2494e-4,-0.002061 c -7.56e-4,-0.002969 -3.1706e-4,-0.003454 0.002238,-0.002473 0.001117,4.2887e-4 0.003918,0.00125 0.006223,0.001824 z m 0.014246,0.003682 c 0,3.8139e-4 -6.67e-4,4.6426e-4 -0.0025,3.1061e-4 -0.002171,-1.8203e-4 -0.0025,-1.1015e-4 -0.0025,5.4673e-4 0,8.667e-4 0.00143,0.00134 0.002626,8.739e-4 4.4619e-4,-1.748e-4 0.001305,-2.67e-4 0.001909,-2.049e-4 0.001333,1.37e-4 0.002156,-9.8929e-4 0.001173,-0.001604 -5.2731e-4,-3.2958e-4 -7.08e-4,-3.0975e-4 -7.08e-4,7.769e-5 z m 0.0231396,0.002555 c -0.001228,9.244e-4 -5.125e-4,0.00196 0.001366,0.00198 9.2194e-4,9.8e-6 0.002207,3.178e-4 0.002855,6.844e-4 0.001081,6.117e-4 0.002015,5.494e-4 0.002015,-1.344e-4 0,-1.532e-4 -0.001236,-9.114e-4 -0.002746,-0.00168 -0.002319,-0.00119 -0.002862,-0.00132 -0.003489,-8.471e-4 z" /><path
         inkscape:connector-curvature="0"
         id="path4660-3-6-2"
         style="fill:#0000df;fill-opacity:1"
         d="m 0.44847723,0.87967444 c 0,3.814e-4 -6.67e-4,4.643e-4 -0.0025,3.107e-4 -0.002171,-1.821e-4 -0.0025,-1.102e-4 -0.0025,5.4672e-4 0,8.667e-4 0.00143,0.00134 0.002626,8.739e-4 4.4619e-4,-1.749e-4 0.001305,-2.671e-4 0.001909,-2.05e-4 0.001333,1.371e-4 0.002156,-9.8922e-4 0.001173,-0.0016 -5.2731e-4,-3.295e-4 -7.08e-4,-3.097e-4 -7.08e-4,7.77e-5 z m 0.0231396,0.00256 c -0.001228,9.245e-4 -5.125e-4,0.00196 0.001366,0.00198 9.2194e-4,9.8e-6 0.002207,3.179e-4 0.002855,6.845e-4 0.001081,6.117e-4 0.002015,5.494e-4 0.002015,-1.344e-4 0,-1.532e-4 -0.001236,-9.114e-4 -0.002746,-0.00168 -0.002319,-0.00119 -0.002862,-0.00132 -0.003489,-8.471e-4 z" /><path
         style="fill:#0000df;fill-opacity:1"
         d="m 0.43643923,0.87931402 c -0.001298,-1.1052e-4 -0.001464,-0.001185 -0.002456,-0.001044 -0.001997,5.6893e-4 -0.002887,1.7332e-4 -0.002992,-4.8029e-4 -1.3857e-4,-8.6236e-4 0.002554,-0.001616 0.003818,-0.001227 4.7192e-4,1.4616e-4 4.1306e-4,4.2802e-4 0.001004,3.2851e-4 0.001304,-2.1966e-4 0.002303,8.496e-4 0.001423,0.001519 -4.7199e-4,3.6078e-4 3.8058e-4,8.3146e-4 -6.7654e-4,9.3351e-4 z"
         id="path4778-7"
         inkscape:connector-curvature="0"
         sodipodi:nodetypes="cccccccc" /><path
         style="fill:#0000df;fill-opacity:1"
         d="m 0.45886911,0.88340496 c -7.8228e-4,-9.773e-4 1.9811e-4,-0.0018 0.001872,-0.00157 8.2189e-4,1.11e-4 0.002066,5e-6 0.002763,-2.353e-4 0.001164,-4.012e-4 0.001973,-2.248e-4 0.001745,3.804e-4 -5.106e-5,1.356e-4 -0.001401,6.463e-4 -0.002998,0.00113 -0.002456,7.523e-4 -0.002981,7.969e-4 -0.00338,2.97e-4 z"
         id="path4660-3-2-0"
         inkscape:connector-curvature="0" /></g></g></svg>