<?xml version="1.0" encoding="UTF-8" standalone="no"?>
<!-- Created with Inkscape (http://www.inkscape.org/) -->

<svg
   xmlns:dc="http://purl.org/dc/elements/1.1/"
   xmlns:cc="http://creativecommons.org/ns#"
   xmlns:rdf="http://www.w3.org/1999/02/22-rdf-syntax-ns#"
   xmlns:svg="http://www.w3.org/2000/svg"
   xmlns="http://www.w3.org/2000/svg"
   xmlns:sodipodi="http://sodipodi.sourceforge.net/DTD/sodipodi-0.dtd"
   xmlns:inkscape="http://www.inkscape.org/namespaces/inkscape"
   id="svg3392"
   version="1.1"
   inkscape:version="0.91 r13725"
   xml:space="preserve"
   width="591.24915"
   height="363.09207"
   viewBox="0 0 591.24915 363.09207"
   sodipodi:docname="stick_contact.svg"><metadata
     id="metadata3398"><rdf:RDF><cc:Work
         rdf:about=""><dc:format>image/svg+xml</dc:format><dc:type
           rdf:resource="http://purl.org/dc/dcmitype/StillImage" /><dc:title></dc:title></cc:Work></rdf:RDF></metadata><defs
     id="defs3396" /><sodipodi:namedview
     pagecolor="#ffffff"
     bordercolor="#666666"
     borderopacity="1"
     objecttolerance="10"
     gridtolerance="10"
     guidetolerance="10"
     inkscape:pageopacity="0"
     inkscape:pageshadow="2"
     inkscape:window-width="1680"
     inkscape:window-height="948"
     id="namedview3394"
     showgrid="false"
     fit-margin-top="0"
     fit-margin-left="0"
     fit-margin-right="0"
     fit-margin-bottom="0"
     inkscape:zoom="0.82154929"
     inkscape:cx="349.06117"
     inkscape:cy="178.00023"
     inkscape:window-x="0"
     inkscape:window-y="30"
     inkscape:window-maximized="1"
     inkscape:current-layer="g3402" /><g
     id="g3400"
     inkscape:groupmode="layer"
     inkscape:label="Teuns website diensten drawings_4"
     transform="matrix(1.25,0,0,-1.25,-518.12622,2738.0925)"><g
       id="g3402"
       transform="matrix(1600,0,0,2560,10,20)"><path
         id="path3426"
         style="fill:#000000"
         d="m 0.37030677,0.82539641 c -1.7583e-4,1.7782e-4 -0.002215,4.4824e-4 -0.004532,6.0093e-4 -0.005141,3.3883e-4 -0.007025,7.4966e-4 -0.007025,0.001532 0,6.7124e-4 9.7496e-4,7.9915e-4 0.001562,2.0499e-4 2.1245e-4,-2.1485e-4 0.002478,-3.9063e-4 0.005035,-3.9063e-4 0.004445,0 0.004756,6.058e-5 0.007098,0.001383 0.002679,0.001513 0.003913,0.001242 0.002122,-4.6593e-4 -6.1012e-4,-5.8197e-4 -0.001141,-0.001246 -0.001181,-0.001476 -3.931e-5,-2.2976e-4 -1.1431e-4,-6.1697e-4 -1.6668e-4,-8.6047e-4 -1.1734e-4,-5.4573e-4 -0.002474,-9.7262e-4 -0.002914,-5.2782e-4 z m -0.0431689,-0.002577 c -7.3022e-4,3.1966e-4 -0.002838,5.6293e-4 -0.004983,5.7513e-4 -0.004888,2.781e-5 -0.0122057,0.001778 -0.0112932,0.0027 2.7535e-4,2.7845e-4 0.00139,1.4637e-4 0.003359,-3.9788e-4 0.001621,-4.4808e-4 0.004779,-8.9073e-4 0.007019,-9.8366e-4 0.003467,-1.4384e-4 0.004535,-2.027e-5 0.007181,8.3093e-4 0.002159,6.945e-4 0.003304,8.7488e-4 0.00375,5.9056e-4 4.4182e-4,-2.8178e-4 1.5763e-4,-6.565e-4 -9.1201e-4,-0.001203 -8.5461e-4,-4.3625e-4 -0.001585,-9.9506e-4 -0.001624,-0.001242 -1.8972e-4,-0.001221 -2.9667e-4,-0.001425 -7.4604e-4,-0.001425 -2.6727e-4,0 -0.001055,2.4929e-4 -0.001751,5.5398e-4 z m 0.0112998,-0.0114915 c -2.2609e-4,2.2865e-4 4.7134e-4,4.0214e-4 0.001682,4.1839e-4 0.006912,9.279e-5 0.0130747,6.7144e-4 0.0142538,0.001338 6.9271e-4,3.9181e-4 0.001468,5.8175e-4 0.001724,4.2208e-4 2.5547e-4,-1.5967e-4 -4.5382e-4,-8.0312e-4 -0.001576,-0.00143 -0.001991,-0.001112 -0.002208,-0.00114 -0.008869,-0.00114 -0.003878,0 -0.006995,1.6878e-4 -0.007215,3.9062e-4 z m 0.120625,-0.0546651 c -0.001375,1.7775e-4 -0.00385,3.3332e-4 -0.0055,3.457e-4 -0.003191,2.394e-5 -0.006976,9.7794e-4 -0.006358,0.001603 2.3646e-4,2.3913e-4 7.8259e-4,2.3733e-4 0.001507,-4.96e-6 0.001074,-3.5939e-4 0.001118,-1.4838e-4 8.1212e-4,0.003891 -3.7036e-4,0.004884 3.2701e-4,0.00703 0.003047,0.009376 0.003663,0.00316 0.0143283,0.006303 0.027429,0.008083 0.007098,9.6428e-4 0.008984,0.00106 0.020625,0.001051 0.0126621,-9.77e-6 0.02546,-8.7205e-4 0.0300784,-0.002027 0.002959,-7.3973e-4 0.0126815,-0.006133 0.0152345,-0.00845 l 0.0025,-0.002269 -7.889e-5,-0.004783 c -4.337e-5,-0.00263 -3.7672e-4,-0.005114 -7.4075e-4,-0.005518 -5.2271e-4,-5.8072e-4 -0.001426,-7.4272e-4 -0.004296,-7.706e-4 -0.001999,-1.941e-5 -0.005643,-1.7512e-4 -0.008097,-3.4604e-4 -0.005264,-3.6654e-4 -0.007432,-1.0459e-4 -0.008389,0.001014 -0.001007,0.001176 3.804e-4,0.002023 0.001609,9.8288e-4 7.9436e-4,-6.7242e-4 0.001483,-7.0673e-4 0.008965,-4.4664e-4 0.009445,3.2834e-4 0.008818,-5.576e-5 0.008832,0.005413 1.062e-5,0.004316 -8.2006e-4,0.005494 -0.006178,0.008761 -0.005823,0.003551 -0.0105682,0.005422 -0.0145739,0.005745 -0.001816,1.4653e-4 -0.00561,5.1001e-4 -0.00843,8.0772e-4 -0.008129,8.5806e-4 -0.019181,0.001116 -0.0254968,5.9438e-4 -0.0209952,-0.001733 -0.0342694,-0.005119 -0.0384024,-0.009797 -0.001299,-0.00147 -0.001568,-0.002387 -0.001797,-0.006135 -1.8109e-4,-0.002957 -3.55e-5,-0.004583 4.4247e-4,-0.004943 6.4422e-4,-4.8515e-4 0.006693,-0.001037 0.0124135,-0.001132 0.00153,-2.547e-5 0.002031,-2.0977e-4 0.002031,-7.4671e-4 0,-5.7137e-4 -4.6531e-4,-7.0399e-4 -0.002344,-6.6798e-4 -0.001289,2.472e-5 -0.003469,1.9036e-4 -0.004844,3.6811e-4 z m -0.0736836,-0.004026 c -0.001614,0.001021 -0.00396,0.002998 -0.005212,0.004395 -0.001252,0.001396 -0.003522,0.003594 -0.005044,0.004883 -0.001522,0.001289 -0.004614,0.004717 -0.006872,0.007617 -0.002257,0.0029 -0.004827,0.005975 -0.005709,0.006833 -0.002676,0.002601 -0.0113188,0.009694 -0.0124331,0.0102034 -0.001208,5.5187e-4 -7.4189e-4,0.001059 6.6296e-4,7.2223e-4 8.6395e-4,-2.072e-4 0.00965,-0.006906 0.0127896,-0.009751 7.112e-4,-6.4453e-4 0.003394,-0.003745 0.005962,-0.006891 0.002568,-0.003145 0.006215,-0.007101 0.008104,-0.008789 0.001889,-0.001689 0.004206,-0.003904 0.005148,-0.004923 9.4224e-4,-0.001019 0.002953,-0.002715 0.004469,-0.003768 0.001516,-0.001054 0.002756,-0.002022 0.002756,-0.002151 0,-7.2429e-4 -0.002049,-5.97e-6 -0.004621,0.00162 z m -0.0107003,-0.004159 c 0.00687,2.2264e-4 0.0125559,4.4532e-4 0.0126351,4.9486e-4 7.925e-5,4.953e-5 -0.002307,0.001321 -0.005304,0.002825 -0.002996,0.001504 -0.007654,0.004396 -0.0103504,0.006426 -0.008244,0.006207 -0.0134698,0.00968 -0.0178166,0.0118432 -0.005713,0.002842 -0.009407,0.004321 -0.00995,0.003983 -2.5082e-4,-1.5648e-4 -5.4378e-4,-0.006182 -6.5101e-4,-0.0133896 l -1.9497e-4,-0.0131051 0.00957,2.5927e-4 c 0.005263,1.426e-4 0.0151909,4.4143e-4 0.022061,6.6408e-4 z m -0.11471766,-0.006144 c -1.934e-4,1.2559e-4 -0.001881,3.03e-4 -0.00375,3.9425e-4 -0.002254,1.1002e-4 -0.003398,3.3862e-4 -0.003398,6.7863e-4 0,3.7917e-4 8.1408e-4,4.6526e-4 0.003125,3.3048e-4 0.001719,-1.0024e-4 0.009172,-1.5153e-4 0.0165625,-1.1398e-4 0.0127089,6.458e-5 0.0140475,1.4474e-4 0.0246875,0.001478 0.006188,7.7547e-4 0.0135,0.001498 0.01625,0.001606 0.00275,1.0798e-4 0.006547,2.7142e-4 0.008438,3.6319e-4 0.001891,9.176e-5 0.006866,1.7318e-4 0.0110555,1.8093e-4 l 0.007618,1.406e-5 3.3467e-4,0.00166 c 5.3771e-4,0.002667 7.7535e-4,0.0260948 2.6354e-4,0.0259817 -2.5611e-4,-5.656e-5 -0.005946,-0.002798 -0.0126439,-0.006092 -0.0113621,-0.005588 -0.020596,-0.0109785 -0.0275457,-0.0160812 -0.001609,-0.001182 -0.003749,-0.002747 -0.004754,-0.003479 -0.001005,-7.3192e-4 -0.001828,-0.001404 -0.001828,-0.001493 0,-4.8661e-4 -0.002034,-0.001324 -0.002781,-0.001144 -7.3594e-4,1.7651e-4 -7.487e-4,5.461e-4 -8.089e-5,0.002342 0.001319,0.003547 0.003213,0.005336 0.0246662,0.0233059 0.0134122,0.0112344 0.0195247,0.0158547 0.0214912,0.0162448 6.6613e-4,1.3213e-4 0.001028,4.638e-4 8.3952e-4,7.7021e-4 -1.8173e-4,2.9597e-4 -9.091e-5,6.3065e-4 2.0181e-4,7.4371e-4 2.9271e-4,1.1307e-4 7.0608e-4,-7.761e-5 9.1859e-4,-4.2373e-4 2.6022e-4,-4.2382e-4 -5.0491e-4,-0.001157 -0.002343,-0.002244 -0.001501,-8.88e-4 -0.006484,-0.004779 -0.0110737,-0.008646 -0.004589,-0.003867 -0.0107636,-0.009053 -0.0137206,-0.0115234 -0.0138155,-0.0115434 -0.0192499,-0.0168227 -0.0185902,-0.0180597 1.3605e-4,-2.551e-4 0.001431,6.2583e-4 0.002878,0.001958 0.004917,0.004525 0.0235287,0.0164927 0.0256493,0.0164927 6.6325e-4,0 0.00496,0.002002 0.013372,0.006233 l 0.004238,0.002131 -0.001544,5.0549e-4 c -8.4899e-4,2.7802e-4 -0.002163,4.6167e-4 -0.00292,4.0812e-4 -7.5699e-4,-5.355e-5 -0.001501,1.2236e-4 -0.001654,3.9091e-4 -4.0113e-4,7.0652e-4 0.003827,6.2948e-4 0.00612,-1.115e-4 l 0.001856,-5.9977e-4 -1.6804e-4,0.008901 -1.6804e-4,0.008901 -0.007813,2.5324e-4 c -0.0176343,5.7161e-4 -0.0275038,0.002684 -0.0353197,0.007559 -0.007227,0.004508 -0.0106814,0.0107134 -0.0101582,0.0182487 5.9955e-4,0.008634 0.004844,0.0126338 0.0191167,0.0180168 0.007122,0.002686 0.0185986,0.005706 0.0216736,0.005703 0.002551,-2.35e-6 0.005312,-0.001019 0.005312,-0.001955 0,-3.0947e-4 -4.682e-4,-2.2139e-4 -0.001288,2.4233e-4 -0.001808,0.001023 -0.004994,8.4165e-4 -0.010579,-6.0193e-4 -0.0159279,-0.004117 -0.0275692,-0.009711 -0.0306711,-0.0147381 -0.00192,-0.003112 -0.002415,-0.0101838 -9.6493e-4,-0.0137931 0.00393,-0.009783 0.0144648,-0.0152687 0.0328782,-0.0171195 0.0136727,-0.001374 0.0287887,-8.607e-4 0.0393064,0.001335 0.016379,0.00342 0.0236691,0.007826 0.0257549,0.0155659 0.001442,0.005349 -5.3632e-4,0.0136174 -0.004288,0.0179252 -0.003509,0.00403 -0.0114787,0.007921 -0.0248553,0.0121348 -0.0128782,0.004057 -0.0214271,0.004745 -0.0320974,0.002584 -0.003199,-6.48e-4 -0.006351,-0.001357 -0.007006,-0.001576 -8.2562e-4,-2.7616e-4 -0.00119,-2.6997e-4 -0.00119,2.02e-5 0,4.7709e-4 0.004061,0.001638 0.01,0.00286 0.003048,6.2695e-4 0.005623,8.3642e-4 0.0103125,8.3921e-4 0.005426,3.12e-6 0.006973,-1.5749e-4 0.0117345,-0.001219 0.005329,-0.001188 0.0159709,-0.004668 0.022953,-0.007508 0.0112941,-0.004592 0.0163896,-0.0113518 0.0163815,-0.0217308 -7.37e-6,-0.009473 -0.004722,-0.0144894 -0.0173525,-0.0184635 -0.007618,-0.002397 -0.0197998,-0.00436 -0.0271794,-0.00438 l -0.002838,-7.73e-6 5.787e-5,-0.00166 c 3.182e-5,-9.1308e-4 1.136e-4,-0.0047 1.817e-4,-0.008415 l 1.2382e-4,-0.006755 0.002711,9.9303e-4 c 0.002654,9.7217e-4 0.004789,0.001284 0.004789,6.9939e-4 0,-1.615e-4 -0.00125,-7.0803e-4 -0.002777,-0.001215 -0.00541,-0.001794 -0.005392,-0.001973 4.3679e-4,-0.004448 0.007407,-0.003146 0.0121937,-0.005995 0.0201561,-0.0119963 0.006706,-0.005055 0.0141216,-0.009804 0.0183856,-0.0117738 l 0.001987,-9.1806e-4 0.0169999,1.2497e-4 c 0.0241738,1.7769e-4 0.0466872,-2.9233e-4 0.0466872,-9.747e-4 0,-4.347e-4 -0.005399,-5.1595e-4 -0.0310937,-4.6796e-4 -0.0178038,3.324e-5 -0.0372379,-1.4758e-4 -0.0454688,-4.2309e-4 -0.0352887,-0.001181 -0.0335983,-0.001094 -0.0341911,-0.001756 C 0.34166257,0.744754 0.34,0.74473139 0.34,0.74551341 c 0,5.103e-4 -0.001223,5.6311e-4 -0.008906,3.8457e-4 -0.0193542,-4.4973e-4 -0.0222083,-6.2301e-4 -0.0329688,-0.002002 -0.00999,-0.00128 -0.0121019,-0.001418 -0.024375,-0.001596 -0.007391,-1.0721e-4 -0.0135957,-9.217e-5 -0.0137891,3.344e-5 z m 0.23936616,0.007115 c 0.002247,0.001182 0.002495,0.002537 6.7296e-4,0.003676 -0.001801,0.001126 -0.004364,9.8546e-4 -0.006736,-3.6861e-4 -0.002313,-0.00132 -0.002551,-0.002421 -7.6429e-4,-0.003538 0.001729,-0.001081 0.004513,-9.867e-4 0.006827,2.3004e-4 z m -0.008334,-9.8132e-4 c -8.8994e-4,6.6101e-4 -0.001618,0.001525 -0.001618,0.001921 0,3.953e-4 -3.5156e-4,8.0389e-4 -7.8125e-4,9.0798e-4 -0.001077,2.609e-4 0.004309,0.003243 0.006844,0.00379 0.002116,4.5613e-4 0.003645,1.6967e-4 0.00604,-0.001132 0.004403,-0.002393 3.828e-4,-0.006683 -0.006266,-0.006687 -0.002138,-1.18e-6 -0.002888,2.1221e-4 -0.004219,0.0012 z m 0.009462,-0.005045 c 0.001996,3.1411e-4 0.003813,0.001014 0.005902,0.002272 0.002717,0.001637 0.003018,0.001991 0.003018,0.003551 0,0.002153 -0.002106,0.006869 -0.00365,0.008176 -0.00228,0.001929 -0.009035,0.002525 -0.0135371,0.001193 -0.001758,-5.198e-4 -0.002129,-7.5246e-4 -0.00125,-7.8342e-4 0.001452,-5.117e-5 0.003832,-0.001074 0.003289,-0.001414 -2.0328e-4,-1.2705e-4 -9.5737e-4,-3.438e-5 -0.001676,2.0589e-4 -0.002743,9.176e-4 -0.0102883,-0.001271 -0.0120812,-0.003504 -0.001802,-0.002244 -0.001447,-0.004045 0.001149,-0.005841 0.003137,-0.00217 0.009832,-0.00414 0.0145111,-0.00427 7.9309e-4,-2.199e-5 0.00274,1.6425e-4 0.004326,4.1386e-4 z m -0.0108747,-8.7033e-4 c -0.005912,0.00133 -0.0120051,0.004543 -0.0121439,0.006403 -2.4884e-4,0.003336 0.00107,0.005773 0.00366,0.006762 9.4352e-4,3.6029e-4 0.00332,0.001336 0.005281,0.002169 0.004959,0.002105 0.007635,0.002725 0.0117187,0.002712 0.007922,-2.367e-5 0.0104476,-0.001671 0.0128323,-0.00837 0.00127,-0.003567 9.3715e-4,-0.004763 -0.001902,-0.006836 -0.004602,-0.00336 -0.0122027,-0.004471 -0.0194469,-0.002841 z m -0.0408474,-0.006517 c -0.002235,0.003078 -0.001433,0.004787 0.003769,0.008023 0.001481,9.213e-4 0.004547,0.00231 0.006814,0.003087 0.002267,7.7632e-4 0.005196,0.002044 0.006509,0.002817 0.002524,0.001486 0.006717,0.006346 0.009884,0.0114554 0.002039,0.00329 0.003989,0.004528 0.007566,0.004803 0.003006,2.3157e-4 0.0188629,7.2466e-4 0.0239122,7.436e-4 0.0102317,3.84e-5 0.0145972,-0.002837 0.0157147,-0.0103523 2.6166e-4,-0.00176 8.2234e-4,-0.003077 0.001559,-0.003662 6.328e-4,-5.028e-4 0.00384,-0.00202 0.007127,-0.003371 0.006433,-0.002645 0.0130262,-0.006967 0.013744,-0.009009 5.4103e-4,-0.00154 -1.5673e-4,-0.00324 -0.001684,-0.004103 -0.001649,-9.3201e-4 -0.007744,-9.1252e-4 -0.0140279,4.487e-5 -0.003914,5.9627e-4 -0.006962,6.5367e-4 -0.025625,4.8257e-4 C 0.49234478,0.73688692 0.48154688,0.7366989 0.48,0.73657591 0.478453,0.73645292 0.472035,0.73615969 0.4657378,0.73592429 c -0.008819,-3.2965e-4 -0.0116569,-3.2051e-4 -0.0123514,3.975e-5 -0.001424,7.3869e-4 5.231e-5,0.001517 0.002434,0.001283 0.001096,-1.0768e-4 0.009164,9.603e-5 0.01793,4.5269e-4 0.0175791,7.1528e-4 0.0539001,8.2334e-4 0.0566556,1.6856e-4 8.9537e-4,-2.1276e-4 0.003645,-4.9341e-4 0.00611,-6.2366e-4 0.003725,-1.9682e-4 0.004662,-1.2459e-4 0.005546,4.277e-4 0.003364,0.002103 -0.001746,0.006683 -0.0124188,0.0111318 -0.003382,0.00141 -0.006694,0.003034 -0.00736,0.003609 -8.0526e-4,6.9582e-4 -0.001367,0.00207 -0.001678,0.004102 -4.6778e-4,0.003059 -0.00182,0.00599 -0.00327,0.007089 -0.001142,8.6477e-4 -0.005512,0.001978 -0.007986,0.002035 -0.006362,1.4562e-4 -0.0255146,-5.6516e-4 -0.0272809,-0.001012 -0.001933,-4.8943e-4 -0.003766,-0.002168 -0.004881,-0.00447 -2.6006e-4,-5.3711e-4 -0.001994,-0.00294 -0.003854,-0.005339 -0.003802,-0.004905 -0.005643,-0.006166 -0.0124009,-0.008492 -0.004696,-0.001616 -0.009237,-0.004075 -0.0106704,-0.005779 -0.001147,-0.001364 -0.001125,-0.003339 5.4e-5,-0.004752 0.001111,-0.001331 0.001128,-0.00142 2.7809e-4,-0.00142 -3.6055e-4,0 -0.001198,7.4707e-4 -0.001861,0.00166 z"
         inkscape:connector-curvature="0" /></g></g></svg>