<?xml version="1.0" encoding="UTF-8" standalone="no"?>
<!-- Created with Inkscape (http://www.inkscape.org/) -->

<svg
   xmlns:dc="http://purl.org/dc/elements/1.1/"
   xmlns:cc="http://creativecommons.org/ns#"
   xmlns:rdf="http://www.w3.org/1999/02/22-rdf-syntax-ns#"
   xmlns:svg="http://www.w3.org/2000/svg"
   xmlns="http://www.w3.org/2000/svg"
   xmlns:sodipodi="http://sodipodi.sourceforge.net/DTD/sodipodi-0.dtd"
   xmlns:inkscape="http://www.inkscape.org/namespaces/inkscape"
   id="svg4142"
   version="1.1"
   inkscape:version="0.91 r13725"
   xml:space="preserve"
   width="736.24524"
   height="429.17896"
   viewBox="0 0 736.24524 429.17896"
   sodipodi:docname="stick_paperprot.svg"><metadata
     id="metadata4148"><rdf:RDF><cc:Work
         rdf:about=""><dc:format>image/svg+xml</dc:format><dc:type
           rdf:resource="http://purl.org/dc/dcmitype/StillImage" /><dc:title></dc:title></cc:Work></rdf:RDF></metadata><defs
     id="defs4146"><inkscape:perspective
       sodipodi:type="inkscape:persp3d"
       inkscape:vp_x="0 : 1625 : 1"
       inkscape:vp_y="0 : 1000 : 0"
       inkscape:vp_z="2025 : 1625 : 1"
       inkscape:persp3d-origin="1012.5 : 1083.3333 : 1"
       id="perspective5302" /></defs><sodipodi:namedview
     pagecolor="#ffffff"
     bordercolor="#666666"
     borderopacity="1"
     objecttolerance="10"
     gridtolerance="10"
     guidetolerance="10"
     inkscape:pageopacity="0"
     inkscape:pageshadow="2"
     inkscape:window-width="1680"
     inkscape:window-height="948"
     id="namedview4144"
     showgrid="false"
     inkscape:zoom="0.41077465"
     inkscape:cx="333.95903"
     inkscape:cy="707.15937"
     inkscape:window-x="0"
     inkscape:window-y="30"
     inkscape:window-maximized="1"
     inkscape:current-layer="g4152"
     fit-margin-top="0"
     fit-margin-left="0"
     fit-margin-right="0"
     fit-margin-bottom="0" /><g
     id="g4150"
     inkscape:groupmode="layer"
     inkscape:label="Teuns website diensten drawings_4"
     transform="matrix(1.25,0,0,-1.25,-487.5036,2687.4995)"><g
       id="g4152"
       transform="matrix(1600,0,0,2560,10,20)"><path
         style="fill:#000000"
         d="m 0.32734375,0.69796871 c -0.003834,1.2497e-4 -0.004075,2.5324e-4 -0.002737,0.001456 0.003857,0.003468 0.0119895,0.0144793 0.0157475,0.0213225 0.004229,0.007702 0.006653,0.011124 0.0156672,0.0221238 0.007264,0.008864 0.00823,0.0102539 0.007128,0.0102539 -7.0116e-4,0 -0.001275,1.7578e-4 -0.001275,3.9062e-4 0,2.1485e-4 5.1563e-4,3.9063e-4 0.001146,3.9063e-4 6.3021e-4,0 0.001307,1.0098e-4 0.001505,2.2439e-4 4.8397e-4,3.0248e-4 0.0385853,2.2856e-4 0.0667243,-1.2946e-4 0.0455761,-5.7986e-4 0.077291,-3.3497e-4 0.088125,6.8047e-4 0.005144,4.8214e-4 0.005625,4.8264e-4 0.005625,5.86e-6 0,-2.1485e-4 -2.1094e-4,-3.599e-4 -4.6875e-4,-3.2234e-4 C 0.52405617,0.75443425 0.51659,0.75396502 0.5137852,0.75368977 0.5065682,0.75298139 0.4887205,0.75291134 0.419833,0.75332102 l -0.0542293,3.225e-4 -0.001385,-0.002115 c -7.6168e-4,-0.001163 -0.004556,-0.006113 -0.008432,-0.0109999 -0.007697,-0.009704 -0.009044,-0.0116806 -0.0139084,-0.0204118 -0.003021,-0.005422 -0.0121433,-0.0176068 -0.0151727,-0.0202658 l -0.001306,-0.001146 0.007144,2.3326e-4 c 0.003929,1.283e-4 0.0106595,6.9619e-4 0.0149564,0.001262 0.0212923,0.002804 0.0264491,0.0032 0.0483387,0.003717 0.008992,2.1229e-4 0.0216925,5.1636e-4 0.0282238,6.7571e-4 0.0284694,6.9463e-4 0.1360997,-2.6736e-4 0.13764026,-0.00123 1.7967e-4,-1.1229e-4 1.758e-4,-4.4987e-4 -8.56e-6,-7.5018e-4 -2.6639e-4,-4.3388e-4 -9.5618e-4,-4.7284e-4 -0.003358,-1.8971e-4 -0.002776,3.2714e-4 -0.0469994,8.605e-4 -0.10427321,0.001258 -0.0142356,9.87e-5 -0.0288911,-3.293e-5 -0.038125,-3.4245e-4 -0.00825,-2.7652e-4 -0.0204468,-6.2873e-4 -0.0271041,-7.8268e-4 -0.006657,-1.5395e-4 -0.0127041,-3.408e-4 -0.0134375,-4.1523e-4 -7.3338e-4,-7.442e-5 -0.003583,-3.3845e-4 -0.006333,-5.8674e-4 -0.005035,-4.5463e-4 -0.0168967,-0.00182 -0.025,-0.002878 -0.00477,-6.2276e-4 -0.0110918,-8.8993e-4 -0.0167188,-7.065e-4 z"
         id="path5197"
         inkscape:connector-curvature="0" /><path
         style="fill:#000000"
         d="m 0.56855724,0.70458971 c -0.003676,0.003475 -0.007212,0.007942 -0.0110524,0.0139573 -0.003533,0.005534 -0.007789,0.010981 -0.0125664,0.0160813 -0.005381,0.005744 -0.013876,0.0142 -0.0142629,0.0141964 -5.9491e-4,-5.43e-6 -0.007649,-0.009856 -0.007989,-0.0111568 -2.7056e-4,-0.001034 -6.9452e-4,-0.001263 -0.003086,-0.001662 -0.002838,-4.7443e-4 -0.007726,-2.3878e-4 -0.007726,3.7248e-4 0,1.8738e-4 0.001793,3.407e-4 0.003985,3.407e-4 l 0.003985,0 0.001894,0.002832 c 0.001041,0.001558 0.003188,0.00459 0.00477,0.006738 0.002179,0.00296 0.002782,0.004181 0.002488,0.005039 -3.1996e-4,9.3454e-4 -2.1144e-4,0.001091 6.1991e-4,8.9116e-4 6.0236e-4,-1.4447e-4 0.001008,-4.13e-5 0.001008,2.5645e-4 0,2.7398e-4 0.002363,0.003476 0.005251,0.007117 0.002888,0.00364 0.005983,0.007713 0.006877,0.009051 8.9389e-4,0.001338 0.002328,0.003392 0.003186,0.004565 8.5847e-4,0.001173 0.001561,0.002244 0.001561,0.00238 0,1.3614e-4 -0.002754,0.002039 -0.00612,0.004229 -0.003366,0.00219 -0.007183,0.005058 -0.008482,0.006373 l -0.002361,0.002391 -0.007925,1.8016e-4 c -0.0122978,2.7958e-4 -0.0176313,0.001951 -0.0213684,0.006695 -0.002335,0.002964 -0.002881,0.005691 -0.001928,0.009624 0.001053,0.004346 0.003743,0.00752 0.007769,0.009166 0.001775,7.256e-4 0.0044,0.001532 0.005833,0.001792 l 0.002605,4.7253e-4 -0.001912,0.001006 c -0.001052,5.5304e-4 -0.002991,0.002419 -0.004311,0.004147 -0.001319,0.001728 -0.002746,0.003441 -0.003171,0.003806 -0.00102,8.7799e-4 -1.1635e-4,0.001409 0.001102,6.4756e-4 5.2289e-4,-3.2681e-4 0.002169,-0.002073 0.003657,-0.00388 0.002931,-0.003558 0.006072,-0.005558 0.008185,-0.005213 0.001232,2.0144e-4 0.001244,3.3163e-4 5.5038e-4,0.005771 -3.9041e-4,0.003061 -8.9863e-4,0.005936 -0.001129,0.006391 -4.857e-4,9.5642e-4 4.4982e-4,0.001503 0.001352,7.8997e-4 7.0552e-4,-5.5734e-4 0.001209,-0.002843 0.001783,-0.008101 2.2311e-4,-0.002041 6.602e-4,-0.003912 9.7131e-4,-0.004157 3.111e-4,-2.4544e-4 0.00147,-6.694e-4 0.002576,-9.4213e-4 C 0.52821832,0.81602557 0.53,0.81485384 0.53,0.81360379 0.53,0.8129967 0.52971875,0.8125 0.529375,0.8125 c -3.4375e-4,0 -6.25e-4,4.354e-4 -6.25e-4,9.6756e-4 0,0.001698 -0.002363,0.00228 -0.00844,0.002081 -0.00448,-1.4695e-4 -0.005944,-3.8029e-4 -0.009496,-0.001514 -0.004994,-0.001593 -0.007221,-0.003365 -0.008637,-0.006871 -0.002381,-0.005896 -9.7919e-4,-0.0106326 0.004094,-0.0138367 0.003477,-0.002196 0.00717,-0.003059 0.014353,-0.003352 0.0113383,-4.6334e-4 0.0205988,0.001276 0.0255629,0.0048 0.006044,0.004291 0.006909,0.00804 0.003013,0.0130454 -0.004093,0.005258 -0.009398,0.008195 -0.0148008,0.008195 -0.003053,0 -0.00334,6.503e-4 -4.3692e-4,9.9066e-4 0.005911,6.931e-4 0.0122015,-0.002439 0.0168641,-0.008397 0.002357,-0.003012 0.00261,-0.00362 0.00261,-0.006265 -9e-8,-0.002524 -2.5958e-4,-0.003223 -0.001874,-0.005044 -0.003664,-0.004136 -0.0105309,-0.007339 -0.0172548,-0.008049 -0.001339,-1.4136e-4 -0.002432,-3.734e-4 -0.002429,-5.1565e-4 1.288e-5,-6.6746e-4 0.00768,-0.006176 0.0191856,-0.0137836 0.006945,-0.004593 0.0137544,-0.009317 0.0151309,-0.0104985 0.001377,-0.001182 0.004413,-0.003806 0.006747,-0.005832 0.002334,-0.002026 0.005216,-0.004311 0.006405,-0.005078 0.001458,-9.4104e-4 0.00221,-0.001823 0.002313,-0.00271 8.385e-5,-7.2333e-4 6.3178e-4,-0.001646 0.001218,-0.002051 7.1786e-4,-4.9576e-4 8.0979e-4,-7.3564e-4 2.8194e-4,-7.3564e-4 -5.0967e-4,0 -3.0875e-4,-4.4342e-4 5.7521e-4,-0.00127 7.4714e-4,-6.9824e-4 0.002896,-0.003278 0.004776,-0.005732 0.00188,-0.002454 0.00491,-0.006058 0.006733,-0.008008 0.005284,-0.005651 0.0103803,-0.0117754 0.0103803,-0.0124732 0,-0.001366 -0.001262,-5.111e-4 -0.004099,0.002775 -0.001623,0.00188 -0.005061,0.005844 -0.007641,0.008808 -0.00258,0.002965 -0.0063,0.007559 -0.008266,0.0102103 -0.001966,0.002651 -0.004009,0.005207 -0.004538,0.005679 -9.5717e-4,8.5409e-4 -9.7317e-4,8.4852e-4 -0.002626,-9.1453e-4 -9.1481e-4,-9.7563e-4 -0.003026,-0.003716 -0.004692,-0.00609 -0.001666,-0.002374 -0.003714,-0.004825 -0.004552,-0.005448 -0.001898,-0.00141 -0.002531,-0.00404 -0.001736,-0.007218 3.2901e-4,-0.001315 7.6951e-4,-0.00327 9.7889e-4,-0.004344 2.0938e-4,-0.001074 7.9964e-4,-0.003774 0.001312,-0.006 8.9675e-4,-0.003898 7.7681e-4,-0.005142 -3.8268e-4,-0.003969 -0.001391,0.001406 -0.004775,0.0171329 -0.004142,0.0192438 2.3844e-4,7.9437e-4 0.001156,0.001981 0.002038,0.002636 8.8246e-4,6.5546e-4 0.002852,0.002963 0.004377,0.005129 0.001525,0.002165 0.003845,0.004845 0.005157,0.005955 0.003231,0.002733 0.003619,0.003619 0.002049,0.004676 -0.001183,7.9658e-4 -0.003391,0.002676 -0.0120792,0.0102842 -0.003597,0.00315 -0.0170984,0.0126318 -0.0179864,0.0126318 -2.5219e-4,0 -0.001659,-0.00189 -0.003125,-0.004199 -0.001467,-0.00231 -0.00515,-0.007369 -0.008186,-0.011244 -0.003035,-0.003875 -0.005689,-0.007478 -0.005898,-0.008008 -3.0318e-4,-7.7002e-4 7.9177e-4,-0.002066 0.005463,-0.006466 0.009995,-0.009416 0.0167801,-0.01736 0.0223517,-0.0261719 0.003563,-0.005635 0.008718,-0.0122173 0.0112616,-0.0143789 0.001912,-0.001625 0.002236,-0.002188 0.00126,-0.002188 -3.1736e-4,0 -0.001832,0.001187 -0.003366,0.002637 z"
         id="path5195"
         inkscape:connector-curvature="0" /><path
         style="fill:#000000"
         d="m 0.41375,0.72012746 c -0.001547,5.222e-4 -0.005625,0.001492 -0.009063,0.002154 -0.003437,6.6266e-4 -0.008714,0.001743 -0.011725,0.002401 -0.00419,9.1585e-4 -0.00606,0.001138 -0.007969,9.474e-4 -0.003095,-3.093e-4 -0.003384,4.0146e-4 -3.1015e-4,7.6189e-4 0.00303,3.5529e-4 0.004985,1.3121e-4 0.0150039,-0.00172 0.0114674,-0.002119 0.0203846,-0.004891 0.0173906,-0.005406 -2.836e-4,-4.88e-5 -0.001781,3.3853e-4 -0.003328,8.6072e-4 z"
         id="path5179"
         inkscape:connector-curvature="0" /><path
         style="fill:#000000"
         d="m 0.419758,0.72063196 c -1.7375e-4,1.7571e-4 0.003033,0.002431 0.007126,0.005011 0.006514,0.004106 0.007494,0.004896 0.007861,0.00633 2.3057e-4,9.0119e-4 6.5124e-4,0.001728 9.3483e-4,0.001838 2.8358e-4,1.0954e-4 3.5717e-4,4.5721e-4 1.6354e-4,7.7259e-4 -1.9365e-4,3.1539e-4 -1.6e-5,5.7343e-4 3.9473e-4,5.7343e-4 5.3076e-4,0 6.1986e-4,-4.8026e-4 3.0797e-4,-0.00166 -2.4136e-4,-9.1308e-4 -3.364e-4,-0.00157 -2.1119e-4,-0.001459 1.2521e-4,1.1072e-4 0.001313,9.2891e-4 0.00264,0.001818 l 0.002412,0.001617 -0.002812,7.774e-4 c -0.002303,6.3678e-4 -0.00591,0.002064 -0.0132245,0.005233 -3.4496e-4,1.4945e-4 -4.6411e-4,3.7365e-4 -2.6478e-4,4.9824e-4 3.5992e-4,2.2495e-4 0.006637,-0.001858 0.009816,-0.003258 0.003786,-0.001667 0.007172,-0.002505 0.008315,-0.002059 7.0805e-4,2.7637e-4 0.001235,2.9231e-4 0.00148,4.477e-5 2.091e-4,-2.1146e-4 -0.001676,-0.001834 -0.00419,-0.003605 -0.004959,-0.003495 -0.0195702,-0.0127911 -0.0201046,-0.0127911 -1.8103e-4,0 -4.713e-4,1.4376e-4 -6.4504e-4,3.1946e-4 z"
         id="path5177"
         inkscape:connector-curvature="0" /><path
         style="fill:#000000"
         d="m 0.41897559,0.75031738 c -5.3985e-4,-6.831e-5 -5.247e-5,-0.002724 0.001398,-0.007559 0.001832,-0.006106 0.001868,-0.006023 -0.002951,-0.006834 -0.001267,-2.13e-4 -0.003948,-8.4489e-4 -0.005957,-0.001404 -0.006698,-0.001865 -0.0287273,-0.00636 -0.0406826,-0.0083 -0.002163,-3.5108e-4 -0.003905,-8.5194e-4 -0.003906,-0.001122 l 10e-7,-6.3e-7 c -10e-7,-2.6856e-4 6.835e-5,-4.828e-4 1.5429e-4,-4.7546e-4 0.003523,3.01e-4 0.0227403,0.003723 0.0294063,0.005237 0.003118,7.0816e-4 0.005938,0.00129 0.006635,0.001374 l 0.008723,0.002066 c 0.001979,6.2968e-4 0.003612,0.001076 0.004139,0.001076 7.624e-5,0 5.055e-5,-4.03e-5 -4.295e-5,-1.062e-4 l 0.004056,9.6069e-4 2.01e-6,-3.65e-6 c 6.505e-5,2.128e-5 1.2346e-4,4.203e-5 1.914e-4,6.347e-5 0.002389,7.54e-4 0.002695,0.001009 0.002888,0.002406 3.1601e-4,0.002289 -0.002593,0.0117726 -0.003853,0.0125598 -7.791e-5,4.875e-5 -1.4435e-4,6.933e-5 -2.002e-4,6.226e-5 z"
         id="path5326"
         inkscape:connector-curvature="0" /><path
         style="fill:#000000"
         d="m 0.3651148,0.72664757 c -0.001139,7.1189e-4 -8.8969e-4,0.005632 5.1042e-4,0.0100716 6.875e-4,0.00218 0.00125,0.004669 0.00125,0.00553 0,0.001066 2.4555e-4,0.001515 7.6908e-4,0.001406 0.001169,-2.4345e-4 0.001218,-0.00244 1.4402e-4,-0.006381 -5.3369e-4,-0.001958 -0.001041,-0.005163 -0.001127,-0.007121 -1.6627e-4,-0.00378 -3.6943e-4,-0.004241 -0.001547,-0.003505 z"
         id="path5171"
         inkscape:connector-curvature="0" /><path
         id="path5165"
         style="fill:#0000be;fill-opacity:1"
         d="m 0.4215366,0.73401007 c -2.2658e-4,2.2914e-4 -2.6189e-4,5.1041e-4 -7.847e-5,6.2506e-4 4.477e-4,2.7981e-4 0.001667,-2.1322e-4 0.001667,-6.741e-4 0,-4.9921e-4 -0.001079,-4.6589e-4 -0.001588,4.904e-5 z m -0.009974,-0.007859 c -0.001564,4.0018e-4 -0.003767,0.001899 -0.003258,0.002217 2.0896e-4,1.306e-4 0.001136,-1.3415e-4 0.00206,-5.8833e-4 0.003462,-0.001702 0.008386,-4.353e-4 0.008386,0.002158 0,0.001737 -9.8591e-4,0.002914 -0.002197,0.002624 -5.1038e-4,-1.2241e-4 -9.2797e-4,-2.797e-5 -9.2797e-4,2.0986e-4 0,7.6513e-4 0.002239,4.6095e-4 0.003684,-5.005e-4 0.001727,-0.001149 0.003256,-9.6235e-4 0.005446,6.6418e-4 0.001526,0.001134 0.001554,0.001229 4.9814e-4,0.001711 -6.1476e-4,2.8095e-4 -0.001486,5.1082e-4 -0.001936,5.1082e-4 -4.4992e-4,0 -8.1804e-4,1.7578e-4 -8.1804e-4,3.9063e-4 0,5.3304e-4 6.2345e-4,4.8817e-4 0.002722,-1.9587e-4 0.001582,-5.158e-4 0.001744,-5.1553e-4 0.001426,2.34e-6 -1.9723e-4,3.2131e-4 -7.736e-5,5.8415e-4 2.6639e-4,5.8415e-4 0.001148,0 0.001312,-0.001089 3.4094e-4,-0.002262 -0.001113,-0.001346 -0.004445,-0.003207 -0.005741,-0.003207 -4.8925e-4,0 -8.8954e-4,-2.724e-4 -8.8954e-4,-6.0534e-4 0,-0.001243 -0.002021,-0.002988 -0.004084,-0.003527 -0.002375,-6.203e-4 -0.003165,-6.4979e-4 -0.004979,-1.8588e-4 z m -0.003058,0.006038 -0.005895,-0.001396 c -5.9022e-4,-3.0888e-4 -0.001525,-7.455e-4 -0.002659,-0.001232 -0.002167,-9.29e-4 -0.004058,-0.00191 -0.004202,-0.002181 -4e-4,-7.5e-4 0.002815,3.942e-4 0.006465,0.002299 0.001199,6.2602e-4 0.003722,0.001604 0.006291,0.00251 z m 0.009753,0.00231 -0.003589,-8.5022e-4 c -3.1656e-4,-1.4225e-4 -6.7887e-4,-2.9833e-4 -0.001074,-4.6203e-4 -0.001578,-6.53e-4 -0.00459,-0.002147 -0.006693,-0.00332 -0.002103,-0.001172 -0.004251,-0.002132 -0.004774,-0.002132 -5.2293e-4,0 -7.7691e-4,-1.7578e-4 -5.6446e-4,-3.9062e-4 7.69e-4,-7.77e-4 0.002668,-3.6138e-4 0.00506,0.00111 0.004094,0.002516 0.0102569,0.005528 0.0113799,0.005561 6.7639e-4,1.966e-5 7.7175e-4,1.0363e-4 2.6367e-4,2.3133e-4 -1.6965e-4,4.245e-5 -1.6208e-4,1.3233e-4 -7.8e-6,2.5268e-4 z"
         inkscape:connector-curvature="0" /><path
         id="path5163"
         style="fill:#0000be;fill-opacity:1"
         d="m 0.405772,0.74248607 c -0.001362,8.5117e-4 -0.002379,0.003932 -0.001483,0.004492 6.4085e-4,4.0053e-4 9.6547e-4,-1.1874e-4 0.001651,-0.002641 2.3344e-4,-8.5888e-4 7.4204e-4,-0.001684 0.00113,-0.001834 3.8818e-4,-1.4994e-4 5.2643e-4,-3.8472e-4 3.0722e-4,-5.2173e-4 -2.1921e-4,-1.37e-4 -9.4171e-4,9.037e-5 -0.001606,5.0527e-4 z m -0.0122973,-0.009055 c -5.3619e-4,3.3513e-4 -9.749e-4,8.4586e-4 -9.749e-4,0.001135 0,2.8911e-4 -5.8689e-4,0.001375 -0.001304,0.002414 -7.1731e-4,0.001038 -0.001547,0.002679 -0.001844,0.003646 -2.9683e-4,9.668e-4 -7.2384e-4,0.002231 -9.4891e-4,0.002808 -3.9576e-4,0.001016 -2.6826e-4,0.001075 0.003875,0.001806 0.008901,0.001569 0.0126199,0.001911 0.008731,8.0413e-4 -0.001471,-4.1884e-4 -0.001609,-6.2397e-4 -0.001257,-0.00187 2.377e-4,-8.4295e-4 0.001236,-0.001922 0.002509,-0.002714 0.002057,-0.001279 0.002639,-0.002006 0.001606,-0.002006 -2.7944e-4,0 -0.001316,5.2734e-4 -0.002304,0.001172 -9.88e-4,6.4453e-4 -0.002025,0.001172 -0.002304,0.001172 -9.002e-4,0 -5.3986e-4,-0.002622 4.2943e-4,-0.003125 0.001418,-7.3552e-4 0.001238,-0.00169 -2.2678e-4,-0.001201 -0.001424,4.7622e-4 -0.002864,0.002527 -0.002356,0.003354 2.4934e-4,4.0611e-4 -1.3878e-4,7.2677e-4 -0.001179,9.7391e-4 -8.5281e-4,2.0265e-4 -0.001551,5.4859e-4 -0.001551,7.6875e-4 0,4.8206e-4 -1.1616e-4,4.7863e-4 0.002192,6.486e-5 0.001791,-3.2114e-4 0.001868,-2.8498e-4 0.001812,8.4923e-4 -4.75e-5,9.5963e-4 -3.443e-4,0.001198 -0.001563,0.001256 -8.2712e-4,3.906e-5 -0.002348,-9.492e-5 -0.003379,-2.977e-4 -0.001031,-2.0279e-4 -0.002194,-4.2774e-4 -0.002583,-4.999e-4 -0.001057,-1.9575e-4 0.003184,-0.009566 0.00433,-0.009566 2.767e-4,0 0.001293,2.5527e-4 0.002258,5.6727e-4 9.6534e-4,3.12e-4 0.003553,9.4048e-4 0.00575,0.001397 0.006615,0.001373 0.007246,0.00157 0.007875,0.002457 8.7527e-4,0.001234 -1.7004e-4,0.003392 -0.001643,0.003392 -6.4089e-4,0 -0.001336,2.7805e-4 -0.001545,6.1789e-4 -5.5959e-4,9.1141e-4 -4.7433e-4,0.001051 4.994e-4,8.1743e-4 0.00125,-2.9977e-4 0.00301,0.001066 0.002765,0.002146 -1.5031e-4,6.6329e-4 -6.7397e-4,9.4474e-4 -0.001925,0.001035 -9.4531e-4,6.798e-5 -0.001719,-6.386e-5 -0.001719,-2.9297e-4 0,-2.2911e-4 -2.8125e-4,-4.1657e-4 -6.25e-4,-4.1657e-4 -3.4375e-4,0 -6.25e-4,2.4411e-4 -6.25e-4,5.4246e-4 0,7.3631e-4 0.004194,0.00121 0.00536,6.0484e-4 0.00118,-6.1191e-4 0.001134,-0.002709 -8.281e-5,-0.003795 -5.3512e-4,-4.7749e-4 -7.0987e-4,-8.6817e-4 -3.8832e-4,-8.6817e-4 0.001049,0 0.002143,-0.002287 0.001726,-0.003607 -5.3834e-4,-0.001702 -0.003006,-0.00343 -0.004541,-0.00318 -0.001097,1.7922e-4 -0.00609,-8.2906e-4 -0.0115677,-0.002336 -0.002089,-5.7473e-4 -0.002398,-5.7709e-4 -0.003281,-2.508e-5 z m -0.0222249,-0.003799 c 0,2.3057e-4 4.9219e-4,5.8389e-4 0.001094,7.8514e-4 9.0358e-4,3.0229e-4 0.001088,8.9896e-4 0.001062,0.003432 -1.719e-5,0.001686 -2.5862e-4,0.003549 -5.365e-4,0.00414 -3.3663e-4,7.157e-4 -2.7405e-4,0.001074 1.875e-4,0.001074 3.8102e-4,0 6.9276e-4,-3.3009e-4 6.9276e-4,-7.3355e-4 0,-4.0345e-4 4.2533e-4,-0.00137 9.4516e-4,-0.002147 6.2075e-4,-9.2853e-4 8.0785e-4,-0.00195 5.4512e-4,-0.002977 -3.0448e-4,-0.00119 -1.9434e-4,-0.001562 4.6109e-4,-0.001558 0.002159,1.5e-5 0.002458,5.6009e-4 0.001461,0.00266 -5.72e-4,0.001204 -8.0362e-4,0.002572 -5.6813e-4,0.003357 3.3152e-4,0.001104 2.1734e-4,0.001315 -6.8726e-4,0.001264 -5.9666e-4,-3.32e-5 -0.001209,1.5939e-4 -0.00136,4.2795e-4 -3.8528e-4,6.8258e-4 0.00261,6.3141e-4 0.003529,-6.029e-5 4.11e-4,-3.0952e-4 5.5316e-4,-9.8506e-4 3.2623e-4,-0.00155 -3.9228e-4,-9.7686e-4 8.624e-4,-0.004938 0.00156,-0.004927 0.001681,2.867e-5 0.001733,7.5978e-4 2.7827e-4,0.003898 -8.439e-4,0.001821 -0.001798,0.003476 -0.002121,0.003678 -3.6583e-4,2.2865e-4 -0.001652,2.1443e-4 -0.003415,-3.773e-5 -0.003435,-4.9131e-4 -0.003752,-4.71e-5 -4.5122e-4,6.3365e-4 0.004581,9.4481e-4 0.005202,6.5321e-4 0.007437,-0.00349 0.001101,-0.002041 0.002015,-0.003914 0.002031,-0.004162 1.625e-5,-2.4805e-4 -0.001529,-0.001001 -0.003433,-0.001672 -0.001904,-6.7171e-4 -0.003295,-0.00139 -0.003091,-0.001597 2.0445e-4,-2.0675e-4 -2.7653e-4,-3.5225e-4 -0.001069,-3.2336e-4 -7.923e-4,2.891e-5 -0.002214,-7.921e-5 -0.003159,-2.4025e-4 -0.001098,-1.8712e-4 -0.001719,-1.4149e-4 -0.001719,1.2642e-4 z"
         inkscape:connector-curvature="0" /><path
         style="fill:#000000"
         d="m 0.3710415,0.74283847 c -2.2917e-4,1.4323e-4 -4.1667e-4,3.8623e-4 -4.1667e-4,5.4e-4 0,6.0855e-4 0.0153748,0.003261 0.0270914,0.004675 0.003683,4.4425e-4 0.008446,0.00114 0.010584,0.001547 0.00529,0.001006 0.008575,0.001349 0.008575,8.9578e-4 0,-5.9624e-4 -0.009184,-0.002322 -0.0192462,-0.003617 -0.0130909,-0.001685 -0.0239117,-0.003384 -0.0247045,-0.003879 -7.7654e-4,-4.8533e-4 -0.001293,-5.295e-4 -0.001883,-1.61e-4 z"
         id="path5161"
         inkscape:connector-curvature="0" /><path
         style="fill:#000000"
         d="m 0.5128125,0.77417803 c -0.003437,3.9205e-4 -0.008641,0.001208 -0.0115625,0.001814 -0.004646,9.6336e-4 -0.006605,0.001131 -0.015625,0.001341 -0.0100154,2.3224e-4 -0.010415,2.7403e-4 -0.0138689,0.001451 -0.003789,0.00129 -0.004183,0.001832 -9.2777e-4,0.001274 l 0.001984,-3.4062e-4 -0.001875,9.7089e-4 c -0.001031,5.34e-4 -0.003367,0.001432 -0.005191,0.001995 -0.003767,0.001164 -0.003672,0.002122 1.2546e-4,0.001264 0.00255,-5.764e-4 0.008679,-0.003764 0.00819,-0.004259 -5.5806e-4,-5.6436e-4 0.003463,-8.8545e-4 0.0121885,-9.7323e-4 0.007694,-7.74e-5 0.009071,-2.0735e-4 0.015625,-0.001474 0.010224,-0.001976 0.0174318,-0.002684 0.0272542,-0.002679 0.004607,2.73e-6 0.008628,1.0195e-4 0.008935,2.2045e-4 7.063e-4,2.7282e-4 0.004603,-1.9735e-4 0.004123,-4.9745e-4 -3.9774e-4,-2.4858e-4 -0.002473,-3.364e-4 -0.0146871,-6.2161e-4 -0.006546,-1.5285e-4 -0.009839,-3.719e-5 -0.0146875,5.158e-4 z"
         id="path5155"
         inkscape:connector-curvature="0" /><path
         style="fill:#000000"
         d="m 0.5102974,0.7922027 c -1.9132e-4,1.9348e-4 5.7754e-4,5.9559e-4 0.001709,8.9358e-4 0.001923,5.0654e-4 0.008411,0.004429 0.007878,0.004763 -1.3334e-4,8.334e-5 -0.002143,-2.7972e-4 -0.004467,-8.068e-4 -0.004271,-9.6882e-4 -0.00645,-0.001141 -0.009011,-7.1212e-4 -0.002466,4.1304e-4 -0.001509,9.1951e-4 0.001285,6.8013e-4 0.002158,-1.849e-4 0.003643,1.707e-5 0.007497,0.00102 0.002643,6.8761e-4 0.005803,0.001674 0.007024,0.002191 0.00122,5.1753e-4 0.002487,9.4096e-4 0.002816,9.4096e-4 0.001052,0 6.3966e-4,-0.001027 -7.2081e-4,-0.001795 -7.2492e-4,-4.0928e-4 -0.002407,-0.001711 -0.003738,-0.002893 -0.001331,-0.001182 -0.003381,-0.002625 -0.004556,-0.003208 -0.002262,-0.001122 -0.005134,-0.001661 -0.005715,-0.001074 z"
         id="path5145"
         inkscape:connector-curvature="0" /><path
         id="path5143"
         style="fill:#0000be;fill-opacity:1"
         d="m 0.32557489,0.79333077 c 0,4.0177e-4 0.003511,0.001591 0.004698,0.001591 4.1554e-4,0 0.001817,5.2735e-4 0.003115,0.001172 0.002321,0.001153 0.004688,0.001547 0.004688,7.8125e-4 0,-2.1484e-4 -3.832e-4,-3.9063e-4 -8.5156e-4,-3.9063e-4 -4.6836e-4,0 -0.001913,-5.2734e-4 -0.003211,-0.001172 -0.001298,-6.4453e-4 -0.002954,-0.001177 -0.00368,-0.001184 -7.2617e-4,-6.83e-6 -0.001866,-2.705e-4 -0.002534,-5.8593e-4 -0.001389,-6.5654e-4 -0.002224,-7.3598e-4 -0.002224,-2.115e-4 z m 0.001593,-0.001039 c 1.672e-4,2.7234e-4 0.001635,6.9643e-4 0.003262,9.4245e-4 0.001627,2.4601e-4 0.00345,5.6935e-4 0.004051,7.1852e-4 6.0156e-4,1.4917e-4 0.001094,9.857e-5 0.001094,-1.1244e-4 0,-2.1101e-4 -0.001671,-6.1529e-4 -0.003712,-8.984e-4 -0.002042,-2.8311e-4 -0.003572,-6.5661e-4 -0.003401,-8.3001e-4 1.7146e-4,-1.7339e-4 -1.1789e-4,-3.1527e-4 -6.4302e-4,-3.1527e-4 -5.2512e-4,0 -8.1796e-4,2.2282e-4 -6.5076e-4,4.9515e-4 z m -0.004417,-0.003327 c -2.3295e-4,0.00145 -6.7033e-4,0.00334 -9.7197e-4,0.004199 -8.248e-4,0.00235 -6.8806e-4,0.005135 3.2663e-4,0.006653 7.5654e-4,0.001132 0.001224,0.001355 0.002838,0.001355 0.001668,0 0.002081,-2.1868e-4 0.003017,-0.001595 l 0.001084,-0.001595 0.003875,0.001783 c 0.003374,0.001552 0.003808,0.001895 0.003361,0.002651 -2.826e-4,4.7746e-4 -9.6231e-4,0.001045 -0.00151,0.001261 -0.001163,4.5841e-4 -0.00305,-4.293e-4 -0.004907,-0.002309 -6.37e-4,-6.4453e-4 -0.001159,-9.0507e-4 -0.001161,-5.7896e-4 -3.13e-6,8.27e-4 0.002891,0.003404 0.004385,0.003903 0.001692,5.6599e-4 0.003435,-7.09e-5 0.004265,-0.001558 3.6203e-4,-6.4907e-4 9.0883e-4,-0.00118 0.001215,-0.00118 6.1989e-4,0 6.3271e-4,-0.002552 1.475e-5,-0.002939 -2.1589e-4,-1.3492e-4 -5.7777e-4,1.195e-4 -8.0419e-4,5.6538e-4 -5.2584e-4,0.001035 -6.0621e-4,0.001027 -0.004702,-5.0631e-4 -0.002835,-0.001061 -0.003399,-0.001449 -0.00322,-0.002213 1.9649e-4,-8.3832e-4 1.1442e-4,-8.7278e-4 -8.6665e-4,-3.639e-4 -5.9603e-4,3.0917e-4 -0.001596,0.001309 -0.002222,0.002222 -0.002001,0.002917 -0.004061,0.00132 -0.003935,-0.003049 7.144e-5,-0.00247 0.00143,-0.007397 0.002033,-0.007374 2.1888e-4,8.36e-6 0.001945,6.1215e-4 0.003835,0.001342 0.005712,0.002204 0.0112539,0.004112 0.0119462,0.004112 4.3128e-4,0 5.8321e-4,0.001725 4.4724e-4,0.005079 -1.1326e-4,0.002793 5e-6,0.005078 2.6283e-4,0.005078 2.5781e-4,-3e-7 4.888e-4,-5.7184e-4 5.133e-4,-0.00127 4.281e-5,-0.00122 1.278e-4,-0.00184 8.9024e-4,-0.006492 3.6179e-4,-0.002208 -2.7826e-4,-0.003174 -0.002105,-0.003178 -0.001103,-2.34e-6 -0.0126166,-0.004486 -0.0149455,-0.00582 -7.8556e-4,-4.4994e-4 -0.001677,-8.1808e-4 -0.001982,-8.1808e-4 -3.0426e-4,0 -7.438e-4,0.001187 -9.7675e-4,0.002637 z"
         inkscape:connector-curvature="0" /><path
         id="path5274"
         style="fill:#0000be;fill-opacity:1"
         d="m 0.3260711,0.76897522 c 4.141e-5,-2.82e-6 8.442e-5,-1.272e-5 1.289e-4,-2.991e-5 3.4375e-4,-1.3278e-4 6.25e-4,-4.8434e-4 6.25e-4,-7.8125e-4 0,-2.969e-4 -2.8125e-4,-6.4847e-4 -6.25e-4,-7.8125e-4 -3.5587e-4,-1.3746e-4 -6.25e-4,1.9894e-4 -6.25e-4,7.8125e-4 0,5.0952e-4 2.0618e-4,8.309e-4 4.961e-4,8.1116e-4 z m 0.0112353,0.007947 c -9.21e-5,-6.72e-6 -2.5193e-4,-1.5803e-4 -5.3125e-4,-4.5777e-4 -3.51e-4,-3.7596e-4 -0.001116,-6.8657e-4 -0.0017,-6.8969e-4 -8.9574e-4,-5.04e-6 -9.1806e-4,-6.267e-5 -1.4551e-4,-3.6805e-4 0.001111,-4.39e-4 0.002529,1.8772e-4 0.002502,0.001106 -8.34e-6,2.7876e-4 -3.29e-5,4.1626e-4 -1.25e-4,4.0955e-4 z m 0.001749,0.003031 c -0.001208,9.388e-5 -0.0109463,-0.004408 -0.0109688,-0.005112 l 9.8e-7,0 c -7e-6,-1.9443e-4 4.8047e-4,-9.017e-5 0.001082,2.3132e-4 6.01e-4,3.21e-4 0.002816,0.001227 0.004921,0.002012 0.003933,0.001467 0.005683,0.002452 0.005055,0.002845 -2.06e-5,1.287e-5 -5.086e-5,2.077e-5 -8.984e-5,2.38e-5 z m 0.001439,0.009052 c -3.1011e-4,1.567e-5 -5.4792e-4,-1.4669e-4 -5.5175e-4,-3.9734e-4 -7.4e-6,-4.82e-4 -0.001526,-0.001397 -0.0104824,-0.006322 -0.001817,-9.9891e-4 -0.003119,-0.001816 -0.002895,-0.001816 4.478e-4,0 0.00659,0.002979 0.0102656,0.00498 0.001282,6.9871e-4 0.002509,0.00127 0.002726,0.00127 2.1615e-4,0 3.9258e-4,-7.9397e-4 3.9258e-4,-0.001764 0,-0.001571 -2.2225e-4,-0.001849 -0.002031,-0.002538 -0.001118,-4.2572e-4 -0.002552,-7.7497e-4 -0.003188,-7.7575e-4 -6.36e-4,-1e-6 -0.002142,-6.1707e-4 -0.003345,-0.001369 -0.001203,-7.5177e-4 -0.002441,-0.001367 -0.00275,-0.001367 -7.5466e-4,0 -7.1647e-4,-6.7564e-4 5.468e-5,-9.7351e-4 3.39e-4,-1.31e-4 0.001492,3.8588e-4 0.002564,0.001149 0.001093,7.7734e-4 0.002538,0.001388 0.00329,0.001389 7.38e-4,8e-7 0.002262,3.5236e-4 0.003388,7.8125e-4 0.001126,4.2888e-4 0.002196,7.7942e-4 0.002378,7.7942e-4 1.8162e-4,0 2.743e-4,-0.0013 2.0703e-4,-0.002888 l -1.2207e-4,-0.002888 -0.003019,-0.001409 c -0.001661,-7.7503e-4 -0.003141,-0.001409 -0.00329,-0.001409 -1.4861e-4,0 -1.2421e-4,3.9551e-4 5.469e-5,8.7891e-4 l 3.2519e-4,8.789e-4 -0.001045,-8.7951e-4 c -5.7475e-4,-4.8395e-4 -8.7704e-4,-0.00105 -6.7188e-4,-0.001257 4.77e-4,-4.82e-4 -0.004534,-0.003332 -0.005859,-0.003332 -0.001329,0 -0.002219,0.004148 -0.001274,0.005937 4.5766e-4,8.67e-4 4.6208e-4,0.001698 1.465e-5,0.002711 -3.5493e-4,8.03e-4 -4.7602e-4,0.001911 -2.6953e-4,0.002461 2.5627e-4,6.8283e-4 1.7039e-4,8.7638e-4 -2.6953e-4,6.0974e-4 -0.001635,-9.907e-4 -0.001984,-0.0152044 -3.8281e-4,-0.0155884 0.001279,-3.06e-4 0.003495,0.001368 0.003181,0.002405 -1.4644e-4,4.834e-4 -4.923e-5,8.789e-4 2.168e-4,8.789e-4 4.875e-4,0 0.006808,0.003179 0.0102803,0.005171 0.001022,5.8604e-4 0.002086,0.001066 0.002381,0.001075 l 1.66e-5,3.241e-4 0.001267,0.001255 c -1.1508e-4,8.0735e-4 -2.8909e-4,0.003124 -4.2871e-4,0.005836 -1.9808e-4,0.003846 -5.5808e-4,0.006094 -9.9121e-4,0.006185 -4.678e-5,9.74e-6 -9.241e-5,1.607e-5 -1.3672e-4,1.831e-5 z"
         inkscape:connector-curvature="0" /><path
         id="path5139"
         style="fill:#000000"
         d="m 0.28216504,0.73924927 c -1.1252e-4,4.7e-6 -1.8952e-4,-4.81e-6 -2.2754e-4,-2.991e-5 -2.0668e-4,-1.3646e-4 4.591e-5,-4.0928e-4 5.6153e-4,-6.0608e-4 5.16e-4,-1.97e-4 0.003075,-0.001144 0.005687,-0.002104 0.002612,-9.6e-4 0.005185,-0.002053 0.005719,-0.002428 0.00213,-0.001498 0.008435,-0.0153345 0.0116943,-0.0256598 7.4186e-4,-0.00235 0.00149,-0.004414 0.001662,-0.00459 4.3248e-4,-4.3592e-4 0.001488,-3.9677e-4 0.001488,5.554e-5 0,9.682e-4 -0.00286,0.009452 -0.005076,0.0150586 -0.003408,0.008624 -0.006596,0.0145021 -0.008595,0.0158521 -0.001679,0.001132 -0.0112252,0.004381 -0.0129131,0.004451 z m -0.007846,0.036142 c 4.81e-4,0 0.001664,-0.003539 0.00232,-0.006934 4.26e-4,-0.002201 -2.117e-5,-0.002478 -0.002576,-0.001595 -0.004632,0.001601 -0.005303,0.00371 -0.00213,0.006704 0.001063,0.001004 0.002137,0.001825 0.002386,0.001825 z m 0.00289,0.022558 c -4.873e-5,-4.4e-7 -8.638e-5,-7.6e-6 -1.1035e-4,-2.259e-5 -5.6e-4,-3.51e-4 3.9097e-4,-0.001059 0.002501,-0.001863 0.002473,-9.4263e-4 0.00672,-9.703e-4 0.0102353,-6.714e-5 0.00263,6.7622e-4 0.003474,0.00127 0.001804,0.00127 -4.74e-4,0 -0.00187,-2.6367e-4 -0.003104,-5.8593e-4 -0.003513,-9.1777e-4 -0.006863,-7.5716e-4 -0.009137,4.3884e-4 -9.38e-4,4.9336e-4 -0.001847,8.3314e-4 -0.002188,8.3008e-4 z m 0.006057,0.009308 c -8.718e-5,-6.04e-6 -1.7178e-4,-1.876e-5 -2.5391e-4,-3.845e-5 -0.00182,-4.36e-4 -0.001835,-0.001358 -3.711e-5,-0.002346 0.001955,-0.001075 0.002882,-0.001054 0.003149,7.08e-5 2.4187e-4,0.001019 -0.001551,0.002404 -0.002858,0.002313 z m 0.0447139,0.00577 c 4.3899e-4,2.07e-6 9.6125e-4,-5.995e-5 0.001594,-1.7333e-4 0.003255,-5.8295e-4 0.003469,-0.001063 0.001052,-0.002342 -0.003022,-0.001599 -0.004005,-0.001913 -0.004903,-0.001566 -5.7814e-4,2.24e-4 -6.2114e-4,7.2504e-4 -1.6894e-4,0.001983 5.4225e-4,0.001509 0.00111,0.002092 0.002427,0.002098 z m -0.0589932,0.002117 c 1.0476e-4,9.5e-7 1.9481e-4,-3.55e-6 2.6758e-4,-1.403e-5 6.16e-4,-8.88e-5 -6.672e-5,-3.53e-4 -0.001637,-6.3233e-4 -0.001482,-2.6374e-4 -0.00317,-5.5969e-4 -0.00375,-6.5796e-4 -5.8e-4,-9.826e-5 1.5672e-4,1.8588e-4 0.001637,6.3172e-4 0.001295,3.9012e-4 0.002749,6.6599e-4 0.003482,6.726e-4 z m 0.007006,6.8787e-4 c 0.001755,3.625e-5 0.004427,-3.2941e-4 0.006972,-0.001012 0.005557,-0.001491 0.0122534,-0.007591 0.0130527,-0.0118909 4.5e-4,-0.002423 -5.697e-4,-0.005996 -0.002346,-0.008219 -0.002968,-0.003714 -0.0106075,-0.007006 -0.0213525,-0.009201 -0.008236,-0.001683 -0.017413,-0.001487 -0.021543,4.6021e-4 -0.006732,0.003173 -0.0110015,0.007671 -0.0108623,0.0114447 1.01e-4,0.002737 0.001246,0.004345 0.004895,0.006883 0.00564,0.003921 0.0124958,0.006686 0.0233184,0.009404 0.002922,7.34e-4 0.005684,0.001554 0.006139,0.001824 3.2094e-4,1.905e-4 9.2969e-4,2.9053e-4 0.001728,3.0701e-4 z m 1.9336e-4,0.001069 c -0.005979,-5.8e-5 -0.0147273,-0.001859 -0.0141631,-0.002917 1.24e-4,-2.33e-4 -0.001501,-9.8676e-4 -0.003611,-0.001674 -0.0129445,-0.004217 -0.0209102,-0.0101395 -0.0209102,-0.0155475 0,-0.002044 0.003057,-0.005967 0.006897,-0.008851 0.005494,-0.004126 0.0128958,-0.005562 0.0235117,-0.004559 0.003817,3.6e-4 0.004639,-1.4805e-4 0.004124,-0.00255 -2.1496e-4,-0.001002 1.359e-5,-0.001808 6.9824e-4,-0.002461 0.001459,-0.001391 0.001285,-0.001983 -0.001078,-0.003634 -0.002845,-0.001988 -0.003528,-0.002901 -0.003528,-0.004717 0,-0.001922 0.001233,-0.00287 0.005415,-0.00416 0.003695,-0.00114 0.00339,-5.7189e-4 0.004899,-0.009192 5.0759e-4,-0.0029 9.2657e-4,-0.008706 9.2969e-4,-0.012901 5e-6,-0.007141 -3.2903e-4,-0.0102418 -0.001832,-0.0169818 -3.36e-4,-0.001504 -0.001069,-0.005195 -0.001631,-0.008203 -0.001047,-0.005604 -0.002157,-0.009145 -0.003753,-0.0119721 -4.953e-4,-8.7687e-4 -8.9954e-4,-0.001746 -9.0332e-4,-0.001939 0,0 0,-6.2e-7 0,-6.2e-7 8.9e-7,-1.8756e-4 4.1445e-4,-3.4118e-4 9.1992e-4,-3.4118e-4 5.88e-4,0 0.00128,8.1109e-4 0.001916,0.002246 5.47e-4,0.001235 0.00139,0.003125 0.001873,0.004199 7.29e-4,0.001622 0.003506,0.0141321 0.003324,0.0149756 -3.063e-5,1.4223e-4 1.018e-5,3.4668e-4 9.082e-5,4.541e-4 8.064e-5,1.07e-4 2.2538e-4,0.001074 3.2227e-4,0.002148 9.689e-5,0.001074 4.8437e-4,0.003535 8.6035e-4,0.005469 9.9012e-4,0.00509 8.4801e-4,0.0161078 -2.9199e-4,0.0226318 -5.4214e-4,0.003104 -8.937e-4,0.006 -7.8125e-4,0.006436 1.87e-4,7.23e-4 7.5551e-4,5.9674e-4 0.006479,-0.001442 0.003451,-0.00123 0.007382,-0.002807 0.008736,-0.003505 0.001354,-6.9871e-4 0.002832,-0.00127 0.003284,-0.00127 4.52e-4,0 0.002034,8.3486e-4 0.003516,0.001855 0.001481,0.00102 0.004735,0.003261 0.007229,0.00498 0.002493,0.001718 0.004762,0.003477 0.005042,0.003906 2.8327e-4,4.35e-4 4.6026e-4,-0.002332 4.0039e-4,-0.00625 -1.5e-4,-0.009808 9.8932e-4,-0.009498 0.001662,4.5227e-4 5.06e-4,0.007491 5.5916e-4,0.007708 0.002035,0.008434 0.002068,0.001017 0.00305,0.00222 0.002231,0.002732 -4.38e-4,2.7392e-4 -0.001099,6.84e-5 -0.002089,-6.4942e-4 l -0.001447,-0.00105 -6.543e-5,0.0118378 c -7.3e-5,0.0134359 -5.7129e-4,0.0186737 -0.001779,0.0186737 -0.001099,0 -0.001945,-0.00509 -9.1211e-4,-0.005489 5.2712e-4,-2.035e-4 8.2689e-4,-0.003626 0.001055,-0.0120276 3.54e-4,-0.0130602 8.654e-5,-0.0144324 -0.00323,-0.0165924 -0.002467,-0.001607 -0.0103311,-0.007153 -0.0118311,-0.008345 -0.001387,-0.001102 -0.002386,-0.001142 -0.003819,-1.5198e-4 -5.99e-4,4.14e-4 -0.004692,0.002021 -0.009094,0.003571 l -0.008004,0.002818 -4.2676e-4,0.002972 c -2.34e-4,0.001635 -8.5302e-4,0.004171 -0.001375,0.005636 -0.001077,0.003024 -0.001249,0.002824 0.004171,0.004843 0.003737,0.001393 0.008171,0.003461 0.013125,0.006121 0.002234,0.0012 0.004404,0.002184 0.00482,0.002187 0.001551,1.1e-5 0.0148868,0.008034 0.0139531,0.008395 -3.61e-4,1.39e-4 -0.002272,-7.7215e-4 -0.004246,-0.002025 -0.003391,-0.002153 -0.009484,-0.005583 -0.009915,-0.005583 -1.0891e-4,0 -2.058e-5,3.0761e-4 1.9629e-4,6.8359e-4 2.75e-4,4.7594e-4 -6.418e-5,3.8695e-4 -0.001117,-2.9297e-4 -0.005613,-0.003626 -0.0214113,-0.0105911 -0.0224473,-0.009896 -2.671e-4,1.79e-4 -8.0411e-4,0.00128 -0.001194,0.002447 -3.9e-4,0.001167 -0.001023,0.002357 -0.001406,0.002646 -8.53e-4,6.4212e-4 -0.001015,5.6725e-4 0.003544,0.00163 0.005715,0.001332 0.0115255,0.003502 0.0146885,0.005486 0.009394,0.005891 0.008906,0.0154855 -0.001137,0.0223425 -0.004192,0.002862 -0.008253,0.004017 -0.0139297,0.003963 z m 0.0678203,0.001066 c -2.03e-4,0 -0.002477,-0.001214 -0.005054,-0.002698 l -0.004686,-0.002698 -0.003136,0.001017 c -0.0029,9.4015e-4 -0.003262,9.7335e-4 -0.00479,4.3823e-4 -0.002242,-7.85e-4 -0.003535,-0.003198 -0.002746,-0.005125 5.93e-4,-0.001448 5.9175e-4,-0.00145 -0.002906,-0.00297 -0.001925,-8.3666e-4 -0.004274,-0.001638 -0.00522,-0.001781 C 0.31452319,0.80400805 0.31375,0.80363116 0.31375,0.80331299 l 1.96e-6,0 c 0,-3.1817e-4 2.8125e-4,-5.7861e-4 6.25e-4,-5.7861e-4 3.4375e-4,0 6.25e-4,1.7578e-4 6.25e-4,3.9062e-4 0,2.1484e-4 3.933e-4,3.9062e-4 8.7402e-4,3.9062e-4 4.81e-4,0 0.002384,4.9632e-4 0.004231,0.001104 0.001847,6.072e-4 0.003665,0.001041 0.004039,9.6253e-4 3.75e-4,-7.804e-5 0.001104,2.6001e-4 0.00162,7.5134e-4 5.16e-4,4.92e-4 0.00267,0.001743 0.004786,0.002781 l 0.003848,0.001887 0.001583,-0.002238 c 0.001116,-0.001577 0.001779,-0.002116 0.002246,-0.001824 4.6727e-4,2.92e-4 1.8125e-4,0.001072 -9.6875e-4,0.002642 l -0.001632,0.002227 0.004373,0.002531 c 0.00375,0.002169 0.00536,0.003629 0.004004,0.003629 z m 0.003682,0.001656 c -2.9032e-4,-4.437e-5 -5.3257e-4,-4.0405e-4 -5.6445e-4,-8.7402e-4 -0.0019,-0.0280077 -0.001992,-0.0327387 -6.7969e-4,-0.0350867 l 9.4238e-4,-0.001688 -0.002515,-0.002726 c -0.001276,-0.001383 -0.002407,-0.002487 -0.002655,-0.002599 l -8.79e-6,-1.8432e-4 -0.001404,-0.00139 8.79e-6,1.6785e-4 c -5.2667e-4,-8.8735e-4 -0.006387,-0.006158 -0.0133389,-0.0119623 -0.006121,-0.005111 -0.0112227,-0.009653 -0.0112227,-0.009991 l 1.96e-6,0 c 0,-7.63e-4 0.002094,7.9077e-4 0.009516,0.007062 0.0120955,0.0102204 0.0155174,0.0132616 0.0192754,0.0171326 0.002026,0.002087 0.003941,0.003598 0.004822,0.003808 9.5313e-4,2.2648e-4 0.001292,5.1795e-4 9.7461e-4,8.3679e-4 -2.679e-4,2.69e-4 -4.002e-4,9.0921e-4 -2.9395e-4,0.001423 1.61e-4,7.7744e-4 -2.528e-5,8.9799e-4 -0.001113,7.2022e-4 -7.1879e-4,-1.174e-4 -0.001326,-1.8618e-4 -0.001351,-1.5259e-4 -5.9292e-4,8.154e-4 -9.1932e-4,0.008459 -5.3613e-4,0.012561 8.158e-4,0.008733 9.8015e-4,0.0228256 2.6758e-4,0.0229437 -4.297e-5,7.12e-6 -8.45e-5,6.95e-6 -1.2598e-4,6.1e-7 z"
         inkscape:connector-curvature="0" /><path
         style="fill:#000000"
         d="m 0.50791667,0.80494777 c -8.4683e-4,5.2926e-4 -3.7948e-4,9.9649e-4 8.0336e-4,8.0317e-4 6.7102e-4,-1.0967e-4 0.001317,-1.832e-5 0.001435,2.0297e-4 2.3419e-4,4.3912e-4 0.00297,-4.543e-4 0.00297,-9.699e-4 0,-3.65e-4 -0.004631,-3.9723e-4 -0.005208,-3.625e-5 z"
         id="path5137"
         inkscape:connector-curvature="0" /><path
         style="fill:#000000"
         d="m 0.54375047,0.81806627 c 1.25e-6,9.8833e-4 0.003887,0.005604 0.005719,0.006792 0.001189,7.7129e-4 0.001637,0.001323 0.00121,0.001488 -7.9778e-4,3.0815e-4 -9.1809e-4,0.001388 -1.5464e-4,0.001388 2.8857e-4,0 8.2812e-4,-4.1625e-4 0.001199,-9.2499e-4 5.7494e-4,-7.8867e-4 3.7384e-4,-0.001189 -0.001365,-0.002717 -0.001121,-9.8581e-4 -0.002802,-0.002855 -0.003734,-0.004153 -0.001569,-0.002185 -0.002876,-0.003036 -0.002875,-0.001872 z"
         id="path5135"
         inkscape:connector-curvature="0" /><path
         style="fill:#000000"
         d="m 0.52357037,0.81821109 c -0.001002,6.2647e-4 -3.0724e-4,0.002784 0.002105,0.006535 0.002528,0.003931 0.005453,0.007283 0.006356,0.007285 6.4919e-4,7.8e-7 5.8946e-4,-6.8782e-4 -8.214e-5,-9.4723e-4 -3.0298e-4,-1.1704e-4 -0.00127,-0.001314 -0.002148,-0.00266 -0.005284,-0.008096 -0.005907,-0.009781 -0.003468,-0.009382 9.5976e-4,1.5686e-4 0.001253,6.447e-5 0.001046,-3.2954e-4 -3.1134e-4,-5.9162e-4 -0.003081,-9.5542e-4 -0.003809,-5.0035e-4 z"
         id="path5133"
         inkscape:connector-curvature="0" /><path
         style="fill:#000000"
         d="m 0.53572507,0.81923409 c -0.001188,7.4238e-4 -8.4944e-4,0.001566 0.00157,0.003821 0.001262,0.001177 0.002766,0.003018 0.003342,0.004093 7.9439e-4,0.001482 0.001388,0.001985 0.002462,0.002084 9.7008e-4,8.947e-5 0.00132,-3.34e-5 0.001111,-3.9063e-4 -1.672e-4,-2.8663e-4 -5.9699e-4,-4.8208e-4 -9.5511e-4,-4.3433e-4 -3.5811e-4,4.776e-5 -8.3271e-4,-5.8495e-4 -0.001055,-0.001406 -2.2194e-4,-8.2106e-4 -0.001479,-0.002586 -0.002795,-0.003923 -0.001356,-0.001378 -0.002262,-0.002737 -0.002094,-0.00314 3.6815e-4,-8.7988e-4 -6.1075e-4,-0.001314 -0.001587,-7.0423e-4 z"
         id="path5131"
         inkscape:connector-curvature="0" /></g></g></svg>