<?xml version="1.0" encoding="UTF-8" standalone="no"?>
<!-- Created with Inkscape (http://www.inkscape.org/) -->

<svg
   xmlns:dc="http://purl.org/dc/elements/1.1/"
   xmlns:cc="http://creativecommons.org/ns#"
   xmlns:rdf="http://www.w3.org/1999/02/22-rdf-syntax-ns#"
   xmlns:svg="http://www.w3.org/2000/svg"
   xmlns="http://www.w3.org/2000/svg"
   xmlns:sodipodi="http://sodipodi.sourceforge.net/DTD/sodipodi-0.dtd"
   xmlns:inkscape="http://www.inkscape.org/namespaces/inkscape"
   id="svg2"
   version="1.1"
   inkscape:version="0.91 r13725"
   xml:space="preserve"
   width="732.19043"
   height="662.11182"
   viewBox="0 0 732.19043 662.11182"
   sodipodi:docname="stick_interview.svg"><metadata
     id="metadata8"><rdf:RDF><cc:Work
         rdf:about=""><dc:format>image/svg+xml</dc:format><dc:type
           rdf:resource="http://purl.org/dc/dcmitype/StillImage" /><dc:title /></cc:Work></rdf:RDF></metadata><defs
     id="defs6"><clipPath
       clipPathUnits="userSpaceOnUse"
       id="clipPath3350"><rect
         style="opacity:0.96600001;fill:#000099;fill-opacity:0.39215686"
         id="rect3352"
         width="0.37096131"
         height="0.21678856"
         x="0.22011387"
         y="-0.84051412"
         transform="scale(1,-1)"
         ry="0" /></clipPath></defs><sodipodi:namedview
     pagecolor="#ffffff"
     bordercolor="#666666"
     borderopacity="1"
     objecttolerance="10"
     gridtolerance="10"
     guidetolerance="10"
     inkscape:pageopacity="0"
     inkscape:pageshadow="2"
     inkscape:window-width="1680"
     inkscape:window-height="948"
     id="namedview4"
     showgrid="false"
     fit-margin-top="0"
     fit-margin-left="0"
     fit-margin-right="0"
     fit-margin-bottom="0"
     inkscape:zoom="0.58092308"
     inkscape:cx="554.4051"
     inkscape:cy="161.92946"
     inkscape:window-x="0"
     inkscape:window-y="30"
     inkscape:window-maximized="1"
     inkscape:current-layer="g12" /><g
     id="g10"
     inkscape:groupmode="layer"
     inkscape:label="Teuns website diensten drawings_1"
     transform="matrix(1.25,0,0,-1.25,-462.45994,2714.6452)"><g
       id="g12"
       transform="matrix(1600,0,0,2560,10,20)"><path
         style="fill:#000000;stroke:#000000;stroke-opacity:1;stroke-width:0.00079057;stroke-miterlimit:4;stroke-dasharray:none"
         d="m 0.28625,0.63384907 c 0,1.4042e-4 0.001093,8.8749e-4 0.00243,0.00166 0.002516,0.001455 0.003082,0.002346 0.006282,0.009881 0.00309,0.007277 0.003227,0.00866 0.00321,0.0324358 -9.13e-6,0.0123031 3.668e-5,0.0260607 1.0178e-4,0.0305724 6.509e-5,0.004512 5.832e-5,0.0118897 -1.506e-5,0.0163955 -1.4722e-4,0.009041 -1.2802e-4,0.009019 -0.003531,0.004112 -9.6864e-4,-0.001396 -0.004013,-0.00559 -0.006766,-0.009318 -0.002752,-0.003728 -0.005136,-0.007508 -0.005297,-0.008399 -2.6121e-4,-0.001448 2.038e-5,-0.001889 0.002656,-0.004159 0.001621,-0.001396 0.004517,-0.003545 0.006434,-0.004774 0.001917,-0.00123 0.003299,-0.002353 0.003069,-0.002497 -6.4152e-4,-4.0095e-4 -0.005884,0.002451 -0.00899,0.00489 -0.004254,0.003341 -0.005411,0.004946 -0.004932,0.006838 2.2254e-4,8.7862e-4 0.004329,0.006709 0.009126,0.0129561 l 0.008722,0.0113585 0,0.005488 c 0,0.004248 1.9929e-4,0.005592 8.8186e-4,0.005946 4.8502e-4,2.5159e-4 0.001034,3.0399e-4 0.001219,1.1647e-4 1.8543e-4,-1.8753e-4 4.6e-5,-0.004195 -3.0982e-4,-0.008906 -3.5583e-4,-0.004711 -5.0932e-4,-0.014805 -3.411e-4,-0.0224319 1.6823e-4,-0.007627 6.715e-5,-0.0152734 -2.2463e-4,-0.0169922 -7.5133e-4,-0.004426 -8.4006e-4,-0.0131731 -2.8927e-4,-0.0285156 6.0041e-4,-0.0167245 -5.068e-5,-0.0203456 -0.00565,-0.0314246 -0.001358,-0.002686 -0.001903,-0.003247 -0.004172,-0.00429 -0.002561,-0.001177 -0.003614,-0.001452 -0.003614,-9.4429e-4 z m 0.0486059,0.00453 c -0.001269,0.001222 -0.004033,0.005767 -0.009205,0.0151367 -0.004816,0.008724 -0.006926,0.0118459 -0.009545,0.0141169 -0.003174,0.002753 -0.008192,0.003505 -0.0115633,0.001732 -0.001127,-5.9275e-4 -0.002107,-8.3073e-4 -0.002615,-6.3477e-4 -5.7093e-4,2.2054e-4 -6.0647e-4,3.9272e-4 -1.1985e-4,5.8068e-4 3.8046e-4,1.4696e-4 6.9173e-4,1.533e-4 6.9173e-4,1.411e-5 0,-1.392e-4 8.6533e-4,2.0198e-4 0.001923,7.5819e-4 0.00147,7.7301e-4 0.002611,0.001011 0.004844,0.00101 0.003651,-1.95e-6 0.00626,-9.5881e-4 0.008728,-0.003201 0.002365,-0.002148 0.003173,-0.00334 0.007633,-0.0112512 0.005419,-0.009614 0.007833,-0.0136305 0.009623,-0.0160156 8.869e-4,-0.001182 0.001615,-0.002368 0.001619,-0.002637 9.63e-6,-7.6978e-4 -0.001014,-5.7113e-4 -0.002013,3.9063e-4 z m 0.12886632,0.0118373 c -9.8714e-4,7.4339e-4 -9.6129e-4,0.003562 5.069e-5,0.00553 0.001591,0.003094 0.0106777,0.0166294 0.013757,0.0204934 0.001768,0.002219 0.00418,0.004922 0.00536,0.006007 0.00118,0.001085 0.002996,0.003458 0.004037,0.005273 0.001605,0.002801 0.001986,0.004217 0.002515,0.009356 3.429e-4,0.00333 6.3302e-4,0.006318 6.447e-4,0.006641 7.552e-5,0.002082 0.001221,0.0157816 0.001454,0.0173828 0.001411,0.009716 0.001715,0.0153807 0.001441,0.02684 -1.686e-4,0.007045 -1.0122e-4,0.0128084 1.4978e-4,0.0128084 0.001678,0 0.002354,-0.0205867 0.001026,-0.03125 -0.001867,-0.0149919 -0.002512,-0.0246111 -0.001702,-0.0253817 4.1361e-4,-3.9356e-4 3.4345e-4,-7.6614e-4 -2.2068e-4,-0.001172 -5.6286e-4,-4.0482e-4 -9.4278e-4,-0.002404 -0.001189,-0.006259 -2.9362e-4,-0.004592 -6.6344e-4,-0.00624 -0.001955,-0.008708 -0.001729,-0.003306 -0.003692,-0.005935 -0.004727,-0.006335 -0.001209,-4.6694e-4 -0.008765,-0.010357 -0.0135303,-0.0177086 -0.006105,-0.009419 -0.006858,-0.0110709 -0.005824,-0.0127708 6.7532e-4,-0.00111 -1.6005e-4,-0.001594 -0.001287,-7.4531e-4 z m 0.0486996,0.004058 c -4.3e-5,2.2752e-4 -1.3621e-4,5.4552e-4 -2.072e-4,7.0665e-4 -7.1e-5,1.6113e-4 -3.4648e-4,8.2031e-4 -6.1217e-4,0.001465 -2.6569e-4,6.4453e-4 -0.001182,0.002578 -0.002036,0.004297 -8.5415e-4,0.001719 -0.002506,0.005281 -0.003671,0.007917 -0.002228,0.005042 -0.005849,0.0110699 -0.009205,0.0153252 -0.001908,0.002419 -0.002099,0.002533 -0.004034,0.002416 -0.001142,-6.894e-5 -0.002031,5.933e-5 -0.002031,2.9297e-4 0,2.2859e-4 3.9844e-4,4.1561e-4 8.8542e-4,4.1561e-4 4.8697e-4,0 9.916e-4,1.9911e-4 0.001121,4.4247e-4 4.6125e-4,8.6484e-4 0.002997,-1.1206e-4 0.004511,-0.001738 0.002613,-0.002806 0.007165,-0.0102043 0.009476,-0.0154014 0.001219,-0.002741 0.003021,-0.006741 0.004005,-0.008889 9.8426e-4,-0.002148 0.001922,-0.004467 0.002085,-0.005152 1.623e-4,-6.8508e-4 4.6755e-4,-0.00142 6.7834e-4,-0.001633 2.1079e-4,-2.1316e-4 9.742e-5,-4.9798e-4 -2.5194e-4,-6.3293e-4 -3.4935e-4,-1.3495e-4 -6.7035e-4,-5.92e-5 -7.1332e-4,1.6832e-4 z m -0.12635343,0.0530011 c -2.1443e-4,1.3402e-4 1.8515e-4,9.4815e-4 8.8797e-4,0.001809 7.0281e-4,8.6101e-4 0.001643,0.002323 0.002089,0.003249 8.0954e-4,0.001681 8.0792e-4,0.001685 -9.9212e-4,0.002077 -0.002526,5.5044e-4 -0.002279,0.001214 3.5335e-4,9.469e-4 0.001932,-1.9594e-4 0.002199,-1.1236e-4 0.002567,8.0311e-4 2.2568e-4,5.62e-4 6.6617e-4,9.2299e-4 9.7886e-4,8.0221e-4 3.1269e-4,-1.2079e-4 4.0671e-4,-3.8324e-4 2.0894e-4,-5.8324e-4 -1.9777e-4,-2e-4 -1.9668e-4,-3.6363e-4 2.5e-6,-3.6363e-4 4.0938e-4,0 0.005962,0.005273 0.005962,0.005662 0,1.3851e-4 8.4793e-4,0.001022 0.001884,0.001964 0.003674,0.003337 0.008098,0.0113519 0.009349,0.0169356 4.0319e-4,0.0018 0.001486,0.004717 0.002407,0.006482 l 0.001674,0.00321 -0.006876,-2.758e-5 c -0.006956,-2.789e-5 -0.009374,1.3105e-4 -0.010887,7.155e-4 -6.6104e-4,2.5534e-4 -7.5561e-4,8.2e-6 -4.578e-4,-0.001196 2.0645e-4,-8.3498e-4 5.6081e-4,-0.003289 7.8747e-4,-0.005453 3.7934e-4,-0.003622 2.5306e-4,-0.004321 -0.001588,-0.008789 -0.0011,-0.00267 -0.002959,-0.006666 -0.004129,-0.00888 -0.001171,-0.002214 -0.002475,-0.005073 -0.002898,-0.006354 -4.2358e-4,-0.001282 -0.001063,-0.002263 -0.001424,-0.002182 -0.001229,2.7372e-4 -4.4171e-4,0.003239 0.002149,0.008097 0.001424,0.00267 0.003449,0.006789 0.0045,0.009152 0.001831,0.004116 0.001893,0.004502 0.001474,0.00918 -2.405e-4,0.002686 -4.1059e-4,0.005648 -3.7799e-4,0.006584 3.662e-5,0.001051 -4.0144e-4,0.002171 -0.001146,0.00293 -0.001914,0.001951 -0.003293,0.005507 -0.003127,0.008062 8.408e-5,0.001288 -3.663e-5,0.00246 -2.6827e-4,0.002604 -2.3164e-4,1.4479e-4 -4.2116e-4,5.7677e-4 -4.2116e-4,9.5998e-4 0,3.832e-4 -4.8984e-4,8.6806e-4 -0.001089,0.001077 -6.0875e-4,2.1292e-4 -8.4652e-4,5.2278e-4 -5.3943e-4,7.03e-4 3.02e-4,1.7725e-4 6.7466e-4,1.0254e-4 8.2812e-4,-1.6601e-4 3.1068e-4,-5.4429e-4 0.00205,-6.788e-4 0.00205,-1.5967e-4 0,1.8137e-4 0.001195,0.001082 0.002656,0.002002 0.004844,0.00305 0.0123288,0.004571 0.0183326,0.003725 0.007072,-9.954e-4 0.0152612,-0.006231 0.0152612,-0.009756 0,-0.001322 -0.001125,-0.001263 -0.001625,8.511e-5 -0.001112,0.002998 -0.006193,0.006565 -0.011424,0.008021 -0.006031,0.001678 -0.0142783,4.5978e-4 -0.0197149,-0.002912 -0.001809,-0.001122 -0.002839,-0.002046 -0.0025,-0.002243 3.1674e-4,-1.8402e-4 0.002826,-0.001081 0.005576,-0.001993 0.00275,-9.122e-4 0.006828,-0.002331 0.009063,-0.003154 0.002234,-8.2235e-4 0.005891,-0.001764 0.008125,-0.002092 0.004637,-6.806e-4 0.0120179,-7.9663e-4 0.0137532,-2.162e-4 7.8833e-4,2.6369e-4 0.0013,2.6102e-4 0.001566,-8.16e-6 6.0362e-4,-6.1043e-4 -0.003661,-0.001555 -0.007018,-0.001555 -0.007132,7.8e-7 -0.0118434,0.001022 -0.0215407,0.00467 -0.0100041,0.003763 -0.009886,0.003757 -0.009886,5.1604e-4 0,-0.002325 0.002409,-0.007472 0.003148,-0.006725 4.4893e-4,4.5399e-4 5.7655e-4,4.4849e-4 7.9554e-4,-3.426e-5 0.001133,-0.002498 0.001535,-0.002897 0.003556,-0.003533 0.002821,-8.8787e-4 0.00649,-0.001119 0.0110474,-6.961e-4 0.005587,5.1853e-4 0.006215,6.5011e-4 0.008279,0.001736 0.001425,7.4944e-4 0.001923,8.5787e-4 0.001923,4.1864e-4 0,-6.5817e-4 -0.001362,-0.001621 -0.003128,-0.002212 -0.001745,-5.838e-4 -0.003458,-0.003962 -0.004653,-0.009179 -0.001172,-0.005117 -0.004481,-0.0123811 -0.007196,-0.0157996 -0.003231,-0.004067 -0.009302,-0.009997 -0.0115402,-0.0112697 -0.001283,-7.2944e-4 -0.002233,-0.00164 -0.002234,-0.002139 -4.5e-7,-7.9627e-4 -0.003388,-0.005752 -0.003931,-0.005752 -1.2919e-4,0 -4.1033e-4,1.0966e-4 -6.2477e-4,2.4368e-4 z m -0.0471618,0.008563 c -0.003732,6.2812e-4 -0.006805,0.001553 -0.0119135,0.003586 -0.005935,0.002362 -0.008271,0.003696 -0.0114748,0.006553 -0.003192,0.002846 -0.009043,0.006836 -0.0100254,0.006836 -3.1169e-4,0 -3.8846e-4,1.8027e-4 -1.7059e-4,4.0059e-4 6.9895e-4,7.0684e-4 0.006683,-0.002677 0.0107628,-0.006085 0.007778,-0.006499 0.0210437,-0.0110983 0.030622,-0.0106177 0.008099,4.0634e-4 0.0144862,0.003274 0.0253317,0.0113747 0.003485,0.002603 0.008178,0.006039 0.0104297,0.007635 0.002252,0.001597 0.003611,0.002791 0.00302,0.002654 -5.9056e-4,-1.3723e-4 -0.001227,-9.486e-5 -0.001414,9.417e-5 -4.2236e-4,4.2711e-4 0.002945,0.001966 0.004303,0.001966 0.00217,0 7.4675e-4,-0.001645 -0.004784,-0.00553 -0.00318,-0.002234 -0.008221,-0.005918 -0.0112023,-0.008187 -0.008773,-0.006677 -0.0145012,-0.009447 -0.0220886,-0.0106823 -0.004461,-7.2617e-4 -0.007069,-7.2553e-4 -0.0113962,2.73e-6 z m 0.14602829,0.0182616 c -0.001583,9.0346e-4 -0.007028,0.004895 -0.0121012,0.008869 -0.005073,0.003975 -0.0106522,0.008145 -0.0123983,0.009268 -0.003904,0.00251 -0.003391,0.003266 5.8669e-4,8.6421e-4 0.003478,-0.0021 0.0140294,-0.009894 0.0196029,-0.0144803 0.002234,-0.001839 0.004969,-0.003766 0.006077,-0.004282 0.001833,-8.5492e-4 0.002737,-0.001942 0.00158,-0.001899 -2.5781e-4,9.65e-6 -0.001764,7.567e-4 -0.003346,0.00166 z m 0.01069,2.7546e-4 c 0,2.1484e-4 2.8604e-4,3.9062e-4 6.3564e-4,3.9062e-4 3.496e-4,0 0.00267,7.688e-4 0.005156,0.001708 0.007707,0.002913 0.020576,0.007337 0.0248331,0.008538 0.005924,0.001671 0.0246535,0.00635 0.0293631,0.007335 0.005487,0.001148 0.006657,0.001556 0.005612,0.00196 -6.1222e-4,2.3648e-4 -3.301e-4,5.7335e-4 0.001118,0.001335 0.005007,0.002633 0.0142252,0.006018 0.015004,0.005509 2.5609e-4,-1.6734e-4 4.375e-5,-4.6591e-4 -4.7188e-4,-6.6346e-4 -5.1563e-4,-1.9756e-4 -0.00382,-0.001417 -0.007344,-0.002711 -0.005759,-0.002114 -0.007583,-0.003088 -0.005781,-0.003088 3.4375e-4,0 6.25e-4,1.9459e-4 6.25e-4,4.3242e-4 0,2.3783e-4 3.7836e-4,3.4167e-4 8.4079e-4,2.3076e-4 4.6244e-4,-1.109e-4 0.002586,-7.303e-5 0.004719,8.417e-5 0.002133,1.5719e-4 0.004021,1.4124e-4 0.004196,-3.547e-5 3.0607e-4,-3.0953e-4 -0.001624,-4.9728e-4 -0.003452,-3.3575e-4 -4.8594e-4,4.295e-5 -0.001541,-1.1201e-4 -0.002344,-3.4434e-4 -8.0313e-4,-2.3233e-4 -0.002234,-6.1513e-4 -0.003179,-8.5065e-4 -9.4531e-4,-2.3552e-4 -0.002422,-6.7186e-4 -0.003281,-9.6964e-4 -0.003348,-0.00116 -0.006011,-0.001843 -0.007698,-0.001973 -0.002699,-2.0818e-4 -0.0236411,-0.005529 -0.0313647,-0.00797 -0.003781,-0.001195 -0.0113153,-0.003702 -0.0167423,-0.005572 -0.005427,-0.00187 -0.009997,-0.0034 -0.0101563,-0.0034 -1.589e-4,0 -2.8891e-4,1.7579e-4 -2.8891e-4,3.9063e-4 z M 0.26931791,0.7494272 c -0.0199037,0.002286 -0.0337087,0.009548 -0.0409505,0.0215434 -0.004236,0.007016 -0.004537,0.0168981 -6.8952e-4,0.022584 0.004491,0.006636 0.0127974,0.0126496 0.0235721,0.0170647 0.007535,0.003088 0.0154019,0.005568 0.0194156,0.006122 0.009926,0.001369 0.009637,0.001352 0.0117238,6.777e-4 0.001092,-3.5297e-4 0.001986,-8.1303e-4 0.001986,-0.001022 0,-5.2936e-4 -4.2807e-4,-4.7925e-4 -0.002238,2.6197e-4 -0.001284,5.2579e-4 -0.00199,5.6645e-4 -0.003884,2.2373e-4 -0.001273,-2.3036e-4 -0.003905,-6.1621e-4 -0.005849,-8.5745e-4 -0.004105,-5.0957e-4 -0.0133258,-0.003359 -0.0210596,-0.006509 -0.0105393,-0.004292 -0.01939,-0.0111924 -0.0233099,-0.0181744 -0.001872,-0.003335 -0.002025,-0.0114674 -3.0359e-4,-0.0161462 0.003662,-0.009953 0.0135506,-0.0178817 0.0274983,-0.0220481 0.0165806,-0.004953 0.0405487,-0.004957 0.0643217,-1.039e-5 0.0134263,0.002794 0.0230585,0.006232 0.0300289,0.010718 0.007616,0.004902 0.0103303,0.0101205 0.009614,0.0184812 -3.0498e-4,0.003559 -0.001326,0.007454 -0.002717,0.0103684 -2.7816e-4,5.8266e-4 -8.7e-4,6.893e-4 -0.003252,5.8594e-4 -0.002262,-9.813e-5 -0.002912,4.52e-6 -0.002912,4.5959e-4 0,3.7215e-4 7.2173e-4,6.297e-4 0.001978,7.0586e-4 0.001088,6.596e-5 0.002128,3.6369e-4 0.002311,6.6162e-4 5.0779e-4,8.2704e-4 -0.00545,0.007822 -0.009425,0.0110653 -0.008748,0.007138 -0.019638,0.0103229 -0.036426,0.010652 -0.002234,4.38e-5 -0.004625,2.2765e-4 -0.005312,4.0857e-4 -0.002219,5.8394e-4 0.0127027,-1.0277e-4 0.0185764,-8.5489e-4 0.003112,-3.9853e-4 0.007158,-0.001183 0.008991,-0.001744 0.0100672,-0.003078 0.0181086,-0.008841 0.0239467,-0.0171609 0.003827,-0.005454 0.005051,-0.008907 0.005475,-0.0154527 3.2147e-4,-0.004957 2.0308e-4,-0.00607 -9.4801e-4,-0.008913 -0.002952,-0.007294 -0.0107562,-0.012416 -0.0263467,-0.017294 -0.009495,-0.002971 -0.0242952,-0.00579 -0.0343823,-0.006549 -0.007319,-5.5096e-4 -0.0240607,-4.6403e-4 -0.0294321,1.5284e-4 z m 0.2199311,0.0142486 c -0.0171848,0.001707 -0.0309249,0.007418 -0.0370507,0.0153998 -0.005838,0.007607 -0.00544,0.0129413 0.001488,0.0199684 0.006059,0.006146 0.0163153,0.0118067 0.0272682,0.015051 0.002759,8.1729e-4 0.005189,0.001594 0.005401,0.001726 4.4176e-4,2.7609e-4 -9.8712e-4,0.003278 -0.003761,0.007902 -0.002955,0.004926 -0.00396,0.007677 -0.003239,0.008863 9.2238e-4,0.001516 0.001819,0.001212 0.001453,-4.9317e-4 -2.387e-4,-0.001112 2.7881e-4,-0.002555 0.001996,-0.005566 0.001275,-0.002236 0.003028,-0.005427 0.003895,-0.007092 8.6708e-4,-0.001665 0.001838,-0.003027 0.002157,-0.003027 3.1925e-4,0 0.00134,2.4361e-4 0.002268,5.4136e-4 0.00345,0.001107 0.00879,0.00153 0.0127231,0.001008 0.002288,-3.0347e-4 0.003652,-6.8332e-4 0.003652,-0.001017 0,-6.4324e-4 -0.001008,-7.0261e-4 -0.001609,-9.477e-5 -7.4442e-4,7.5281e-4 -0.00949,1.9128e-4 -0.0137034,-8.7984e-4 -0.003122,-7.9365e-4 -0.003725,-0.001098 -0.003601,-0.001818 8.189e-5,-4.7564e-4 -1.2905e-4,-8.648e-4 -4.6875e-4,-8.648e-4 -3.397e-4,0 -6.1763e-4,2.6367e-4 -6.1763e-4,5.8594e-4 0,7.4326e-4 1.5039e-4,7.5727e-4 -0.003906,-3.6389e-4 -0.0162116,-0.004481 -0.0307696,-0.0142529 -0.0330346,-0.0221741 -0.002572,-0.008996 0.007702,-0.0191455 0.0240421,-0.0237487 0.009198,-0.002591 0.0233431,-0.003757 0.0333491,-0.002748 0.013532,0.001364 0.0278618,0.006055 0.0340765,0.011154 0.009283,0.007617 0.004557,0.0239807 -0.009527,0.0329879 -0.006986,0.004468 -0.0132837,0.00606 -0.0229702,0.005808 -0.005606,-1.4579e-4 -0.006903,1.9585e-4 -0.002255,5.9403e-4 0.0110237,9.4436e-4 0.0186117,-6.5398e-4 0.0265236,-0.005587 0.008314,-0.005184 0.0140297,-0.0136679 0.014753,-0.021899 5.6561e-4,-0.006437 -0.001495,-0.0103844 -0.007489,-0.0143452 -0.005518,-0.003647 -0.0147912,-0.006756 -0.0266874,-0.008948 -0.005969,-0.0011 -0.0186487,-0.001565 -0.025126,-9.2176e-4 z m -0.14913364,0.008599 c -0.005338,4.8577e-4 -0.004536,7.7207e-4 0.002161,7.7207e-4 0.004514,0 0.006569,1.5825e-4 0.007448,5.7352e-4 0.001461,6.9041e-4 0.002973,7.7373e-4 0.002638,1.4528e-4 -4.2151e-4,-7.9033e-4 -0.004447,-0.001893 -0.006728,-0.001842 -0.001208,2.68e-5 -0.003692,1.8479e-4 -0.005519,3.5107e-4 z m 0.14326095,7.5154e-4 c -0.001752,1.7125e-4 -0.004284,5.2668e-4 -0.005625,7.8985e-4 -0.003203,6.2851e-4 -0.008374,0.002791 -0.008375,0.003503 -6.3e-7,3.7114e-4 5.9523e-4,2.0422e-4 0.001759,-4.9263e-4 0.003996,-0.002393 0.0156708,-0.003718 0.0211764,-0.002404 0.003322,7.9285e-4 0.009152,0.003962 0.008686,0.004722 -1.6645e-4,2.711e-4 2.6231e-4,9.4179e-4 9.5281e-4,0.00149 6.9049e-4,5.4864e-4 0.001167,0.001378 0.001059,0.001844 -1.0814e-4,4.6561e-4 1.5495e-4,9.215e-4 5.8464e-4,0.001013 5.5543e-4,1.1838e-4 7.8125e-4,-3.9051e-4 7.8125e-4,-0.001761 0,-0.001499 -3.9591e-4,-0.002269 -0.001782,-0.003465 -0.004949,-0.00427 -0.011334,-0.006011 -0.0192167,-0.005241 z m -0.0124388,0.00588 c -0.001677,0.001064 -0.002909,0.002023 -0.002737,0.00213 1.7188e-4,1.0743e-4 0.001685,-6.7549e-4 0.003362,-0.00174 0.001677,-0.001064 0.002909,-0.002023 0.002737,-0.00213 -1.7188e-4,-1.0742e-4 -0.001685,6.7549e-4 -0.003362,0.00174 z m 0.01375,0.004312 c -0.009865,4.0082e-4 -0.0130899,9.0672e-4 -0.016677,0.002616 -0.003713,0.00177 -0.002875,0.0022 0.001088,5.593e-4 0.004549,-0.001883 0.0124792,-0.00235 0.0263169,-0.001548 0.002063,1.1953e-4 0.007709,0.002343 0.007709,0.003036 0,2.1928e-4 2.8125e-4,3.9868e-4 6.25e-4,3.9868e-4 0.001099,0 6.7091e-4,-0.001009 -7.8125e-4,-0.001843 -0.001498,-8.6023e-4 -0.0101088,-0.003669 -0.0109219,-0.003562 -2.6639e-4,3.484e-5 -0.003578,1.8908e-4 -0.007359,3.427e-4 z m -0.16989583,0.008057 c -0.00127,7.9397e-4 -2.5412e-4,0.001302 0.002604,0.001302 0.003375,0 0.004175,-2.6403e-4 0.003147,-0.001038 -7.1227e-4,-5.364e-4 -0.005001,-7.331e-4 -0.005751,-2.6381e-4 z m 0.18973958,0.006243 c -0.001117,3.4421e-4 -0.002031,7.7966e-4 -0.002031,9.6767e-4 0,4.1959e-4 -1.2305e-4,4.2139e-4 0.002425,-3.543e-5 0.002,-3.5842e-4 0.002054,-3.4227e-4 0.00109,3.2373e-4 C 0.50545675,0.79916012 0.505,0.79959356 0.505,0.79973777 c 0,5.6607e-4 0.002367,2.2058e-4 0.003406,-4.9721e-4 6.048e-4,-4.1769e-4 0.001681,-8.132e-4 0.002392,-8.7891e-4 7.1061e-4,-6.571e-5 0.001421,-3.6401e-4 0.001579,-6.6289e-4 2.157e-4,-4.0885e-4 -1.1092e-4,-4.8104e-4 -0.001319,-2.9153e-4 -8.8313e-4,1.3853e-4 -0.00178,7.545e-5 -0.001993,-1.4019e-4 -5.547e-4,-5.6094e-4 -0.00219,-4.7017e-4 -0.004533,2.5157e-4 z M 0.47375,0.79951501 c 0,2.1303e-4 8.4375e-4,4.928e-4 0.001875,6.2171e-4 0.001031,1.289e-4 0.001875,4.7998e-4 0.001875,7.8015e-4 0,3.3604e-4 9.7529e-4,6.4325e-4 0.002538,7.9942e-4 0.002509,2.5079e-4 0.003712,8.724e-5 0.003712,-5.0477e-4 0,-4.2831e-4 -0.003131,-0.001333 -0.005,-0.001444 C 0.47789063,0.79971623 0.476414,0.79955136 0.475469,0.79940114 0.474456,0.79924013 0.47375,0.79928701 0.47375,0.79951535 Z m 0.0675,0.0125455 c 0,1.8799e-4 8.7238e-4,4.5084e-4 0.001939,5.8412e-4 0.001246,1.5576e-4 0.00359,0.001243 0.006562,0.003044 0.002543,0.001541 0.004779,0.002704 0.00497,0.002585 5.8073e-4,-3.6296e-4 -0.00802,-0.005459 -0.0101688,-0.006025 C 0.54222119,0.81163472 0.54125,0.8115794 0.54125,0.81206055 Z m -0.01,0.003523 c 0,8.8799e-4 0.001451,0.001323 0.002411,7.2228e-4 0.001071,-6.6965e-4 0.003415,3.1092e-4 0.007994,0.003345 0.002232,0.001479 0.004205,0.002598 0.004384,0.002486 7.5715e-4,-4.7321e-4 -0.004679,-0.004588 -0.008165,-0.00618 -0.002945,-0.001345 -0.006625,-0.001553 -0.006625,-3.7375e-4 z m -0.013447,0.002397 c -5.385e-4,6.5084e-4 -7.8066e-4,0.001384 -5.3812e-4,0.001629 2.8128e-4,2.8446e-4 6.2973e-4,1.2701e-4 9.6226e-4,-4.3481e-4 2.8671e-4,-4.8441e-4 7.6617e-4,-8.2209e-4 0.001065,-7.5038e-4 2.993e-4,7.17e-5 0.002799,0.0018 0.005554,0.003841 0.006044,0.004477 0.0149133,0.009934 0.0153796,0.009462 1.853e-4,-1.8738e-4 -0.00178,-0.001646 -0.004368,-0.003241 -0.002588,-0.001595 -0.007261,-0.004878 -0.0103857,-0.007295 -0.003124,-0.002417 -0.005908,-0.004395 -0.006185,-0.004395 -2.7765e-4,0 -9.454e-4,5.3251e-4 -0.001484,0.001183 z m -0.0167026,0.002092 c -0.001679,7.9681e-4 -0.00285,0.002936 -0.003569,0.006518 -7.99e-4,0.003983 -8.3457e-4,0.005832 -1.1219e-4,0.005832 2.9934e-4,0 7.3962e-4,-0.001274 9.7841e-4,-0.002832 7.3073e-4,-0.004766 0.002136,-0.008004 0.003838,-0.008841 8.3274e-4,-4.0939e-4 0.001514,-8.5089e-4 0.001514,-9.811e-4 0,-4.0818e-4 -0.001515,-2.3434e-4 -0.00265,3.0399e-4 z m 0.00515,0.004342 c 0,3.2227e-4 2.4209e-4,5.8594e-4 5.3798e-4,5.8594e-4 5.2641e-4,0 0.002316,0.00341 0.003756,0.007154 9.0542e-4,0.002355 0.002486,0.004754 0.002945,0.004468 1.9074e-4,-1.1921e-4 -1.0317e-4,-0.001157 -6.5314e-4,-0.002306 -5.4997e-4,-0.001149 -0.001421,-0.003355 -0.001936,-0.004902 -0.001187,-0.003566 -0.002532,-0.005586 -0.00372,-0.005586 -5.1101e-4,0 -9.2911e-4,2.6367e-4 -9.2911e-4,5.8593e-4 z m 0.39150369,0.11810457 c 2.4481e-4,2.4757e-4 7.8418e-4,4.5012e-4 0.001199,4.5012e-4 0.002274,0 0.008548,0.00281 0.008548,0.003829 0,3.1203e-4 -0.00187,0.001659 -0.004156,0.002992 -0.003616,0.002109 -0.004103,0.002557 -0.003749,0.003438 3.1637e-4,7.8775e-4 0.001177,0.001194 0.003867,0.001823 0.003586,8.3866e-4 0.005913,0.001035 0.005913,4.9942e-4 0,-1.7035e-4 -0.001552,-6.3938e-4 -0.003448,-0.001042 -0.005373,-0.001141 -0.005412,-0.001386 -6.7731e-4,-0.004232 0.00548,-0.003293 0.005513,-0.004704 1.565e-4,-0.006666 -0.003004,-0.0011 -0.008426,-0.001873 -0.007652,-0.001091 z m -0.12990782,0.003282 c -5.3237e-4,0.001128 -0.001277,0.002836 -0.001655,0.003797 -6.8388e-4,0.001737 -6.9181e-4,0.001741 -0.001535,7.8125e-4 -4.66e-4,-5.3047e-4 -0.001172,-0.001931 -0.001569,-0.003113 -7.755e-4,-0.002308 -0.00151,-0.003125 -0.002808,-0.003125 -0.001059,0 -0.001582,0.001076 -0.001819,0.003744 -1.3119e-4,0.001475 3.187e-5,0.002105 5.1868e-4,0.002005 3.9044e-4,-8.023e-5 7.9569e-4,-9.671e-4 9.0044e-4,-0.001971 1.9106e-4,-0.00183 0.001372,-0.00262 0.001372,-9.1795e-4 0,0.001052 0.001767,0.00453 0.002665,0.005245 0.001249,9.9469e-4 0.002886,5.4378e-4 0.003545,-9.7656e-4 0.002559,-0.005897 0.003002,-0.0071 0.002687,-0.007297 -8.4794e-4,-5.2996e-4 -0.001393,-9.683e-5 -0.002302,0.001828 z m 0.0860452,-0.001268 c -0.001125,4.2888e-4 -0.002427,7.7979e-4 -0.002892,7.7979e-4 -0.001236,0 -0.002785,0.001252 -0.001805,0.001458 4.7844e-4,1.0066e-4 6.2382e-4,5.7501e-4 3.9525e-4,0.001289 -5.1825e-4,0.00162 1.7307e-4,0.002943 0.00213,0.004077 0.002108,0.001222 0.003922,0.001257 0.005589,1.0926e-4 0.002335,-0.001607 0.002306,-0.002771 -1.2156e-4,-0.004759 C 0.85598431,0.94650234 0.855,0.94561826 0.855,0.94552279 c 0,-2.813e-4 0.004543,-9.87e-4 0.006369,-9.8936e-4 9.2499e-4,-1.17e-6 0.001856,-1.7796e-4 0.002068,-3.9281e-4 2.42e-4,-2.447e-4 -0.001087,-3.9007e-4 -0.003557,-3.8916e-4 -0.002837,1.17e-6 -0.004517,2.2011e-4 -0.005989,7.8125e-4 z m 0.002014,0.003604 c 0.0014,0.001249 0.001239,0.002917 -3.3244e-4,0.003443 -0.00259,8.6638e-4 -0.00508,-0.001848 -0.00373,-0.004067 5.4688e-4,-8.9901e-4 8.3088e-4,-9.9792e-4 0.001869,-6.5078e-4 6.7313e-4,2.2515e-4 0.00166,7.9868e-4 0.002193,0.001275 z m -0.0323488,-0.002813 c -9.2544e-4,4.5495e-4 -0.002392,0.001584 -0.003259,0.002508 -0.001561,0.001665 -0.003723,0.006017 -0.003162,0.006368 3.1031e-4,1.9398e-4 0.002239,-0.002479 0.002239,-0.003103 0,-7.1385e-4 0.003261,-0.00384 0.004788,-0.004591 0.003012,-0.001481 0.004217,-1.3868e-4 0.004895,0.005448 3.8225e-4,0.003153 0.001022,0.004377 0.001977,0.003781 2.3663e-4,-1.4792e-4 1.4969e-4,-0.002207 -1.9331e-4,-0.004575 -8.6106e-4,-0.005946 -0.003218,-0.007834 -0.007285,-0.005835 z m 0.0531961,1.286e-4 c -0.002162,9.1696e-4 -0.002179,9.1771e-4 -0.003824,1.6859e-4 -9.4444e-4,-4.2998e-4 -0.002386,-6.9916e-4 -0.003364,-6.2808e-4 -0.003878,2.8185e-4 -0.006184,0.005167 -0.003292,0.006975 0.00159,9.9385e-4 0.003,6.0377e-4 0.001518,-4.1992e-4 -0.002102,-0.001452 -5.0769e-4,-0.005454 0.002172,-0.005454 5.8806e-4,0 0.00173,4.3945e-4 0.002537,9.7656e-4 0.001766,0.001175 0.00277,0.00123 0.003909,2.1369e-4 4.7025e-4,-4.1959e-4 0.001646,-9.5093e-4 0.002614,-0.001181 0.002346,-5.575e-4 0.006043,5.3056e-4 0.006864,0.00202 0.001246,0.00226 -0.002262,0.006313 -0.005497,0.00635 -0.002266,2.597e-5 -0.002372,7.702e-4 -1.325e-4,9.2982e-4 0.002723,1.9408e-4 0.004557,-6.2389e-4 0.0063,-0.00281 0.002776,-0.003482 0.001587,-0.006272 -0.003205,-0.007523 -0.002871,-7.4973e-4 -0.004098,-6.7862e-4 -0.0066,3.8245e-4 z m -0.126911,5.4379e-4 c -8.6325e-4,0.001233 -9.9106e-4,0.0100994 -2.2243e-4,0.0154297 3.5281e-4,0.002447 7.3125e-4,0.003418 0.001332,0.003418 0.001118,0 0.001894,-0.001578 9.5462e-4,-0.001941 -8.6425e-4,-3.3383e-4 -0.00126,-0.0141927 -4.7156e-4,-0.0165159 5.9581e-4,-0.001756 -4.5606e-4,-0.002014 -0.001593,-3.9063e-4 z m 0.0914157,-4.9398e-4 c -5.5475e-4,4.1777e-4 -6.9175e-4,0.001292 -4.4062e-4,0.002813 2.045e-4,0.001238 8.3e-5,0.002536 -2.7688e-4,0.002956 -7.7718e-4,9.0762e-4 -1.9193e-4,0.001402 8.7232e-4,7.3681e-4 4.2162e-4,-2.635e-4 9.3012e-4,-0.001658 0.00113,-0.003099 1.9987e-4,-0.001441 4.8306e-4,-0.002862 6.2925e-4,-0.003157 3.8681e-4,-7.8158e-4 -9.7244e-4,-9.5899e-4 -0.001914,-2.4984e-4 z m -0.0495374,9.4812e-4 c -0.00114,6.2575e-4 -0.002908,0.001197 -0.003928,0.00127 -0.001554,1.1042e-4 -0.00188,3.2197e-4 -0.002011,0.001304 l -1.5657e-4,0.001172 0.001014,-8.789e-4 c 0.001501,-0.001301 0.003126,-0.001128 0.003609,3.8423e-4 2.2231e-4,6.9473e-4 0.001105,0.001925 0.001962,0.002734 0.001228,0.00116 0.001956,0.001471 0.003439,0.001471 0.004167,0 0.003458,-0.003891 -0.001009,-0.005538 -0.00215,-7.9269e-4 -0.002222,-8.8034e-4 -0.001141,-0.001375 6.3544e-4,-2.9041e-4 0.002217,-6.3415e-4 0.003515,-7.6387e-4 0.003248,-3.2465e-4 0.00297,-9.1727e-4 -4.3069e-4,-9.1727e-4 -0.002191,0 -0.003236,2.4451e-4 -0.004864,0.001138 z m 0.00293,0.003257 c 0.001878,0.001035 0.002405,0.002735 9.0931e-4,0.002931 -0.001111,1.4546e-4 -0.00278,-0.001222 -0.003411,-0.002793 -5.0775e-4,-0.001264 3.7069e-4,-0.001313 0.002502,-1.3835e-4 z m -0.0154329,-0.002497 c -0.00291,0.002013 -0.003945,0.004915 -0.003223,0.00903 2.84e-4,0.001617 4.9307e-4,0.003687 4.6463e-4,0.0046 -2.875e-5,9.1309e-4 1.6131e-4,0.00166 4.2175e-4,0.00166 8.5444e-4,0 0.001094,-0.001947 7.69e-4,-0.006238 -3.0213e-4,-0.003984 -2.4638e-4,-0.004249 9.7869e-4,-0.004659 0.001265,-4.2325e-4 0.008596,-4.4e-5 0.0100569,5.2029e-4 3.3181e-4,1.2817e-4 7.7125e-4,6.321e-5 9.765e-4,-1.4435e-4 6.3288e-4,-6.3999e-4 -0.002023,-0.001236 -0.006569,-0.001474 -0.002389,-1.2517e-4 -0.004343,-3.8659e-4 -0.004343,-5.8094e-4 0,-7.0438e-4 0.001901,-0.002629 0.002969,-0.003005 7.9356e-4,-2.7985e-4 9.0612e-4,-5.0431e-4 4.1006e-4,-8.1783e-4 -4.9787e-4,-3.1464e-4 -0.001289,-1.308e-5 -0.002912,0.001109 z m 0.0267214,-3.3608e-4 c -4.9294e-4,4.9851e-4 1.1762e-4,0.003928 0.001025,0.005756 3.4469e-4,6.9463e-4 0.001423,0.001617 0.002397,0.002051 0.002117,9.4209e-4 0.002515,9.7403e-4 0.002515,2.0188e-4 0,-3.2226e-4 -2.8538e-4,-5.8593e-4 -6.3419e-4,-5.8593e-4 -0.001437,0 -0.003111,-0.002547 -0.003113,-0.004737 0,-0.002187 -0.001213,-0.003672 -0.002189,-0.002686 z m 0.0349022,0.009588 c -2.0357e-4,3.3153e-4 -2.0157e-4,7.0814e-4 6.25e-6,8.3691e-4 4.4512e-4,2.7822e-4 0.00228,-6.0451e-4 0.00228,-0.001097 0,-5.8949e-4 -0.001895,-3.7379e-4 -0.002284,2.5999e-4 z"
         id="path3346"
         inkscape:connector-curvature="0"
         clip-path="url(#clipPath3350)" /></g></g></svg>