<?xml version="1.0" encoding="UTF-8" standalone="no"?>
<!-- Created with Inkscape (http://www.inkscape.org/) -->

<svg
   xmlns:dc="http://purl.org/dc/elements/1.1/"
   xmlns:cc="http://creativecommons.org/ns#"
   xmlns:rdf="http://www.w3.org/1999/02/22-rdf-syntax-ns#"
   xmlns:svg="http://www.w3.org/2000/svg"
   xmlns="http://www.w3.org/2000/svg"
   xmlns:sodipodi="http://sodipodi.sourceforge.net/DTD/sodipodi-0.dtd"
   xmlns:inkscape="http://www.inkscape.org/namespaces/inkscape"
   id="svg4142"
   version="1.1"
   inkscape:version="0.91 r13725"
   xml:space="preserve"
   width="515.96698"
   height="481.39871"
   viewBox="0 0 515.96698 481.39871"
   sodipodi:docname="stick_enquete.svg"><metadata
     id="metadata4148"><rdf:RDF><cc:Work
         rdf:about=""><dc:format>image/svg+xml</dc:format><dc:type
           rdf:resource="http://purl.org/dc/dcmitype/StillImage" /><dc:title></dc:title></cc:Work></rdf:RDF></metadata><defs
     id="defs4146" /><sodipodi:namedview
     pagecolor="#ffffff"
     bordercolor="#666666"
     borderopacity="1"
     objecttolerance="10"
     gridtolerance="10"
     guidetolerance="10"
     inkscape:pageopacity="0"
     inkscape:pageshadow="2"
     inkscape:window-width="1680"
     inkscape:window-height="948"
     id="namedview4144"
     showgrid="false"
     fit-margin-top="0"
     fit-margin-left="0"
     fit-margin-right="0"
     fit-margin-bottom="0"
     inkscape:zoom="0.41077465"
     inkscape:cx="170.68607"
     inkscape:cy="273.25383"
     inkscape:window-x="0"
     inkscape:window-y="30"
     inkscape:window-maximized="1"
     inkscape:current-layer="g4152" /><g
     id="g4150"
     inkscape:groupmode="layer"
     inkscape:label="Teuns website diensten drawings_4"
     transform="matrix(1.25,0,0,-1.25,-622.7816,2834.7279)"><g
       id="g4152"
       transform="matrix(1600,0,0,2560,10,20)"><path
         id="path4718"
         style="fill:#000000"
         d="m 0.43368772,0.82029803 c -0.004852,5.6779e-4 -0.0147867,0.003204 -0.0170081,0.004514 -0.003295,0.001942 -0.00988,0.003083 -0.0157959,0.002737 -0.002771,-1.6227e-4 -0.004649,-1.1479e-4 -0.004884,1.235e-4 -4.5853e-4,4.637e-4 0.00486,0.001234 0.008518,0.001234 0.003571,0 0.0109838,-0.00156 0.0125901,-0.002649 0.001785,-0.00121 0.003824,-0.001859 0.0108062,-0.003439 0.005337,-0.001207 0.006537,-0.001334 0.0126178,-0.001334 0.005338,0 0.007806,2.0051e-4 0.0120002,9.7494e-4 0.002904,5.3622e-4 0.007249,0.001073 0.009655,0.001193 0.00637,3.1687e-4 0.0127585,9.775e-4 0.013135,0.001358 3.2914e-4,3.3286e-4 -9.9076e-4,8.6924e-4 -0.005684,0.00231 -0.001402,4.3026e-4 -0.00323,0.001111 -0.004062,0.001513 -8.3264e-4,4.0192e-4 -0.003483,0.001373 -0.005889,0.002157 -0.004642,0.001513 -0.008952,0.003703 -0.0182193,0.009255 -0.005617,0.003365 -0.007517,0.005067 -0.005658,0.005067 7.4459e-4,0 0.002017,0.001627 0.003285,0.004199 2.9942e-4,6.076e-4 0.00153,6.4689e-4 0.00153,4.885e-5 0,-2.4169e-4 -7.3066e-4,-0.001457 -0.001624,-0.002701 -0.001047,-0.001458 -0.001436,-0.002465 -0.001094,-0.002835 6.329e-4,-6.8501e-4 0.0113192,-0.006764 0.0163437,-0.009297 0.001959,-9.8747e-4 0.006796,-0.002845 0.0107487,-0.004128 0.0120339,-0.003905 0.0145699,-0.005098 0.0131339,-0.00618 -0.001106,-8.329e-4 -0.004406,-0.00133 -0.0118839,-0.001791 -0.003609,-2.2242e-4 -0.009094,-8.5194e-4 -0.0121875,-0.001399 -0.005821,-0.001029 -0.0156906,-0.001481 -0.0203749,-9.3292e-4 z m 0.0521502,-0.0174614 c -0.002535,7.0698e-4 -0.006518,0.005367 -0.004588,0.005367 3.4375e-4,0 6.25e-4,-2.6317e-4 6.25e-4,-5.8482e-4 0,-3.2164e-4 0.001039,-0.001303 0.002308,-0.002181 0.002228,-0.001542 0.002406,-0.001588 0.005156,-0.001332 0.001567,1.4571e-4 0.002939,3.2003e-4 0.003051,3.8739e-4 1.1128e-4,6.736e-5 -2.6281e-4,6.8464e-4 -8.3131e-4,0.001372 -0.001024,0.001237 -0.001067,0.001247 -0.004491,9.7928e-4 -0.004288,-3.3482e-4 -0.004404,4.7466e-4 -1.8935e-4,0.001321 0.002349,4.7201e-4 0.002946,4.7059e-4 0.004317,-1.023e-5 0.00196,-6.8752e-4 0.00419,-0.004047 0.003004,-0.004525 -0.001455,-5.8642e-4 -0.007162,-0.001128 -0.008361,-7.9361e-4 z m -0.0172557,7.361e-5 c 0.002792,6.369e-4 0.002894,7.6138e-4 0.00176,0.002132 -8.4762e-4,0.001024 -0.001354,0.001207 -0.003327,0.001203 -0.00128,-3.13e-6 -0.002966,-1.123e-4 -0.003747,-2.4303e-4 -0.001134,-1.8998e-4 -0.001273,-3.4763e-4 -6.9218e-4,-7.8535e-4 3.9998e-4,-3.0122e-4 5.5394e-4,-6.5598e-4 3.4214e-4,-7.8835e-4 -2.118e-4,-1.3238e-4 9.329e-5,-7.4684e-4 6.7799e-4,-0.001365 7.1519e-4,-7.5669e-4 0.001375,-0.001041 0.002015,-8.6899e-4 5.2343e-4,1.4069e-4 0.00186,4.6315e-4 0.002971,7.1658e-4 z m -0.004637,-0.002422 c -9.2271e-4,7.7301e-4 -0.002569,0.003496 -0.002937,0.004857 -3.0489e-4,0.001129 -1.498e-4,0.001282 0.001671,0.001649 0.001104,2.2252e-4 0.003136,5.1344e-4 0.004516,6.4649e-4 0.002896,2.7924e-4 0.003715,-1.4306e-4 0.005626,-0.0029 0.00116,-0.001673 0.00116,-0.001715 -2.5e-6,-0.002246 -6.5129e-4,-2.9764e-4 -0.001812,-5.4118e-4 -0.002579,-5.4118e-4 -7.673e-4,0 -0.002231,-4.3945e-4 -0.003252,-9.7656e-4 -0.002139,-0.001125 -0.002261,-0.001144 -0.003044,-4.8828e-4 z m 0.0563673,-0.003549 c -0.003312,0.00157 -0.005936,0.003132 -0.006382,0.003799 -4.1615e-4,6.2338e-4 -0.001465,0.001481 -0.00233,0.001907 -8.6527e-4,4.2539e-4 -0.001854,0.001235 -0.002197,0.001798 -3.4288e-4,5.6366e-4 -0.001052,0.001025 -0.001576,0.001025 -5.2413e-4,0 -9.5297e-4,1.7578e-4 -9.5297e-4,3.9063e-4 0,2.1484e-4 4.1326e-4,3.9062e-4 9.1835e-4,3.9062e-4 0.00112,0 0.008457,-0.004529 0.008457,-0.005221 0,-2.7221e-4 0.002106,-0.001414 0.004681,-0.002537 0.002574,-0.001123 0.004991,-0.002405 0.00537,-0.002848 0.001463,-0.001709 -5.8292e-4,-0.001266 -0.005989,0.001296 z m -0.2150426,-0.0118809 c -5.1758e-4,0.003393 6.0238e-4,0.0171941 0.00191,0.0235352 1.5505e-4,7.5195e-4 4.3973e-4,0.002598 6.326e-4,0.004102 1.9288e-4,0.001504 4.9882e-4,0.003438 6.7986e-4,0.004297 1.8105e-4,8.5937e-4 5.9177e-4,0.010791 9.1272e-4,0.0220703 5.4174e-4,0.0190389 9.8051e-4,0.0238894 0.002853,0.031543 5.9792e-4,0.002443 0.001719,0.00209 0.001238,-3.9063e-4 -0.001324,-0.006824 -0.001704,-0.0118659 -0.002228,-0.0295898 -5.1939e-4,-0.0175475 -0.001283,-0.0283098 -0.002217,-0.03125 -6.8182e-4,-0.002146 -0.002167,-0.0173061 -0.002171,-0.022168 -2.5e-6,-0.002866 -2.5993e-4,-0.005176 -5.7649e-4,-0.005176 -3.1442e-4,0 -7.7947e-4,0.001362 -0.001033,0.003027 z m 0.0291127,-0.003906 c 1.226e-5,4.7202e-4 0.012793,0.003219 0.0180138,0.003872 0.005079,6.3504e-4 0.0238536,0.001019 0.0238536,4.8746e-4 0,-7.3018e-4 -0.002017,-9.4471e-4 -0.009375,-9.9727e-4 -0.009381,-6.701e-5 -0.0171559,-8.4645e-4 -0.0245301,-0.002459 -0.005401,-0.001181 -0.007977,-0.001473 -0.007962,-9.0288e-4 z m 0.11249204,0.0194331 c -4.2793e-4,3.2226e-4 -0.001025,5.8593e-4 -0.001327,5.8593e-4 C 0.44524681,0.80117187 0.445,0.8009082 0.445,0.80058594 0.445,0.80024915 0.44556406,0.8 0.44632652,0.8 c 0.001108,0 0.001199,9.641e-5 5.4848e-4,5.8594e-4 z m 0.007969,-0.0241448 c -6.0156e-4,9.825e-5 -0.001094,3.4259e-4 -0.001094,5.4296e-4 0,6.3067e-4 -0.0102397,0.0102183 -0.0166312,0.015572 l -0.006131,0.005136 -0.003463,-2.4802e-4 c -0.001904,-1.3641e-4 -0.004447,-4.0166e-4 -0.00565,-5.8944e-4 -0.001203,-1.8778e-4 -0.004465,-4.5882e-4 -0.007249,-6.0231e-4 l -0.005062,-2.609e-4 -0.003845,0.003592 c -0.002115,0.001976 -0.003845,0.003731 -0.003845,0.0039 0,1.6918e-4 -0.001381,0.001784 -0.003069,0.003588 -0.003822,0.004086 -0.0106813,0.0125398 -0.0106813,0.0131655 0,8.025e-4 0.001145,5.0832e-4 0.001606,-4.1276e-4 2.4213e-4,-4.834e-4 0.001257,-0.001624 0.002256,-0.002536 9.9853e-4,-9.1115e-4 0.002444,-0.002493 0.003212,-0.003516 7.6825e-4,-0.001022 0.002552,-0.003089 0.003964,-0.004593 0.001412,-0.001504 0.003552,-0.003919 0.004755,-0.005367 0.001204,-0.001448 0.003275,-0.003525 0.004604,-0.004616 l 0.002415,-0.001983 0.00375,2.522e-4 c 0.002063,1.3871e-4 0.004734,4e-4 0.005938,5.8065e-4 0.001203,1.8065e-4 0.003664,4.4687e-4 0.005469,5.9159e-4 0.001805,1.4472e-4 0.003281,3.954e-4 0.003281,5.5708e-4 0,1.6168e-4 -4.5025e-4,8.5805e-4 -0.001001,0.001548 -6.6865e-4,8.377e-4 -8.655e-4,0.001703 -5.9342e-4,0.00261 4.6317e-4,0.001543 0.001593,0.001435 0.001596,-1.5322e-4 1.25e-6,-5.7814e-4 5.501e-4,-0.001613 0.00122,-0.002299 0.001104,-0.001131 0.001395,-0.001216 0.00312,-9.0662e-4 0.001047,1.876e-4 0.002679,6.6118e-4 0.003627,0.001052 9.4817e-4,3.9122e-4 0.002285,9.0937e-4 0.002971,0.001151 0.001274,4.4956e-4 0.001424,0.001298 5.9443e-4,0.003368 -3.6785e-4,9.1823e-4 -2.3825e-4,0.001074 8.9253e-4,0.001074 7.2757e-4,0 0.001323,-1.7127e-4 0.001323,-3.806e-4 0,-2.0933e-4 8.4629e-4,-6.5411e-4 0.001881,-9.8842e-4 0.0028,-9.0481e-4 0.004123,-2.7641e-4 0.005004,0.002375 3.9837e-4,0.001199 6.0126e-4,0.002258 4.5085e-4,0.002352 -1.504e-4,9.4e-5 -0.002777,-2.0085e-4 -0.005836,-6.5522e-4 -0.008648,-0.001284 -0.019217,-0.002333 -0.0198062,-0.001964 -9.374e-4,5.8587e-4 0.00261,0.001985 0.004451,0.001756 0.001546,-1.9222e-4 0.00683,3.9232e-4 0.018092,0.002001 l 0.00455,6.5001e-4 0.001789,0.002465 c 0.002078,0.002864 0.003952,0.003581 0.005745,0.002197 8.5077e-4,-6.5665e-4 9.6289e-4,-0.001106 5.1824e-4,-0.002075 -3.1209e-4,-6.8011e-4 -4.9056e-4,-0.001285 -3.966e-4,-0.001343 2.313e-4,-1.4456e-4 0.0233614,0.001886 0.0394381,0.003462 0.0108698,0.001066 0.013116,0.001396 0.0133542,0.001965 3.6095e-4,8.6163e-4 0.002016,9.0171e-4 0.002016,4.883e-5 0,-4.8278e-4 4.1153e-4,-5.8467e-4 0.001719,-4.2553e-4 0.008836,0.001076 0.014694,0.001505 0.015306,0.001123 9.0833e-4,-5.677e-4 -0.001132,-0.001032 -0.008094,-0.001844 -0.003021,-3.5207e-4 -0.005584,-6.939e-4 -0.005694,-7.5963e-4 -1.1062e-4,-6.573e-5 0.001858,-9.4967e-4 0.004375,-0.001964 0.002517,-0.001015 0.006967,-0.003 0.009889,-0.004412 0.006093,-0.002945 0.03125,-0.0183063 0.03125,-0.0190824 0,-0.001445 -0.003156,1.2008e-4 -0.0134222,0.006658 -0.0118339,0.007536 -0.0184024,0.0111345 -0.0272028,0.0149034 -0.002922,0.001251 -0.005926,0.002616 -0.006675,0.003032 -0.001352,7.51e-4 -0.001489,7.4572e-4 -0.016875,-6.5037e-4 -0.008532,-7.7414e-4 -0.0197308,-0.00176 -0.024887,-0.002191 -0.0146893,-0.001228 -0.0158346,-0.001437 -0.0169493,-0.003097 -5.1621e-4,-7.6866e-4 -0.001344,-0.002628 -0.001839,-0.004132 -4.9528e-4,-0.001504 -0.00134,-0.003472 -0.001876,-0.004374 -8.8951e-4,-0.001494 -0.001272,-0.001693 -0.004314,-0.002246 -0.001836,-3.336e-4 -0.003768,-6.0655e-4 -0.004294,-6.0655e-4 -0.001038,0 -0.002,0.001346 -0.001745,0.002441 8.748e-5,3.7597e-4 1.906e-5,6.8359e-4 -1.5203e-4,6.8359e-4 -0.001217,0 -0.003876,-9.6054e-4 -0.00489,-0.001767 -6.8383e-4,-5.4334e-4 -0.001867,-9.6788e-4 -0.002698,-9.6788e-4 -8.1414e-4,0 -0.00163,-1.5172e-4 -0.001814,-3.3716e-4 -1.8337e-4,-1.8544e-4 0.002402,-0.002622 0.005744,-0.005414 0.003343,-0.002792 0.008458,-0.007299 0.0113665,-0.0100144 0.002909,-0.002716 0.005612,-0.004938 0.006007,-0.004938 3.9523e-4,0 0.002551,5.1922e-4 0.00479,0.001154 0.0136739,0.003875 0.0354434,0.005908 0.0632888,0.00591 0.0143976,1.17e-6 0.0213671,3.758e-4 0.0251426,0.001352 0.001277,3.303e-4 0.002157,3.8074e-4 0.002398,1.3747e-4 6.8879e-4,-6.9655e-4 -9.4483e-4,-0.001413 -0.004738,-0.002078 -0.003003,-5.2664e-4 -0.006424,-6.5094e-4 -0.0173866,-6.317e-4 -0.0248971,4.369e-5 -0.0449098,-0.001282 -0.0588533,-0.003899 -0.005516,-0.001035 -0.0130234,-0.002896 -0.0139043,-0.003447 -3.9637e-4,-2.4773e-4 -8.7535e-4,-4.3002e-4 -0.001064,-4.051e-4 -1.8906e-4,2.492e-5 -8.3594e-4,1.257e-4 -0.001438,2.2395e-4 z m -0.0989062,-0.006252 c -6.875e-4,9.695e-5 -0.002797,4.9431e-4 -0.004688,8.8303e-4 -0.001891,3.8872e-4 -0.00625,8.1927e-4 -0.009688,9.5677e-4 -0.010037,4.015e-4 -0.0202754,0.001001 -0.0251863,0.001476 -0.003388,3.2728e-4 -0.004795,6.4896e-4 -0.005469,0.00125 -0.001046,9.3334e-4 -0.001157,0.001417 -3.2453e-4,0.001417 3.2059e-4,0 7.5685e-4,-3.4258e-4 9.6947e-4,-7.6127e-4 4.9571e-4,-9.7615e-4 0.001272,-0.001105 0.008448,-0.001398 0.003266,-1.337e-4 0.0102717,-4.9348e-4 0.0155691,-7.995e-4 0.005297,-3.0603e-4 0.0109495,-5.5641e-4 0.0125602,-5.5641e-4 0.001611,0 0.003806,-2.7355e-4 0.004878,-6.0789e-4 0.001181,-3.681e-4 0.003123,-5.607e-4 0.004925,-4.8828e-4 0.002447,9.836e-5 0.003112,2.9229e-4 0.003747,0.001092 4.2457e-4,5.3469e-4 5.6846e-4,0.001099 3.1977e-4,0.001255 -2.487e-4,1.5544e-4 -0.002839,4.6061e-4 -0.005757,6.7817e-4 -0.002918,2.1756e-4 -0.007081,7.5029e-4 -0.009252,0.001184 -0.003289,6.5671e-4 -0.006366,8.2903e-4 -0.0184375,0.001032 -0.0102347,1.7246e-4 -0.0148746,3.938e-4 -0.0158001,7.5371e-4 -8.9326e-4,3.4739e-4 -0.00154,0.001224 -0.002031,0.002753 -9.6186e-4,0.002993 -9.2171e-4,0.005098 1.8195e-4,0.009535 0.002077,0.00835 0.002493,0.012811 0.002386,0.0255859 -9.311e-5,0.0111456 3.8099e-4,0.0190574 0.001311,0.021875 2.4348e-4,7.3777e-4 5.6354e-4,0.002353 0.002323,0.0117188 7.0428e-4,0.00375 7.6927e-4,0.007863 2.9474e-4,0.0186516 -1.2047e-4,0.002739 1.662e-5,0.004889 3.0463e-4,0.004777 2.8802e-4,-1.1125e-4 5.4078e-4,-5.0643e-4 5.617e-4,-8.7818e-4 2.094e-5,-3.7175e-4 3.4487e-4,-0.004579 7.1987e-4,-0.009349 7.2733e-4,-0.009252 8.1914e-4,-0.008345 -0.002845,-0.0281097 -6.1562e-4,-0.003321 -8.5853e-4,-0.00891 -8.0642e-4,-0.0185547 7.339e-5,-0.0135839 -2.8474e-4,-0.0175797 -0.002357,-0.0263027 -5.1048e-4,-0.002148 -9.2619e-4,-0.004488 -9.238e-4,-0.005198 6.5e-6,-0.001935 0.001289,-0.004895 0.002351,-0.005428 6.0744e-4,-3.0463e-4 0.00349,-4.716e-4 0.008202,-4.7501e-4 0.0126215,-9.15e-6 0.0220014,-4.7901e-4 0.0257023,-0.001287 0.001891,-4.1302e-4 0.005915,-9.0199e-4 0.008944,-0.001087 0.003029,-1.8461e-4 0.005911,-5.4565e-4 0.006406,-8.0231e-4 0.001164,-6.0395e-4 0.001141,-0.00168 -6.778e-5,-0.003142 -0.001335,-0.001614 -0.003826,-0.002164 -0.00747,-0.00165 z m -0.0175469,-0.0210267 c 0.00118,0.001427 0.002123,0.006152 0.002617,0.0131141 2.6285e-4,0.003708 6.7935e-4,0.005787 0.00128,0.006387 4.8947e-4,4.8946e-4 7.3304e-4,0.001049 5.4127e-4,0.001243 -1.9177e-4,1.9393e-4 -9.23e-5,4.5162e-4 2.2103e-4,5.7266e-4 0.001044,4.0342e-4 0.001339,-9.9874e-4 3.8806e-4,-0.001847 -7.1933e-4,-6.4186e-4 -9.4019e-4,-0.002066 -9.4952e-4,-0.006121 -1.275e-5,-0.005531 -0.001201,-0.0121797 -0.002434,-0.0136196 -3.976e-4,-4.6433e-4 -0.001142,-8.4424e-4 -0.001654,-8.4424e-4 -8.2334e-4,0 -8.2437e-4,1.2955e-4 -8.87e-6,0.001115 z m 0.0363474,-0.007547 c -3.6887e-4,9.1855e-4 -2.029e-4,0.003557 5.889e-4,0.009362 0.001081,0.007924 0.001521,0.0145081 0.001585,0.0237305 4.025e-5,0.005747 2.7336e-4,0.0104492 5.1801e-4,0.0104492 0.001461,0 0.001607,-0.001486 0.001236,-0.0125772 -2.1791e-4,-0.00651 -5.7581e-4,-0.0130673 -7.9533e-4,-0.0145712 -8.7903e-4,-0.006022 -0.001621,-0.0129316 -0.001621,-0.0150958 0,-0.002354 -8.0891e-4,-0.003048 -0.001512,-0.001297 z m 0.0388561,0.11882762 c -0.002074,5.3192e-4 -0.003161,0.001273 -0.001875,0.001278 0.001099,4.53e-6 0.006406,-0.001355 0.006406,-0.001642 0,-4.6611e-4 -0.001886,-3.1483e-4 -0.004531,3.6344e-4 z m 9.3089e-4,-0.0156563 c -0.002564,7.9007e-4 -0.005775,0.003045 -0.005775,0.004055 0,0.001123 0.001078,9.3708e-4 0.002162,-3.7342e-4 0.001475,-0.001783 0.004316,-0.0028 0.009117,-0.003265 0.00239,-2.3123e-4 0.004346,-5.6498e-4 0.004346,-7.4167e-4 0,-5.8334e-4 -0.00773,-3.2878e-4 -0.00985,3.2438e-4 z m 0.001574,-0.003809 c 0.006409,0.001394 0.0123137,0.003765 0.0165178,0.006632 0.003379,0.002304 0.006758,0.00536 0.006758,0.006112 0,2.4348e-4 -0.001406,8.5431e-4 -0.003125,0.001357 -0.003543,0.001037 -0.005447,0.002125 -0.004416,0.002523 3.6614e-4,1.4143e-4 6.6571e-4,7.352e-5 6.6571e-4,-1.5091e-4 0,-2.2443e-4 0.001727,-9.5277e-4 0.003837,-0.001619 0.004275,-0.001349 0.004406,-0.001316 0.005603,0.001391 0.001009,0.002281 9.018e-4,0.00491 -2.5692e-4,0.006307 -0.002033,0.002451 -0.0124637,0.007108 -0.0135227,0.006037 -5.9883e-4,-6.0557e-4 -0.002542,-1.1087e-4 -0.00214,5.4469e-4 2.1905e-4,3.5678e-4 -6.6818e-4,6.474e-4 -0.002883,9.4423e-4 -0.004811,6.4487e-4 -0.005798,5.7952e-4 -0.005325,-3.5244e-4 4.4858e-4,-8.8333e-4 -2.7316e-4,-0.001022 -0.001529,-2.9296e-4 -6.7335e-4,3.9062e-4 -7.5347e-4,3.9062e-4 -4.0062e-4,0 6.2208e-4,-6.8865e-4 -6.8315e-4,-6.0612e-4 -0.002805,1.7738e-4 -0.001597,5.8973e-4 -0.002239,6.0935e-4 -0.005627,1.7206e-4 -0.009286,-0.001199 -0.0179894,-0.005451 -0.0224427,-0.0109657 -0.001713,-0.002121 -0.002309,-0.005656 -0.001281,-0.007601 0.00169,-0.003201 0.0119576,-0.0105515 0.0164396,-0.0117692 0.003477,-9.4481e-4 0.0101034,-7.146e-4 0.0159327,5.5358e-4 z m 0.0539041,-0.10884817 c -8.151e-4,6.9824e-4 -0.003071,0.002412 -0.005012,0.003809 -0.005918,0.004257 -0.009147,0.007118 -0.0184379,0.0163396 -0.005757,0.005714 -0.009334,0.008896 -0.0100815,0.00897 -6.4335e-4,6.334e-5 -0.00161,7.5861e-4 -0.002172,0.001562 -5.5718e-4,7.9662e-4 -0.004507,0.004085 -0.008778,0.007308 -0.008838,0.006669 -0.0206906,0.0160823 -0.0292657,0.0232422 -0.003216,0.002686 -0.008401,0.006807 -0.0115207,0.00916 -0.00312,0.002352 -0.005673,0.004412 -0.005673,0.004578 0,1.6543e-4 -0.001515,0.001377 -0.003367,0.002692 l -0.003367,0.002391 -0.001445,-9.1387e-4 c -7.9489e-4,-5.0264e-4 -0.003217,-0.002424 -0.005383,-0.00427 -0.007125,-0.006073 -0.008867,-0.007392 -0.0155936,-0.0118068 -0.00862,-0.005657 -0.00935,-0.006225 -0.0132612,-0.0103081 -0.002681,-0.002799 -0.0036,-0.003458 -0.004968,-0.003559 -0.00119,-8.77e-5 -0.001678,5.413e-5 -0.001678,4.8828e-4 0,3.3654e-4 4.1539e-4,6.1188e-4 9.2309e-4,6.1188e-4 5.077e-4,0 0.001396,4.834e-4 0.001974,0.001074 0.005117,0.00523 0.008182,0.007796 0.0128212,0.0107355 0.002973,0.001884 0.005235,0.003425 0.005026,0.003425 -2.0885e-4,0 7.4961e-4,7.4707e-4 0.00213,0.00166 0.003151,0.002084 0.006285,0.004511 0.0116479,0.009021 0.002315,0.001947 0.004636,0.003689 0.005156,0.003871 5.2056e-4,1.8208e-4 9.4648e-4,5.6513e-4 9.4648e-4,8.5123e-4 0,9.565e-4 -0.0166083,0.009809 -0.0228796,0.0121958 -0.001097,4.1758e-4 -0.001109,4.9814e-4 -1.5884e-4,0.001114 0.001152,7.4755e-4 0.003813,4.7136e-4 0.003524,-3.658e-4 -9.502e-5,-2.7496e-4 0.00185,-0.001452 0.004322,-0.002616 0.002472,-0.001164 0.007297,-0.003736 0.0107213,-0.005715 l 0.006226,-0.0036 0.00191,0.00186 c 0.00105,0.001023 0.003504,0.00272 0.005453,0.003772 0.00433,0.002336 0.0239917,0.0175659 0.0240046,0.0185935 1.25e-6,1.1657e-4 -0.001227,4.1752e-4 -0.00273,6.6877e-4 -0.00364,6.0839e-4 -0.007365,0.002444 -0.0121221,0.005973 -0.005501,0.004081 -0.007645,0.006873 -0.007645,0.009956 0,0.002851 0.00107,0.004957 0.003814,0.007511 0.00631,0.00587 0.0156671,0.009535 0.0244554,0.009579 l 0.004207,2.078e-5 0.00105,0.00179 c 0.002094,0.003568 0.002746,0.004445 0.00313,0.004205 4.7364e-4,-2.9602e-4 -8.8067e-4,-0.003544 -0.00213,-0.005109 -8.4479e-4,-0.001058 -8.2835e-4,-0.001113 2.5354e-4,-8.4568e-4 0.002418,5.9657e-4 0.005017,6.3031e-4 0.008155,1.0582e-4 l 0.003248,-5.4297e-4 0.002754,0.001994 c 0.002877,0.002083 0.00691,0.003741 0.007756,0.003189 2.7138e-4,-1.7691e-4 -5.65e-5,-5.2076e-4 -7.2865e-4,-7.6412e-4 -0.001788,-6.4748e-4 -0.00784,-0.004208 -0.00784,-0.004613 0,-1.9042e-4 4.9219e-4,-4.597e-4 0.001094,-5.9839e-4 6.0156e-4,-1.3869e-4 0.002192,-6.8002e-4 0.003535,-0.001203 0.002332,-9.0821e-4 0.002528,-9.2269e-4 0.004375,-3.2351e-4 0.001064,3.4498e-4 0.003319,0.001252 0.005013,0.002015 0.001694,7.6303e-4 0.003603,0.001335 0.004244,0.001272 0.001287,-1.2796e-4 0.001276,-8.3646e-4 -1.469e-5,-9.5485e-4 -4.4941e-4,-4.123e-5 -0.002768,-8.116e-4 -0.005152,-0.001712 l -0.004335,-0.001637 0.002729,-0.001897 c 0.005049,-0.00351 0.005204,-0.00691 5.8626e-4,-0.0128388 -0.00639,-0.008203 -0.0214358,-0.0148654 -0.0335723,-0.0148654 l -0.003242,0 -7.1232e-4,-0.00166 c -8.9245e-4,-0.00208 -0.0178893,-0.0157537 -0.022924,-0.018442 -0.001884,-0.001006 -0.004326,-0.002706 -0.005426,-0.003778 l -0.002001,-0.001949 0.002186,-0.001441 c 0.00404,-0.002664 0.0133326,-0.009972 0.0239342,-0.0188238 0.015506,-0.0129469 0.0309389,-0.0246094 0.0325653,-0.0246094 4.7794e-4,0 8.6898e-4,-2.3321e-4 8.6898e-4,-5.1823e-4 0,-2.8504e-4 0.001976,-0.002168 0.004392,-0.004183 0.002415,-0.002016 0.005694,-0.004991 0.007285,-0.006611 0.008013,-0.008158 0.0138105,-0.0137442 0.0169895,-0.0163706 0.001937,-0.0016 0.004068,-0.003365 0.004737,-0.003922 6.6853e-4,-5.5699e-4 0.002286,-0.001828 0.003594,-0.002825 0.002288,-0.001743 0.002942,-0.00268 0.001871,-0.00268 -2.7911e-4,0 -0.001174,5.7129e-4 -0.001989,0.00127 z m -0.10495596,-0.002556 c -0.002373,0.002782 -0.006742,0.006107 -0.009984,0.007598 -0.001242,5.709e-4 -0.004084,0.001423 -0.006317,0.001893 -0.006378,0.001343 -0.0109468,0.001016 -0.0207718,-0.001486 -0.0145454,-0.003705 -0.0160807,-0.004249 -0.0174482,-0.006181 -8.3294e-4,-0.001177 -0.00159,-0.001709 -0.00243,-0.001709 -0.001548,0 -0.001595,6.2891e-4 -6.555e-5,8.7894e-4 6.7666e-4,1.106e-4 0.001313,6.8248e-4 0.001537,0.001381 2.2759e-4,7.112e-4 0.001211,0.001581 0.002439,0.002158 0.002267,0.001065 0.0180136,0.005364 0.0231165,0.006311 0.008802,0.001634 0.0195407,-4.9698e-4 0.025706,-0.005101 0.002225,-0.001662 0.006835,-0.00708 0.006523,-0.007666 -1.4036e-4,-2.6317e-4 -0.001177,6.0239e-4 -0.002304,0.001923 z"
         inkscape:connector-curvature="0" /><path
         style="fill:none;fill-rule:evenodd;stroke:#00cd00;stroke-width:0.00407143;stroke-linecap:round;stroke-linejoin:round;stroke-miterlimit:4;stroke-dasharray:none;stroke-opacity:1"
         d="m 0.44214063,0.80600812 c 8.719e-5,-2.7249e-4 1.825e-5,-1.6546e-4 1.5215e-4,-3.3284e-4 9.211e-5,-1.1514e-4 3.6e-5,-7.003e-5 1.5215e-4,-1.4264e-4 l 7.608e-5,-4.755e-5 c 1.8737e-4,-5.855e-5 -6.868e-5,1.3802e-4 2.2822e-4,-4.754e-5 3.585e-5,-2.241e-5 -2.27e-5,-6.675e-5 0,-9.51e-5 l 7.608e-5,-4.754e-5 7.608e-5,-4.755e-5 1.5215e-4,-4.755e-5 c 2.405e-5,-5e-6 5.814e-5,1.122e-5 7.607e-5,0 1.795e-5,-1.122e-5 -8e-6,-3.251e-5 0,-4.755e-5 1.795e-5,-3.362e-5 3.6e-5,-7.003e-5 7.608e-5,-9.509e-5 4.01e-5,-2.506e-5 1.1205e-4,-2.25e-5 1.5215e-4,-4.755e-5 1.795e-5,-1.122e-5 -1.135e-5,-3.337e-5 0,-4.755e-5 l 1.0298e-4,1.969e-5 c 2.7579e-4,-3.4474e-4 -1.071e-4,7.95e-6 1.2525e-4,-2.0988e-4 3.145e-5,-2.95e-5 3.6e-5,-7.003e-5 7.607e-5,-9.509e-5 4.01e-5,-2.506e-5 1.0144e-4,-3.17e-5 1.5215e-4,-4.755e-5 l 1.5216e-4,-4.755e-5 c 2.405e-5,-5e-6 5.814e-5,1.122e-5 7.607e-5,0 4.01e-5,-2.506e-5 5.815e-5,-6.147e-5 7.608e-5,-9.509e-5 8e-6,-1.503e-5 -2.27e-5,-4.046e-5 0,-4.755e-5 4.535e-5,-1.418e-5 1.0995e-4,1.76e-5 1.5215e-4,0 4.72e-5,-1.965e-5 3.6e-5,-7.003e-5 7.607e-5,-9.509e-5 4.01e-5,-2.506e-5 1.1206e-4,-2.25e-5 1.5216e-4,-4.755e-5 1.795e-5,-1.122e-5 -2.27e-5,-4.046e-5 0,-4.755e-5 4.535e-5,-1.418e-5 1.0679e-4,1.419e-5 1.5215e-4,0 2.27e-5,-7.09e-6 -1.135e-5,-3.337e-5 0,-4.754e-5 1.583e-4,-1.9789e-4 -5.25e-6,5.083e-5 1.5215e-4,-4.755e-5 4.01e-5,-2.506e-5 4.205e-5,-6.675e-5 7.608e-5,-9.51e-5 l 1.5215e-4,-9.509e-5 7.607e-5,-4.755e-5 c 2.27e-5,-2.834e-5 -3.585e-5,-7.268e-5 0,-9.509e-5 4.5e-6,-1.3388e-4 1.7153e-4,-1.21e-5 2.2823e-4,-4.755e-5 3.585e-5,-2.241e-5 -2.27e-5,-6.674e-5 0,-9.51e-5 l 3.043e-4,-1.9018e-4 c 1.1087e-4,-4.62e-5 1.5846e-4,-2.969e-5 2.2823e-4,-9.51e-5 4.0574e-4,-3.8038e-4 -2.7894e-4,1.7434e-4 2.2823e-4,-1.4264e-4 1.795e-5,-1.122e-5 -1.795e-5,-3.634e-5 0,-4.755e-5 1.574e-4,-9.838e-5 -6.15e-6,1.5034e-4 1.5215e-4,-4.754e-5 1.135e-5,-1.419e-5 -1.135e-5,-3.338e-5 0,-4.755e-5 l 7.607e-5,-4.755e-5 c 1.135e-5,-1.419e-5 -1.795e-5,-3.634e-5 0,-4.755e-5 1.795e-5,-1.122e-5 5.34e-5,7.09e-6 7.608e-5,0 6.415e-5,-2.003e-5 8.8e-5,-7.505e-5 1.5215e-4,-9.509e-5 1.8737e-4,-5.856e-5 -6.867e-5,1.3801e-4 2.2823e-4,-4.755e-5 1.795e-5,-1.122e-5 -1.795e-5,-3.634e-5 0,-4.755e-5 4.01e-5,-2.506e-5 1.1206e-4,-2.25e-5 1.5215e-4,-4.755e-5 1.795e-5,-1.122e-5 -1.795e-5,-3.633e-5 0,-4.754e-5 2.969e-4,-1.8557e-4 4.085e-5,1.1e-5 2.2823e-4,-4.755e-5 6.743e-5,-2.106e-5 1.5897e-4,-1.1379e-4 2.2823e-4,-1.4264e-4 l 1.5215e-4,-4.755e-5 1.5215e-4,-4.755e-5 c 4.81e-5,-1.003e-5 1.0679e-4,1.419e-5 1.5215e-4,0 3.205e-5,-1.003e-5 4.205e-5,-4.046e-5 7.608e-5,-4.754e-5 3.48e-5,-7.25e-6 2.7045e-4,1.056e-5 3.043e-4,0 6.415e-5,-2.007e-5 8.411e-5,-8.092e-5 1.5215e-4,-9.51e-5 9.623e-5,-2.006e-5 2.0807e-4,2.003e-5 3.043e-4,0 3.405e-5,-7.09e-6 4.4e-5,-3.752e-5 7.608e-5,-4.755e-5 l 7.608e-5,0 7.607e-5,-4.754e-5 -0.001107,7.3966e-4 0.001336,-7.8721e-4 c 6.847e-5,-1.425e-5 1.5976e-4,1.428e-5 2.2823e-4,0 8.875e-5,-1.8227e-4 -0.003677,5.2406e-4 2.6626e-4,-5.468e-4 0.002023,-6.9133e-4 1.2679e-4,3.3283e-4 1.9019e-4,4.9925e-4 l 7.608e-5,0 7.607e-5,0 c 6.415e-5,2.006e-5 8.8e-5,7.505e-5 1.5215e-4,9.51e-5 2.27e-5,7.09e-6 -0.001394,9.3017e-4 -0.001376,9.4139e-4 4.01e-5,2.506e-5 0.001497,-8.7579e-4 0.001529,-8.463e-4 l 7.607e-5,4.755e-5 c 2.27e-5,2.834e-5 -2.27e-5,6.674e-5 0,9.509e-5 7.693e-5,9.617e-5 1.7655e-4,1.525e-5 2.2823e-4,4.755e-5 1.795e-5,1.122e-5 -1.135e-5,3.337e-5 0,4.755e-5 1.605e-5,2.003e-5 6.473e-5,2.628e-5 7.607e-5,4.755e-5 5.45e-6,1.025e-5 -7.4217e-4,-0.002407 0.001153,-3.4216e-4 0.007723,0.014886 -0.00104,5.9014e-4 -0.001001,6.2744e-4 2.815e-5,2.638e-5 -2.27e-5,6.674e-5 0,9.509e-5 l 7.607e-5,4.755e-5 c 3.585e-5,4.483e-5 5.663e-5,9.402e-5 7.608e-5,1.4265e-4 6.15e-6,1.537e-5 -1.135e-5,3.337e-5 0,4.754e-5 l 7.607e-5,4.755e-5 c 2.27e-5,2.834e-5 -3.585e-5,7.268e-5 0,9.509e-5 4.01e-5,2.506e-5 1.0497e-4,2.788e-5 1.5215e-4,4.755e-5 l 7.608e-5,4.755e-5 -0.00143,4.1738e-4 c 0.007142,0.0149061 0.001484,-3.0309e-4 0.001506,-2.7474e-4 2.905e-5,3.632e-5 2.1105e-4,1.1045e-4 2.2822e-4,1.4264e-4 1.605e-5,3.007e-5 -1.605e-5,6.503e-5 0,9.51e-5 3.5e-5,6.567e-5 1.7231e-4,4.849e-5 2.2823e-4,9.509e-5 4.81e-5,4.01e-5 4.02e-5,9.782e-5 7.608e-5,1.4264e-4 l 7.607e-5,4.755e-5 7.608e-5,9.51e-5 1.5215e-4,9.509e-5 c 6.804e-5,5.671e-5 8.924e-5,1.3121e-4 1.5215e-4,1.9019e-4 9.28e-5,8.7e-5 9.699e-5,4.75e-6 1.5215e-4,1.4264e-4 1.23e-5,3.075e-5 -1.23e-5,6.434e-5 0,9.51e-5 5.384e-5,1.3458e-4 1.4642e-4,8.434e-5 2.2823e-4,2.3773e-4 2.405e-5,4.511e-5 -1.845e-5,9.652e-5 0,1.4265e-4 8.7e-6,2.175e-5 5.072e-5,3.169e-5 7.608e-5,4.754e-5 2.535e-5,3.17e-5 6.495e-5,6.035e-5 7.607e-5,9.51e-5 2.485e-5,7.771e-5 0,1.5849e-4 0,2.3773e-4 l 0,4.755e-5 c 0,1.584e-5 -1.135e-5,3.337e-5 0,4.755e-5 2.905e-5,3.632e-5 2.1106e-4,1.1044e-4 2.2823e-4,1.4264e-4 1.605e-5,3.006e-5 -1.605e-5,6.502e-5 0,9.509e-5 1.135e-5,2.129e-5 6.473e-5,2.629e-5 7.607e-5,4.755e-5 2.695e-5,5.053e-5 -2.695e-5,1.3967e-4 0,1.9019e-4 3.585e-5,6.725e-5 1.2465e-4,1.2143e-4 1.5216e-4,1.9019e-4 1.23e-5,3.075e-5 0,6.34e-5 0,9.51e-5 0,1.584e-5 -1.135e-5,3.337e-5 0,4.754e-5 1.605e-5,2.007e-5 6.904e-5,2.557e-5 7.607e-5,4.755e-5 1.99e-5,6.217e-5 -1.665e-5,1.2766e-4 0,1.9019e-4 9.3e-6,3.496e-5 6.233e-5,6.071e-5 7.608e-5,9.51e-5 1.23e-5,3.075e-5 0,6.339e-5 0,9.509e-5 0,6.34e-5 -1.665e-5,1.2765e-4 0,1.9019e-4 9.3e-6,3.496e-5 5.814e-5,6.147e-5 7.607e-5,9.51e-5 l 7.608e-5,1.9018e-4 c 2.04e-5,7.641e-5 -2.43e-5,1.618e-4 0,2.3774e-4 l 7.608e-5,1.4264e-4 c 1.07e-5,3.342e-5 -2e-5,2.1276e-4 0,2.3774e-4 3.21e-5,4.01e-5 1.1236e-4,5.78e-5 1.5215e-4,9.51e-5 2.595e-5,2.431e-5 -2.605e-5,2.0519e-4 0,2.3773e-4 1.605e-5,2.006e-5 6.473e-5,2.628e-5 7.607e-5,4.755e-5 1.605e-5,3.006e-5 0,6.339e-5 0,9.509e-5 l 0,3.3284e-4 c 0,3.169e-5 -1.23e-5,6.434e-5 0,9.509e-5 1.375e-5,3.438e-5 5.815e-5,6.147e-5 7.608e-5,9.509e-5 l 0,4.755e-5 0,1.4264e-4 0,4.755e-5 c 1.945e-5,4.863e-5 6.289e-5,9.321e-5 7.607e-5,1.4264e-4 2.085e-5,7.817e-5 -3.075e-5,1.6086e-4 0,2.3774e-4 -4.585e-5,8.606e-5 1.2324e-4,8.843e-5 1.5216e-4,1.4264e-4 3.805e-5,7.132e-5 -3.805e-5,1.6642e-4 0,2.3774e-4 8e-6,1.503e-5 8.6685e-4,-1.8145e-4 8.7487e-4,-1.6642e-4 0.007479,0.0117418 -8.137e-4,2.6244e-4 -7.988e-4,3.0906e-4 1.11e-5,3.475e-5 5.815e-5,6.148e-5 7.608e-5,9.51e-5 2.405e-5,4.51e-5 -1.49e-5,9.601e-5 0,1.4264e-4 l 7.607e-5,1.4264e-4 c 9.95e-6,3.109e-5 -1.23e-5,6.434e-5 0,9.51e-5 1.375e-5,3.438e-5 6.233e-5,6.071e-5 7.608e-5,9.509e-5 2.85e-5,7.118e-5 -2.41e-5,2.1001e-4 0,2.8528e-4 -1.745e-5,9.549e-5 1.1903e-4,1.5494e-4 1.5215e-4,2.3774e-4 1.23e-5,3.075e-5 -1.605e-5,6.502e-5 0,9.509e-5 1.135e-5,2.129e-5 6.474e-5,2.629e-5 7.608e-5,4.755e-5 1.4e-5,2.622e-5 0,2.4494e-4 0,2.8529e-4 0,2.9615e-4 -2.27e-5,-1.1843e-4 7.607e-5,1.9019e-4 1.49e-5,4.662e-5 -1.49e-5,9.602e-5 0,1.4264e-4 1.11e-5,3.475e-5 6.496e-5,6.034e-5 7.608e-5,9.509e-5 1.49e-5,4.663e-5 -1.845e-5,9.652e-5 0,1.4265e-4 8.7e-6,2.175e-5 6.473e-5,2.628e-5 7.607e-5,4.754e-5 1.3189e-4,2.473e-4 -0.002833,-0.003801 -4.1842e-4,3.8038e-4 0.00373,0.004611 4.8316e-4,-1.6391e-4 4.945e-4,-1.4264e-4 2.285e-5,4.279e-5 -2.28e-5,9.985e-5 0,1.4264e-4 1.0143e-4,1.9019e-4 7.3e-5,-9.62e-6 1.5215e-4,2.3774e-4 9.95e-6,3.109e-5 -2.27e-5,6.674e-5 0,9.509e-5 3.21e-5,4.01e-5 1.2008e-4,5.5e-5 1.5215e-4,9.51e-5 2.27e-5,2.834e-5 -1.23e-5,6.434e-5 0,9.509e-5 1.375e-5,3.438e-5 5.072e-5,6.34e-5 7.608e-5,9.51e-5 l 7.607e-5,9.509e-5 c 4.305e-5,3.587e-5 1.2552e-4,5.347e-5 1.5216e-4,9.51e-5 2.825e-5,4.414e-5 -1.25e-5,9.574e-5 0,1.4264e-4 7.257e-5,2.7215e-4 2.6e-5,5.879e-5 1.5215e-4,1.9019e-4 3.2034e-4,3.3369e-4 6.215e-5,5.158e-5 1.5215e-4,3.3283e-4 3.35e-5,1.0463e-4 1.3043e-4,1.0869e-4 2.2823e-4,1.9019e-4 3.4e-5,2.834e-5 3.6e-5,7.003e-5 7.607e-5,9.509e-5 1.795e-5,1.122e-5 5.815e-5,-1.122e-5 7.608e-5,0 2.1421e-4,2.82e-6 1.935e-5,1.0721e-4 7.607e-5,1.4265e-4 1.795e-5,1.122e-5 5.815e-5,-1.122e-5 7.608e-5,0 1.795e-5,1.122e-5 -1.795e-5,3.634e-5 0,4.754e-5 1.795e-5,1.122e-5 5.814e-5,-1.121e-5 7.607e-5,0 2.08e-5,1.3e-5 -2.065e-5,1.644e-4 0,1.9019e-4 l 7.608e-5,4.755e-5 c 2.27e-5,2.835e-5 -2.27e-5,6.674e-5 0,9.51e-5 1.605e-5,2.006e-5 6.474e-5,2.628e-5 7.608e-5,4.754e-5 1.605e-5,3.006e-5 -1.605e-5,6.502e-5 0,9.51e-5 1.135e-5,2.125e-5 6.003e-5,2.75e-5 7.607e-5,4.755e-5 1.135e-5,1.418e-5 -1.135e-5,3.336e-5 0,4.754e-5 l 7.608e-5,4.755e-5 c 2.27e-5,2.834e-5 -2.27e-5,6.674e-5 0,9.509e-5 l 7.607e-5,4.755e-5 c 0,3.17e-5 -1.605e-5,6.502e-5 0,9.51e-5 2.27e-5,4.252e-5 1.2008e-4,5.499e-5 1.5216e-4,9.509e-5 1.135e-5,1.419e-5 0,3.17e-5 0,4.755e-5 0,3.169e-5 -1.605e-5,6.502e-5 0,9.509e-5 1.135e-5,2.125e-5 6.003e-5,2.75e-5 7.607e-5,4.755e-5 1.135e-5,1.419e-5 5.402e-4,-1.3305e-4 5.5155e-4,-1.1887e-4 -1.5324e-4,1.7694e-4 -4.7547e-4,1.5001e-4 -4.7547e-4,2.6151e-4 0,1.585e-5 -2.535e-5,4.755e-5 0,4.755e-5 2.535e-5,0 0,-3.17e-5 0,-4.755e-5"
         id="path4758"
         inkscape:connector-curvature="0"
         sodipodi:nodetypes="csccccccccccccccccccccccccccccccccccscccccccccccccccccccccccccccccccccccccccccccccccccccccccccccccccccssccccccsccccscccccccccsscccccccccccccccccsccsccccccccccccsccccccccccccccccccccccccscccssc" /></g></g></svg>