<?xml version="1.0" encoding="UTF-8" standalone="no"?>
<!-- Created with Inkscape (http://www.inkscape.org/) -->

<svg
   xmlns:dc="http://purl.org/dc/elements/1.1/"
   xmlns:cc="http://creativecommons.org/ns#"
   xmlns:rdf="http://www.w3.org/1999/02/22-rdf-syntax-ns#"
   xmlns:svg="http://www.w3.org/2000/svg"
   xmlns="http://www.w3.org/2000/svg"
   xmlns:sodipodi="http://sodipodi.sourceforge.net/DTD/sodipodi-0.dtd"
   xmlns:inkscape="http://www.inkscape.org/namespaces/inkscape"
   id="svg4810"
   version="1.1"
   inkscape:version="0.91 r13725"
   xml:space="preserve"
   width="438.89832"
   height="408.785"
   viewBox="0 0 438.89832 408.785"
   sodipodi:docname="stick_expertreview.svg"><metadata
     id="metadata4816"><rdf:RDF><cc:Work
         rdf:about=""><dc:format>image/svg+xml</dc:format><dc:type
           rdf:resource="http://purl.org/dc/dcmitype/StillImage" /><dc:title></dc:title></cc:Work></rdf:RDF></metadata><defs
     id="defs4814" /><sodipodi:namedview
     pagecolor="#ffffff"
     bordercolor="#666666"
     borderopacity="1"
     objecttolerance="10"
     gridtolerance="10"
     guidetolerance="10"
     inkscape:pageopacity="0"
     inkscape:pageshadow="2"
     inkscape:window-width="1680"
     inkscape:window-height="948"
     id="namedview4812"
     showgrid="false"
     fit-margin-top="0"
     fit-margin-left="0"
     fit-margin-right="0"
     fit-margin-bottom="0"
     inkscape:zoom="0.64"
     inkscape:cx="121.32175"
     inkscape:cy="370.63613"
     inkscape:window-x="0"
     inkscape:window-y="30"
     inkscape:window-maximized="1"
     inkscape:current-layer="g4820" /><g
     id="g4818"
     inkscape:groupmode="layer"
     inkscape:label="Teuns website diensten drawings_4"
     transform="matrix(1.25,0,0,-1.25,-677.2848,2899.8907)"><g
       id="g4820"
       transform="matrix(1600,0,0,2560,10,20)"><path
         style="fill:#000000"
         d="m 0.5128125,0.79577757 c -0.002597,9.168e-4 -0.0108114,0.005423 -0.015625,0.00857 -0.0100985,0.006604 -0.019611,0.0147172 -0.0268515,0.0229021 -0.005537,0.006259 -0.007293,0.009407 -0.004414,0.007914 5.2394e-4,-2.7177e-4 9.5277e-4,-7.8022e-4 9.5297e-4,-0.00113 4.4e-7,-7.586e-4 0.008981,-0.0108694 0.0129576,-0.0145878 0.003514,-0.003286 0.0130947,-0.0108235 0.0169468,-0.0133324 0.004242,-0.002763 0.0164199,-0.00927 0.0181016,-0.009673 7.9412e-4,-1.9013e-4 0.00127,-5.218e-4 0.001057,-7.3704e-4 -4.989e-4,-5.0452e-4 -0.001559,-4.7953e-4 -0.003126,7.372e-5 z"
         id="path5532"
         inkscape:connector-curvature="0" /><path
         style="fill:#000000"
         d="m 0.5154165,0.79830757 c -8.3775e-4,5.2359e-4 -3.762e-4,0.005486 7.9321e-4,0.008529 6.6062e-4,0.001719 0.002938,0.005937 0.005061,0.009375 0.007549,0.0122232 0.009355,0.0159326 0.0131222,0.0269531 0.006625,0.0193826 0.007896,0.0241132 0.009653,0.0359375 0.001467,0.009874 0.002927,0.0139459 0.005684,0.0158496 5.7569e-4,3.9758e-4 8.8079e-4,9.9309e-4 6.7802e-4,0.001323 -2.2856e-4,3.7225e-4 -1.981e-5,6.0049e-4 5.4919e-4,6.0049e-4 0.001286,0 0.001149,-0.00143 -2.7683e-4,-0.002884 -0.002027,-0.002067 -0.003106,-0.005221 -0.004425,-0.0129367 -6.9783e-4,-0.004082 -0.001848,-0.009883 -0.002555,-0.0128906 -0.001513,-0.006431 -0.007091,-0.0235299 -0.010584,-0.0324404 -0.00228,-0.005817 -0.007066,-0.0154017 -0.008579,-0.0171814 -3.5959e-4,-4.229e-4 -0.00212,-0.003491 -0.003912,-0.006818 -0.002763,-0.005129 -0.003309,-0.006629 -0.003595,-0.009863 -3.1553e-4,-0.003579 -5.9337e-4,-0.004191 -0.001613,-0.003554 z"
         id="path5530"
         inkscape:connector-curvature="0" /><path
         id="path5528"
         style="fill:#000000"
         d="m 0.35218733,0.80594157 c -0.0113693,0.006776 -0.014414,0.009047 -0.0136961,0.0102167 6.8101e-4,0.001109 0.0104168,0.003343 0.0171336,0.00393 0.004692,4.1071e-4 0.008983,0.001413 0.0105008,0.002453 0.001692,0.001159 0.002499,9.1525e-4 0.001501,-4.5398e-4 -9.9467e-4,-0.001364 -0.00503,-0.00252 -0.0117479,-0.003365 -0.006157,-7.7407e-4 -0.013186,-0.002127 -0.0144584,-0.002784 -0.001305,-6.7318e-4 2.2869e-4,-0.001849 0.009901,-0.007589 0.005024,-0.002981 0.0100157,-0.006059 0.0110938,-0.006839 0.001875,-0.001358 0.002492,-0.002302 0.001491,-0.002284 -2.5781e-4,4.73e-6 -0.005531,0.003026 -0.0117188,0.006714 z M 0.38625,0.85951617 c 0,3.4961e-4 5.1014e-4,4.7082e-4 0.001489,3.5384e-4 8.1908e-4,-9.786e-5 0.001679,1.442e-5 0.001912,2.4948e-4 6.2185e-4,6.2887e-4 0.004099,5.3943e-4 0.004099,-1.0543e-4 0,-3.3778e-4 -0.001062,-6.2378e-4 -0.0029,-7.8125e-4 -0.004084,-3.4982e-4 -0.0046,-3.1799e-4 -0.0046,2.8336e-4 z m -0.0283093,-0.001849 c -0.001073,6.7073e-4 -1.0372e-4,8.4586e-4 0.004927,8.9007e-4 0.004072,3.578e-5 0.005304,-7.2e-5 0.005106,-4.4651e-4 -2.8486e-4,-5.3804e-4 -0.009248,-9.3429e-4 -0.0100329,-4.4356e-4 z M 0.370625,0.84448227 c 0,3.7866e-4 0.00301,8.3008e-4 0.005535,8.3008e-4 8.9572e-4,0 0.004108,5.5432e-4 0.007138,0.001232 0.004115,9.2005e-4 0.00569,0.001119 0.00622,7.8776e-4 C 0.3904343,0.84675942 0.390624,0.846827 0.38405,0.84538111 0.378518,0.84416411 0.3706245,0.84363611 0.3706245,0.84448278 Z m 6.25e-4,-0.00891 c 0.004531,4.574e-4 0.0123214,0.002043 0.0133769,0.002723 5.0416e-4,3.2475e-4 3.5479e-4,4.0714e-4 -5.6438e-4,3.1132e-4 -7.8711e-4,-8.204e-5 -0.00125,8.669e-5 -0.00125,4.5564e-4 0,4.5078e-4 8.0388e-4,5.8594e-4 0.003485,5.8594e-4 0.002837,0 0.003979,2.135e-4 0.006143,0.001149 0.003654,0.001579 0.008186,0.004813 0.008613,0.006146 1.9423e-4,6.0697e-4 7.3986e-4,0.001104 0.001213,0.001104 0.001104,0 0.001082,-3.485e-4 -1.3767e-4,-0.002198 l -9.9705e-4,-0.001513 0.002308,0.001367 c 0.003784,0.002242 0.007646,0.005918 0.009075,0.00864 0.001135,0.002161 0.001236,0.0028 6.5421e-4,0.00415 -9.2209e-4,0.00214 -0.005458,0.004679 -0.0140596,0.007869 -0.008288,0.003074 -0.014721,0.004795 -0.0184564,0.004938 -0.002349,9.013e-5 -0.003026,2.9933e-4 -0.003916,0.001211 -0.001848,0.001892 -0.003595,0.002471 -0.007489,0.00248 -0.007171,1.746e-5 -0.0157191,-0.002821 -0.0240043,-0.007971 -0.008246,-0.005126 -0.0115043,-0.009473 -0.0106208,-0.0141719 0.001431,-0.007609 0.01308,-0.0154087 0.025542,-0.0171009 0.004891,-6.6413e-4 0.006061,-6.8265e-4 0.0110858,-1.7543e-4 z m 0.0196656,-0.0622495 c -0.006796,0.004681 -0.0110397,0.007939 -0.0133823,0.0102731 -0.001185,0.001181 -0.003073,0.002799 -0.004197,0.003597 -0.001123,7.9795e-4 -0.002771,0.00235 -0.003662,0.003448 l -0.001619,0.001997 -0.003219,-0.002862 c -0.00177,-0.001574 -0.005504,-0.005147 -0.008296,-0.00794 -0.007931,-0.007932 -0.00942,-0.009322 -0.0108439,-0.0101213 -0.001825,-0.001025 -0.002324,-5.3138e-4 -8.2132e-4,8.1326e-4 6.7914e-4,6.0771e-4 0.004546,0.004445 0.008594,0.008527 0.004047,0.004082 0.008766,0.008605 0.0104864,0.0100508 0.002696,0.002266 0.003152,0.002913 0.003306,0.004687 9.796e-5,0.001132 6.4164e-4,0.003641 0.001208,0.005574 6.626e-4,0.002261 0.001212,0.007278 0.00154,0.0140625 2.8033e-4,0.005801 7.072e-4,0.0109424 9.4862e-4,0.0114258 2.4141e-4,4.834e-4 8.4695e-4,8.789e-4 0.001346,8.789e-4 5.7132e-4,0 7.859e-4,-2.5287e-4 5.8009e-4,-6.8359e-4 -7.1517e-4,-0.001497 -9.9289e-4,-0.005794 -4.1024e-4,-0.006348 8.9262e-4,-8.4836e-4 0.0128202,0.006623 0.0174622,0.0109375 0.003609,0.003355 0.006315,0.006901 0.006315,0.008274 0,6.7747e-4 -2.5021e-4,6.4183e-4 -0.002656,-3.7833e-4 -0.002929,-0.001242 -0.01059,-0.003316 -0.0164063,-0.004443 -0.01288,-0.002494 -0.0244303,-5.8364e-4 -0.0343978,0.00569 -0.007919,0.004984 -0.0111537,0.009793 -0.0102519,0.0152387 5.257e-4,0.003174 0.002926,0.006156 0.007892,0.009803 0.008911,0.006545 0.0223557,0.0112623 0.0300607,0.010548 0.002381,-2.2072e-4 0.003427,-5.9416e-4 0.005447,-0.001945 0.001955,-0.001307 0.003113,-0.001734 0.005312,-0.001957 0.004573,-4.6384e-4 0.0116856,-0.002415 0.0196875,-0.005401 0.009161,-0.003418 0.0137669,-0.006062 0.014422,-0.008278 0.00133,-0.004499 -0.004462,-0.0110626 -0.013797,-0.0156341 -0.001719,-8.4168e-4 -0.003194,-0.00155 -0.003278,-0.001575 -8.44e-5,-2.441e-5 -2.9038e-4,-8.9022e-4 -4.5775e-4,-0.001924 -3.8595e-4,-0.002384 -0.004311,-0.007421 -0.008421,-0.0108061 -0.00173,-0.001425 -0.006242,-0.004445 -0.0100255,-0.006711 l -0.00688,-0.00412 -2.05e-5,-0.004226 c -1.131e-5,-0.002324 -5.9118e-4,-0.006599 -0.001289,-0.009499 -0.001869,-0.00777 -0.002086,-0.009375 -0.001268,-0.009375 3.8631e-4,0 7.0239e-4,2.6368e-4 7.0239e-4,5.8594e-4 0,6.288e-4 9.6795e-4,7.9657e-4 0.001499,2.5977e-4 1.774e-4,-1.794e-4 2.175e-5,-9.3869e-4 -3.4585e-4,-0.001687 -5.6145e-4,-0.001143 -4.6192e-4,-0.001614 6.2197e-4,-0.002942 0.001681,-0.002059 0.004354,-0.004029 0.005468,-0.004029 0.001037,0 0.001189,-6.5213e-4 2.0012e-4,-8.5819e-4 -0.001008,-2.1e-4 0.004926,-0.005516 0.010207,-0.009126 0.006333,-0.00433 0.00829,-0.005991 0.00758,-0.006434 -3.6576e-4,-2.286e-4 -0.002227,7.628e-4 -0.00494,0.002632 z"
         inkscape:connector-curvature="0" /><path
         style="fill:#000000"
         d="m 0.50163347,0.80774057 c -1.9574e-4,1.9796e-4 4.3373e-4,0.001394 0.001399,0.002657 9.6511e-4,0.001264 0.002116,0.003616 0.002557,0.005227 4.4139e-4,0.001611 0.001933,0.005479 0.003315,0.008594 0.003345,0.007541 0.003256,0.007139 0.001775,0.007977 -0.001314,7.4298e-4 -0.002121,9.119e-4 -0.0140833,0.002946 -0.003763,6.3976e-4 -0.008902,0.001633 -0.0114212,0.002207 -0.002519,5.7421e-4 -0.004761,9.3103e-4 -0.004982,7.9296e-4 -2.2092e-4,-1.3808e-4 6.707e-5,-2.5105e-4 6.3998e-4,-2.5105e-4 5.7292e-4,0 0.001042,-2.6986e-4 0.001042,-5.9968e-4 0,-4.8685e-4 -2.4527e-4,-5.1765e-4 -0.001304,-1.6367e-4 -7.1694e-4,2.3981e-4 -0.001436,3.5342e-4 -0.001597,2.5247e-4 -1.6151e-4,-1.0095e-4 -6.2998e-4,-0.001563 -0.001041,-0.003249 -5.9915e-4,-0.002458 -9.7697e-4,-0.003093 -0.001905,-0.003205 -0.001035,-1.2461e-4 -0.001111,4.005e-5 -7.1641e-4,0.001557 2.4271e-4,9.3313e-4 9.2735e-4,0.002612 0.001521,0.003731 8.7642e-4,0.001651 9.2328e-4,0.002072 2.4849e-4,0.002234 -0.001725,4.1381e-4 -7.2861e-4,8.8099e-4 0.002018,9.4593e-4 0.001723,4.073e-5 0.004998,-3.7606e-4 0.008281,-0.001054 0.002987,-6.1679e-4 0.008806,-0.001682 0.0129313,-0.002367 0.007567,-0.001257 0.0126296,-0.002618 0.0137152,-0.003688 4.0783e-4,-4.02e-4 -3.0408e-4,-0.002553 -0.002304,-0.006961 -0.001592,-0.003508 -0.003363,-0.007961 -0.003936,-0.009895 -0.001434,-0.004837 -0.004807,-0.009051 -0.006155,-0.007689 z"
         id="path5526"
         inkscape:connector-curvature="0" /><path
         id="path5520"
         style="fill:#0000da;fill-opacity:1"
         d="m 0.50093747,0.82769869 c -0.003747,2.9364e-4 -0.004418,5.3014e-4 -0.005616,0.001978 -7.1566e-4,8.6497e-4 -0.001511,0.001171 -0.003589,0.00138 -0.002913,2.9308e-4 -0.005206,0.001065 -0.006787,0.002286 -0.001006,7.7685e-4 -0.001027,7.7415e-4 -0.002128,-2.756e-4 -6.1128e-4,-5.8308e-4 -0.001226,-9.8853e-4 -0.001366,-9.01e-4 -3.7861e-4,2.3663e-4 0.001826,0.00299 0.002394,0.00299 2.6862e-4,0 0.001455,-6.0408e-4 0.002636,-0.001342 0.001966,-0.001229 0.003191,-0.001525 0.007894,-0.001912 5.1551e-4,-4.233e-5 0.001617,-7.3375e-4 0.002448,-0.001536 0.001358,-0.001312 0.001783,-0.00146 0.00419,-0.00146 0.002756,0 0.005862,-6.5421e-4 0.005862,-0.001235 0,-3.5545e-4 -0.001123,-3.5034e-4 -0.005937,2.699e-5 z m -0.002518,-0.007468 c -0.001041,5.8209e-4 -0.002681,0.001724 -0.003644,0.002539 -0.00289,0.002442 -0.008111,0.005694 -0.009726,0.006058 -8.322e-4,1.8748e-4 -0.001244,4.4482e-4 -9.1511e-4,5.7186e-4 0.001257,4.8555e-4 0.005173,-0.001186 0.008936,-0.003813 0.002153,-0.001504 0.004836,-0.00335 0.00596,-0.004102 0.001125,-7.5196e-4 0.002241,-0.001587 0.002482,-0.001855 7.7477e-4,-8.6607e-4 -0.00113,-4.9531e-4 -0.003092,6.0181e-4 z m -0.005906,-6.9082e-4 c -0.006868,0.004311 -0.008438,0.005533 -0.0077,0.005995 7.6572e-4,4.7857e-4 0.001436,2.3774e-4 0.001436,-5.1581e-4 0,-4.5895e-4 0.001071,-0.001223 0.00269,-0.001919 0.001479,-6.3615e-4 0.003464,-0.001831 0.00441,-0.002655 9.4604e-4,-8.2436e-4 0.002953,-0.002114 0.00446,-0.002866 0.002591,-0.001293 0.003573,-0.002344 0.00219,-0.002344 -3.4411e-4,0 -0.003713,0.001937 -0.007485,0.004306 z"
         inkscape:connector-curvature="0" /><path
         style="fill:#000000"
         d="m 0.45875,0.83231363 c 0,2.219e-4 4.0689e-4,0.001012 9.0421e-4,0.001756 8.4355e-4,0.001262 0.004642,0.0149377 0.006866,0.0247194 0.001686,0.007414 0.002988,0.013226 0.003306,0.0147461 1.6807e-4,8.0566e-4 5.5729e-4,0.001465 8.6494e-4,0.001465 6.9806e-4,0 6.9405e-4,-3.9752e-4 -3.35e-5,-0.00332 -3.2088e-4,-0.001289 -7.5599e-4,-0.003311 -9.6691e-4,-0.004492 -0.001888,-0.0105791 -0.006845,-0.0312343 -0.007891,-0.0328819 -7.1702e-4,-0.00113 -0.00305,-0.002653 -0.00305,-0.001992 z"
         id="path5518"
         inkscape:connector-curvature="0" /><path
         id="path5508"
         style="fill:#0000da;fill-opacity:1"
         d="m 0.49108418,0.85870763 c -0.001261,6.2135e-4 -0.002031,0.002229 -0.001067,0.002229 3.991e-4,0 8.7273e-4,-3.5156e-4 0.001053,-7.8125e-4 3.5334e-4,-8.4449e-4 0.001721,-0.001045 0.002406,-3.5327e-4 4.2269e-4,4.2744e-4 0.00347,3.205e-4 0.005313,-1.8648e-4 5.9021e-4,-1.6232e-4 0.001923,1.3392e-4 0.003377,7.5051e-4 0.001321,5.6027e-4 0.002851,0.001008 0.0034,9.9551e-4 5.4898e-4,-1.273e-5 0.003492,-3.18e-5 0.00654,-4.236e-5 0.005409,-1.875e-5 0.009146,-6.579e-4 0.009146,-0.001565 0,-5.1384e-4 -7.3118e-4,-4.7922e-4 -0.003116,1.4756e-4 -0.001442,3.7884e-4 -0.002824,4.3309e-4 -0.00489,1.919e-4 -0.001857,-2.1688e-4 -0.003616,-1.8435e-4 -0.004954,9.162e-5 -0.001864,3.8441e-4 -0.00238,3.054e-4 -0.005081,-7.7783e-4 -0.003413,-0.001369 -0.004247,-0.00145 -0.006179,-6.046e-4 -0.001224,5.3569e-4 -0.00157,5.3751e-4 -0.003181,1.672e-5 -0.001428,-4.6167e-4 -0.002009,-4.8536e-4 -0.002765,-1.1284e-4 z m 0.007215,-0.004495 c -0.002776,6.6477e-4 -0.004237,7.4339e-4 -0.00658,3.5413e-4 -0.001358,-2.2478e-4 -0.001719,-1.513e-4 -0.001719,3.504e-4 0,3.897e-4 3.4471e-4,5.525e-4 8.9195e-4,4.2125e-4 4.9057e-4,-1.1765e-4 0.001733,-1.543e-5 0.002762,2.2718e-4 0.001503,3.5462e-4 0.002339,3.1535e-4 0.004264,-2.0029e-4 0.001683,-4.5069e-4 0.004205,-6.3926e-4 0.008482,-6.3426e-4 0.006017,7.03e-6 0.00735,-1.4417e-4 0.00735,-8.3375e-4 0,-5.7881e-4 -0.0128085,-3.1681e-4 -0.0154512,3.1605e-4 z m 0.009826,-0.005696 c -0.002234,6.8788e-4 -0.004519,0.001377 -0.005078,0.001531 -5.5845e-4,1.5443e-4 -0.001786,3.093e-5 -0.002728,-2.7445e-4 -0.002191,-7.103e-4 -0.004075,-7.0473e-4 -0.005723,1.691e-5 -7.1883e-4,3.1468e-4 -0.001456,4.7877e-4 -0.001639,3.6464e-4 -1.8262e-4,-1.1413e-4 -5.1741e-4,-2.004e-5 -7.4399e-4,2.091e-4 -5.4852e-4,5.547e-4 0.001681,5.3683e-4 0.003669,-2.941e-5 0.001263,-3.5976e-4 0.001869,-3.2199e-4 0.003132,1.9531e-4 8.6136e-4,3.5274e-4 0.002292,6.4135e-4 0.00318,6.4135e-4 0.001968,0 0.0110726,-0.003055 0.0105821,-0.003551 -4.4751e-4,-4.5255e-4 2.675e-5,-5.4394e-4 -0.004652,8.9651e-4 z"
         inkscape:connector-curvature="0" /><path
         id="path5506"
         style="fill:#000000"
         d="m 0.483654,0.86476863 c 9.1244e-4,3.8844e-4 0.003557,0.001199 0.005878,0.001802 0.00232,6.0253e-4 0.004219,0.001321 0.004219,0.001596 0,2.7511e-4 4.2188e-4,6.0137e-4 9.375e-4,7.2504e-4 5.1563e-4,1.2367e-4 9.375e-4,5.458e-5 9.375e-4,-1.5352e-4 0,-5.5936e-4 8.5121e-4,-4.795e-4 0.006628,6.2183e-4 0.004888,9.3177e-4 0.005246,0.001072 0.005237,0.002051 -1.712e-5,0.001877 -5.9849e-4,0.002075 -0.004703,0.001601 -0.004738,-5.4736e-4 -0.007163,-0.001332 -0.007163,-0.002318 0,-0.001104 -0.001793,-9.5646e-4 -0.0025,2.0535e-4 -3.2673e-4,5.3711e-4 -8.9516e-4,9.7656e-4 -0.001263,9.7656e-4 -3.68e-4,0 -0.00199,-4.3945e-4 -0.003604,-9.7656e-4 -0.001614,-5.3711e-4 -0.003245,-9.7657e-4 -0.003625,-9.7657e-4 -0.001449,0 -0.002733,-0.001486 -0.003136,-0.00363 -2.3061e-4,-0.001226 -2.1304e-4,-0.00223 3.906e-5,-0.00223 2.5208e-4,0 0.001205,3.1782e-4 0.002117,7.0626e-4 z m 0.036786,-0.021461 c 9.8119e-4,0.003042 0.002654,0.006306 0.008036,0.0156765 0.004868,0.008475 0.005017,0.008823 0.004084,0.009525 -5.4312e-4,4.0901e-4 -3.5386e-4,0.001267 7.9696e-4,0.003611 8.3008e-4,0.001691 0.001671,0.00364 0.001869,0.004332 3.4284e-4,0.001198 2.7914e-4,0.001247 -0.001339,0.001047 C 0.53295215,0.87738348 0.5305,0.87707978 0.5284375,0.87682445 l -0.00375,-4.6425e-4 1.5154e-4,-0.001852 c 1.3263e-4,-0.001621 -3.75e-6,-0.001852 -0.001094,-0.001852 -6.8491e-4,0 -0.001246,-2.1973e-4 -0.001248,-4.8828e-4 -3.13e-6,-6.223e-4 -0.004232,-0.001674 -0.00906,-0.002253 -0.005215,-6.2542e-4 -0.0130197,-0.002111 -0.0220313,-0.004195 -0.006462,-0.001494 -0.007658,-0.001898 -0.007664,-0.002593 -4.38e-6,-4.5262e-4 -5.6694e-4,-0.001937 -0.00125,-0.003299 -6.8307e-4,-0.001362 -0.001242,-0.00296 -0.001242,-0.003551 0,-5.9102e-4 -5.625e-4,-0.002449 -0.00125,-0.004129 -6.875e-4,-0.00168 -0.00125,-0.00373 -0.00125,-0.004555 0,-0.001438 8.539e-5,-0.0015 0.002074,-0.0015 0.001141,0 0.003461,-2.5042e-4 0.005156,-5.5648e-4 0.001695,-3.0607e-4 0.005332,-7.7069e-4 0.008082,-0.001032 0.00275,-2.618e-4 0.006688,-8.6626e-4 0.00875,-0.001343 0.007538,-0.001743 0.01193,-0.002482 0.0143501,-0.002412 l 0.002475,7.095e-5 8.0235e-4,0.002488 z m -0.0101275,-0.003193 c -0.00275,5.3395e-4 -0.006307,0.001304 -0.007904,0.001711 -0.001597,4.0693e-4 -0.005717,0.001004 -0.009154,0.001327 -0.003437,3.2267e-4 -0.007,7.6501e-4 -0.007917,9.8298e-4 -9.1726e-4,2.1796e-4 -0.002999,3.963e-4 -0.004627,3.963e-4 -0.001628,0 -0.003297,2.1094e-4 -0.003709,4.6875e-4 -9.9866e-4,6.2416e-4 -9.2719e-4,0.002684 2.0059e-4,0.005781 5.085e-4,0.001396 0.001335,0.003945 0.001837,0.005664 5.0193e-4,0.001719 0.001231,0.003812 0.001619,0.004652 5.8299e-4,0.00126 5.4704e-4,0.001583 -2.053e-4,0.001846 -7.1653e-4,2.5062e-4 -8.4543e-4,9.2799e-4 -6.0141e-4,0.00316 1.7081e-4,0.001563 5.4441e-4,0.003124 8.302e-4,0.00347 5.0775e-4,6.1444e-4 0.0100749,0.003863 0.0113765,0.003863 3.6139e-4,0 0.001155,-2.8162e-4 0.001764,-6.2583e-4 0.001021,-5.7733e-4 0.001364,-5.4738e-4 0.004424,3.8651e-4 0.001825,5.5678e-4 0.004696,0.00113 0.00638,0.001273 0.003555,3.0244e-4 0.004751,-3.0925e-4 0.004751,-0.00243 l 0,-0.001247 0.004446,5.2944e-4 c 0.002445,2.9119e-4 0.004906,7.4554e-4 0.005469,0.00101 0.002646,0.001242 0.003421,0.002774 0.001622,0.003205 -9.8016e-4,2.3507e-4 -0.008236,-0.001134 -0.009318,-0.001758 C 0.51070913,0.87326973 0.51,0.87336527 0.51,0.87399471 c 0,7.9604e-4 0.006356,0.002632 0.009853,0.002846 0.001628,9.974e-5 0.003812,4.1937e-4 0.004854,7.1029e-4 0.001042,2.9092e-4 0.003645,7.0522e-4 0.005786,9.2067e-4 0.00214,2.1545e-4 0.004173,5.0051e-4 0.004518,6.3348e-4 3.4423e-4,1.3296e-4 0.0012,1.2795e-4 0.001901,-1.114e-5 0.001129,-2.2401e-4 0.001227,-4.6116e-4 8.5543e-4,-0.002076 -2.3072e-4,-0.001003 -0.001085,-0.003141 -0.001898,-0.004753 -8.1293e-4,-0.001611 -0.001482,-0.003577 -0.001486,-0.004368 -8.12e-6,-0.001469 -0.00232,-0.006482 -0.005731,-0.0124284 -0.003423,-0.005967 -0.005531,-0.0103006 -0.006228,-0.0128044 -3.7692e-4,-0.001353 -0.001097,-0.002717 -0.001599,-0.003031 -0.001286,-8.0386e-4 -0.004699,-6.477e-4 -0.0105121,4.8108e-4 z"
         inkscape:connector-curvature="0" /><path
         style="fill:#000000"
         d="m 0.4732813,0.87371749 c -0.001046,2.3461e-4 -9.9862e-4,8.913e-4 6.495e-5,8.913e-4 4.6541e-4,0 0.004754,0.001646 0.009531,0.003658 0.0139933,0.005894 0.0401055,0.0155101 0.0504841,0.0185909 0.005079,0.001508 0.009138,0.001994 0.009138,0.001094 0,-3.8547e-4 -8.7907e-4,-6.753e-4 -0.002557,-8.4297e-4 -0.003405,-3.4026e-4 -0.0178475,-0.00502 -0.0334836,-0.0108485 -0.0100555,-0.003749 -0.0127116,-0.004909 -0.0127192,-0.005558 -7.25e-6,-6.1979e-4 -1.4315e-4,-6.8856e-4 -5.5589e-4,-2.8127e-4 -4.2693e-4,4.213e-4 -0.002439,-2.2657e-4 -0.009209,-0.002965 -0.0102671,-0.004153 -0.009713,-0.003959 -0.0106941,-0.003739 z"
         id="path5502"
         inkscape:connector-curvature="0" /><path
         id="path5496"
         style="fill:#00be00;fill-opacity:1"
         d="m 0.5334959,0.88170649 c -5.4779e-4,4.8936e-4 -9.959e-4,0.001278 -9.959e-4,0.001753 0,5.2026e-4 -4.9673e-4,9.6186e-4 -0.00125,0.001111 -0.001158,2.2972e-4 -0.001834,0.001034 -7.8125e-4,9.3031e-4 0.001263,-1.2469e-4 0.002076,9.419e-5 0.001985,5.3454e-4 -2.9556e-4,0.001423 1.2311e-4,0.003825 6.3231e-4,0.003628 3.2211e-4,-1.2443e-4 5.7002e-4,-9.3427e-4 5.5091e-4,-0.0018 -1.913e-5,-8.6539e-4 9.628e-5,-0.001655 2.5643e-4,-0.001755 1.6015e-4,-1.001e-4 0.001011,1.7203e-4 0.001891,6.0473e-4 0.002886,0.001419 0.003345,7.9943e-4 5.3349e-4,-7.1946e-4 -0.002553,-0.00138 -0.0027,-0.001562 -0.002109,-0.002625 3.4936e-4,-6.2821e-4 9.7365e-4,-0.001094 0.001387,-0.001034 9.543e-4,1.3686e-4 5.913e-4,-0.001163 -3.8128e-4,-0.001365 -3.9762e-4,-8.274e-5 -0.001171,2.4942e-4 -0.001719,7.3814e-4 z m -0.0217787,-0.001896 c -0.001127,7.5691e-4 -0.001618,8.5839e-4 -0.002487,5.1392e-4 -8.4623e-4,-3.3569e-4 -0.001323,-2.7257e-4 -0.002188,2.8967e-4 -0.001062,6.9038e-4 -0.001051,7.0877e-4 2.5903e-4,4.6362e-4 0.001182,-2.2121e-4 0.001391,-8.749e-5 0.001563,0.001002 2.8794e-4,0.001829 0.001572,0.001823 0.002747,-1.223e-5 8.1366e-4,-0.001271 0.001304,-0.00157 0.00248,-0.001509 0.001101,5.696e-5 0.001717,4.8651e-4 0.002475,0.001728 0.001781,0.002915 0.003104,0.00365 0.006568,0.00365 0.003315,0 0.00499,-8.7371e-4 0.00499,-0.002603 0,-4.7662e-4 2.8584e-4,-9.77e-4 6.3519e-4,-0.001112 8.2698e-4,-3.1943e-4 1.7072e-4,-9.7262e-4 -9.7719e-4,-9.7262e-4 -5.5349e-4,0 -0.00104,5.7381e-4 -0.001279,0.001509 -6.053e-4,0.002366 -9.9828e-4,0.002576 -0.004054,0.002168 -0.002386,-3.1878e-4 -0.002862,-5.827e-4 -0.00455,-0.002525 -0.001037,-0.001193 -0.002536,-0.002476 -0.003332,-0.002851 -0.001398,-6.5927e-4 -0.001493,-6.5058e-4 -0.002851,2.6118e-4 z m -0.008169,-0.001368 c -0.001903,0.001241 -0.00208,0.001635 -7.3569e-4,0.001635 5.1562e-4,0 9.375e-4,2.6367e-4 9.375e-4,5.8593e-4 0,3.2227e-4 2.4932e-4,5.8594e-4 5.5404e-4,5.8594e-4 5.5644e-4,0 0.001632,-0.003452 0.001166,-0.003743 -1.3678e-4,-8.549e-5 -0.001002,3.3574e-4 -0.001922,9.3608e-4 z M 0.48655,0.87344963 c -7.8436e-4,7.9321e-4 -0.001407,0.002624 -0.001014,0.002977 2.2062e-4,1.9815e-4 0.002018,6.9755e-4 0.003995,0.00111 0.003277,6.8346e-4 0.003886,9.9194e-4 0.003668,0.001857 -4.068e-5,1.6113e-4 1.945e-4,2.9297e-4 5.2267e-4,2.9297e-4 3.2817e-4,0 7.8556e-4,-6.2927e-4 0.001016,-0.001398 5.2781e-4,-0.001758 0.001955,-0.002148 0.0035,-9.5517e-4 6.4255e-4,4.9595e-4 0.001291,8.2532e-4 0.00144,7.3192e-4 1.4943e-4,-9.339e-5 -3.7094e-4,-6.3721e-4 -0.001156,-0.001209 -0.001084,-7.8849e-4 -0.001793,-9.8115e-4 -0.002944,-7.998e-4 -8.3353e-4,1.3139e-4 -0.001747,4.8224e-4 -0.002031,7.7966e-4 -5.3793e-4,5.6469e-4 -0.001465,4.7514e-4 -0.005339,-5.1593e-4 -0.00206,-5.2704e-4 -0.002083,-5.5826e-4 -0.001094,-0.001502 5.5569e-4,-5.3005e-4 0.00101,-0.001146 0.00101,-0.001368 0,-5.2255e-4 -0.001059,-5.2324e-4 -0.001575,-1.17e-6 z"
         inkscape:connector-curvature="0" /><path
         style="fill:none;fill-rule:evenodd;stroke:#dc00bb;stroke-width:0.00071151;stroke-linecap:round;stroke-linejoin:round;stroke-miterlimit:4;stroke-dasharray:none;stroke-opacity:1"
         d="m 0.48388672,0.86694336 c 7.0842e-4,5.9035e-4 -8.512e-5,2.556e-5 5.8594e-4,3.0518e-4 2.71e-5,1.128e-5 -1.455e-5,4.284e-5 0,6.103e-5 2.06e-5,2.572e-5 6.511e-5,4.07e-5 9.766e-5,6.104e-5 3.255e-5,2.034e-5 5.648e-5,4.817e-5 9.765e-5,6.103e-5 2.91e-5,9.1e-6 6.854e-5,-9.09e-6 9.765e-5,0 4.0643e-4,1.2701e-4 -1.0439e-4,-4.21e-6 9.767e-5,1.2208e-4 2.3e-5,1.437e-5 6.854e-5,-9.1e-6 9.765e-5,0 1.0498e-4,3.28e-5 1.8799e-4,8.926e-5 2.9297e-4,1.2206e-4 5.823e-5,1.819e-5 1.4927e-4,-2.878e-5 1.9531e-4,0 2.0205e-4,1.2629e-4 -3.0876e-4,-4.93e-6 9.766e-5,1.2208e-4 2.91e-5,9.09e-6 6.51e-5,0 9.766e-5,0 3.255e-5,0 6.51e-5,0 9.765e-5,0 2.3722e-4,0 3.3708e-4,-8.861e-5 4.8828e-4,-1.8311e-4 3.255e-5,-2.034e-5 5.648e-5,-4.817e-5 9.765e-5,-6.103e-5 2.91e-5,-9.1e-6 6.855e-5,9.09e-6 9.767e-5,0 4.114e-5,-1.288e-5 5.647e-5,-4.817e-5 9.765e-5,-6.104e-5 2.91e-5,-9.09e-6 6.51e-5,0 9.765e-5,0 3.255e-5,0 6.511e-5,0 9.766e-5,0 6.51e-5,0 1.3021e-4,0 1.9531e-4,0 3.255e-5,0 6.678e-5,-6.44e-6 9.766e-5,0 6.905e-5,1.438e-5 1.2626e-4,4.665e-5 1.9531e-4,6.104e-5 6.176e-5,1.287e-5 1.3708e-4,-1.819e-5 1.9531e-4,0 4.115e-5,1.287e-5 5.648e-5,4.816e-5 9.766e-5,6.103e-5 2.91e-5,9.09e-6 7.464e-5,-1.437e-5 9.766e-5,0 2.3e-5,1.437e-5 -1.455e-5,4.284e-5 0,6.103e-5 5.205e-5,6.508e-5 1.4325e-4,5.7e-5 1.9531e-4,1.2208e-4 1.765e-5,2.206e-5 0,2.6272e-4 0,3.0517e-4 0,2.034e-5 0,4.069e-5 0,6.104e-5 0,2.034e-5 2.3e-5,4.665e-5 0,6.103e-5 -2.3e-5,1.438e-5 -7.464e-5,-1.437e-5 -9.766e-5,0 -2.3e-5,1.438e-5 0,4.069e-5 0,6.104e-5 0,2.034e-5 0,4.069e-5 0,6.103e-5 0,2.75e-5 -1.485e-5,1.6453e-4 0,1.8311e-4 2.61e-5,3.259e-5 2.4156e-4,1.5097e-4 2.9297e-4,1.831e-4 3.255e-5,2.035e-5 6.511e-5,4.069e-5 9.766e-5,6.104e-5 3.255e-5,2.034e-5 5.648e-5,4.817e-5 9.765e-5,6.103e-5 2.91e-5,9.1e-6 7.464e-5,-1.437e-5 9.766e-5,0 2.3e-5,1.438e-5 -2.91e-5,5.194e-5 0,6.104e-5 5.823e-5,1.818e-5 1.3021e-4,0 1.9531e-4,0 3.255e-5,0 7.464e-5,-1.438e-5 9.766e-5,0 2.3e-5,1.437e-5 -2.91e-5,5.194e-5 0,6.103e-5 5.823e-5,1.819e-5 1.3021e-4,0 1.9531e-4,0 6.511e-5,0 1.3021e-4,0 1.9531e-4,0 3.255e-5,0 6.678e-5,-6.43e-6 9.766e-5,0 6.905e-5,1.438e-5 1.2626e-4,4.665e-5 1.9531e-4,6.104e-5 5.823e-5,1.212e-5 4.9132e-4,0 5.8594e-4,0 2.37e-5,0 2.8983e-4,1.87e-6 2.9297e-4,0 2.3e-5,-1.438e-5 -2.3e-5,-4.665e-5 0,-6.104e-5 2.3e-5,-1.437e-5 7.464e-5,1.438e-5 9.765e-5,0 2.3e-5,-1.437e-5 -1.455e-5,-4.284e-5 0,-6.103e-5 3.175e-5,-3.971e-5 1.145e-4,-8.629e-5 1.9532e-4,-6.104e-5 5.921e-5,1.85e-5 3.488e-4,2.2454e-4 3.9062e-4,2.4414e-4 5.823e-5,2.729e-5 1.2626e-4,4.665e-5 1.9531e-4,6.104e-5 3.09e-5,6.44e-6 7.464e-5,-1.438e-5 9.766e-5,0 3.8113e-4,2.382e-4 -2.26e-5,3.278e-5 9.766e-5,1.831e-4 1.2067e-4,1.5085e-4 9.765e-5,-2.106e-5 9.765e-5,1.2208e-4"
         id="path5550"
         inkscape:connector-curvature="0" /><path
         style="fill:none;fill-rule:evenodd;stroke:#dc00bb;stroke-width:0.00071151;stroke-linecap:round;stroke-linejoin:round;stroke-miterlimit:4;stroke-dasharray:none;stroke-opacity:1"
         d="m 0.4979492,0.87011719 c -9.105e-5,1.3577e-4 1.496e-4,2.5182e-4 1.9535e-4,3.6621e-4 3.15e-5,7.895e-5 -4.1e-5,1.6694e-4 0,2.4414e-4 1.45e-5,2.728e-5 8.31e-5,3.374e-5 9.765e-5,6.104e-5 2.05e-5,3.86e-5 -1.6e-5,8.259e-5 0,1.2207e-4 1.75e-5,4.413e-5 8e-5,7.793e-5 9.765e-5,1.2207e-4 1.6e-5,3.947e-5 -2.05e-5,8.347e-5 0,1.2207e-4 1.45e-5,2.728e-5 6.51e-5,4.069e-5 9.765e-5,6.103e-5 6.51e-5,4.07e-5 1.4425e-4,7.42e-5 1.953e-4,1.2207e-4 1.8e-5,1.694e-5 -2.3e-5,4.665e-5 0,6.104e-5 2.3e-5,1.438e-5 8.31e-5,-1.819e-5 9.765e-5,0 2.9e-5,3.639e-5 -2.05e-5,8.347e-5 0,1.2207e-4 5e-6,7.59e-6 2.7625e-4,1.7787e-4 2.93e-4,1.8311e-4 2.9e-5,9.09e-6 6.855e-5,-9.1e-6 9.765e-5,0 4.4695e-4,1.3966e-4 -4.144e-4,-2.532e-5 2.9295e-4,1.2207e-4 3.1e-5,6.43e-6 6.855e-5,-9.1e-6 9.765e-5,0 4.1e-5,1.287e-5 5.935e-5,4.507e-5 9.77e-5,6.103e-5 4.9e-5,1.3447e-4 2.0085e-4,3.227e-5 2.9295e-4,6.104e-5 4.1e-5,1.287e-5 5.65e-5,4.817e-5 9.765e-5,6.103e-5 2.9e-5,9.09e-6 6.51e-5,0 9.765e-5,0 3.25e-5,0 6.51e-5,0 9.765e-5,0 3.25e-5,0 6.51e-5,0 9.765e-5,0 3.25e-5,0 6.855e-5,9.09e-6 9.77e-5,0 4.1e-5,-1.287e-5 5.645e-5,-4.817e-5 9.765e-5,-6.103e-5 5.82e-5,-1.819e-5 1.3705e-4,1.818e-5 1.953e-4,0 8.235e-5,-2.575e-5 1.187e-4,-9.015e-5 1.953e-4,-1.2207e-4 1.423e-4,-5.93e-5 2.034e-4,-3.811e-5 2.93e-4,-1.2207e-4 4.05e-5,-3.786e-5 4.6e-5,-8.991e-5 9.765e-5,-1.2208e-4 2.1325e-4,-1.3328e-4 1.5855e-4,-1.268e-5 3.906e-4,-6.103e-5 4.35e-5,-9.09e-6 5.935e-5,-4.508e-5 9.765e-5,-6.103e-5 6.06e-5,-2.525e-5 1.4385e-4,-2.888e-5 1.9535e-4,-6.104e-5 4.6e-5,-2.878e-5 -4.6e-5,-9.33e-5 0,-1.2207e-4 2.3e-5,-1.438e-5 7.46e-5,1.437e-5 9.765e-5,0 2.3e-5,-1.438e-5 -2.3e-5,-4.665e-5 0,-6.104e-5 2.3e-5,-1.437e-5 6.85e-5,9.1e-6 9.765e-5,0 7.94e-5,-2.481e-5 8.08e-5,-9.681e-5 1.953e-4,-6.103e-5 4.1e-5,1.288e-5 5.65e-5,4.817e-5 9.765e-5,6.103e-5 5.825e-5,1.819e-5 1.371e-4,-1.818e-5 1.953e-4,0 4.0645e-4,1.2701e-4 -1.044e-4,-4.21e-6 9.77e-5,1.2207e-4 4.6e-5,2.878e-5 1.4925e-4,-2.878e-5 1.953e-4,0 2.3e-5,1.438e-5 -2.3e-5,4.665e-5 0,6.104e-5 2.3e-5,1.438e-5 6.855e-5,-9.09e-6 9.765e-5,0 4.1e-5,1.288e-5 5.65e-5,4.817e-5 9.765e-5,6.104e-5 5.825e-5,1.818e-5 1.493e-4,-2.879e-5 1.953e-4,0 6.51e-5,4.069e-5 -6.51e-5,8.137e-5 0,1.2206e-4 2.3e-5,1.438e-5 7.465e-5,-1.437e-5 9.765e-5,0 2.3e-5,1.438e-5 -1.45e-5,4.284e-5 0,6.104e-5 2.05e-5,2.572e-5 7.71e-5,3.53e-5 9.77e-5,6.104e-5 2.9e-5,3.639e-5 -4.6e-5,9.329e-5 0,1.2207e-4 2.3e-5,1.437e-5 7.46e-5,-1.438e-5 9.765e-5,0 2.3e-5,1.437e-5 -2.3e-5,4.664e-5 0,6.103e-5 2.3e-5,1.438e-5 7.46e-5,-1.437e-5 9.765e-5,0 2.3e-5,1.438e-5 -2.3e-5,4.665e-5 0,6.104e-5 2.3e-5,1.437e-5 6.51e-5,0 9.765e-5,0 4.4e-5,0 2.6325e-4,9.28e-6 2.9295e-4,0 4.0645e-4,-1.2701e-4 -1.044e-4,4.22e-6 9.765e-5,-1.2207e-4 2.3e-5,-1.438e-5 7.465e-5,1.437e-5 9.77e-5,0 4.6e-5,-2.879e-5 -2.9e-5,-8.568e-5 0,-1.2207e-4 2.05e-5,-2.575e-5 8.31e-5,-3.374e-5 9.765e-5,-6.104e-5 2.05e-5,-3.86e-5 0,-8.138e-5 0,-1.2207e-4 0,-2.034e-5 -1.45e-5,-4.284e-5 0,-6.103e-5 2.05e-5,-2.575e-5 7.705e-5,-3.53e-5 9.765e-5,-6.104e-5 2.65e-5,-3.311e-5 -2.7e-5,-2.2744e-4 0,-2.4414e-4 2.3e-5,-1.437e-5 7.465e-5,1.438e-5 9.765e-5,0 2e-5,-1.247e-5 -1.95e-5,-1.5891e-4 0,-1.8311e-4 2.05e-5,-2.575e-5 6.51e-5,-4.069e-5 9.765e-5,-6.103e-5"
         id="path5552"
         inkscape:connector-curvature="0" /><path
         style="fill:none;fill-rule:evenodd;stroke:#dc00bb;stroke-width:0.00071151;stroke-linecap:round;stroke-linejoin:round;stroke-miterlimit:4;stroke-dasharray:none;stroke-opacity:1"
         d="m 0.5120117,0.87268067 c 1.3025e-4,0 2.6435e-4,1.975e-5 3.9065e-4,0 3.15e-5,-4.94e-6 0,-4.069e-5 0,-6.104e-5 0,-4.069e-5 -2.05e-5,-8.346e-5 0,-1.2207e-4 1.45e-5,-2.731e-5 8.65e-5,-3.312e-5 9.765e-5,-6.103e-5 2.35e-5,-5.921e-5 -3.6e-5,-1.2644e-4 0,-1.8311e-4 3.4e-5,-5.343e-5 1.611e-4,-6.864e-5 1.953e-4,-1.2207e-4 3.65e-5,-5.667e-5 -2.35e-5,-1.2389e-4 0,-1.831e-4 1.1e-5,-2.791e-5 7.71e-5,-3.53e-5 9.765e-5,-6.104e-5 1.45e-5,-1.819e-5 -1.45e-5,-4.284e-5 0,-6.103e-5 4.1e-5,-5.147e-5 1.5415e-4,-7.061e-5 1.9535e-4,-1.2207e-4 2.9e-5,-3.64e-5 -4.6e-5,-9.33e-5 0,-1.2208e-4 2.3e-5,-1.437e-5 6.85e-5,-9.09e-6 9.765e-5,0 1.7245e-4,5.389e-5 5.48e-5,1.0276e-4 9.765e-5,1.8311e-4 2.3e-5,4.316e-5 7.465e-5,7.891e-5 9.765e-5,1.2207e-4 1.05e-5,1.932e-5 -1.45e-5,4.284e-5 0,6.104e-5 2.05e-5,2.572e-5 7.705e-5,3.53e-5 9.765e-5,6.103e-5 2.9e-5,3.601e-5 -2.25e-5,1.4113e-4 0,1.8311e-4 2.3e-5,4.316e-5 7.465e-5,7.891e-5 9.765e-5,1.2207e-4 1.95e-5,3.661e-5 0,2.5647e-4 0,3.0517e-4 0,2.0345e-4 0,4.069e-4 0,6.1035e-4 0,8.139e-5 0,1.6276e-4 0,2.4414e-4 0,2.035e-5 -3.25e-5,6.104e-5 0,6.104e-5 3.25e-5,0 -3.25e-5,-6.104e-5 0,-6.104e-5 4.6e-5,0 5.165e-5,6.104e-5 9.765e-5,6.104e-5 4.6e-5,0 5.65e-5,-4.817e-5 9.77e-5,-6.104e-5 2.9e-5,-9.09e-6 6.85e-5,9.1e-6 9.765e-5,0 4.1e-5,-1.287e-5 5.645e-5,-4.816e-5 9.765e-5,-6.103e-5 2.9e-5,-9.09e-6 6.855e-5,9.09e-6 9.765e-5,0 4.1e-5,-1.287e-5 6.51e-5,-4.069e-5 9.765e-5,-6.103e-5 3.25e-5,-2.035e-5 6.51e-5,-4.069e-5 9.765e-5,-6.104e-5 3.25e-5,-2.035e-5 7.71e-5,-3.53e-5 9.765e-5,-6.104e-5 6.735e-5,-8.418e-5 -1.1825e-4,-5.459e-5 9.765e-5,-1.2206e-4 2.9e-5,-9.1e-6 7.465e-5,1.437e-5 9.77e-5,0 2.3e-5,-1.438e-5 0,-4.069e-5 0,-6.104e-5 0,-2.035e-5 0,-4.069e-5 0,-6.104e-5 0,-1.2207e-4 0,-2.4414e-4 0,-3.6621e-4 0,-2.034e-5 0,-4.069e-5 0,-6.103e-5 0,-2.035e-5 -1.45e-5,-4.284e-5 0,-6.104e-5 2.05e-5,-2.575e-5 5.645e-5,-4.817e-5 9.765e-5,-6.103e-5 2e-5,-6.25e-6 2.792e-4,-8.63e-6 2.9295e-4,0 2.3e-5,1.437e-5 -2.3e-5,4.665e-5 0,6.103e-5 2.3e-5,1.438e-5 6.51e-5,0 9.765e-5,0 3.25e-5,2.035e-5 7.215e-5,3.71e-5 9.765e-5,6.104e-5 4.05e-5,3.785e-5 7.465e-5,7.891e-5 9.765e-5,1.2207e-4 1.05e-5,1.931e-5 -2.3e-5,4.665e-5 0,6.103e-5 2.021e-4,1.2629e-4 -8e-6,-1.9298e-4 1.9535e-4,6.104e-5 2.9e-5,3.639e-5 -4.6e-5,9.33e-5 0,1.2207e-4 4.6e-5,2.878e-5 1.4925e-4,-2.878e-5 1.953e-4,0 4.6e-5,2.878e-5 -4.6e-5,9.33e-5 0,1.2207e-4 2.3e-5,1.437e-5 6.51e-5,0 9.765e-5,0 3.25e-5,0 8.31e-5,1.819e-5 9.765e-5,0 2.9e-5,-3.64e-5 0,-8.138e-5 0,-1.2207e-4 0,-1.0173e-4 0,-2.0345e-4 0,-3.0518e-4 0,-2.034e-5 -1.45e-5,-4.284e-5 0,-6.103e-5 2.05e-5,-2.572e-5 7.71e-5,-3.53e-5 9.765e-5,-6.104e-5 5.37e-5,-6.711e-5 -9.405e-5,-1.2319e-4 9.765e-5,-1.831e-4 2.9e-5,-9.1e-6 6.515e-5,0 9.77e-5,0 3.25e-5,0 7.46e-5,-1.438e-5 9.765e-5,0 2.3e-5,1.437e-5 -1.45e-5,4.283e-5 0,6.103e-5 2.032e-4,2.5402e-4 -7e-6,-6.525e-5 1.953e-4,6.104e-5 5.145e-5,3.217e-5 5.73e-5,8.422e-5 9.765e-5,1.2207e-4 1.6195e-4,1.5182e-4 2.25e-5,7e-6 1.953e-4,6.103e-5 4.1e-5,1.288e-5 5.65e-5,4.817e-5 9.765e-5,6.104e-5 5.825e-5,1.819e-5 1.371e-4,-1.819e-5 1.9535e-4,0 4.064e-4,1.2701e-4 -1.044e-4,-4.22e-6 9.765e-5,1.2207e-4 2.3e-5,1.437e-5 6.855e-5,-9.1e-6 9.765e-5,0 4.1e-5,1.287e-5 6.51e-5,4.069e-5 9.765e-5,6.103e-5 3.25e-5,2.035e-5 7.705e-5,3.531e-5 9.765e-5,6.104e-5 2.9e-5,3.639e-5 -4.6e-5,9.33e-5 0,1.2207e-4 2.0205e-4,1.2628e-4 -8e-6,-1.9298e-4 1.953e-4,6.104e-5 2.9e-5,3.639e-5 -4.6e-5,9.329e-5 0,1.2206e-4 2.3e-5,1.438e-5 7.465e-5,-1.437e-5 9.77e-5,0 4.9e-5,3.054e-5 -4.9e-5,1.5259e-4 0,1.8311e-4 2.3e-5,1.438e-5 6.85e-5,-9.09e-6 9.765e-5,0 8.235e-5,2.572e-5 1.1295e-4,9.634e-5 1.953e-4,1.2207e-4 5.825e-5,1.819e-5 1.4925e-4,-2.878e-5 1.953e-4,0 2.3e-5,1.437e-5 -2.3e-5,4.665e-5 0,6.104e-5 2.6045e-4,0 -3.25e-5,-2.035e-5 9.765e-5,6.103e-5 5.15e-5,3.217e-5 1.4385e-4,2.888e-5 1.9535e-4,6.104e-5 2.3e-5,1.437e-5 -2.3e-5,4.665e-5 0,6.103e-5 4.6e-5,2.878e-5 1.4925e-4,-2.878e-5 1.953e-4,0 4.6e-5,2.878e-5 -4.6e-5,9.33e-5 0,1.2207e-4 2.3e-5,1.438e-5 6.855e-5,-9.09e-6 9.765e-5,0 2.083e-4,6.51e-5 -1.3e-5,5.698e-5 1.953e-4,1.2207e-4 2.9e-5,9.09e-6 7.465e-5,-1.437e-5 9.765e-5,0 1.302e-4,8.138e-5 -1.6275e-4,6.104e-5 9.765e-5,6.104e-5 3.1435e-4,0 -1.667e-4,-1.438e-5 1.9535e-4,6.103e-5 4.5e-7,9e-8 2.9285e-4,-6e-8 2.9295e-4,0 2.3e-5,1.438e-5 0,4.069e-5 0,6.104e-5"
         id="path5554"
         inkscape:connector-curvature="0" /><path
         style="fill:none;fill-rule:evenodd;stroke:#dc00bb;stroke-width:0.00071151;stroke-linecap:round;stroke-linejoin:round;stroke-miterlimit:4;stroke-dasharray:none;stroke-opacity:1"
         d="m 0.5265625,0.875 c 3.3e-5,-3.5029e-4 3.315e-4,-7.307e-5 4.883e-4,-1.2207e-4 4.1e-5,-1.287e-5 5.935e-5,-4.507e-5 9.765e-5,-6.103e-5 6.51e-5,-2.034e-5 1.302e-4,-4.069e-5 1.953e-4,-6.104e-5 3.25e-5,0 6.855e-5,9.1e-6 9.765e-5,0 4.1e-5,-1.287e-5 5.65e-5,-4.816e-5 9.765e-5,-6.103e-5 2.9e-5,-9.1e-6 6.51e-5,0 9.765e-5,0 3.25e-5,0 6.515e-5,0 9.77e-5,0 2.604e-4,0 5.208e-4,0 7.8125e-4,0 9.765e-5,0 2.003e-4,1.931e-5 2.9295e-4,0 4.35e-5,-9.1e-6 5.65e-5,-4.817e-5 9.765e-5,-6.104e-5 2e-5,-6.25e-6 2.792e-4,-8.62e-6 2.9295e-4,0 2.3e-5,1.438e-5 -1.45e-5,4.284e-5 0,6.104e-5 5.21e-5,6.508e-5 1.4325e-4,5.698e-5 1.9535e-4,1.2207e-4 5.205e-5,6.511e-5 -5.21e-5,5.696e-5 0,1.2207e-4 2.05e-5,2.572e-5 7.705e-5,3.53e-5 9.765e-5,6.103e-5 1.45e-5,1.819e-5 0,4.069e-5 0,6.104e-5 0,3.192e-5 -1.3e-5,2.2809e-4 0,2.4414e-4 2.05e-5,2.572e-5 5.645e-5,4.817e-5 9.765e-5,6.104e-5 2.9e-5,9.09e-6 6.675e-5,-6.44e-6 9.765e-5,0 6.905e-5,1.437e-5 1.247e-4,5e-5 1.953e-4,6.103e-5 6.32e-5,9.87e-6 1.302e-4,0 1.9535e-4,0 1.953e-4,0 3.906e-4,0 5.859e-4,0 3.25e-5,0 6.51e-5,0 9.765e-5,0 3.25e-5,0 6.855e-5,-9.09e-6 9.77e-5,0 4.1e-5,1.287e-5 7.705e-5,3.53e-5 9.765e-5,6.103e-5 2.9e-5,3.64e-5 -2.9e-5,8.568e-5 0,1.2208e-4 2.05e-5,2.571e-5 7.705e-5,3.53e-5 9.765e-5,6.103e-5 1.45e-5,1.819e-5 0,4.069e-5 0,6.104e-5 0,2.034e-5 0,4.069e-5 0,6.103e-5 0,8.138e-5 2.55e-5,1.6434e-4 0,2.4414e-4 -1.45e-5,4.461e-5 -7.465e-5,7.891e-5 -9.765e-5,1.2207e-4 -2.05e-5,3.861e-5 4.6e-5,9.33e-5 0,1.2207e-4 -1e-5,6.1e-6 -2.832e-4,6.1e-6 -2.93e-4,0 -2.3e-5,-1.437e-5 2.3e-5,-4.665e-5 0,-6.103e-5 -2.3e-5,-1.438e-5 -6.855e-5,9.09e-6 -9.765e-5,0 -3.239e-4,-2.0243e-4 9.21e-5,2.878e-5 -1.953e-4,-6.104e-5 -4.1e-5,-1.287e-5 -8.31e-5,-3.374e-5 -9.765e-5,-6.103e-5 -3.3e-5,-6.186e-5 2.5e-5,-2.8842e-4 0,-3.6621e-4 -2e-5,-6.309e-5 -7.27e-5,-1.2069e-4 -9.765e-5,-1.8311e-4 -2.15e-5,-5.305e-5 0,-1.8379e-4 0,-2.4414e-4 0,-2.034e-5 -2.9e-5,-5.194e-5 0,-6.104e-5 5.82e-5,-1.818e-5 1.3705e-4,1.819e-5 1.953e-4,0 2.9e-5,-9.09e-6 -1.45e-5,-4.283e-5 0,-6.103e-5 2.05e-5,-2.575e-5 5.65e-5,-4.817e-5 9.765e-5,-6.104e-5 2.9e-5,-9.09e-6 6.855e-5,9.1e-6 9.765e-5,0 4.1e-5,-1.287e-5 5.65e-5,-4.816e-5 9.765e-5,-6.103e-5 2.9e-5,-9.09e-6 6.855e-5,9.09e-6 9.765e-5,0 4.1e-5,-1.287e-5 5.65e-5,-4.817e-5 9.77e-5,-6.104e-5 2.9e-5,-9.09e-6 6.85e-5,9.1e-6 9.765e-5,0 4.1e-5,-1.287e-5 5.645e-5,-4.816e-5 9.765e-5,-6.103e-5 2.9e-5,-9.09e-6 6.51e-5,0 9.765e-5,0 6.51e-5,0 1.371e-4,1.819e-5 1.953e-4,0 2.9e-5,-9.09e-6 -2.3e-5,-4.665e-5 0,-6.104e-5 4.6e-5,-2.878e-5 1.493e-4,2.879e-5 1.953e-4,0 2.3e-5,-1.437e-5 -2.3e-5,-4.665e-5 0,-6.103e-5 2.3e-5,-1.437e-5 6.515e-5,0 9.77e-5,0 3.25e-5,0 6.675e-5,-6.44e-6 9.765e-5,0 7.0735e-4,1.4737e-4 -1.54e-4,-1.759e-5 2.9295e-4,1.2207e-4 5.825e-5,1.819e-5 1.371e-4,-1.819e-5 1.953e-4,0 4.1e-5,1.287e-5 5.65e-5,4.817e-5 9.765e-5,6.103e-5 2.9e-5,9.1e-6 8.31e-5,-1.818e-5 9.77e-5,0 2.9e-5,3.64e-5 -2.9e-5,8.568e-5 0,1.2207e-4 1.45e-5,1.819e-5 6.85e-5,-9.09e-6 9.765e-5,0 4.1e-5,1.288e-5 5.645e-5,4.817e-5 9.765e-5,6.104e-5 2.9e-5,9.09e-6 7.465e-5,-1.438e-5 9.765e-5,0 2.3e-5,1.437e-5 -2.3e-5,4.665e-5 0,6.103e-5 2.3e-5,1.438e-5 7.465e-5,-1.437e-5 9.765e-5,0 2.3e-5,1.438e-5 -1.45e-5,4.284e-5 0,6.104e-5 2.05e-5,2.572e-5 7.705e-5,3.53e-5 9.765e-5,6.104e-5 1.45e-5,1.818e-5 -1.45e-5,4.283e-5 0,6.103e-5 2.05e-5,2.572e-5 6.51e-5,4.069e-5 9.765e-5,6.103e-5 3.25e-5,2.035e-5 5.65e-5,4.817e-5 9.765e-5,6.104e-5 2.9e-5,9.1e-6 7.465e-5,-1.437e-5 9.77e-5,0 2.3e-5,1.438e-5 -1.45e-5,4.284e-5 0,6.104e-5 2.032e-4,2.5401e-4 -7e-6,-6.525e-5 1.953e-4,6.103e-5 1.302e-4,8.138e-5 -1.6275e-4,6.104e-5 9.765e-5,6.104e-5"
         id="path5556"
         inkscape:connector-curvature="0" /></g></g></svg>