<?xml version="1.0" encoding="UTF-8" standalone="no"?>
<!-- Created with Inkscape (http://www.inkscape.org/) -->

<svg
   xmlns:dc="http://purl.org/dc/elements/1.1/"
   xmlns:cc="http://creativecommons.org/ns#"
   xmlns:rdf="http://www.w3.org/1999/02/22-rdf-syntax-ns#"
   xmlns:svg="http://www.w3.org/2000/svg"
   xmlns="http://www.w3.org/2000/svg"
   xmlns:sodipodi="http://sodipodi.sourceforge.net/DTD/sodipodi-0.dtd"
   xmlns:inkscape="http://www.inkscape.org/namespaces/inkscape"
   id="svg2"
   version="1.1"
   inkscape:version="0.91 r13725"
   xml:space="preserve"
   width="491.17892"
   height="526.13062"
   viewBox="0 0 491.17892 526.13062"
   sodipodi:docname="stick_developing.svg"><metadata
     id="metadata8"><rdf:RDF><cc:Work
         rdf:about=""><dc:format>image/svg+xml</dc:format><dc:type
           rdf:resource="http://purl.org/dc/dcmitype/StillImage" /><dc:title></dc:title></cc:Work></rdf:RDF></metadata><defs
     id="defs6" /><sodipodi:namedview
     pagecolor="#ffffff"
     bordercolor="#666666"
     borderopacity="1"
     objecttolerance="10"
     gridtolerance="10"
     guidetolerance="10"
     inkscape:pageopacity="0"
     inkscape:pageshadow="2"
     inkscape:window-width="1680"
     inkscape:window-height="948"
     id="namedview4"
     showgrid="false"
     fit-margin-top="0"
     fit-margin-left="0"
     fit-margin-right="0"
     fit-margin-bottom="0"
     inkscape:zoom="0.58092308"
     inkscape:cx="431.49452"
     inkscape:cy="171.47455"
     inkscape:window-x="0"
     inkscape:window-y="30"
     inkscape:window-maximized="1"
     inkscape:current-layer="g12" /><g
     id="g10"
     inkscape:groupmode="layer"
     inkscape:label="Teuns website diensten drawings_4"
     transform="matrix(1.25,0,0,-1.25,-318.91576,2812.9358)"><g
       id="g12"
       transform="matrix(1600,0,0,2560,10,20)"><path
         id="path4246"
         style="fill:#000000"
         d="m 0.37545476,0.79443704 c -1.9412e-4,3.1618e-4 2.3658e-4,0.002175 9.5712e-4,0.004131 0.001139,0.003093 0.00131,0.004801 0.00131,0.0131194 0,0.00526 2.7072e-4,0.0107397 6.0159e-4,0.0121775 3.3088e-4,0.001438 8.9586e-4,0.005075 0.001256,0.008083 3.5967e-4,0.003008 8.3413e-4,0.006148 0.001054,0.006979 3.8936e-4,0.001468 3.6177e-4,0.001497 -9.9655e-4,0.001043 -0.001612,-5.3914e-4 -0.002747,-1.402e-4 -0.00117,4.1129e-4 0.002097,7.3356e-4 0.004103,0.004653 0.002381,0.004653 -9.5252e-4,0 -7.4486e-4,0.002095 2.9263e-4,0.002953 5.0468e-4,4.1704e-4 9.2656e-4,0.00131 9.375e-4,0.001985 1.093e-5,6.745e-4 4.2585e-4,0.002608 9.2205e-4,0.004297 4.962e-4,0.001689 0.001096,0.004105 0.001333,0.005369 l 4.3034e-4,0.002299 -0.002012,-7.3615e-4 c -0.001107,-4.0488e-4 -0.006133,-0.002738 -0.0111697,-0.005184 -0.005037,-0.002447 -0.0111755,-0.005381 -0.013642,-0.006521 -0.002467,-0.00114 -0.004668,-0.002434 -0.004892,-0.002876 -4.2829e-4,-8.434e-4 -0.001853,-0.001077 -0.002511,-4.1242e-4 -2.1245e-4,2.1485e-4 4.5e-5,3.9063e-4 5.7206e-4,3.9063e-4 5.2709e-4,0 0.001381,5.1136e-4 0.001899,0.001136 9.2604e-4,0.001119 0.0189213,0.010459 0.0266786,0.0138465 0.005838,0.002549 0.00627,0.002523 0.006602,-3.9563e-4 1.502e-4,-0.001323 -1.8345e-4,-0.004047 -7.4143e-4,-0.006055 -5.5799e-4,-0.002007 -0.001284,-0.006199 -0.001613,-0.009314 -3.291e-4,-0.003115 -8.7132e-4,-0.006982 -0.001205,-0.008594 -3.3362e-4,-0.001611 -8.9452e-4,-0.005541 -0.001246,-0.008732 -3.5193e-4,-0.003191 -8.2505e-4,-0.00599 -0.001051,-0.006219 -2.2635e-4,-2.289e-4 -3.6348e-4,-0.00488 -3.0475e-4,-0.010336 1.0692e-4,-0.009932 -5.068e-5,-0.0110006 -0.002448,-0.0166075 -6.4665e-4,-0.001512 -0.001603,-0.001895 -0.00222,-8.8998e-4 z m -0.00914,-0.002694 c -0.00129,5.2781e-4 -0.003821,0.002308 -0.005625,0.003957 -0.001804,0.001648 -0.00546,0.004625 -0.008124,0.006615 l -0.004844,0.003618 0,0.002703 c 0,0.001866 5.8035e-4,0.003924 0.001875,0.006648 0.001031,0.00217 0.00188,0.004697 0.001886,0.005617 6.25e-6,9.1989e-4 4.23e-4,0.003342 9.2629e-4,0.005383 0.001006,0.00408 0.001154,0.009661 3.3684e-4,0.0126953 -6.0583e-4,0.002249 -1.3073e-4,0.005751 7.5514e-4,0.005567 3.3006e-4,-6.877e-5 7.26e-4,-0.001174 8.7988e-4,-0.002455 1.5388e-4,-0.001282 5.3972e-4,-0.003033 8.5743e-4,-0.003893 7.7064e-4,-0.002085 7.6015e-4,-0.007741 -1.925e-5,-0.0103775 -3.451e-4,-0.001167 -8.9227e-4,-0.003968 -0.001216,-0.006224 -3.2366e-4,-0.002256 -0.001307,-0.005572 -0.002185,-0.007368 -9.998e-4,-0.002046 -0.001597,-0.004199 -0.001597,-0.005762 0,-0.001733 -2.3865e-4,-0.002496 -7.8125e-4,-0.0025 -4.2969e-4,-2.73e-6 0.001225,-0.001212 0.003677,-0.002688 0.002452,-0.001476 0.006316,-0.004222 0.008586,-0.006103 0.00227,-0.001881 0.005257,-0.003939 0.006638,-0.004574 0.001381,-6.3464e-4 0.002352,-0.001314 0.002159,-0.00151 -5.5164e-4,-5.5786e-4 -0.001652,-3.8703e-4 -0.004185,6.499e-4 z m 0.0172303,-0.004424 c 0.00203,0.00519 0.004357,0.0135623 0.005423,0.0195088 7.1949e-4,0.004016 0.001592,0.008323 0.001939,0.00957 8.4675e-4,0.003045 0.002219,0.007917 0.003831,0.0135967 0.001202,0.004236 0.001339,0.006249 0.001421,0.0208984 7.153e-5,0.0126582 2.8083e-4,0.0165534 9.5505e-4,0.0177734 0.001333,0.002413 0.002078,0.002611 0.001467,3.9063e-4 -2.9528e-4,-0.001074 -5.1477e-4,-0.003096 -4.8776e-4,-0.004492 5.5358e-4,-0.0286179 4.9893e-4,-0.029341 -0.003201,-0.0423596 -0.001207,-0.004248 -0.002895,-0.0114406 -0.00375,-0.015983 -0.001838,-0.009765 -0.003759,-0.0162918 -0.005391,-0.0183175 -0.001297,-0.00161 -0.002759,-0.001998 -0.002207,-5.8593e-4 z m -0.0506801,0.0355824 c -0.001812,2.2152e-4 -0.003197,5.8981e-4 -0.003078,8.184e-4 2.5888e-4,4.9764e-4 0.008012,0.001217 0.009436,8.7517e-4 0.001506,-3.6119e-4 0.00123,-0.001697 -4.0668e-4,-0.001971 -0.001585,-2.6542e-4 -0.001463,-2.711e-4 -0.005951,2.7759e-4 z m -0.0116838,-0.0145507 c 0.004057,4.6874e-4 0.0073,0.001386 0.0114587,0.003239 l 0.00273,0.001217 -0.001793,1.9915e-4 c -0.001029,1.1432e-4 -0.001793,4.471e-4 -0.001793,7.8125e-4 0,4.3614e-4 7.6425e-4,5.821e-4 0.003048,5.821e-4 0.002872,0 0.003174,1.0129e-4 0.005231,0.001758 0.003438,0.002768 0.004596,0.004831 0.004712,0.008389 8.981e-5,0.002765 -1.2648e-4,0.003438 -0.001834,0.005709 -0.002378,0.003163 -0.006222,0.005544 -0.0108177,0.0067 -0.003026,7.6114e-4 -0.004591,8.7033e-4 -0.0123703,8.6331e-4 -0.008512,-7.69e-6 -0.0112376,3.0817e-4 -0.006875,7.9659e-4 0.001117,1.2507e-4 0.003297,3.7149e-4 0.004844,5.476e-4 l 0.002812,3.202e-4 -0.0025,7.3212e-4 c -0.007645,0.002239 -0.0247989,-0.001509 -0.0328738,-0.007182 -0.004265,-0.002996 -0.005838,-0.005537 -0.005853,-0.009454 -1.169e-5,-0.003008 1.8225e-4,-0.003555 0.002062,-0.005811 0.004215,-0.005059 0.009199,-0.007413 0.0191647,-0.009052 0.005051,-8.3034e-4 0.0149711,-9.9183e-4 0.0206466,-3.361e-4 z m 0.0442992,-0.0232 c -0.005169,0.00172 -0.006883,0.002816 -0.014743,0.009428 -0.004171,0.003509 -0.008197,0.006526 -0.008946,0.006704 -0.001833,4.3555e-4 -0.001943,0.002644 -3.8233e-4,0.007679 0.001662,0.005362 0.002099,0.007166 0.001735,0.007166 -1.7235e-4,0 -0.001118,-6.8412e-4 -0.002102,-0.00152 -0.002555,-0.002171 -0.008275,-0.004966 -0.0129845,-0.006343 -0.007733,-0.002262 -0.0222128,-0.002422 -0.0318356,-3.5306e-4 -0.005081,0.001093 -0.0103773,0.003208 -0.0128536,0.005134 -0.003102,0.002412 -0.006148,0.006433 -0.006605,0.008719 -5.3016e-4,0.002652 6.7292e-4,0.006611 0.002729,0.008981 0.003901,0.004496 0.0130726,0.008633 0.0234809,0.0105916 0.007535,0.001418 0.0122665,0.001266 0.0163284,-5.2337e-4 0.002153,-9.4834e-4 0.003946,-0.001352 0.007335,-0.001653 0.008049,-7.1348e-4 0.0138985,-0.002999 0.0173782,-0.006791 l 0.00182,-0.001984 5.62e-6,0.005699 c 4.8e-6,0.00443 -2.7231e-4,0.00638 -0.001244,0.008754 -6.875e-4,0.00168 -0.00125,0.003466 -0.00125,0.003969 0,9.6669e-4 9.5253e-4,0.001251 0.001426,4.258e-4 4.411e-4,-7.6913e-4 0.002786,2.7473e-4 0.008993,0.004004 0.0110395,0.006632 0.0170496,0.00973 0.0236433,0.0121895 0.006816,0.002542 0.0189906,0.006168 0.0193814,0.005773 7.0109e-4,-7.0899e-4 -3.7998e-4,-0.001179 -0.00865,-0.00376 -0.0116136,-0.003625 -0.0183692,-0.006568 -0.0282318,-0.0123003 -0.001719,-9.9897e-4 -0.004109,-0.002319 -0.005312,-0.002932 -0.001203,-6.139e-4 -0.002862,-0.001497 -0.003686,-0.001963 -8.2429e-4,-4.6562e-4 -0.002594,-0.001155 -0.003932,-0.001532 -0.001784,-5.0287e-4 -0.002324,-8.5044e-4 -0.002023,-0.001303 0.002667,-0.004012 0.002767,-0.004513 0.002762,-0.0137908 -5.63e-6,-0.009644 -6.6277e-4,-0.0140328 -0.003421,-0.0228337 -8.6316e-4,-0.002754 -0.00157,-0.005553 -0.001572,-0.00622 -2.5e-6,-0.001338 3.8927e-4,-0.001719 0.008284,-0.008062 0.008572,-0.006888 0.009749,-0.007675 0.0143071,-0.009569 0.002355,-9.7873e-4 0.004282,-0.001919 0.004282,-0.00209 0,-7.4004e-4 -0.001248,-6.4683e-4 -0.004117,3.0735e-4 z m -0.0168107,-0.008486 c -5.5447e-4,5.6073e-4 -3.689e-4,0.0116871 2.8001e-4,0.0167876 1.231e-5,9.668e-5 3.2579e-4,-1.387e-5 6.9665e-4,-2.4565e-4 4.4326e-4,-2.7704e-4 6.4922e-4,-0.003146 6.011e-4,-0.008374 -6.775e-5,-0.00736 -4.4497e-4,-0.009313 -0.001578,-0.008168 z m 0.004901,-8.6866e-4 c 2.1307e-4,8.0566e-4 3.905e-4,0.004321 3.9428e-4,0.007813 6.25e-6,0.005725 4.4981e-4,0.007444 0.001485,0.005758 6.7548e-4,-0.0011 0.001197,-0.009783 7.4589e-4,-0.012416 -3.9228e-4,-0.002289 -6.102e-4,-0.002619 -0.001731,-0.002619 -0.001134,0 -0.001237,1.6952e-4 -8.9463e-4,0.001465 z m -0.0706027,-0.00638 c -5.3364e-4,8.6915e-4 0.002033,0.003954 0.00394,0.004735 0.00172,7.045e-4 0.005494,6.2451e-4 0.0102989,-2.1832e-4 0.00264,-4.63e-4 0.00989,-0.003375 0.00989,-0.003972 0,-2.3009e-4 -4.6475e-4,-2.7801e-4 -0.001094,-1.1276e-4 -6.0156e-4,1.5803e-4 -0.001776,3.7907e-4 -0.002611,4.9119e-4 -8.3439e-4,1.1213e-4 -0.002443,5.9664e-4 -0.003575,0.001077 -0.001132,4.8005e-4 -0.004082,0.001183 -0.006556,0.001562 l -0.004498,6.8889e-4 -0.00245,-0.001642 c -0.001389,-9.3071e-4 -0.002303,-0.001881 -0.002111,-0.002194 1.8655e-4,-3.0382e-4 6.822e-5,-6.5706e-4 -2.6295e-4,-7.8498e-4 -3.3116e-4,-1.2792e-4 -7.6863e-4,3.863e-5 -9.7216e-4,3.7011e-4 z m 0.0593384,-5.1365e-4 c -0.006768,0.001385 -0.008511,0.002326 -0.009949,0.005368 -0.001641,0.003473 -0.001791,0.005239 -5.8049e-4,0.006833 0.00131,0.001725 0.005505,0.004166 0.007159,0.004166 6.6623e-4,0 0.001404,1.9455e-4 0.001639,4.3233e-4 3.002e-4,3.0359e-4 5.7808e-4,2.8007e-4 9.3315e-4,-7.9e-5 7.0381e-4,-7.1175e-4 1.397e-4,-0.001135 -0.001514,-0.001135 -0.001433,0 -0.004688,-0.001857 -0.005948,-0.003392 -0.001614,-0.001968 4.557e-5,-0.007549 0.002695,-0.009061 0.001838,-0.001049 0.009954,-0.002693 0.0148407,-0.003006 0.004099,-2.6245e-4 0.004174,-2.4989e-4 0.006162,0.001021 0.002567,0.001642 0.007786,0.003892 0.009025,0.003892 0.002014,0 7.8137e-4,-0.001032 -0.002797,-0.002344 -0.002052,-7.5195e-4 -0.003736,-0.001475 -0.003741,-0.001607 -5e-6,-1.3184e-4 -7.508e-4,-7.0313e-4 -0.001657,-0.00127 -0.001479,-9.2466e-4 -0.002102,-0.001028 -0.006094,-0.00101 -0.003185,1.402e-5 -0.00607,3.5202e-4 -0.010174,0.001192 z m -0.0480221,-0.001576 c -0.002406,4.0539e-4 -0.005008,7.4109e-4 -0.005781,7.4599e-4 -7.7344e-4,4.93e-6 -0.001406,1.896e-4 -0.001406,4.1043e-4 0,3.9489e-4 0.005279,2.1559e-4 0.0109375,-3.7149e-4 0.001375,-1.4266e-4 0.004037,-1.1154e-4 0.005915,6.914e-5 0.007396,7.1146e-4 0.009833,-3.5017e-4 0.002623,-0.001143 -0.005581,-6.133e-4 -0.007154,-5.7636e-4 -0.0122874,2.8844e-4 z m -0.05375,0.0310225 c 0.00275,5.3386e-4 0.005455,9.7329e-4 0.006011,9.7651e-4 9.0942e-4,5.28e-6 0.001851,0.001283 0.005399,0.00733 2.1836e-4,3.7212e-4 -0.00137,4.8828e-4 -0.006675,4.8828e-4 -0.005672,0 -0.007029,-1.1071e-4 -0.007328,-5.9757e-4 -2.2058e-4,-3.5926e-4 -8.0584e-4,-5.1051e-4 -0.001468,-3.7925e-4 -6.4865e-4,1.2867e-4 -0.002653,-3.5957e-4 -0.00488,-0.001189 l -0.00378,-0.001407 0.003548,-0.003082 c 0.001951,-0.001695 0.003689,-0.003089 0.003861,-0.003096 1.7188e-4,-7.62e-6 0.002563,4.2291e-4 0.005312,9.5676e-4 z m -0.008129,-0.001689 c 4.3715e-4,2.7322e-4 -0.005813,0.005797 -0.006559,0.005797 -9.9674e-4,0 -0.001785,-0.001063 -0.002442,-0.003294 -3.755e-4,-0.001275 -6.8274e-4,-0.002481 -6.8274e-4,-0.002679 0,-3.9312e-4 0.009036,-2.2776e-4 0.009684,1.7722e-4 z m 0.012758,-7.4637e-4 c 0.001065,0.001355 0.001072,0.001465 9.117e-5,0.001465 -0.001269,0 -0.00701,-0.001158 -0.007723,-0.001558 -2.7666e-4,-1.5509e-4 6.8644e-4,-0.001468 0.00214,-0.002917 l 0.002643,-0.002635 8.4871e-4,0.00209 c 4.6679e-4,0.001149 0.001367,0.002749 0.002,0.003555 z m 0.001524,-0.0130165 c -9.522e-4,0.001059 -0.001953,0.001839 -0.002224,0.001735 -0.001481,-5.7205e-4 7.842e-4,-0.00366 0.002685,-0.00366 0.001214,0 0.001194,8.448e-5 -4.6128e-4,0.001925 z m 0.0188924,-0.0604458 c -5.5153e-4,0.001097 -0.002783,0.0100296 -0.003153,0.0126224 -0.001391,0.009741 -0.003867,0.0185132 -0.005553,0.0196676 -0.00201,0.001377 -0.006251,0.002589 -0.016477,0.004712 -0.013187,0.002737 -0.0181919,0.003317 -0.0286129,0.003316 -0.008251,-7.8e-7 -0.009093,-7.403e-5 -0.0147688,-0.001284 -0.005541,-0.001181 -0.006064,-0.001381 -0.006585,-0.002516 -6.5686e-4,-0.001431 -0.002551,-0.00185 -0.003747,-8.2815e-4 -5.6339e-4,4.8155e-4 -0.001707,7.0127e-4 -0.00378,7.2607e-4 -0.004815,5.759e-5 -0.004532,-8.5737e-4 -0.006114,0.0197621 -0.001329,0.0173127 -0.001591,0.0219418 -0.001955,0.0345703 -2.8441e-4,0.009843 -1.9095e-4,0.0149155 3.1149e-4,0.0169054 4.9942e-4,0.001978 5.1939e-4,0.002988 6.566e-5,0.00332 -3.5869e-4,2.6257e-4 -0.001698,0.001565 -0.002977,0.002894 -0.002155,0.00224 -0.0125816,0.0100529 -0.0130367,0.009768 -1.1101e-4,-6.938e-5 -2.3862e-4,-0.008201 -2.8358e-4,-0.0180698 -8.325e-5,-0.0182705 -4.3919e-4,-0.0225878 -0.003058,-0.0370843 -0.001816,-0.0100527 -0.002399,-0.019419 -0.001199,-0.0192581 4.821e-4,6.463e-5 8.0484e-4,-1.0485e-4 7.1718e-4,-3.7664e-4 -8.766e-5,-2.7178e-4 7.9518e-4,-0.001679 0.001962,-0.003127 0.001167,-0.001448 0.003171,-0.004741 0.004454,-0.007318 0.001283,-0.002577 0.003283,-0.006126 0.004444,-0.007886 0.002349,-0.00356 0.002494,-0.004026 0.001258,-0.004026 -0.001009,0 -0.004294,0.00444 -0.006352,0.008585 -0.005672,0.011426 -0.006225,0.0123603 -0.006426,0.0108488 -3.7929e-4,-0.002864 -0.00137,-0.001407 -0.001461,0.002148 -1.8893e-4,0.007416 1.8021e-4,0.0120967 0.001779,0.0225586 0.001449,0.00948 0.001692,0.0133119 0.002067,0.0326172 4.2336e-4,0.0217711 7.4962e-4,0.0248047 0.002668,0.0248047 3.2285e-4,0 3.8012e-4,-3.0762e-4 1.2726e-4,-6.8359e-4 -9.9757e-4,-0.001483 -0.001074,-0.002441 -1.9528e-4,-0.002441 8.5706e-4,0 0.0103505,-0.006455 0.0125322,-0.008522 6.0898e-4,-5.7676e-4 0.00156,-0.001895 0.002112,-0.002931 6.4299e-4,-0.001204 0.001292,-0.001813 0.001802,-0.001691 0.001577,3.7824e-4 0.001998,-5.0892e-4 0.001414,-0.002982 -6.8567e-4,-0.002906 -1.4346e-4,-0.0348323 7.2456e-4,-0.0426639 3.3338e-4,-0.003008 9.1291e-4,-0.008896 0.001288,-0.0130859 0.001441,-0.0161064 0.001271,-0.0154108 0.0037,-0.0151059 0.004394,5.5163e-4 0.004956,8.7773e-4 0.005291,0.003073 1.7408e-4,0.00114 6.1676e-4,0.004006 9.8373e-4,0.00637 8.8957e-4,0.00573 0.00254,0.009249 0.006751,0.0143943 0.00552,0.006745 0.0110412,0.010892 0.0228057,0.017131 0.002665,0.001413 0.003568,0.002174 0.003902,0.003288 9.6881e-4,0.003228 0.002832,0.005449 0.006603,0.007873 0.002076,0.001335 0.004913,0.002789 0.006303,0.003232 0.00257,8.1935e-4 0.005599,8.9782e-4 0.005988,1.5511e-4 1.1795e-4,-2.2515e-4 -9.1505e-4,-0.001356 -0.002296,-0.002512 -0.001381,-0.001156 -0.00251,-0.0025 -0.00251,-0.002986 0,-4.8563e-4 -2.8125e-4,-9.916e-4 -6.25e-4,-0.001124 -0.001447,-5.5907e-4 -5.5301e-4,0.002488 0.001212,0.004131 0.001011,9.4044e-4 0.001753,0.001763 0.001649,0.001828 -0.001171,7.3185e-4 -0.0102819,-0.004145 -0.0122262,-0.006545 -0.001174,-0.001449 -0.002212,-0.003906 -0.00165,-0.003906 5.1078e-4,0 0.005835,0.002003 0.0107152,0.004031 0.0100158,0.004163 0.0245827,0.006666 0.033385,0.005738 0.002426,-2.557e-4 0.004568,-6.2491e-4 0.004762,-8.2047e-4 2.0145e-4,-2.0373e-4 -0.002133,-3.5917e-4 -0.005467,-3.6402e-4 -0.007238,-1.051e-5 -0.0146545,-0.001014 -0.0220681,-0.002987 l -0.005625,-0.001497 0.006868,-1.9532e-4 c 0.005979,-1.7003e-4 0.006896,-2.8649e-4 0.007083,-8.9974e-4 1.184e-4,-3.8744e-4 -7.9262e-4,-0.002278 -0.002024,-0.004202 -0.001232,-0.001924 -0.00224,-0.003644 -0.00224,-0.003824 0,-4.8265e-4 0.003994,-0.001128 0.01,-0.001617 0.002922,-2.3763e-4 0.007422,-6.9579e-4 0.01,-0.001018 0.007185,-8.9835e-4 0.0124193,-0.002709 0.0107846,-0.003731 -4.6654e-4,-2.9158e-4 -0.001218,-1.5723e-4 -0.002542,4.5436e-4 -0.002366,0.001093 -0.0127027,0.00268 -0.018868,0.002896 -0.002578,9.041e-5 -0.005479,3.5307e-4 -0.006447,5.8371e-4 -9.6768e-4,2.3063e-4 -0.002252,4.1933e-4 -0.002854,4.1933e-4 -0.002222,0 -0.005676,-0.005384 -0.005692,-0.008873 -5.63e-6,-0.001271 6.4481e-4,-0.002318 0.002852,-0.00459 0.001573,-0.001619 0.002944,-0.002944 0.003046,-0.002944 1.0291e-4,0 0.001418,2.795e-4 0.002922,6.2111e-4 0.003045,6.9163e-4 0.0152138,0.0015 0.0224223,0.00149 0.004987,-7.15e-6 0.006968,-3.8251e-4 0.0125,-0.002368 0.005227,-0.001876 0.006067,-0.002342 0.005208,-0.002887 -5.601e-4,-3.5526e-4 -0.001962,3.945e-5 -0.006039,0.001701 -0.00292,0.00119 -0.005469,0.002063 -0.005664,0.001942 -1.9497e-4,-1.2185e-4 -0.002399,-1.9224e-4 -0.004898,-1.5643e-4 -0.007005,1.004e-4 -0.0192183,-6.1786e-4 -0.022455,-0.001321 l -0.002911,-6.3207e-4 0.006719,-0.007495 c 0.003695,-0.004122 0.007852,-0.008638 0.009236,-0.0100341 0.005957,-0.006008 0.0120626,-0.01196 0.0186335,-0.0181641 0.0106299,-0.0100366 0.0198264,-0.0196302 0.0194657,-0.0203065 -6.5443e-4,-0.001227 -0.002748,4.6297e-4 -0.0103972,0.008392 -0.004663,0.004834 -0.009729,0.009932 -0.0112579,0.0113281 -0.00594,0.005426 -0.0200509,0.0197684 -0.0271969,0.0276433 l -0.007495,0.008259 -0.002797,1.1522e-4 c -0.002403,9.898e-5 -0.003006,3.0776e-4 -0.00428,0.001482 -0.001333,0.001229 -0.001442,0.001636 -0.001073,0.004025 l 4.0986e-4,0.002658 -0.003947,0.003899 c -0.003614,0.00357 -0.004079,0.003878 -0.00551,0.00365 -0.00218,-3.4736e-4 -0.0114618,-8.6672e-4 -0.0120312,-6.7325e-4 -7.9708e-4,2.7085e-4 -5.2273e-4,0.001579 7.8094e-4,0.003722 6.8732e-4,0.00113 0.00125,0.002199 0.00125,0.002375 1.7e-7,1.7602e-4 -0.002149,-7.9078e-4 -0.004776,-0.002148 -0.0126073,-0.006516 -0.0217125,-0.0155041 -0.0245786,-0.0242637 -0.001296,-0.00396 -0.002332,-0.0119938 -0.001548,-0.0119938 2.7303e-4,0 0.002627,4.7018e-4 0.005231,0.001045 0.006848,0.001511 0.0181935,0.001728 0.0281481,5.3775e-4 0.00745,-8.9079e-4 0.0184075,-0.002994 0.0262812,-0.005045 0.005237,-0.001364 0.00825,-0.00325 0.008461,-0.005294 6.833e-5,-6.6247e-4 7.2642e-4,-0.002605 0.001462,-0.004318 7.3599e-4,-0.001712 0.001777,-0.005843 0.002312,-0.00918 5.3583e-4,-0.003337 0.001463,-0.008669 0.00206,-0.0118505 5.9733e-4,-0.003181 8.5575e-4,-0.005873 5.7426e-4,-0.005982 -2.8147e-4,-1.0872e-4 -6.2782e-4,3.317e-5 -7.6966e-4,3.1536e-4 z m -0.0267232,-0.0140097 c -0.002298,8.9765e-4 -0.007219,0.003109 -0.0109375,0.004915 -0.007878,0.003825 -0.009695,0.004375 -0.014475,0.004377 -0.004655,2.34e-6 -0.008296,-8.4638e-4 -0.0209914,-0.004893 -0.00582,-0.001855 -0.0120977,-0.003648 -0.0139511,-0.003985 -0.002513,-4.5666e-4 -0.003279,-7.6037e-4 -0.003012,-0.001195 2.1295e-4,-3.4683e-4 5.719e-5,-5.2008e-4 -3.8484e-4,-4.28e-4 -0.001111,2.3149e-4 -0.001307,9.5802e-4 -3.8544e-4,0.001427 0.001961,9.983e-4 0.0295499,0.009396 0.0323324,0.009842 0.002207,3.5347e-4 0.003179,7.2361e-4 0.003429,0.001306 9.3225e-4,0.00217 -3.525e-5,0.0256074 -0.001084,0.0262629 -1.5011e-4,9.382e-5 -0.00319,2.5513e-4 -0.006755,3.5848e-4 -0.006546,1.8975e-4 -0.0195176,0.00104 -0.0265542,0.00174 -0.002102,2.0922e-4 -0.004563,3.8039e-4 -0.005469,3.8039e-4 -9.0568e-4,0 -0.001647,1.8849e-4 -0.001647,4.1885e-4 0,5.1258e-4 0.0125508,1.5894e-4 0.0190625,-5.3712e-4 0.00303,-3.2393e-4 0.0129712,-4.4498e-4 0.0323438,-3.9386e-4 0.0166909,4.405e-5 0.0279687,-7.109e-5 0.0279687,-2.8553e-4 0,-6.0844e-4 -0.002236,-7.33e-4 -0.0198875,-0.001108 -0.009391,-1.9946e-4 -0.0171616,-4.236e-4 -0.0172675,-4.9808e-4 -1.0586e-4,-7.448e-5 2.2324e-4,-0.001542 7.3133e-4,-0.00326 6.4407e-4,-0.002179 9.5217e-4,-0.006229 0.001017,-0.0133771 l 9.366e-5,-0.0102521 0.001562,-4.804e-5 c 8.5937e-4,-2.64e-5 0.001782,-2.547e-5 0.00205,2.35e-6 9.6205e-4,9.902e-5 0.004341,-0.00121 0.0112675,-0.004366 0.003873,-0.001765 0.009207,-0.004087 0.0118537,-0.005161 0.002647,-0.001074 0.004816,-0.002173 0.004821,-0.002441 1.325e-5,-8.0154e-4 -0.001327,-5.2091e-4 -0.005732,0.0012 z"
         inkscape:connector-curvature="0" /><path
         id="path4172"
         style="fill:#00cb00;fill-opacity:1"
         d="m 0.37660924,0.85281768 c 9.605e-5,5.2028e-4 5.2619e-4,0.001018 9.5588e-4,0.001107 0.001063,2.1882e-4 9.8284e-4,-3.7632e-4 -1.7463e-4,-0.001294 -9.2566e-4,-7.3429e-4 -9.5035e-4,-7.2836e-4 -7.8125e-4,1.8771e-4 z m 0.003612,-7.737e-4 c 0,2.0216e-4 2.8125e-4,4.7621e-4 6.25e-4,6.0899e-4 3.4375e-4,1.3278e-4 6.25e-4,-3.262e-5 6.25e-4,-3.6757e-4 0,-3.3495e-4 -2.8125e-4,-6.09e-4 -6.25e-4,-6.09e-4 -3.4375e-4,0 -6.25e-4,1.6541e-4 -6.25e-4,3.6758e-4 z m -0.001476,-0.001735 c 1.9787e-4,3.2226e-4 6.0209e-4,5.8594e-4 8.9827e-4,5.8594e-4 2.9619e-4,0 3.7663e-4,-2.6368e-4 1.7877e-4,-5.8594e-4 -1.9787e-4,-3.2227e-4 -6.0209e-4,-5.8594e-4 -8.9827e-4,-5.8594e-4 -2.9619e-4,0 -3.7663e-4,2.6367e-4 -1.7877e-4,5.8594e-4 z M 0.36668694,0.8499352 c -2.0356e-4,3.3153e-4 -2.1344e-4,7.007e-4 -2.2e-5,8.2036e-4 5.4731e-4,3.4208e-4 0.001681,-2.3814e-4 0.001681,-8.6026e-4 0,-7.4955e-4 -0.001192,-7.2088e-4 -0.001659,3.99e-5 z m 0.003828,-0.004863 c -2.8642e-4,5.6404e-4 -1.9286e-4,9.6077e-4 2.4826e-4,0.001053 3.8937e-4,8.112e-5 7.0794e-4,4.6288e-4 7.0794e-4,8.4836e-4 0,6.8726e-4 0.001651,0.001848 0.002168,0.001525 5.0244e-4,-3.1403e-4 -8.3169e-4,-0.003185 -0.001745,-0.003757 -8.0899e-4,-5.0562e-4 -9.7438e-4,-4.6596e-4 -0.001379,3.3066e-4 z m 0.004373,-2.0005e-4 c 4.3614e-4,7.929e-4 0.001276,0.00161 0.001866,0.001817 7.4957e-4,2.6218e-4 9.5907e-4,6.5788e-4 6.9562e-4,0.001314 -2.1335e-4,5.3126e-4 -1.0051e-4,9.3876e-4 2.5992e-4,9.3876e-4 9.727e-4,0 7.6073e-4,-0.002651 -2.4046e-4,-0.003008 -4.8255e-4,-1.7181e-4 -9.7474e-4,-7.5004e-4 -0.001094,-0.001285 -1.1901e-4,-5.3492e-4 -6.8067e-4,-0.001028 -0.001248,-0.001095 -9.2164e-4,-1.0972e-4 -9.4712e-4,3.101e-5 -2.3878e-4,0.001319 z m 0.004708,-0.001767 c 0,2.2752e-4 2.8125e-4,3.0504e-4 6.25e-4,1.7226e-4 3.4375e-4,-1.3278e-4 6.25e-4,-3.1894e-4 6.25e-4,-4.1368e-4 0,-9.474e-5 -2.8125e-4,-1.7226e-4 -6.25e-4,-1.7226e-4 -3.4375e-4,0 -6.25e-4,1.8616e-4 -6.25e-4,4.1368e-4 z m -0.013089,-1.4377e-4 c 1.981e-5,3.8866e-4 2.6872e-4,0.00141 5.5312e-4,0.002269 l 5.1711e-4,0.001563 7.187e-5,-0.002028 c 3.957e-5,-0.001115 -2.0937e-4,-0.002136 -5.5312e-4,-0.002269 -3.4375e-4,-1.3278e-4 -6.0879e-4,7.657e-5 -5.8898e-4,4.6522e-4 z m -0.003786,6.4155e-4 c 0,7.8776e-4 2.7422e-4,0.001432 6.0938e-4,0.001432 3.5014e-4,0 4.4489e-4,-5.4006e-4 2.2272e-4,-0.00127 -5.4217e-4,-0.00178 -8.321e-4,-0.001837 -8.321e-4,-1.6276e-4 z m -0.005,-6.51e-5 c 0,0.001919 2.9653e-4,0.001864 8.8291e-4,-1.6277e-4 2.6826e-4,-9.2738e-4 1.8402e-4,-0.001465 -2.2959e-4,-0.001465 -3.5933e-4,0 -6.5332e-4,7.3242e-4 -6.5332e-4,0.001628 z m 0.0160001,-0.002539 c 5.7526e-4,0.001497 8.7463e-4,0.001638 8.7463e-4,4.1386e-4 0,-5.6024e-4 -2.9252e-4,-0.001132 -6.5005e-4,-0.00127 -4.2637e-4,-1.6469e-4 -5.0365e-4,1.2981e-4 -2.2458e-4,8.5585e-4 z m -0.0134381,-1.6258e-4 c 5.294e-5,0.00141 1.3761e-4,0.001513 5.627e-4,6.836e-4 7.2032e-4,-0.001406 7.2032e-4,-0.002344 0,-0.002344 -3.4375e-4,0 -5.9696e-4,7.4707e-4 -5.627e-4,0.00166 z m 0.00934,-0.001982 c -5.1195e-4,6.6035e-4 -6.3298e-4,0.001452 -3.2859e-4,0.002148 4.8055e-4,0.0011 4.8342e-4,0.001099 0.001036,-4.4861e-4 7.5282e-4,-0.002108 3.5347e-4,-0.003068 -7.0731e-4,-0.0017 z m -0.006902,-8.8205e-4 c 0,1.9727e-4 -1.7071e-4,6.3673e-4 -3.7937e-4,9.7656e-4 -2.0865e-4,3.3984e-4 -1.0081e-4,6.1789e-4 2.3964e-4,6.1789e-4 3.4046e-4,0 7.5342e-4,-4.3945e-4 9.177e-4,-9.7656e-4 1.6428e-4,-5.3711e-4 5.644e-5,-9.7656e-4 -2.3964e-4,-9.7656e-4 -2.9608e-4,0 -5.3833e-4,1.614e-4 -5.3833e-4,3.5867e-4 z m -0.005,-3.5867e-4 c 0,2.1484e-4 2.8125e-4,3.9062e-4 6.25e-4,3.9062e-4 3.4375e-4,0 6.25e-4,-1.7578e-4 6.25e-4,-3.9062e-4 0,-2.1485e-4 -2.8125e-4,-3.9063e-4 -6.25e-4,-3.9063e-4 -3.4375e-4,0 -6.25e-4,1.7578e-4 -6.25e-4,3.9063e-4 z m 0.014114,-8.3368e-4 c -2.6923e-4,2.7226e-4 -3.2072e-4,6.0052e-4 -1.1443e-4,7.2946e-4 5.5936e-4,3.4959e-4 0.001169,-1.6457e-4 8.6712e-4,-7.3104e-4 -2.117e-4,-3.9694e-4 -3.5892e-4,-3.9663e-4 -7.5269e-4,1.56e-6 z m -0.002864,-3.382e-4 c 0,2.1484e-4 2.9785e-4,3.9063e-4 6.6189e-4,3.9063e-4 3.6404e-4,0 4.8806e-4,-1.7579e-4 2.7561e-4,-3.9063e-4 -2.1245e-4,-2.1484e-4 -5.103e-4,-3.9063e-4 -6.6189e-4,-3.9063e-4 -1.5158e-4,0 -2.7561e-4,1.7579e-4 -2.7561e-4,3.9063e-4 z m 0.006668,-0.001856 c 2.6953e-4,2.6856e-4 4.1885e-4,8.3984e-4 3.3183e-4,0.00127 -1.3932e-4,6.8796e-4 -8.136e-5,7.0363e-4 4.8535e-4,1.3123e-4 6.9718e-4,-7.0419e-4 2.5048e-4,-0.001889 -7.122e-4,-0.001889 -3.2725e-4,0 -3.745e-4,2.1973e-4 -1.0498e-4,4.8828e-4 z m -0.00875,-0.001009 c -2.301e-4,1.4328e-4 -4.176e-4,4.4211e-4 -4.176e-4,6.6412e-4 0,2.4477e-4 2.9111e-4,2.217e-4 7.3958e-4,-5.859e-5 4.0678e-4,-2.5424e-4 5.9428e-4,-5.5307e-4 4.1667e-4,-6.6407e-4 -1.7761e-4,-1.11e-4 -5.1042e-4,-8.463e-5 -7.3958e-4,5.86e-5 z m -0.006042,3.0246e-4 c 0,3.3495e-4 2.8125e-4,6.0899e-4 6.25e-4,6.0899e-4 3.4375e-4,0 6.25e-4,-1.654e-4 6.25e-4,-3.6757e-4 0,-2.0216e-4 -2.8125e-4,-4.7621e-4 -6.25e-4,-6.0899e-4 -3.4375e-4,-1.3278e-4 -6.25e-4,3.262e-5 -6.25e-4,3.6757e-4 z m 0.008504,-0.00307 c -5.3605e-4,8.7307e-4 -4.9378e-4,9.4461e-4 5.5813e-4,9.4461e-4 5.2083e-4,0 9.375e-4,-3.4722e-4 9.375e-4,-7.8125e-4 0,-9.3135e-4 -9.5974e-4,-0.001036 -0.001496,-1.6336e-4 z m -0.003105,-3.195e-5 c -1.9786e-4,3.2226e-4 -8.732e-5,5.8594e-4 2.4563e-4,5.8594e-4 3.3297e-4,0 6.0539e-4,-2.6368e-4 6.0539e-4,-5.8594e-4 0,-3.2227e-4 -1.1054e-4,-5.8594e-4 -2.4563e-4,-5.8594e-4 -1.351e-4,0 -4.0752e-4,2.6367e-4 -6.0539e-4,5.8594e-4 z m -0.006024,5.6288e-4 c 0,6.3185e-4 2.8125e-4,0.001257 6.25e-4,0.00139 3.7195e-4,1.4367e-4 6.25e-4,-3.2146e-4 6.25e-4,-0.001149 0,-7.6463e-4 -2.8125e-4,-0.00139 -6.25e-4,-0.00139 -3.4375e-4,0 -6.25e-4,5.1697e-4 -6.25e-4,0.001149 z m -0.003394,-8.8416e-4 c -2.2639e-4,3.6873e-4 1.119e-5,9.1374e-4 5.4326e-4,0.001246 0.00122,7.6244e-4 0.001571,5.1173e-4 0.00116,-8.2736e-4 -3.7298e-4,-0.001214 -0.001105,-0.001393 -0.001703,-4.1893e-4 z m 0.00914,-0.002022 c 1.275e-5,6.4453e-4 1.5282e-4,8.6091e-4 3.1128e-4,4.8085e-4 1.5846e-4,-3.8007e-4 1.4804e-4,-9.0742e-4 -2.319e-5,-0.001172 -1.7121e-4,-2.6446e-4 -3.0086e-4,4.65e-5 -2.8812e-4,6.9103e-4 z m -0.004007,-0.001153 c -1.8882e-4,1.1801e-4 -1.114e-4,8.6508e-4 1.7203e-4,0.00166 0.001,0.002805 0.001124,0.003594 5.6616e-4,0.003594 -3.1019e-4,0 -4.021e-4,2.6367e-4 -2.0424e-4,5.8594e-4 1.9787e-4,3.2226e-4 7.6814e-4,5.8594e-4 0.001267,5.8594e-4 5.5054e-4,0 7.2378e-4,-1.8581e-4 4.4042e-4,-4.7236e-4 -2.569e-4,-2.598e-4 -3.9264e-4,-0.001229 -3.0164e-4,-0.002154 2.6843e-4,-0.002728 -6.8056e-4,-0.004587 -0.00194,-0.0038 z m 0.0106874,-0.002526 c -3.994e-5,8.952e-5 -1.3548e-4,0.001072 -2.1231e-4,0.002184 -1.2074e-4,0.001747 3.375e-5,0.00205 0.001139,0.002231 7.0332e-4,1.1495e-4 0.001337,1.7203e-4 0.001409,1.2684e-4 2.6692e-4,-1.687e-4 -0.001345,-0.004131 -0.001795,-0.004412 -2.5758e-4,-1.6099e-4 -5.01e-4,-2.1946e-4 -5.4094e-4,-1.2995e-4 z m -0.006704,4.8116e-4 c -9.0475e-4,0.001375 -9.1591e-4,0.00131 2.7053e-4,0.001594 0.001352,3.2415e-4 0.002354,-9.945e-5 0.001604,-6.7784e-4 -3.2346e-4,-2.4943e-4 -7.1472e-4,-8.0507e-4 -8.6948e-4,-0.001235 -2.4832e-4,-6.8942e-4 -3.6642e-4,-6.5199e-4 -0.001005,3.184e-4 z m -0.009473,0.001049 c 0,0.001302 2.6036e-4,0.001953 7.8125e-4,0.001953 8.4728e-4,-3e-7 0.00125,-0.001617 7.542e-4,-0.003027 -5.6144e-4,-0.001596 -0.001535,-9.1435e-4 -0.001535,0.001074 z m 0.0156268,-0.003495 c 0,2.2752e-4 2.8125e-4,3.0504e-4 6.25e-4,1.7226e-4 3.4375e-4,-1.3278e-4 6.25e-4,-3.1894e-4 6.25e-4,-4.1368e-4 0,-9.474e-5 -2.8125e-4,-1.7226e-4 -6.25e-4,-1.7226e-4 -3.4375e-4,0 -6.25e-4,1.8616e-4 -6.25e-4,4.1368e-4 z m -0.0135401,-0.002926 c -2.0673e-4,3.367e-4 -9.243e-5,7.8934e-4 2.54e-4,0.001006 4.2315e-4,2.6447e-4 6.2986e-4,6.356e-5 6.2986e-4,-6.1219e-4 0,-0.001143 -3.33e-4,-0.001291 -8.8386e-4,-3.9366e-4 z m 0.006514,-0.003549 c -1.6301e-4,5.3297e-4 8.539e-5,0.00131 5.5201e-4,0.001726 4.6662e-4,4.1637e-4 6.8562e-4,0.001022 4.8666e-4,0.001346 -2.7371e-4,4.4581e-4 -3.694e-5,5.3609e-4 9.7298e-4,3.7103e-4 7.6517e-4,-1.2506e-4 0.001201,-4.3585e-4 0.001021,-7.2832e-4 -1.7227e-4,-2.8059e-4 -6.209e-4,-0.001224 -9.9694e-4,-0.002097 -7.7471e-4,-0.001798 -0.001599,-0.002048 -0.002036,-6.1789e-4 z m 0.005557,-0.002349 c -1.9364e-4,3.1539e-4 -8.31e-5,6.7733e-4 2.4563e-4,8.0431e-4 3.2874e-4,1.2698e-4 5.9771e-4,1.4698e-4 5.9771e-4,4.445e-5 0,-1.0252e-4 1.7071e-4,-4.6446e-4 3.7937e-4,-8.043e-4 2.0865e-4,-3.3984e-4 9.812e-5,-6.1789e-4 -2.4563e-4,-6.1789e-4 -3.4375e-4,0 -7.8343e-4,2.5805e-4 -9.7708e-4,5.7343e-4 z m -0.0143115,-0.001486 c -6.5227e-4,7.2081e-4 3.043e-4,0.003257 0.001228,0.003257 6.8725e-4,0 8.3239e-4,2.602e-4 5.4472e-4,9.7656e-4 -2.4541e-4,6.111e-4 -1.2726e-4,9.7656e-4 3.1568e-4,9.7656e-4 4.6218e-4,0 5.7206e-4,-4.4061e-4 3.1661e-4,-0.00127 -2.1518e-4,-6.9824e-4 -5.2955e-4,-0.001789 -6.9859e-4,-0.002424 -3.3208e-4,-0.001247 -0.00123,-0.002044 -0.001707,-0.001517 z m 0.0114048,-0.003802 c 0,7.8408e-4 0.001537,0.001981 0.002545,0.001981 9.3047e-4,0 6.6857e-4,-6.7651e-4 -3.5714e-4,-9.2251e-4 -5.1697e-4,-1.2312e-4 -9.3885e-4,-5.8137e-4 -9.3885e-4,-0.001018 0,-4.3643e-4 -2.8125e-4,-7.935e-4 -6.25e-4,-7.935e-4 -3.4375e-4,0 -6.25e-4,3.39e-4 -6.25e-4,7.5334e-4 z m -0.0120256,-0.002644 c 4.6079e-4,2.8799e-4 5.8421e-4,0.001092 3.3916e-4,0.002209 -2.8062e-4,0.00128 -1.8879e-4,0.001681 3.3808e-4,0.001477 3.9784e-4,-1.5367e-4 7.2334e-4,-0.001148 7.2334e-4,-0.002209 0,-0.001556 -2.0586e-4,-0.00193 -0.001063,-0.00193 -8.0554e-4,0 -8.8731e-4,1.0949e-4 -3.3808e-4,4.5276e-4 z m 0.01169,-0.003443 c -2.7039e-4,9.008e-4 -1.634e-4,0.001813 2.7367e-4,0.002332 6.5551e-4,7.7949e-4 6.9216e-4,7.484e-4 4.2359e-4,-3.5925e-4 -1.6171e-4,-6.6691e-4 1.25e-6,-0.001397 3.619e-4,-0.001623 4.4831e-4,-2.8019e-4 4.5475e-4,-6.346e-4 2.037e-5,-0.00112 -5.4277e-4,-6.0617e-4 -7.0038e-4,-4.9387e-4 -0.00108,7.692e-4 z"
         inkscape:connector-curvature="0" /></g></g></svg>