<?xml version="1.0" encoding="UTF-8" standalone="no"?>
<!-- Created with Inkscape (http://www.inkscape.org/) -->

<svg
   xmlns:dc="http://purl.org/dc/elements/1.1/"
   xmlns:cc="http://creativecommons.org/ns#"
   xmlns:rdf="http://www.w3.org/1999/02/22-rdf-syntax-ns#"
   xmlns:svg="http://www.w3.org/2000/svg"
   xmlns="http://www.w3.org/2000/svg"
   xmlns:sodipodi="http://sodipodi.sourceforge.net/DTD/sodipodi-0.dtd"
   xmlns:inkscape="http://www.inkscape.org/namespaces/inkscape"
   id="svg2"
   version="1.1"
   inkscape:version="0.91 r13725"
   xml:space="preserve"
   width="556.26947"
   height="530.5141"
   viewBox="0 0 556.26947 530.5141"
   sodipodi:docname="stick_enquete.svg"><metadata
     id="metadata8"><rdf:RDF><cc:Work
         rdf:about=""><dc:format>image/svg+xml</dc:format><dc:type
           rdf:resource="http://purl.org/dc/dcmitype/StillImage" /><dc:title></dc:title></cc:Work></rdf:RDF></metadata><defs
     id="defs6"><clipPath
       clipPathUnits="userSpaceOnUse"
       id="clipPath4152"><rect
         style="opacity:0.96600001;fill:#000099;fill-opacity:0.39215686;stroke:#000000;stroke-width:0.00079057;stroke-miterlimit:4;stroke-dasharray:none;stroke-opacity:1"
         id="rect4154"
         width="0.29694122"
         height="0.17213984"
         x="0.28122351"
         y="-0.89000428"
         transform="scale(1,-1)" /></clipPath></defs><sodipodi:namedview
     pagecolor="#ffffff"
     bordercolor="#666666"
     borderopacity="1"
     objecttolerance="10"
     gridtolerance="10"
     guidetolerance="10"
     inkscape:pageopacity="0"
     inkscape:pageshadow="2"
     inkscape:window-width="1680"
     inkscape:window-height="948"
     id="namedview4"
     showgrid="false"
     fit-margin-left="10"
     fit-margin-bottom="10"
     fit-margin-top="0"
     fit-margin-right="0"
     inkscape:zoom="0.41077465"
     inkscape:cx="-30.110614"
     inkscape:cy="265.39569"
     inkscape:window-x="0"
     inkscape:window-y="30"
     inkscape:window-maximized="1"
     inkscape:current-layer="g12" /><g
     id="g10"
     inkscape:groupmode="layer"
     inkscape:label="Teuns website diensten drawings_1"
     transform="matrix(1.25,0,0,-1.25,-612.55998,2873.0137)"><g
       id="g12"
       transform="matrix(1600,0,0,2560,10,20)"><g
         id="g4142"
         clip-path="url(#clipPath4152)"><path
           style="fill:#5c5c5e"
           d="m 0.36625,0.72770638 c 0,7.2981e-4 -0.004646,0.00521 -0.007357,0.007095 -0.003291,0.002288 -0.007005,0.003732 -0.0115405,0.004486 -0.006714,0.001117 -0.0105193,5.9888e-4 -0.0257279,-0.003504 -0.008801,-0.002374 -0.0100539,-0.002907 -0.0113318,-0.004818 -5.7101e-4,-8.5414e-4 -0.001279,-0.001277 -0.002136,-0.001277 -7.0504e-4,0 -0.001282,1.7578e-4 -0.001282,3.9062e-4 0,2.1485e-4 3.9953e-4,3.9063e-4 8.8784e-4,3.9063e-4 4.8831e-4,0 0.001071,5.1998e-4 0.001294,0.001155 6.0327e-4,0.001717 0.003716,0.003181 0.0110036,0.005175 0.0154732,0.004235 0.0213032,0.004965 0.0287029,0.003591 0.007293,-0.001354 0.0122846,-0.004216 0.0168465,-0.009661 0.002856,-0.003409 0.002845,-0.003386 0.001578,-0.003386 -5.1563e-4,0 -9.375e-4,1.6318e-4 -9.375e-4,3.6263e-4 z m 0.0999662,0.007157 c -0.008751,0.006564 -0.009542,0.007241 -0.0165284,0.0141602 -0.0116775,0.0115644 -0.0124846,0.0123036 -0.0132426,0.0121286 -4.0823e-4,-9.422e-5 -0.001318,5.6603e-4 -0.002022,0.001467 -7.0387e-4,9.012e-4 -0.003175,0.003045 -0.005491,0.004764 -0.002316,0.001719 -0.007249,0.005498 -0.0109611,0.008398 -0.003712,0.0029 -0.00754,0.005889 -0.008507,0.006641 -9.664e-4,7.5195e-4 -0.00592,0.004795 -0.011009,0.008984 -0.009045,0.007447 -0.0154781,0.0124899 -0.018299,0.0143451 -7.7344e-4,5.0864e-4 -0.001409,0.001137 -0.001413,0.001395 -3.75e-6,2.5879e-4 -0.001381,0.001437 -0.003061,0.002619 l -0.003054,0.002148 -0.00168,-9.7656e-4 c -9.2422e-4,-5.3711e-4 -0.003128,-0.002207 -0.004898,-0.003711 -0.001769,-0.001504 -0.004698,-0.003867 -0.006508,-0.005252 -0.00181,-0.001385 -0.003291,-0.002618 -0.003291,-0.00274 0,-1.225e-4 -0.003197,-0.002242 -0.007104,-0.004709 C 0.3428281,0.79053472 0.3400401,0.78825772 0.33456,0.78261642 0.33327811,0.78129861 0.33,0.7807182 0.33,0.78180999 c 0,3.3654e-4 4.0947e-4,6.1189e-4 9.0993e-4,6.1189e-4 5.0046e-4,0 0.00203,0.001199 0.003399,0.002664 0.003445,0.003687 0.007376,0.00685 0.0122094,0.009825 0.002259,0.00139 0.004107,0.002642 0.004107,0.002781 0,1.3907e-4 0.001195,0.00104 0.002656,0.002002 0.003316,0.002183 0.006122,0.004365 0.0104426,0.00812 0.001854,0.001611 0.00417,0.003468 0.005145,0.004126 l 0.001774,0.001196 -0.004853,0.002935 c -0.005127,0.0031 -0.0127917,0.007019 -0.0166234,0.0085 -0.002277,8.797e-4 -0.002895,0.001714 -0.001631,0.002202 9.9158e-4,3.8301e-4 0.003839,-1.7055e-4 0.003561,-6.9224e-4 -1.3329e-4,-2.4991e-4 0.001886,-0.001441 0.004487,-0.002646 0.002601,-0.001205 0.007371,-0.003763 0.0105996,-0.005683 l 0.00587,-0.003492 0.001306,0.001172 c 7.1828e-4,6.4439e-4 0.003463,0.00249 0.006099,0.004101 0.002636,0.001611 0.008125,0.00554 0.0121987,0.00873 0.0112882,0.008842 0.0128719,0.0104102 0.0105101,0.0104102 -0.004543,0 -0.0147931,0.006182 -0.01943,0.0117188 -0.003935,0.004699 -0.001632,0.009934 0.006813,0.0154915 0.005825,0.003833 0.0121656,0.005885 0.0194617,0.006298 l 0.004949,2.8062e-4 0.001519,0.002852 c 9.0249e-4,0.001694 0.001811,0.002784 0.002238,0.002686 7.937e-4,-1.8333e-4 7.7179e-4,-2.7494e-4 -8.3047e-4,-0.003473 l -0.001119,-0.002232 0.00268,2.296e-4 c 0.001474,1.2628e-4 0.004079,1.989e-5 0.005788,-2.3641e-4 l 0.003108,-4.6601e-4 0.003233,0.002137 c 0.00319,0.002108 0.006535,0.003377 0.00741,0.002811 2.4679e-4,-1.5982e-4 -2.5441e-4,-5.7847e-4 -0.001114,-9.3033e-4 -0.001957,-8.0123e-4 -0.007501,-0.003987 -0.007499,-0.004309 2.5e-6,-3.9422e-4 0.007103,-0.00259 0.007973,-0.002465 4.4195e-4,6.343e-5 0.002594,8.9775e-4 0.004783,0.001854 0.004034,0.001763 0.007243,0.002273 0.007243,0.001153 0,-3.2484e-4 -5.5507e-4,-5.8594e-4 -0.001246,-5.8594e-4 -6.8513e-4,0 -0.003206,-7.626e-4 -0.005603,-0.001695 l -0.004357,-0.001695 0.002242,-0.001333 c 0.002819,-0.001676 0.004557,-0.003985 0.004575,-0.006077 3.618e-5,-0.004269 -0.006286,-0.0116184 -0.0135746,-0.015782 -0.002344,-0.001339 -0.003531,-0.002307 -0.003403,-0.002777 2.06e-4,-7.5997e-4 -7.9155e-4,-9.9172e-4 -0.001441,-3.3481e-4 -2.2666e-4,2.2922e-4 -0.001829,-6.995e-5 -0.003943,-7.3641e-4 -0.004807,-0.001515 -0.01154,-0.002775 -0.0148314,-0.002775 -0.002647,0 -0.002731,-4.062e-5 -0.00423,-0.002051 -8.4088e-4,-0.001128 -0.002901,-0.003119 -0.004577,-0.004424 -0.001677,-0.001305 -0.005425,-0.004267 -0.00833,-0.006583 -0.002905,-0.002315 -0.007012,-0.005203 -0.009126,-0.006416 -0.002114,-0.001214 -0.004712,-0.003013 -0.005773,-0.003999 l -0.001929,-0.001793 0.002658,-0.001918 c 0.005646,-0.004074 0.0162214,-0.0124328 0.0220329,-0.017414 0.0120615,-0.0103383 0.0322744,-0.0257031 0.033824,-0.0257112 4.2969e-4,-2.34e-6 7.8125e-4,-2.0837e-4 7.8125e-4,-4.5804e-4 0,-2.4967e-4 0.001914,-0.002051 0.004253,-0.004004 0.002339,-0.001952 0.007855,-0.007153 0.0122578,-0.0115578 0.004403,-0.004404 0.0113485,-0.0107786 0.0154348,-0.0141651 0.004086,-0.003386 0.00743,-0.006331 0.00743,-0.006543 0,-8.8303e-4 -0.001217,-1.8245e-4 -0.006284,0.003618 z M 0.4151313,0.84065276 c 0.002113,4.4489e-4 0.004961,0.001166 0.006329,0.001602 l 0.002487,7.9304e-4 -0.003693,0.001243 c -0.002031,6.8383e-4 -0.004523,0.001588 -0.005538,0.00201 -0.001631,6.7795e-4 -0.001797,6.8919e-4 -0.001434,9.691e-5 6.0925e-4,-9.9228e-4 -6.0716e-4,-0.001241 -0.001421,-2.9039e-4 -7.9175e-4,9.2462e-4 1.0315e-4,0.001939 0.001711,0.001939 5.0625e-4,0 0.003452,-9.6835e-4 0.006545,-0.002152 l 0.005625,-0.002152 0.002352,0.001164 c 0.003229,0.001598 0.006555,0.003955 0.009123,0.006463 0.001186,0.001159 0.002157,0.002193 0.002157,0.002299 0,1.0514e-4 -0.001669,7.47e-4 -0.003708,0.001426 -0.003403,0.001134 -0.004947,0.002125 -0.004117,0.002644 1.8133e-4,1.1333e-4 9.6138e-4,-1.6459e-4 0.001733,-6.176e-4 7.7208e-4,-4.5301e-4 0.002666,-0.001177 0.004208,-0.001608 l 0.002804,-7.8433e-4 0.001159,0.001834 c 8.2341e-4,0.001303 0.00109,0.002528 9.2081e-4,0.004229 -3.0258e-4,0.003039 -0.002141,0.004638 -0.008105,0.007049 -0.003576,0.001446 -0.00464,0.0017 -0.006211,0.001485 -0.001558,-2.1387e-4 -0.001953,-1.2288e-4 -0.002218,5.1071e-4 -2.402e-4,5.7408e-4 -0.001205,8.8167e-4 -0.003778,0.001205 -0.003688,4.6288e-4 -0.004703,3.421e-4 -0.004187,-4.9814e-4 4.4557e-4,-7.2572e-4 -0.002772,-7.1478e-4 -0.004611,1.566e-5 -0.001964,7.8004e-4 -0.0079,1.1008e-4 -0.0132656,-0.001497 -0.005016,-0.001502 -0.0120664,-0.005827 -0.014524,-0.008909 -0.004233,-0.005307 -0.002469,-0.009149 0.007291,-0.0158817 0.006334,-0.004369 0.013385,-0.00551 0.0223647,-0.00362 z m -7.2754e-4,0.0194714 c -0.002919,7.3973e-4 -0.004066,0.001601 -0.002112,0.001586 0.00185,-1.387e-5 0.006581,-0.001504 0.006153,-0.001938 -5.0457e-4,-5.1026e-4 -7.1015e-4,-4.9238e-4 -0.00404,3.5155e-4 z M 0.37510005,0.74071872 c -9.5334e-4,5.9584e-4 -9.1463e-4,0.003312 1.6858e-4,0.0118269 0.001409,0.0110784 0.001579,0.0134672 0.001656,0.0233546 6.346e-5,0.008162 1.9035e-4,0.009284 0.001038,0.00918 8.409e-4,-1.0361e-4 9.5347e-4,-0.001281 8.7046e-4,-0.009103 -9.4e-5,-0.00886 -5.7426e-4,-0.0174296 -0.001084,-0.0193359 -1.435e-4,-5.371e-4 -4.4369e-4,-0.004367 -6.671e-4,-0.008512 -2.234e-4,-0.004144 -5.976e-4,-0.007609 -8.3156e-4,-0.007699 -2.3395e-4,-9.037e-5 -7.5164e-4,3.961e-5 -0.00115,2.8885e-4 z m -0.0372575,0.007298 c -1.7737e-4,1.7937e-4 7.185e-5,8.3087e-4 5.5382e-4,0.001448 0.001152,0.001475 0.002218,0.007176 0.002254,0.0120592 3.137e-5,0.004226 7.4048e-4,0.007321 0.001724,0.007526 3.3968e-4,7.076e-5 4.7402e-4,4.718e-4 2.9855e-4,8.9119e-4 -1.7962e-4,4.2926e-4 -5.63e-6,7.6251e-4 3.9846e-4,7.6251e-4 0.001237,0 0.00153,-0.001215 5.5291e-4,-0.00229 -6.8852e-4,-7.5687e-4 -9.6011e-4,-0.002402 -0.001022,-0.006192 -9.608e-5,-0.005849 -0.001019,-0.011727 -0.002066,-0.0131633 -7.5374e-4,-0.001034 -0.002163,-0.001579 -0.002694,-0.001042 z m 0.0136149,0.0228473 c -0.003129,6.3341e-4 -0.006805,9.8903e-4 -0.0121875,0.001179 -0.0100298,3.5394e-4 -0.0245577,0.001334 -0.0264536,0.001784 -0.001882,4.4714e-4 -0.003201,0.00187 -0.002273,0.00245 4.629e-4,2.8931e-4 8.4353e-4,1.1005e-4 0.001276,-6.0096e-4 6.6261e-4,-0.001089 0.001478,-0.00122 0.0100551,-0.001618 0.0183873,-8.5155e-4 0.0292302,-0.001503 0.030135,-0.00181 5.899e-4,-2.0022e-4 0.002671,-4.8146e-4 0.004625,-6.2498e-4 0.00303,-2.2257e-4 0.003676,-1.5488e-4 0.004396,4.6031e-4 0.001598,0.001366 0.001077,0.002134 -0.001449,0.002134 -0.002916,0 -0.0101854,7.7025e-4 -0.0115969,0.001229 -0.002245,7.2953e-4 -0.007488,0.001068 -0.0204932,0.001322 -0.009683,1.8944e-4 -0.0138086,4.1209e-4 -0.0147873,7.9802e-4 -0.002775,0.001094 -0.00329,0.005805 -0.001553,0.014229 0.001744,0.008459 0.001974,0.0112939 0.001984,0.0244405 9.56e-6,0.0124208 4.6488e-4,0.0188594 0.001559,0.0220439 0.001592,0.004635 0.002435,0.0127339 0.002316,0.0222656 -7.092e-5,0.005693 -2.0075e-4,0.0106152 -2.8851e-4,0.0109375 -8.776e-5,3.2227e-4 1.2169e-4,6.375e-4 4.6544e-4,7.0053e-4 9.5474e-4,1.7504e-4 0.001466,-0.002261 0.001869,-0.008904 2.0199e-4,-0.00333 4.8682e-4,-0.006529 6.3297e-4,-0.007108 2.5515e-4,-0.001011 -0.001975,-0.0143278 -0.003487,-0.020822 -4.3625e-4,-0.001874 -7.8423e-4,-0.009459 -8.6914e-4,-0.0189453 -1.3073e-4,-0.0146055 -4.5704e-4,-0.0185465 -0.002232,-0.0269531 -0.001042,-0.004936 -0.001078,-0.00577 -3.5885e-4,-0.008282 6.7027e-4,-0.002341 7.7218e-4,-0.002438 0.002867,-0.002705 0.001194,-1.5268e-4 0.002362,-2.0417e-4 0.002594,-1.1442e-4 2.3235e-4,8.974e-5 0.006286,-5.75e-6 0.0134529,-2.1222e-4 0.0104322,-3.0053e-4 0.0137783,-5.3662e-4 0.0167805,-0.001184 0.002062,-4.4473e-4 0.005859,-9.1624e-4 0.008437,-0.001048 0.006622,-3.3791e-4 0.0075,-5.9805e-4 0.0075,-0.002223 0,-9.3464e-4 -5.4431e-4,-0.0017 -0.001813,-0.002549 -0.002252,-0.001507 -0.004704,-0.001567 -0.0111043,-2.7125e-4 z M 0.455,0.77644038 c -5.1562e-4,9.784e-5 -0.003047,0.002285 -0.005625,0.004861 -0.002578,0.002576 -0.007781,0.007307 -0.0115625,0.0105138 l -0.006875,0.00583 -0.002812,-2.238e-4 c -0.001547,-1.2308e-4 -0.004922,-4.6167e-4 -0.0075,-7.5241e-4 -0.002578,-2.9074e-4 -0.006048,-6.0729e-4 -0.007711,-7.0346e-4 l -0.003024,-1.7485e-4 -0.003061,0.002593 c -0.001684,0.001426 -0.003524,0.003208 -0.00409,0.00396 -5.6611e-4,7.5195e-4 -0.002628,0.003125 -0.004581,0.005273 -0.001954,0.002148 -0.004555,0.005137 -0.00578,0.006641 -0.001226,0.001504 -0.002682,0.003262 -0.003236,0.003906 -0.001059,0.001231 -0.001343,0.002545 -5.4706e-4,0.00253 2.5781e-4,-5.04e-6 0.001686,-0.001367 0.003174,-0.003027 0.001488,-0.00166 0.003973,-0.004424 0.005523,-0.006143 0.001549,-0.001719 0.004084,-0.004619 0.005632,-0.006445 0.001548,-0.001826 0.003956,-0.004299 0.00535,-0.005496 l 0.002535,-0.002176 0.003502,1.5007e-4 c 0.001926,8.255e-5 0.005207,4.0248e-4 0.007292,7.1097e-4 0.002084,3.0849e-4 0.004499,5.6088e-4 0.005365,5.6088e-4 0.002217,0 0.002496,3.2356e-4 0.00141,0.001636 -0.001009,0.001219 -9.7643e-4,0.00379 4.981e-5,0.003939 3.3792e-4,4.922e-5 7.7803e-4,-5.2574e-4 9.7803e-4,-0.001278 1.9999e-4,-7.5195e-4 7.2418e-4,-0.001783 0.001165,-0.002291 6.726e-4,-7.7557e-4 0.001144,-8.8914e-4 0.002935,-7.075e-4 0.001173,1.19e-4 0.002528,4.6328e-4 0.003011,7.6505e-4 4.8283e-4,3.0177e-4 0.001746,7.7331e-4 0.002806,0.001048 0.002086,5.4014e-4 0.002535,0.0017 0.001242,0.00321 -5.3365e-4,6.2319e-4 -4.7369e-4,9.3385e-4 2.6993e-4,0.001399 8.5795e-4,5.3621e-4 0.001157,4.9149e-4 0.002921,-4.362e-4 0.003306,-0.001738 0.005098,-0.001301 0.005887,0.001435 2.3685e-4,8.2092e-4 5.7261e-4,0.001724 7.4613e-4,0.002006 2.4427e-4,3.9786e-4 -7.8685e-4,3.5115e-4 -0.004568,-2.069e-4 -0.009776,-0.001443 -0.0203017,-0.002406 -0.0210544,-0.001927 -0.001113,7.0888e-4 0.00189,0.002047 0.003957,0.001764 0.001349,-1.8512e-4 0.007285,4.8003e-4 0.0216839,0.00243 9.1195e-4,1.2348e-4 0.001699,7.6688e-4 0.002445,0.001999 0.001684,0.002781 0.002704,0.003575 0.004595,0.003575 0.002951,0 0.004117,-0.00169 0.002482,-0.003598 -6.311e-4,-7.3701e-4 -5.5833e-4,-7.8934e-4 7.8125e-4,-5.618e-4 8.1245e-4,1.3801e-4 0.007665,7.8125e-4 0.0152272,0.001429 0.0128528,0.001102 0.0309296,0.00284 0.0348492,0.003351 9.4831e-4,1.2365e-4 0.001565,3.863e-4 0.001369,5.8366e-4 -6.8686e-4,6.946e-4 3.6474e-4,0.001161 0.001649,7.3092e-4 6.7626e-4,-2.262e-4 0.001089,-5.5306e-4 9.1802e-4,-7.2634e-4 -1.7136e-4,-1.7329e-4 0.002,-6.969e-5 0.004826,2.3021e-4 0.009506,0.001009 0.0123253,0.001096 0.0123253,3.8106e-4 0,-7.063e-4 -3.9269e-4,-7.8491e-4 -0.008666,-0.001735 l -0.005854,-6.7207e-4 0.004604,-0.001831 c 0.008404,-0.003343 0.017929,-0.008444 0.029587,-0.0158473 0.00634,-0.004026 0.0115539,-0.007496 0.0115864,-0.007711 3.25e-5,-2.1485e-4 -4.1098e-4,-4.5148e-4 -9.8552e-4,-5.2584e-4 -6.7955e-4,-8.797e-5 -0.004896,0.002301 -0.0120643,0.006837 -0.0124201,0.007859 -0.018407,0.011104 -0.0289318,0.0156835 l -0.007287,0.003171 -0.008025,-7.5729e-4 c -0.004414,-4.1651e-4 -0.0132285,-0.001205 -0.0195879,-0.001751 -0.0200978,-0.001728 -0.0277426,-0.002544 -0.0282025,-0.003009 -6.7401e-4,-6.8161e-4 -0.002215,-0.004113 -0.003068,-0.006831 -0.001176,-0.003749 -0.00227,-0.004592 -0.006725,-0.005183 -0.002069,-2.7441e-4 -0.004058,-3.8434e-4 -0.004421,-2.4429e-4 -3.6257e-4,1.4005e-4 -8.357e-4,8.4256e-4 -0.001051,0.001561 -3.7553e-4,0.001251 -4.6754e-4,0.001289 -0.002171,8.8693e-4 -9.7813e-4,-2.3076e-4 -0.001906,-7.2489e-4 -0.002062,-0.001098 -1.6701e-4,-3.9915e-4 -0.001337,-8.558e-4 -0.002842,-0.001109 l -0.002558,-4.3057e-4 0.00172,-0.001452 c 9.4608e-4,-7.9843e-4 0.003683,-0.003111 0.006082,-0.005138 0.002399,-0.002028 0.006753,-0.005895 0.009675,-0.008594 0.004003,-0.003698 0.005621,-0.004893 0.006563,-0.004851 6.875e-4,3.101e-5 0.003553,6.975e-4 0.006367,0.001481 0.00779,0.002169 0.0170956,0.003479 0.0333207,0.004691 0.006539,4.8832e-4 0.024259,9.9168e-4 0.0350249,9.9492e-4 0.0108398,3.13e-6 0.015034,3.0098e-4 0.0195063,0.001385 8.2228e-4,1.9923e-4 0.001094,6.769e-5 0.001094,-5.2997e-4 0,-6.0582e-4 -8.5507e-4,-0.001003 -0.003594,-0.001671 -0.003394,-8.2719e-4 -0.004602,-8.8064e-4 -0.0217188,-9.6089e-4 -0.0251955,-1.1813e-4 -0.0410082,-0.001142 -0.0542612,-0.003513 -0.006031,-0.001079 -0.0147677,-0.003148 -0.0157075,-0.00372 C 0.45659803,0.77615546 0.45651908,0.77615215 0.455,0.77644038 Z m -0.008438,0.0239502 c -2.1245e-4,2.1484e-4 -6.6752e-4,3.9062e-4 -0.001011,3.9062e-4 -3.4375e-4,0 -4.5118e-4,-1.7578e-4 -2.3873e-4,-3.9062e-4 C 0.44552495,0.80017578 0.44598002,0.8 0.44632377,0.8 c 3.4375e-4,0 4.5118e-4,1.7578e-4 2.3873e-4,3.9063e-4 z M 0.33409375,0.78120921 c 0.001051,6.1898e-4 0.0126171,0.003154 0.0173026,0.003793 0.002498,3.4025e-4 0.009111,7.146e-4 0.0146974,8.3189e-4 0.008857,1.8597e-4 0.0101562,1.3664e-4 0.0101562,-3.8561e-4 0,-9.1495e-4 -0.001363,-0.001073 -0.00927,-0.001075 -0.008835,-1.95e-6 -0.0159984,-6.869e-4 -0.0240611,-0.002301 -0.005894,-0.00118 -0.0100535,-0.001587 -0.008825,-8.632e-4 z m -0.0286888,0.002272 c -6.4623e-4,0.002444 -4.4985e-4,0.008822 5.3268e-4,0.0172999 5.104e-4,0.004404 0.001067,0.008447 0.001238,0.008984 8.2213e-4,0.002593 0.001561,0.011957 0.001864,0.0236328 5.1419e-4,0.0198065 9.6484e-4,0.0269443 0.00201,0.0318359 0.001436,0.00672 0.001535,0.007031 0.002231,0.007031 6.4589e-4,0 5.192e-4,-0.001438 -8.0859e-4,-0.00918 -3.3164e-4,-0.001934 -7.5374e-4,-0.0101074 -9.3799e-4,-0.0181641 -3.7779e-4,-0.0165196 -0.001262,-0.0309858 -0.002126,-0.0347656 -9.8541e-4,-0.004313 -0.002595,-0.0199068 -0.002478,-0.0240062 1.128e-4,-0.003944 -7.7586e-4,-0.0055 -0.001524,-0.002669 z m 0.21906007,0.0112878 c -4.661e-4,3.2938e-4 -0.002928,0.001561 -0.005471,0.002736 -0.002925,0.001352 -0.004936,0.002604 -0.005474,0.003408 -4.6722e-4,6.9889e-4 -0.001591,0.001574 -0.002497,0.001945 -9.0628e-4,3.7113e-4 -0.001648,9.1296e-4 -0.001648,0.001204 0,2.9111e-4 -6.3281e-4,7.9764e-4 -0.001406,0.001126 -0.001094,4.64e-4 -0.001241,7.0326e-4 -6.6372e-4,0.001078 7.3471e-4,4.7672e-4 0.001149,2.4364e-4 0.010195,-0.005729 8.5937e-4,-5.6743e-4 0.00325,-0.00185 0.005313,-0.00285 0.002203,-0.001068 0.003832,-0.002175 0.00395,-0.002683 2.3226e-4,-0.001005 -0.001026,-0.001134 -0.002297,-2.3567e-4 z m -0.0621654,0.007488 c -8.9156e-4,0.001242 -0.001557,0.002775 -0.00148,0.003408 1.1979e-4,9.7409e-4 5.2202e-4,0.001222 0.002629,0.001619 0.005796,0.001092 0.008148,3.544e-4 0.009789,-0.003071 8.1263e-4,-0.001695 2.3725e-4,-0.002242 -0.00237,-0.002254 -7.2547e-4,-3.13e-6 -0.002355,-4.4544e-4 -0.003622,-9.8255e-4 C 0.4659806,0.80043945 0.46471414,0.8 0.46443259,0.8 c -2.8153e-4,0 -0.001241,0.001016 -0.002133,0.002258 z m 0.008181,0.002521 c -7.8811e-4,0.001413 -0.001631,0.001628 -0.005104,0.001302 l -0.002733,-2.5614e-4 4.9116e-4,-0.001361 c 8.4409e-4,-0.002339 0.001474,-0.002547 0.004947,-0.00163 0.002953,7.7975e-4 0.003018,8.325e-4 0.002398,0.001944 z m 0.0153206,-0.002188 c -0.001032,2.7238e-4 -0.004913,0.003643 -0.005452,0.004734 -6.6137e-4,0.00134 0.001213,0.001122 0.00212,-2.4708e-4 4.1043e-4,-6.1929e-4 0.001525,-0.001593 0.002478,-0.002163 0.001509,-9.0374e-4 0.002065,-0.001004 0.00433,-7.7721e-4 0.002726,2.7241e-4 0.003146,7.433e-4 0.00193,0.002163 -5.8997e-4,6.8897e-4 -0.001065,7.4928e-4 -0.004062,5.1524e-4 -0.002846,-2.2227e-4 -0.003394,-1.6617e-4 -0.003394,3.4753e-4 0,6.161e-4 0.003385,0.001424 0.005985,0.001428 0.001552,2.73e-6 0.003514,-0.001282 0.00461,-0.003018 0.001105,-0.00175 5.6791e-4,-0.002295 -0.002573,-0.002607 -0.00149,-1.481e-4 -0.003272,-3.3854e-4 -0.00396,-4.2319e-4 -6.875e-4,-8.465e-5 -0.001593,-6.346e-5 -0.002011,4.71e-5 z M 0.433125,0.82025764 c -0.004699,6.432e-4 -0.0147388,0.00336 -0.0165309,0.004474 -0.003026,0.00188 -0.007789,0.002732 -0.0149264,0.00267 -0.004654,-4.052e-5 -0.006082,6.449e-5 -0.005886,4.3277e-4 3.3269e-4,6.2505e-4 0.002921,9.6793e-4 0.007746,0.001026 0.005186,6.24e-5 0.0115242,-0.001195 0.0145028,-0.002877 0.001376,-7.7721e-4 0.004742,-0.001899 0.008242,-0.002747 0.005055,-0.001225 0.006875,-0.001463 0.0125121,-0.00164 0.00554,-1.7346e-4 0.007443,-6.727e-5 0.011875,6.6286e-4 0.006629,0.001092 0.009366,0.001402 0.0170649,0.001933 0.007672,5.2941e-4 0.008639,8.1138e-4 0.005884,0.001715 -0.001125,3.6929e-4 -0.003453,0.00118 -0.005171,0.001803 -0.001719,6.2218e-4 -0.004985,0.001751 -0.007259,0.002509 -0.005092,0.001697 -0.00974,0.004007 -0.01843,0.009163 -0.003687,0.002187 -0.006922,0.003977 -0.007188,0.003977 -8.0598e-4,0 -3.5798e-4,0.001729 5.6164e-4,0.002168 4.7267e-4,2.2543e-4 0.001376,0.001363 0.002007,0.002529 6.313e-4,0.001165 0.001451,0.002182 0.001821,0.002259 0.001174,2.4459e-4 7.1826e-4,-0.001606 -9.4325e-4,-0.003831 l -0.001605,-0.002148 0.00583,-0.003424 c 0.00942,-0.005533 0.0143582,-0.007869 0.0212323,-0.0100429 0.0189953,-0.006008 0.0188753,-0.007445 -7.1526e-4,-0.008564 -0.003623,-2.0699e-4 -0.008242,-7.4959e-4 -0.0103125,-0.001211 -0.004071,-9.0808e-4 -0.016153,-0.001405 -0.0203125,-8.3591e-4 z M 0.79401425,0.907999 c -0.001661,0.001585 -0.00216,0.003579 -0.002564,0.0102527 l -3.8375e-4,0.006338 -0.002117,-0.001162 c -0.002917,-0.001601 -0.005766,-0.001586 -0.007956,3.996e-5 -0.003604,0.002677 -8.8019e-4,0.005969 0.006132,0.007413 0.002768,5.6976e-4 0.003898,6.499e-4 0.004531,3.2133e-4 0.001228,-6.3695e-4 0.001033,-0.001213 -3.1981e-4,-9.4513e-4 -0.002872,5.6964e-4 -0.0100862,-0.002633 -0.0100862,-0.004477 0,-0.001005 0.002833,-0.002317 0.004437,-0.002055 0.001298,2.1212e-4 0.006188,0.00374 0.006188,0.004464 0,2.113e-4 4.6925e-4,3.2735e-4 0.001043,2.5789e-4 9.3306e-4,-1.1302e-4 0.00103,-8.6561e-4 9.1894e-4,-0.007158 -1.3594e-4,-0.007724 5.0431e-4,-0.0111651 0.002371,-0.012743 6.7394e-4,-5.6971e-4 0.001053,-0.001144 8.4219e-4,-0.001275 -8.0531e-4,-5.0333e-4 -0.00206,-2.0233e-4 -0.003036,7.2829e-4 z m 0.0273879,0.0148325 c -0.001,5.2607e-4 -0.002726,0.00202 -0.003835,0.00332 -0.001109,0.0013 -0.00221,0.002362 -0.002448,0.00236 -2.3769e-4,-1.96e-6 -9.4863e-4,-0.001039 -0.00158,-0.002305 -0.001478,-0.002964 -0.002605,-0.003942 -0.004545,-0.003942 -0.001214,0 -0.001772,3.2444e-4 -0.002521,0.001465 -8.2119e-4,0.00125 -0.003053,0.004317 -0.003838,0.005273 -1.3212e-4,1.6113e-4 2.1894e-4,2.9297e-4 7.8019e-4,2.9297e-4 6.5519e-4,0 0.001816,-0.001048 0.003244,-0.002927 0.001223,-0.00161 0.002446,-0.002841 0.002717,-0.002736 2.7131e-4,1.0481e-4 0.001273,0.001527 0.002226,0.00316 9.5293e-4,0.001633 0.002085,0.003054 0.002516,0.003157 0.001547,3.7115e-4 0.003331,-6.9751e-4 0.005659,-0.003391 0.001583,-0.001832 0.002945,-0.0029 0.004108,-0.003222 9.5662e-4,-2.6466e-4 0.001739,-7.0196e-4 0.001739,-9.7178e-4 0,-8.0767e-4 -0.002279,-5.5619e-4 -0.004223,4.6591e-4 z m 0.006436,0.001676 c -0.003202,0.002159 -0.00108,0.006742 0.003122,0.006742 0.001856,0 0.00279,-0.001028 0.00279,-0.003071 0,-0.001199 -3.6188e-4,-0.001738 -0.001563,-0.002328 -8.5938e-4,-4.2249e-4 -0.001563,-8.747e-4 -0.001563,-0.001005 0,-5.0178e-4 0.002662,-2.0103e-4 0.005099,5.7615e-4 0.003724,0.001187 0.004594,3.4661e-4 0.001002,-9.6896e-4 -0.003737,-0.001369 -0.006805,-0.00135 -0.008888,5.442e-5 z m 0.003287,0.002133 c 9.5625e-4,5.9767e-4 9.7756e-4,0.002913 3e-5,0.003279 -0.001057,4.083e-4 -0.002405,-9.678e-4 -0.002405,-0.002455 0,-0.001346 9.9013e-4,-0.001689 0.002375,-8.2378e-4 z m -0.0894706,-0.001616 c -9.015e-4,4.4321e-4 -0.001854,0.00132 -0.002116,0.001949 -5.2282e-4,0.001255 7.55e-5,0.0140159 8.3237e-4,0.0177525 2.6113e-4,0.001289 4.45e-4,0.002915 4.0863e-4,0.003613 -4.188e-5,7.9923e-4 2.3337e-4,0.00127 7.4231e-4,0.00127 4.4456e-4,0 0.003153,0.001131 0.00602,0.002513 0.004897,0.002362 0.006572,0.002831 0.005839,0.001638 -1.7263e-4,-2.8119e-4 -0.002141,-0.00135 -0.004374,-0.002375 -0.00397,-0.001822 -0.004039,-0.001884 -0.003096,-0.002783 0.001192,-0.001137 0.001203,-0.001338 6.862e-5,-0.001338 -4.9243e-4,0 -0.001083,3.6925e-4 -0.001312,8.2057e-4 -8.1262e-4,0.0016 -0.001665,5.041e-5 -0.002202,-0.004004 -2.9469e-4,-0.002224 -5.48e-4,-0.004985 -5.63e-4,-0.006136 -2.688e-5,-0.00208 -1.688e-5,-0.002091 0.001654,-0.001829 0.00228,3.5761e-4 0.006272,0.002387 0.007416,0.003769 0.001054,0.001274 0.002153,0.001488 0.002153,4.188e-4 0,-0.001631 -0.007202,-0.005539 -0.0102095,-0.005539 -0.002475,0 -0.002117,-0.007675 4.0487e-4,-0.008677 0.003434,-0.001365 0.014066,0.001973 0.0163441,0.00513 0.001252,0.001735 0.002211,0.002071 0.002211,7.746e-4 0,-0.002449 -0.004939,-0.00553 -0.0112759,-0.007035 -0.00404,-9.5945e-4 -0.006901,-9.3813e-4 -0.008945,6.667e-5 z m 0.0218873,-5.454e-4 c -2.2919e-4,1.4322e-4 -4.1669e-4,0.001819 -4.1669e-4,0.003723 0,0.00213 -3.4631e-4,0.003981 -8.9988e-4,0.004809 -5.81e-4,8.6904e-4 -6.77e-4,0.001432 -2.7093e-4,0.001589 3.4593e-4,1.3363e-4 7.1012e-4,1.8142e-4 8.0937e-4,1.062e-4 6.2631e-4,-4.7489e-4 0.002239,-0.00419 0.002251,-0.005187 1.312e-5,-0.001073 2.2875e-4,-9.323e-4 0.002031,0.001322 0.001109,0.001387 0.002492,0.002698 0.003074,0.002913 0.001498,5.5479e-4 0.003465,-6.6174e-4 0.004309,-0.002665 3.7031e-4,-8.7897e-4 0.001084,-0.001999 0.001586,-0.002488 5.0188e-4,-4.8947e-4 7.3232e-4,-0.001072 5.1207e-4,-0.001295 -6.5963e-4,-6.6703e-4 -0.002635,7.495e-4 -0.003795,0.002721 -5.8482e-4,9.942e-4 -0.001293,0.001971 -0.001573,0.002171 -5.435e-4,3.877e-4 -0.003611,-0.003538 -0.004939,-0.006321 -7.3544e-4,-0.001541 -0.00167,-0.00203 -0.002678,-0.0014 z m 0.085332,0.00209 c -0.002548,0.001709 -0.006069,0.0128423 -0.004744,0.0150001 6.3718e-4,0.001038 0.001665,7.0217e-4 0.001223,-3.9923e-4 -5.1968e-4,-0.001294 0.001377,-0.00685 0.002535,-0.007427 0.001123,-5.5989e-4 0.005735,-2.531e-4 0.007648,5.0876e-4 9.8207e-4,3.9099e-4 0.001681,4.5628e-4 0.002098,1.9586e-4 0.001081,-6.754e-4 -0.002521,-0.001776 -0.006385,-0.00195 l -0.003599,-1.627e-4 8.1625e-4,-0.001934 c 4.49e-4,-0.001064 0.001259,-0.002356 0.0018,-0.002872 0.001813,-0.001729 7.9794e-4,-0.002428 -0.001393,-9.5886e-4 z m 0.0131576,0.002434 c 1.4325e-4,2.6855e-4 6.5888e-4,4.9103e-4 0.001146,4.944e-4 6.2982e-4,4.34e-6 8.2494e-4,3.8884e-4 6.7588e-4,0.001332 -7.1882e-4,0.004547 0.006343,0.009365 0.008642,0.005896 9.2956e-4,-0.001403 4.5512e-4,-0.002825 -0.001596,-0.004784 -8.3844e-4,-8.0106e-4 -0.001524,-0.001694 -0.001524,-0.001984 0,-3.132e-4 -0.001288,-7.1304e-4 -0.003173,-9.8494e-4 -0.003996,-5.7648e-4 -0.004493,-5.7284e-4 -0.004171,3.055e-5 z m 0.007742,0.004089 c 9.4519e-4,0.001396 0.001144,0.003626 3.2313e-4,0.003626 -0.001718,0 -0.004564,-0.00399 -0.003991,-0.005596 2.4612e-4,-6.9035e-4 2.9506e-4,-6.9035e-4 0.001536,0 7.0475e-4,3.9219e-4 0.001664,0.001279 0.002133,0.00197 z M 0.816875,0.934375 c 0,2.1484e-4 4.445e-4,3.9063e-4 9.8775e-4,3.9063e-4 5.7213e-4,0 0.001401,6.5758e-4 0.00197,0.001562 6.6625e-4,0.00106 0.001364,0.001563 0.002171,0.001563 0.001432,0 0.005497,-0.00195 0.005497,-0.002637 0,-7.0771e-4 -5.27e-4,-6.0927e-4 -0.002614,4.8828e-4 -0.001021,5.3711e-4 -0.002089,9.7656e-4 -0.002372,9.7656e-4 -2.8343e-4,0 -0.001096,-6.1523e-4 -0.001806,-0.001367 -0.001207,-0.001279 -0.003833,-0.001948 -0.003833,-9.7656e-4 z"
           id="path4148"
           inkscape:connector-curvature="0" /><path
           style="fill:#2dd40d"
           d="m 0.36533287,0.72929687 c -0.005278,0.006529 -0.0129307,0.0101992 -0.0222378,0.0106655 -0.004698,2.354e-4 -0.007888,-3.6362e-4 -0.023095,-0.004336 -0.006748,-0.001763 -0.008537,-0.002544 -0.009867,-0.00431 -9.7629e-4,-0.001296 -0.003258,-0.002213 -0.003258,-0.00131 0,2.0672e-4 4.4176e-4,3.5145e-4 9.8168e-4,3.2161e-4 6.1743e-4,-3.414e-5 0.001303,5.1996e-4 0.001847,0.001493 4.7583e-4,8.5115e-4 0.001511,0.001859 0.0023,0.002239 0.00218,0.001051 0.0202744,0.005776 0.0248051,0.006477 0.006817,0.001055 0.0149305,-2.4087e-4 0.020644,-0.003297 0.003932,-0.002103 0.0104884,-0.008502 0.009869,-0.009632 -1.384e-4,-2.5251e-4 -0.001033,5.0769e-4 -0.001989,0.001689 z m 0.10051932,0.006152 c -0.008162,0.006121 -0.009864,0.007622 -0.0191583,0.0168945 -0.00473,0.004719 -0.009042,0.008599 -0.009842,0.008856 -7.8285e-4,2.5146e-4 -0.001758,9.5458e-4 -0.002168,0.001563 -4.0951e-4,6.0792e-4 -0.003778,0.00339 -0.007487,0.006183 -0.008105,0.006105 -0.0193151,0.0149931 -0.0290222,0.0230112 -0.003925,0.003242 -0.008707,0.007105 -0.010625,0.008583 -0.001918,0.001478 -0.004267,0.003316 -0.005218,0.004083 -9.5142e-4,7.6727e-4 -0.001968,0.001491 -0.00226,0.001609 -2.9131e-4,1.1775e-4 -7.1967e-4,5.6564e-4 -9.5191e-4,9.9533e-4 -2.3223e-4,4.2969e-4 -0.001815,0.001736 -0.003517,0.002903 l -0.003095,0.002122 -0.001587,-9.3193e-4 c -8.7294e-4,-5.1255e-4 -0.00332,-0.002434 -0.005439,-0.00427 -0.002118,-0.001836 -0.005063,-0.004214 -0.006543,-0.005285 -0.00148,-0.001071 -0.002691,-0.00205 -0.002691,-0.002176 0,-1.2637e-4 -0.003445,-0.002425 -0.007656,-0.005109 -0.006023,-0.003838 -0.008456,-0.005729 -0.0114063,-0.00886 -0.003672,-0.003899 -0.005351,-0.004892 -0.006771,-0.004005 -5.2674e-4,3.2921e-4 -3.7315e-4,4.9687e-4 6.0103e-4,6.5609e-4 7.1972e-4,1.1764e-4 0.001959,9.4684e-4 0.002754,0.001843 0.003231,0.003642 0.007637,0.007265 0.0124224,0.0102134 0.002781,0.001714 0.005056,0.00334 0.005056,0.003613 0,2.736e-4 2.2102e-4,4.9745e-4 4.9116e-4,4.9745e-4 6.2193e-4,0 0.006895,0.004762 0.0113214,0.008594 0.001861,0.001611 0.004479,0.003648 0.005817,0.004527 l 0.002433,0.001597 -0.005136,0.003029 c -0.005552,0.003274 -0.0117924,0.006475 -0.0160194,0.008216 -0.002989,0.001232 -0.00346,0.002163 -0.001094,0.002163 8.5938e-4,0 0.001563,-1.7027e-4 0.001563,-3.7837e-4 0,-2.0809e-4 -4.9219e-4,-2.7145e-4 -0.001094,-1.4077e-4 -6.0156e-4,1.3067e-4 5.9375e-4,-4.6213e-4 0.002656,-0.001317 0.004886,-0.002026 0.008216,-0.003775 0.0146045,-0.00767 l 0.00523,-0.003189 9.6754e-4,9.7656e-4 c 5.3215e-4,5.3711e-4 0.003106,0.002295 0.00572,0.003906 0.002614,0.001611 0.00645,0.004248 0.008525,0.005859 0.0142829,0.0110942 0.0165159,0.0129252 0.0165159,0.0135428 0,1.8496e-4 -0.001361,6.384e-4 -0.003024,0.001008 -0.00399,8.8574e-4 -0.007282,0.002576 -0.0121071,0.006216 -0.005868,0.004427 -0.007057,0.006096 -0.007052,0.009898 4.38e-6,0.002814 2.1772e-4,0.003371 0.002145,0.005597 0.003105,0.003587 0.009555,0.007494 0.0153036,0.00927 0.003844,0.001187 0.005623,0.001492 0.009868,0.001689 l 0.005179,2.4058e-4 0.00128,0.002344 c 0.001874,0.003432 0.00195,0.003537 0.002386,0.003287 3.4254e-4,-1.9615e-4 -8.3946e-4,-0.002702 -0.002446,-0.005187 -3.989e-4,-6.1682e-4 -2.6002e-4,-6.8678e-4 9.0472e-4,-4.5573e-4 0.002099,4.1631e-4 0.00666,3.2585e-4 0.009116,-1.8081e-4 0.002186,-4.5095e-4 0.00222,-4.4021e-4 0.005415,0.001745 0.003351,0.002291 0.006451,0.003593 0.007069,0.002968 1.9637e-4,-1.9859e-4 -1.3923e-4,-4.6065e-4 -7.4579e-4,-5.8235e-4 -0.001347,-2.7031e-4 -0.008727,-0.004372 -0.00829,-0.004607 0.001055,-5.6922e-4 0.007635,-0.00265 0.00838,-0.00265 4.945e-4,0 0.002164,6.0368e-4 0.003711,0.001341 0.004144,0.001977 0.006661,0.00272 0.007481,0.002207 4.8758e-4,-3.0474e-4 4.6337e-4,-4.2387e-4 -8.617e-5,-4.2387e-4 -4.204e-4,0 -0.003025,-8.2111e-4 -0.005789,-0.001825 l -0.005025,-0.001825 0.002444,-0.001398 c 0.00386,-0.002208 0.004706,-0.003571 0.004367,-0.007034 -4.6238e-4,-0.004714 -0.005293,-0.0101458 -0.0129779,-0.0145929 -0.002922,-0.001691 -0.004118,-0.00263 -0.003689,-0.002898 4.2847e-4,-2.6779e-4 6.489e-5,-3.9466e-4 -0.001122,-3.9155e-4 -9.6576e-4,2.34e-6 -0.004046,-6.4122e-4 -0.006844,-0.001431 -0.003182,-8.9756e-4 -0.006937,-0.001604 -0.0100254,-0.001885 l -0.004937,-4.4976e-4 -0.00185,-0.002262 c -0.002468,-0.003019 -0.015361,-0.0132028 -0.0220814,-0.0174425 -0.008365,-0.005277 -0.008339,-0.004572 -3.8991e-4,-0.0104994 0.003697,-0.002757 0.0112381,-0.008792 0.0167573,-0.0134109 0.0161055,-0.013479 0.0332888,-0.0266107 0.0351787,-0.0268841 4.8023e-4,-6.946e-5 8.7314e-4,-2.9957e-4 8.7314e-4,-5.1134e-4 0,-2.1178e-4 0.001674,-0.00176 0.00372,-0.003439 0.002046,-0.00168 0.007476,-0.006818 0.012067,-0.0114188 0.007234,-0.00725 0.0112331,-0.010823 0.0216165,-0.019317 0.00115,-9.4084e-4 0.001828,-0.001711 0.001507,-0.001711 -3.2127e-4,0 -0.003104,0.00189 -0.006183,0.004199 z m -0.0530271,0.10460831 c 0.004369,7.1122e-4 0.0109249,0.002485 0.0109249,0.002957 0,1.8113e-4 -0.001195,7.0455e-4 -0.002656,0.001163 -0.001461,4.586e-4 -0.003552,0.001253 -0.004646,0.001766 -0.002309,0.001081 -0.003323,0.00118 -0.003323,3.2296e-4 0,-3.3495e-4 -2.8125e-4,-5.0035e-4 -6.25e-4,-3.6757e-4 -9.2667e-4,3.5794e-4 -7.5726e-4,0.001643 2.4842e-4,0.001884 4.8039e-4,1.1522e-4 0.001816,-1.2802e-4 0.002969,-5.4052e-4 0.001152,-4.125e-4 0.003411,-0.001188 0.00502,-0.001723 0.001608,-5.3502e-4 0.003102,-0.001152 0.003318,-0.001371 0.001921,-0.001942 0.0126481,0.005104 0.0168836,0.0110897 0.003222,0.004553 0.002622,0.00783 -0.001942,0.0106023 -0.004004,0.002432 -0.009474,0.004327 -0.0108916,0.003774 -0.001093,-4.266e-4 -0.001855,-2.6395e-4 -0.001855,3.959e-4 0,1.9172e-4 3.2471e-4,2.2315e-4 7.2157e-4,6.986e-5 4.1636e-4,-1.6083e-4 5.5303e-4,-1.0829e-4 3.2312e-4,1.2421e-4 -5.2822e-4,5.3418e-4 -0.005378,0.00128 -0.008321,0.00128 -0.001826,0 -0.002182,-1.0416e-4 -0.001598,-4.6875e-4 0.001332,-8.3236e-4 7.9653e-4,-0.001131 -8.3201e-4,-4.639e-4 -8.701e-4,3.5632e-4 -0.001761,5.3615e-4 -0.001979,3.9963e-4 -2.1844e-4,-1.3652e-4 -6.904e-5,-2.4822e-4 3.32e-4,-2.4822e-4 4.0105e-4,0 7.2917e-4,-1.96e-4 7.2917e-4,-4.3556e-4 0,-2.5896e-4 -6.7332e-4,-1.5981e-4 -0.001661,2.4455e-4 -0.001322,5.4151e-4 -0.002437,6.308e-4 -0.005469,4.3822e-4 -0.008608,-5.4679e-4 -0.018956,-0.005336 -0.0233713,-0.010816 -0.004044,-0.00502 -0.002641,-0.008622 0.005796,-0.0148774 0.007193,-0.005333 0.012845,-0.006674 0.0219047,-0.005199 z m 0.0223761,0.0154067 c -0.003203,0.001148 -0.004609,0.001958 -0.0034,0.001958 3.4375e-4,0 8.0231e-4,-1.7932e-4 0.001019,-3.9848e-4 2.1671e-4,-2.1916e-4 0.001991,-9.1383e-4 0.003943,-0.001544 0.001952,-6.2988e-4 0.003127,-0.001152 0.002612,-0.00116 -5.1562e-4,-8.32e-6 -0.002394,5.0691e-4 -0.004174,0.001145 z m -0.0212949,0.004997 c -0.002729,6.554e-4 -0.00377,0.001523 -0.00125,0.001042 0.002519,-4.8078e-4 0.005469,-0.001302 0.005469,-0.001522 0,-3.5496e-4 -0.001409,-1.946e-4 -0.004219,4.8018e-4 z M 0.37519486,0.74697266 c 2.1267e-4,0.003491 5.5998e-4,0.006787 7.718e-4,0.007324 2.1182e-4,5.3711e-4 5.2989e-4,0.006865 7.0682e-4,0.0140625 1.7694e-4,0.007197 5.4118e-4,0.0137317 8.0943e-4,0.0145209 3.1585e-4,9.2925e-4 2.396e-4,0.0016 -2.1634e-4,0.001904 -5.3118e-4,3.5409e-4 -4.7386e-4,4.2521e-4 2.3343e-4,2.8964e-4 0.001577,-3.0233e-4 0.001203,-0.0196286 -6.513e-4,-0.0336352 -3.181e-4,-0.002403 -5.8294e-4,-0.005819 -5.8853e-4,-0.007591 -6.88e-6,-0.00217 -2.4561e-4,-0.003223 -7.3107e-4,-0.003223 -5.3083e-4,0 -6.1895e-4,0.001674 -3.3424e-4,0.006348 z m -0.0367292,0.001758 c 0.001146,0.001651 0.002163,0.00662 0.00254,0.0124023 3.1437e-4,0.004829 6.6745e-4,0.006605 0.001553,0.007813 8.529e-4,0.001163 0.001152,0.001344 0.001169,7.0665e-4 1.257e-5,-4.7072e-4 -2.5842e-4,-9.6449e-4 -6.0217e-4,-0.001097 -3.6113e-4,-1.3949e-4 -6.3642e-4,-0.002334 -6.5205e-4,-0.005199 -3.206e-5,-0.005876 -0.001323,-0.013232 -0.002536,-0.0144453 -0.001023,-0.001024 -0.002153,-0.001162 -0.001472,-1.8011e-4 z m 0.0130109,0.0223531 c -0.001766,3.9269e-4 -0.005704,8.2899e-4 -0.00875,9.6956e-4 -0.0210203,9.6986e-4 -0.029303,0.001586 -0.0307294,0.002287 -0.001238,6.0801e-4 -0.002169,0.001832 -0.001394,0.001832 3.5585e-4,0 6.4699e-4,-2.5748e-4 6.4699e-4,-5.7219e-4 0,-9.079e-4 0.00196,-0.001334 0.007257,-0.001577 0.002712,-1.2441e-4 0.007743,-3.8978e-4 0.0111802,-5.8969e-4 0.007268,-4.2272e-4 0.0159106,-8.5943e-4 0.0191136,-9.6586e-4 0.001231,-4.092e-5 0.002545,-1.9291e-4 0.00292,-3.3775e-4 0.001168,-4.5126e-4 0.007204,-0.001054 0.008326,-8.3105e-4 0.001126,2.2326e-4 0.002881,0.002392 0.002253,0.002784 -2.0194e-4,1.2622e-4 -0.002749,3.8036e-4 -0.00566,5.6479e-4 -0.002911,1.8441e-4 -0.00651,6.0754e-4 -0.007998,9.4028e-4 -0.003157,7.0595e-4 -0.0141275,0.001323 -0.0262556,0.001477 -0.0103309,1.3123e-4 -0.0105859,2.2302e-4 -0.0117292,0.004221 -6.642e-4,0.002323 -6.3448e-4,0.003485 1.8719e-4,0.00732 0.002277,0.0106244 0.002486,0.0128663 0.002637,0.028191 8.571e-5,0.008701 4.34e-4,0.0169629 7.7399e-4,0.0183594 0.003656,0.0150151 0.004049,0.0194873 0.002961,0.0336914 -1.439e-4,0.00188 -6.897e-5,0.003418 1.6653e-4,0.003418 5.0294e-4,0 4.8294e-4,1.4809e-4 0.001371,-0.0101563 7.2998e-4,-0.008466 6.2439e-4,-0.009612 -0.002014,-0.021875 -0.001072,-0.004982 -0.001387,-0.009237 -0.001781,-0.0240234 -4.5481e-4,-0.0171075 -9.538e-4,-0.0228174 -0.00243,-0.027809 -0.001177,-0.003979 -4.4779e-4,-0.00886 0.001473,-0.009856 4.0683e-4,-2.1102e-4 0.004805,-4.2044e-4 0.009774,-4.6537e-4 0.0131673,-1.1907e-4 0.0203406,-5.2744e-4 0.0252846,-0.001439 0.002406,-4.4386e-4 0.00626,-8.9604e-4 0.008563,-0.001005 0.006946,-3.2808e-4 0.008336,-0.001411 0.005155,-0.004018 -0.001459,-0.001196 -0.00187,-0.001304 -0.004844,-0.001278 -0.001787,1.571e-5 -0.004694,3.4983e-4 -0.00646,7.4252e-4 z m 0.10227342,0.006 c 0,6.1758e-4 -0.0119006,0.0117666 -0.0182065,0.0170567 -0.005008,0.004202 -0.004213,0.004027 -0.013356,0.002934 -0.002406,-2.8775e-4 -0.006125,-6.3423e-4 -0.008263,-7.6995e-4 l -0.003888,-2.4678e-4 -0.003134,0.002655 c -0.001724,0.00146 -0.003601,0.00327 -0.004171,0.004022 -5.7031e-4,7.5195e-4 -0.002315,0.002773 -0.003876,0.004492 -0.002407,0.002649 -0.004881,0.005547 -0.009171,0.0107422 -4.4354e-4,5.3711e-4 -9.8139e-4,0.001416 -0.001195,0.001953 -3.5407e-4,8.8931e-4 -3.1789e-4,9.1116e-4 4.0493e-4,2.4448e-4 0.002694,-0.002485 0.003856,-0.003702 0.005581,-0.005846 0.001064,-0.001323 0.003417,-0.003988 0.005228,-0.005922 0.001811,-0.001934 0.003714,-0.004131 0.00423,-0.004883 5.1583e-4,-7.5195e-4 0.002236,-0.002466 0.003822,-0.003809 0.002753,-0.002331 0.003005,-0.002441 0.005534,-0.002436 0.001457,3.12e-6 0.004337,2.4731e-4 0.006399,5.4254e-4 0.002063,2.9522e-4 0.005113,6.575e-4 0.006779,8.0508e-4 0.002761,2.4458e-4 0.002989,3.4344e-4 0.002576,0.001118 -2.4939e-4,4.6711e-4 -5.5235e-4,0.001728 -6.7327e-4,0.002802 -1.9702e-4,0.00175 -1.5321e-4,0.001831 4.2204e-4,7.8125e-4 3.5304e-4,-6.4453e-4 0.001101,-0.00175 0.001662,-0.002457 9.0153e-4,-0.001136 0.001233,-0.001256 0.002851,-0.001034 0.001007,1.3818e-4 0.002806,6.6495e-4 0.003998,0.001171 0.001192,5.0565e-4 0.002709,0.001027 0.00337,0.001158 0.001452,2.8802e-4 0.001481,5.7542e-4 2.4826e-4,0.00242 -8.5026e-4,0.001272 -8.5167e-4,0.001492 -1.287e-5,0.002016 8.3879e-4,5.2425e-4 0.001097,5.0027e-4 0.002361,-2.1959e-4 0.002173,-0.001237 0.00427,-0.001819 0.004973,-0.00138 3.3405e-4,2.0878e-4 8.768e-4,0.001148 0.001206,0.002087 3.2932e-4,9.3905e-4 7.6109e-4,0.002041 9.5949e-4,0.002449 3.121e-4,6.4142e-4 1.194e-4,7.0879e-4 -0.001429,4.998e-4 C 0.43136466,0.80765358 0.425,0.80703882 0.425,0.80771421 c 0,7.4821e-4 0.001611,0.001223 0.004082,0.001204 0.00215,-1.676e-5 0.0212004,0.002238 0.0222319,0.002631 2.0683e-4,7.887e-5 8.8507e-4,9.8411e-4 0.001507,0.002012 0.001754,0.002898 0.002712,0.003626 0.004765,0.003626 0.002389,0 0.003495,-0.001356 0.002525,-0.003095 -7.793e-4,-0.001397 -4.8369e-4,-0.001449 0.004758,-8.2722e-4 0.001741,2.0631e-4 0.008459,8.1827e-4 0.0149291,0.00136 0.00647,5.4165e-4 0.0161237,0.001426 0.0214519,0.001965 0.005328,5.3927e-4 0.0100391,9.8199e-4 0.0104688,9.8384e-4 4.2969e-4,1.95e-6 7.8125e-4,3.5492e-4 7.8125e-4,7.8461e-4 0,9.518e-4 9.7386e-4,0.00102 0.001776,1.2487e-4 5.5038e-4,-6.1467e-4 9.992e-4,-6.1445e-4 0.007062,3.51e-6 0.008538,8.7019e-4 0.009593,9.2031e-4 0.009633,4.5758e-4 3.675e-5,-4.2287e-4 -0.00384,-0.001112 -0.00871,-0.001548 -0.005983,-5.3581e-4 -0.006024,-6.6175e-4 -8.6896e-4,-0.00267 0.008514,-0.003317 0.0175275,-0.008107 0.0297015,-0.0157861 0.006617,-0.004174 0.0120312,-0.007753 0.0120312,-0.007953 0,-0.001281 -0.003505,5.6298e-4 -0.0143889,0.007571 -0.0105984,0.006824 -0.0162745,0.009898 -0.0268611,0.0145473 L 0.5140625,0.816538 0.50875,0.81609878 c -0.006667,-5.5119e-4 -0.0337412,-0.00299 -0.0425796,-0.003835 -0.003653,-3.4936e-4 -0.006926,-7.4679e-4 -0.007274,-8.8319e-4 -0.001078,-4.2332e-4 -0.002537,-0.003033 -0.003644,-0.006518 -5.8391e-4,-0.001838 -0.001589,-0.00376 -0.002233,-0.004272 -0.001189,-9.4468e-4 -0.00754,-0.002384 -0.008642,-0.001959 -3.1868e-4,1.231e-4 -7.6224e-4,8.3288e-4 -9.8568e-4,0.001577 -2.2344e-4,7.4441e-4 -6.747e-4,0.001353 -0.001003,0.001353 -0.001035,0 -0.003275,-8.6561e-4 -0.004703,-0.001817 -7.5702e-4,-5.0443e-4 -0.002093,-9.1715e-4 -0.002969,-9.1715e-4 -8.7578e-4,0 -0.001592,-1.4145e-4 -0.001592,-3.1434e-4 0,-3.563e-4 0.003913,-0.003858 0.008181,-0.00732 0.001578,-0.00128 0.005434,-0.004729 0.00857,-0.007666 0.003136,-0.002936 0.005943,-0.005432 0.006237,-0.005546 2.9408e-4,-1.136e-4 0.001991,2.1504e-4 0.00377,7.303e-4 0.0146723,0.004249 0.0317002,0.005939 0.0648043,0.006435 0.0155536,2.3272e-4 0.0208187,4.4276e-4 0.0236827,9.4474e-4 0.002025,3.5502e-4 0.003811,5.6501e-4 0.003969,4.6665e-4 6.2453e-4,-3.9033e-4 -6.0629e-4,-9.7128e-4 -0.003434,-0.001621 -0.002502,-5.747e-4 -0.006401,-7.2834e-4 -0.024843,-9.7913e-4 -0.0284467,-3.8683e-4 -0.0399318,-0.001266 -0.054375,-0.004164 -0.003781,-7.5856e-4 -0.008387,-0.001796 -0.010234,-0.002306 -0.003774,-0.001041 -0.005703,-0.001178 -0.005703,-4.0545e-4 z m -0.007186,0.0227751 c 8.3043e-4,1.9916e-4 8.7238e-4,3.1649e-4 2.0737e-4,5.7995e-4 -0.001232,4.8828e-4 -0.001771,4.141e-4 -0.001771,-2.435e-4 0,-6.6148e-4 1.0954e-4,-6.8504e-4 0.001564,-3.3626e-4 z M 0.33471875,0.78120226 c 0.001332,7.6948e-4 0.0133196,0.003208 0.018643,0.003792 0.003292,3.6136e-4 0.009133,6.24e-4 0.0138258,6.2169e-4 0.009937,-4.88e-6 0.009459,2.266e-5 0.008628,-4.9676e-4 -4.1408e-4,-2.588e-4 -0.004229,-4.7226e-4 -0.009656,-5.403e-4 -0.00981,-1.2299e-4 -0.015513,-7.0905e-4 -0.0245982,-0.002528 -0.00617,-0.001235 -0.007879,-0.001447 -0.006842,-8.4853e-4 z m -0.0293982,0.004288 c -2.39e-4,0.001687 -2.6103e-4,0.004544 -4.894e-5,0.006348 0.001141,0.009705 0.002316,0.0184602 0.002826,0.021053 5.6684e-4,0.002884 9.3388e-4,0.0104482 0.001611,0.0332031 3.3583e-4,0.0112852 0.001349,0.0200299 0.002795,0.0241211 8.2336e-4,0.00233 0.001618,0.002823 9.4359e-4,5.8594e-4 -8.9437e-4,-0.002966 -0.00203,-0.0133649 -0.002139,-0.0195961 -6.2e-5,-0.003527 -2.336e-4,-0.006535 -3.8133e-4,-0.006684 -1.4774e-4,-1.494e-4 -3.1535e-4,-0.005701 -3.7248e-4,-0.0123375 -1.0508e-4,-0.0122064 -2.9739e-4,-0.0146379 -0.00202,-0.0255424 -0.001318,-0.008344 -0.001986,-0.0154697 -0.001895,-0.0202149 4.237e-5,-0.002202 -1.3928e-4,-0.004004 -4.037e-4,-0.004004 -2.6443e-4,0 -6.7632e-4,0.001381 -9.1532e-4,0.003068 z m 0.21487711,0.011524 c -0.002813,0.00132 -0.005432,0.002859 -0.00582,0.003419 -3.88e-4,5.6028e-4 -0.001672,0.001703 -0.002853,0.002539 -0.003926,0.002779 -0.004131,0.002951 -0.003777,0.003173 5.2534e-4,3.2833e-4 0.006085,-0.002952 0.007877,-0.004648 8.5937e-4,-8.1318e-4 0.002828,-0.002032 0.004375,-0.002708 0.003292,-0.001439 0.006875,-0.003494 0.006875,-0.003943 0,-7.0207e-4 -0.001817,-1.1187e-4 -0.006677,0.002169 z m -0.0575731,0.005145 c -0.00147,0.001891 -0.001816,0.004265 -6.843e-4,0.004702 3.7964e-4,1.4664e-4 0.002488,3.5679e-4 0.004684,4.6699e-4 l 0.003994,2.0037e-4 0.001577,-0.002228 c 0.001668,-0.002357 0.001599,-0.002957 -3.3564e-4,-0.002957 -0.001481,0 -0.005609,-0.001203 -0.005609,-0.001635 0,-1.7505e-4 -5.0646e-4,-3.1827e-4 -0.001125,-3.1827e-4 -7.1576e-4,0 -0.001626,6.4369e-4 -0.0025,0.001768 z m 0.004392,1.834e-4 c 0.001126,4.2889e-4 0.002539,7.8045e-4 0.00314,7.8125e-4 0.001259,1.56e-6 0.001412,8.4693e-4 3.7519e-4,0.002078 -9.9371e-4,0.00118 -0.001648,0.00138 -0.003896,0.001191 -0.004184,-3.5235e-4 -0.004907,-5.3727e-4 -0.004196,-0.001073 3.7111e-4,-2.7947e-4 4.9136e-4,-6.2274e-4 2.6722e-4,-7.6282e-4 -3.3858e-4,-2.1162e-4 0.00162,-0.002994 0.002108,-0.002994 8.54e-5,0 0.001076,3.5091e-4 0.002202,7.7979e-4 z m 0.016924,0.00182 c -0.002207,0.00176 -0.003316,0.003005 -0.003313,0.003722 1.25e-6,2.8268e-4 5.2069e-4,-1.34e-5 0.001154,-6.5792e-4 0.002068,-0.002104 0.004979,-0.003785 0.00617,-0.003564 6.1106e-4,1.1358e-4 0.001884,3.2181e-4 0.00283,4.6272e-4 0.001898,2.8298e-4 0.002065,5.9276e-4 0.001,0.001857 -0.001041,0.001236 -0.001576,0.001358 -0.004482,0.00102 -0.001437,-1.6701e-4 -0.002869,-1.4766e-4 -0.003183,4.3e-5 -7.9291e-4,4.8177e-4 0.002292,0.001157 0.005286,0.001157 0.002221,0 0.002563,-1.4263e-4 0.003709,-0.001547 0.001463,-0.001793 0.001616,-0.002972 4.2318e-4,-0.003258 -4.6173e-4,-1.1073e-4 -0.002386,-3.2207e-4 -0.004275,-4.6964e-4 -0.003429,-2.6779e-4 -0.003439,-2.6545e-4 -0.00532,0.001234 z m -0.0565194,0.017468 c -0.007323,0.001628 -0.008465,0.001986 -0.0108596,0.0034 -0.002855,0.001686 -0.009434,0.002812 -0.015427,0.002642 -0.00722,-2.0493e-4 -0.006276,5.1469e-4 0.001392,0.001061 0.00454,3.2327e-4 0.0123724,-0.001186 0.0152729,-0.002943 0.00178,-0.001078 0.007615,-0.002741 0.014076,-0.004011 0.003984,-7.8318e-4 0.0153211,-4.4516e-4 0.0209947,6.2599e-4 0.002781,5.2512e-4 0.007281,0.001073 0.01,0.001217 0.005544,2.9448e-4 0.0121298,9.413e-4 0.0129978,0.001277 3.1494e-4,1.2164e-4 -2.77e-4,5.019e-4 -0.001315,8.45e-4 -0.00553,0.001827 -0.007539,0.00255 -0.00924,0.003326 -0.001031,4.7051e-4 -0.003448,0.001329 -0.005371,0.001907 -0.005741,0.001728 -0.024316,0.0121413 -0.024316,0.0136328 0,4.1173e-4 2.5765e-4,6.4909e-4 5.7256e-4,5.2745e-4 3.149e-4,-1.2164e-4 0.001182,9.2267e-4 0.001926,0.002321 7.4437e-4,0.001398 0.001631,0.002542 0.00197,0.002542 8.0256e-4,0 1.9778e-4,-0.001282 -0.001748,-0.003706 l -0.001564,-0.001948 0.005516,-0.003235 c 0.009044,-0.005304 0.014864,-0.00806 0.0216227,-0.0102399 0.003516,-0.001134 0.008165,-0.002769 0.0103308,-0.003634 0.006837,-0.00273 0.004575,-0.003873 -0.009094,-0.004592 -0.00425,-2.2373e-4 -0.008577,-7.1095e-4 -0.0109375,-0.001232 -0.003113,-6.8661e-4 -0.005619,-8.8772e-4 -0.0123435,-9.9081e-4 -0.008266,-1.2671e-4 -0.00856,-1.0212e-4 -0.0144543,0.001208 z m 0.36663633,0.0867187 c -0.001496,0.001427 -0.002174,0.004961 -0.002178,0.01134 l -6.25e-6,0.005822 -0.002218,-0.001427 c -0.001687,-0.001086 -0.002721,-0.001427 -0.004324,-0.001427 -0.002988,0 -0.003997,3.2505e-4 -0.005084,0.001638 -0.001328,0.001605 -6.2394e-4,0.003138 0.002165,0.004712 0.003473,0.001961 0.0100856,0.002896 0.0100856,0.001426 0,-3.3565e-4 -2.1694e-4,-3.382e-4 -8.4975e-4,-9.96e-6 -0.001072,5.5614e-4 -0.006151,-7.4354e-4 -0.008682,-0.002222 -0.003037,-0.001774 -0.001769,-0.004764 0.00202,-0.004764 0.001531,0 0.005931,0.00264 0.006602,0.003962 2.0268e-4,3.9911e-4 7.0112e-4,7.2558e-4 0.001108,7.2548e-4 5.4338e-4,-1.3e-7 7.4831e-4,-0.002095 7.7381e-4,-0.00791 3.563e-5,-0.008073 6.0319e-4,-0.0106967 0.00262,-0.0121092 8.8687e-4,-6.2103e-4 8.8287e-4,-6.8359e-4 -4.375e-5,-6.8359e-4 -5.6094e-4,0 -0.001457,4.1711e-4 -0.001992,9.2692e-4 z m 0.0300054,0.0138324 c -0.001933,2.5109e-4 -0.003966,0.00162 -0.006068,0.004084 -0.001055,0.001238 -0.002271,0.00225 -0.002701,0.00225 -4.3e-4,0 -0.00144,-0.001165 -0.002244,-0.002589 -0.001638,-0.002899 -0.003736,-0.004201 -0.005211,-0.003233 -4.5987e-4,3.0171e-4 -0.001584,0.001691 -0.002498,0.003088 -9.1394e-4,0.001396 -0.001816,0.002759 -0.002006,0.003027 -1.8925e-4,2.6856e-4 -9.45e-5,4.8829e-4 2.1044e-4,4.8829e-4 3.05e-4,0 0.00153,-0.001316 0.002723,-0.002925 0.001193,-0.001609 0.002477,-0.002927 0.002855,-0.00293 6.7694e-4,-4.57e-6 0.001798,0.001433 0.003495,0.004485 0.001535,0.002759 0.003804,0.002291 0.006784,-0.001399 0.001643,-0.002034 0.003848,-0.003554 0.005785,-0.003987 0.001161,-2.5977e-4 2.7807e-4,-5.4152e-4 -0.001125,-3.5922e-4 z m 0.00551,0.001635 c -0.001871,4.9153e-4 -0.002967,0.001893 -0.002754,0.003523 4.0381e-4,0.003085 0.003616,0.004822 0.005799,0.003136 0.002043,-0.001577 0.001062,-0.004494 -0.001654,-0.00492 -8.6919e-4,-1.3634e-4 -0.001425,-4.0492e-4 -0.001235,-5.9685e-4 5.4681e-4,-5.5294e-4 0.003906,-4.0623e-4 0.00597,2.6071e-4 0.002777,8.9768e-4 0.00364,4.6263e-4 0.001059,-5.3426e-4 -0.002669,-0.001031 -0.005339,-0.001354 -0.007186,-8.6871e-4 z m 0.001304,0.002475 c 0.001139,5.2035e-4 0.001687,0.003097 7.7943e-4,0.003664 -0.001381,8.6279e-4 -0.004186,-0.002152 -0.003318,-0.003566 4.5519e-4,-7.414e-4 0.001079,-7.6551e-4 0.002539,-9.815e-5 z M 0.744375,0.9245339 c -0.002211,2.0371e-4 -0.00429,0.001542 -0.004743,0.003054 -5.0275e-4,0.001675 8.46e-4,0.0179949 0.001628,0.0196989 3.9663e-4,8.6435e-4 3.8463e-4,0.001389 -3.5e-5,0.001552 -3.4912e-4,1.3485e-4 9.369e-5,4.5264e-4 9.8407e-4,7.0619e-4 8.9037e-4,2.5355e-4 0.003555,0.001427 0.005922,0.002607 0.002367,0.00118 0.004459,0.002146 0.004649,0.002146 0.001206,0 -2.26e-4,-9.7228e-4 -0.004025,-0.002733 -0.00418,-0.001937 -0.00433,-0.002062 -0.003437,-0.002858 5.1344e-4,-4.5816e-4 9.3356e-4,-0.001009 9.3356e-4,-0.001224 0,-2.1485e-4 -4.3781e-4,5e-8 -9.7294e-4,4.7754e-4 -0.002081,0.001857 -0.002453,0.001186 -0.003398,-0.006129 -4.2187e-4,-0.003267 -4.5562e-4,-0.005377 -8.956e-5,-0.005606 0.001495,-9.3462e-4 0.00793,0.001588 0.0100285,0.003931 3.2356e-4,3.6135e-4 7.4631e-4,5.5826e-4 9.3944e-4,4.3755e-4 1.9312e-4,-1.207e-4 -3.8638e-4,-9.3037e-4 -0.001288,-0.001799 -0.001955,-0.001884 -0.006038,-0.003639 -0.00847,-0.003639 l -0.00175,0 0,-0.004073 c 0,-0.003978 4e-5,-0.004093 0.001719,-0.004918 0.002099,-0.001032 0.00453,-8.7251e-4 0.0092,6.0411e-4 0.003947,0.001248 0.006744,0.002839 0.007805,0.004441 9.1838e-4,0.001386 0.002208,0.001662 0.001552,3.3293e-4 -0.001285,-0.002604 -0.00346,-0.004017 -0.008878,-0.005767 -0.003099,-0.001001 -0.006062,-0.001446 -0.008272,-0.001242 z m 0.0193601,0.00268 c -1.375e-5,0.002817 -2.9987e-4,0.004128 -0.001477,0.006771 l -4.3506e-4,9.7657e-4 9.25e-4,-9.7657e-4 c 5.0875e-4,-5.371e-4 0.001268,-0.002161 0.001687,-0.003609 l 7.6225e-4,-0.002632 0.001416,0.002178 c 0.003033,0.004664 0.004975,0.004832 0.007654,6.621e-4 0.002836,-0.004414 0.001551,-0.004492 -0.001455,-8.789e-5 -6.875e-4,0.001007 -0.001531,0.001897 -0.001875,0.001976 -7.4919e-4,1.7387e-4 -0.002454,-0.001928 -0.004428,-0.005458 -0.001998,-0.003574 -0.002756,-0.00352 -0.002775,1.9953e-4 z m 0.0843999,6.1849e-4 c -0.001676,0.002379 -0.004547,0.0114417 -0.004062,0.0128225 2.2081e-4,6.2831e-4 6.7025e-4,0.001142 9.9874e-4,0.001142 3.7638e-4,0 3.7288e-4,-2.6213e-4 -9.37e-6,-7.0851e-4 -3.9519e-4,-4.6153e-4 -3.8394e-4,-0.001313 3.25e-5,-0.002441 3.5131e-4,-9.5309e-4 7.5925e-4,-0.002124 9.0644e-4,-0.002602 7.6918e-4,-0.002497 0.001311,-0.002842 0.004452,-0.00284 0.001641,1.17e-6 0.0038,2.6814e-4 0.004796,5.9293e-4 9.9644e-4,3.2478e-4 0.001937,5.1244e-4 0.002089,4.1702e-4 7.0999e-4,-4.4374e-4 -0.003859,-0.001403 -0.006683,-0.001403 -0.001801,0 -0.003156,-1.7728e-4 -0.003156,-4.1296e-4 0,-9.4102e-4 0.001504,-0.004134 0.002285,-0.00485 0.001011,-9.2693e-4 0.00107,-0.001378 1.8032e-4,-0.001378 -3.6313e-4,0 -0.001187,7.4708e-4 -0.00183,0.00166 z m 0.0151954,0.001357 c 0.00139,1.3025e-4 0.001665,3.0571e-4 0.001287,8.2038e-4 -0.001382,0.001881 7.9838e-4,0.006094 0.003786,0.007317 0.001212,4.9645e-4 0.001784,5.2874e-4 0.002878,1.6265e-4 0.001177,-3.9362e-4 0.001327,-7.0791e-4 0.001086,-0.002274 -1.5513e-4,-0.001009 -9.8156e-4,-0.002512 -0.001858,-0.00338 -8.6806e-4,-8.5938e-4 -0.001565,-0.001738 -0.001548,-0.001953 3.438e-5,-4.4753e-4 -0.002769,-8.8991e-4 -0.005524,-8.7181e-4 l -0.001875,1.23e-5 0.001768,1.657e-4 z m 0.005375,0.002309 c 7.1262e-4,5.662e-4 0.001615,0.001696 0.002005,0.00251 0.001483,0.003094 -0.001329,0.003685 -0.003679,7.7257e-4 -0.00261,-0.003235 -0.001358,-0.005691 0.001674,-0.003282 z m -0.051526,0.002886 c -1.7732e-4,1.7931e-4 2.9093e-4,3.8253e-4 0.001041,4.5161e-4 9.1312e-4,8.413e-5 0.001601,5.69e-4 0.002084,0.001469 3.9631e-4,7.3899e-4 0.001002,0.001402 0.001345,0.001474 7.6606e-4,1.596e-4 0.006101,-0.002206 0.005633,-0.002498 -1.8407e-4,-1.1504e-4 -0.001124,1.3276e-4 -0.002089,5.5066e-4 -0.003195,0.001384 -0.003258,0.001383 -0.004341,-3.739e-5 -9.9981e-4,-0.00131 -0.003008,-0.002081 -0.003672,-0.00141 z"
           id="path4146"
           inkscape:connector-curvature="0" /><path
           style="fill:#111115"
           d="m 0.36533287,0.72929687 c -0.005278,0.006529 -0.0129307,0.0101992 -0.0222378,0.0106655 -0.004698,2.354e-4 -0.007888,-3.6362e-4 -0.023095,-0.004336 -0.006748,-0.001763 -0.008537,-0.002544 -0.009867,-0.00431 -9.7629e-4,-0.001296 -0.003258,-0.002213 -0.003258,-0.00131 0,2.0672e-4 4.4176e-4,3.5145e-4 9.8168e-4,3.2161e-4 6.1743e-4,-3.414e-5 0.001303,5.1996e-4 0.001847,0.001493 4.7583e-4,8.5115e-4 0.001511,0.001859 0.0023,0.002239 0.00218,0.001051 0.0202744,0.005776 0.0248051,0.006477 0.006817,0.001055 0.0149305,-2.4087e-4 0.020644,-0.003297 0.003932,-0.002103 0.0104884,-0.008502 0.009869,-0.009632 -1.384e-4,-2.5251e-4 -0.001033,5.0769e-4 -0.001989,0.001689 z m 0.10051932,0.006152 c -0.008162,0.006121 -0.009864,0.007622 -0.0191583,0.0168945 -0.00473,0.004719 -0.009042,0.008599 -0.009842,0.008856 -7.8285e-4,2.5146e-4 -0.001758,9.5458e-4 -0.002168,0.001563 -4.0951e-4,6.0792e-4 -0.003778,0.00339 -0.007487,0.006183 -0.008105,0.006105 -0.0193151,0.0149931 -0.0290222,0.0230112 -0.003925,0.003242 -0.008707,0.007105 -0.010625,0.008583 -0.001918,0.001478 -0.004267,0.003316 -0.005218,0.004083 -9.5142e-4,7.6727e-4 -0.001968,0.001491 -0.00226,0.001609 -2.9131e-4,1.1775e-4 -7.1967e-4,5.6564e-4 -9.5191e-4,9.9533e-4 -2.3223e-4,4.2969e-4 -0.001815,0.001736 -0.003517,0.002903 l -0.003095,0.002122 -0.001587,-9.3193e-4 c -8.7294e-4,-5.1255e-4 -0.00332,-0.002434 -0.005439,-0.00427 -0.002118,-0.001836 -0.005063,-0.004214 -0.006543,-0.005285 -0.00148,-0.001071 -0.002691,-0.00205 -0.002691,-0.002176 0,-1.2637e-4 -0.003445,-0.002425 -0.007656,-0.005109 -0.006023,-0.003838 -0.008456,-0.005729 -0.0114063,-0.00886 -0.003672,-0.003899 -0.005351,-0.004892 -0.006771,-0.004005 -5.2674e-4,3.2921e-4 -3.7315e-4,4.9687e-4 6.0103e-4,6.5609e-4 7.1972e-4,1.1764e-4 0.001959,9.4684e-4 0.002754,0.001843 0.003231,0.003642 0.007637,0.007265 0.0124224,0.0102134 0.002781,0.001714 0.005056,0.00334 0.005056,0.003613 0,2.736e-4 2.2102e-4,4.9745e-4 4.9116e-4,4.9745e-4 6.2193e-4,0 0.006895,0.004762 0.0113214,0.008594 0.001861,0.001611 0.004479,0.003648 0.005817,0.004527 l 0.002433,0.001597 -0.005136,0.003029 c -0.005552,0.003274 -0.0117924,0.006475 -0.0160194,0.008216 -0.002989,0.001232 -0.00346,0.002163 -0.001094,0.002163 8.5938e-4,0 0.001563,-1.7027e-4 0.001563,-3.7837e-4 0,-2.0809e-4 -4.9219e-4,-2.7145e-4 -0.001094,-1.4077e-4 -6.0156e-4,1.3067e-4 5.9375e-4,-4.6213e-4 0.002656,-0.001317 0.004886,-0.002026 0.008216,-0.003775 0.0146045,-0.00767 l 0.00523,-0.003189 9.6754e-4,9.7656e-4 c 5.3215e-4,5.3711e-4 0.003106,0.002295 0.00572,0.003906 0.002614,0.001611 0.00645,0.004248 0.008525,0.005859 0.0142829,0.0110942 0.0165159,0.0129252 0.0165159,0.0135428 0,1.8496e-4 -0.001361,6.384e-4 -0.003024,0.001008 -0.00399,8.8574e-4 -0.007282,0.002576 -0.0121071,0.006216 -0.005868,0.004427 -0.007057,0.006096 -0.007052,0.009898 4.38e-6,0.002814 2.1772e-4,0.003371 0.002145,0.005597 0.003105,0.003587 0.009555,0.007494 0.0153036,0.00927 0.003844,0.001187 0.005623,0.001492 0.009868,0.001689 l 0.005179,2.4058e-4 0.00128,0.002344 c 0.001874,0.003432 0.00195,0.003537 0.002386,0.003287 3.4254e-4,-1.9615e-4 -8.3946e-4,-0.002702 -0.002446,-0.005187 -3.989e-4,-6.1682e-4 -2.6002e-4,-6.8678e-4 9.0472e-4,-4.5573e-4 0.002099,4.1631e-4 0.00666,3.2585e-4 0.009116,-1.8081e-4 0.002186,-4.5095e-4 0.00222,-4.4021e-4 0.005415,0.001745 0.003351,0.002291 0.006451,0.003593 0.007069,0.002968 1.9637e-4,-1.9859e-4 -1.3923e-4,-4.6065e-4 -7.4579e-4,-5.8235e-4 -0.001347,-2.7031e-4 -0.008727,-0.004372 -0.00829,-0.004607 0.001055,-5.6922e-4 0.007635,-0.00265 0.00838,-0.00265 4.945e-4,0 0.002164,6.0368e-4 0.003711,0.001341 0.004144,0.001977 0.006661,0.00272 0.007481,0.002207 4.8758e-4,-3.0474e-4 4.6337e-4,-4.2387e-4 -8.617e-5,-4.2387e-4 -4.204e-4,0 -0.003025,-8.2111e-4 -0.005789,-0.001825 l -0.005025,-0.001825 0.002444,-0.001398 c 0.00386,-0.002208 0.004706,-0.003571 0.004367,-0.007034 -4.6238e-4,-0.004714 -0.005293,-0.0101458 -0.0129779,-0.0145929 -0.002922,-0.001691 -0.004118,-0.00263 -0.003689,-0.002898 4.2847e-4,-2.6779e-4 6.489e-5,-3.9466e-4 -0.001122,-3.9155e-4 -9.6576e-4,2.34e-6 -0.004046,-6.4122e-4 -0.006844,-0.001431 -0.003182,-8.9756e-4 -0.006937,-0.001604 -0.0100254,-0.001885 l -0.004937,-4.4976e-4 -0.00185,-0.002262 c -0.002468,-0.003019 -0.015361,-0.0132028 -0.0220814,-0.0174425 -0.008365,-0.005277 -0.008339,-0.004572 -3.8991e-4,-0.0104994 0.003697,-0.002757 0.0112381,-0.008792 0.0167573,-0.0134109 0.0161055,-0.013479 0.0332888,-0.0266107 0.0351787,-0.0268841 4.8023e-4,-6.946e-5 8.7314e-4,-2.9957e-4 8.7314e-4,-5.1134e-4 0,-2.1178e-4 0.001674,-0.00176 0.00372,-0.003439 0.002046,-0.00168 0.007476,-0.006818 0.012067,-0.0114188 0.007234,-0.00725 0.0112331,-0.010823 0.0216165,-0.019317 0.00115,-9.4084e-4 0.001828,-0.001711 0.001507,-0.001711 -3.2127e-4,0 -0.003104,0.00189 -0.006183,0.004199 z m -0.0530271,0.10460831 c 0.004369,7.1122e-4 0.0109249,0.002485 0.0109249,0.002957 0,1.8113e-4 -0.001195,7.0455e-4 -0.002656,0.001163 -0.001461,4.586e-4 -0.003552,0.001253 -0.004646,0.001766 -0.002309,0.001081 -0.003323,0.00118 -0.003323,3.2296e-4 0,-3.3495e-4 -2.8125e-4,-5.0035e-4 -6.25e-4,-3.6757e-4 -9.2667e-4,3.5794e-4 -7.5726e-4,0.001643 2.4842e-4,0.001884 4.8039e-4,1.1522e-4 0.001816,-1.2802e-4 0.002969,-5.4052e-4 0.001152,-4.125e-4 0.003411,-0.001188 0.00502,-0.001723 0.001608,-5.3502e-4 0.003102,-0.001152 0.003318,-0.001371 0.001921,-0.001942 0.0126481,0.005104 0.0168836,0.0110897 0.003222,0.004553 0.002622,0.00783 -0.001942,0.0106023 -0.004004,0.002432 -0.009474,0.004327 -0.0108916,0.003774 -0.001093,-4.266e-4 -0.001855,-2.6395e-4 -0.001855,3.959e-4 0,1.9172e-4 3.2471e-4,2.2315e-4 7.2157e-4,6.986e-5 4.1636e-4,-1.6083e-4 5.5303e-4,-1.0829e-4 3.2312e-4,1.2421e-4 -5.2822e-4,5.3418e-4 -0.005378,0.00128 -0.008321,0.00128 -0.001826,0 -0.002182,-1.0416e-4 -0.001598,-4.6875e-4 0.001332,-8.3236e-4 7.9653e-4,-0.001131 -8.3201e-4,-4.639e-4 -8.701e-4,3.5632e-4 -0.001761,5.3615e-4 -0.001979,3.9963e-4 -2.1844e-4,-1.3652e-4 -6.904e-5,-2.4822e-4 3.32e-4,-2.4822e-4 4.0105e-4,0 7.2917e-4,-1.96e-4 7.2917e-4,-4.3556e-4 0,-2.5896e-4 -6.7332e-4,-1.5981e-4 -0.001661,2.4455e-4 -0.001322,5.4151e-4 -0.002437,6.308e-4 -0.005469,4.3822e-4 -0.008608,-5.4679e-4 -0.018956,-0.005336 -0.0233713,-0.010816 -0.004044,-0.00502 -0.002641,-0.008622 0.005796,-0.0148774 0.007193,-0.005333 0.012845,-0.006674 0.0219047,-0.005199 z m 0.0223761,0.0154067 c -0.003203,0.001148 -0.004609,0.001958 -0.0034,0.001958 3.4375e-4,0 8.0231e-4,-1.7932e-4 0.001019,-3.9848e-4 2.1671e-4,-2.1916e-4 0.001991,-9.1383e-4 0.003943,-0.001544 0.001952,-6.2988e-4 0.003127,-0.001152 0.002612,-0.00116 -5.1562e-4,-8.32e-6 -0.002394,5.0691e-4 -0.004174,0.001145 z m -0.0212949,0.004997 c -0.002729,6.554e-4 -0.00377,0.001523 -0.00125,0.001042 0.002519,-4.8078e-4 0.005469,-0.001302 0.005469,-0.001522 0,-3.5496e-4 -0.001409,-1.946e-4 -0.004219,4.8018e-4 z M 0.37519486,0.74697266 c 2.1267e-4,0.003491 5.5998e-4,0.006787 7.718e-4,0.007324 2.1182e-4,5.3711e-4 5.2989e-4,0.006865 7.0682e-4,0.0140625 1.7694e-4,0.007197 5.4118e-4,0.0137317 8.0943e-4,0.0145209 3.1585e-4,9.2925e-4 2.396e-4,0.0016 -2.1634e-4,0.001904 -5.3118e-4,3.5409e-4 -4.7386e-4,4.2521e-4 2.3343e-4,2.8964e-4 0.001577,-3.0233e-4 0.001203,-0.0196286 -6.513e-4,-0.0336352 -3.181e-4,-0.002403 -5.8294e-4,-0.005819 -5.8853e-4,-0.007591 -6.88e-6,-0.00217 -2.4561e-4,-0.003223 -7.3107e-4,-0.003223 -5.3083e-4,0 -6.1895e-4,0.001674 -3.3424e-4,0.006348 z m -0.0367292,0.001758 c 0.001146,0.001651 0.002163,0.00662 0.00254,0.0124023 3.1437e-4,0.004829 6.6745e-4,0.006605 0.001553,0.007813 8.529e-4,0.001163 0.001152,0.001344 0.001169,7.0665e-4 1.257e-5,-4.7072e-4 -2.5842e-4,-9.6449e-4 -6.0217e-4,-0.001097 -3.6113e-4,-1.3949e-4 -6.3642e-4,-0.002334 -6.5205e-4,-0.005199 -3.206e-5,-0.005876 -0.001323,-0.013232 -0.002536,-0.0144453 -0.001023,-0.001024 -0.002153,-0.001162 -0.001472,-1.8011e-4 z m 0.0130109,0.0223531 c -0.001766,3.9269e-4 -0.005704,8.2899e-4 -0.00875,9.6956e-4 -0.0210203,9.6986e-4 -0.029303,0.001586 -0.0307294,0.002287 -0.001238,6.0801e-4 -0.002169,0.001832 -0.001394,0.001832 3.5585e-4,0 6.4699e-4,-2.5748e-4 6.4699e-4,-5.7219e-4 0,-9.079e-4 0.00196,-0.001334 0.007257,-0.001577 0.002712,-1.2441e-4 0.007743,-3.8978e-4 0.0111802,-5.8969e-4 0.007268,-4.2272e-4 0.0159106,-8.5943e-4 0.0191136,-9.6586e-4 0.001231,-4.092e-5 0.002545,-1.9291e-4 0.00292,-3.3775e-4 0.001168,-4.5126e-4 0.007204,-0.001054 0.008326,-8.3105e-4 0.001126,2.2326e-4 0.002881,0.002392 0.002253,0.002784 -2.0194e-4,1.2622e-4 -0.002749,3.8036e-4 -0.00566,5.6479e-4 -0.002911,1.8441e-4 -0.00651,6.0754e-4 -0.007998,9.4028e-4 -0.003157,7.0595e-4 -0.0141275,0.001323 -0.0262556,0.001477 -0.0103309,1.3123e-4 -0.0105859,2.2302e-4 -0.0117292,0.004221 -6.642e-4,0.002323 -6.3448e-4,0.003485 1.8719e-4,0.00732 0.002277,0.0106244 0.002486,0.0128663 0.002637,0.028191 8.571e-5,0.008701 4.34e-4,0.0169629 7.7399e-4,0.0183594 0.003656,0.0150151 0.004049,0.0194873 0.002961,0.0336914 -1.439e-4,0.00188 -6.897e-5,0.003418 1.6653e-4,0.003418 5.0294e-4,0 4.8294e-4,1.4809e-4 0.001371,-0.0101563 7.2998e-4,-0.008466 6.2439e-4,-0.009612 -0.002014,-0.021875 -0.001072,-0.004982 -0.001387,-0.009237 -0.001781,-0.0240234 -4.5481e-4,-0.0171075 -9.538e-4,-0.0228174 -0.00243,-0.027809 -0.001177,-0.003979 -4.4779e-4,-0.00886 0.001473,-0.009856 4.0683e-4,-2.1102e-4 0.004805,-4.2044e-4 0.009774,-4.6537e-4 0.0131673,-1.1907e-4 0.0203406,-5.2744e-4 0.0252846,-0.001439 0.002406,-4.4386e-4 0.00626,-8.9604e-4 0.008563,-0.001005 0.006946,-3.2808e-4 0.008336,-0.001411 0.005155,-0.004018 -0.001459,-0.001196 -0.00187,-0.001304 -0.004844,-0.001278 -0.001787,1.571e-5 -0.004694,3.4983e-4 -0.00646,7.4252e-4 z m 0.10227342,0.006 c 0,6.1758e-4 -0.0119006,0.0117666 -0.0182065,0.0170567 -0.005008,0.004202 -0.004213,0.004027 -0.013356,0.002934 -0.002406,-2.8775e-4 -0.006125,-6.3423e-4 -0.008263,-7.6995e-4 l -0.003888,-2.4678e-4 -0.003134,0.002655 c -0.001724,0.00146 -0.003601,0.00327 -0.004171,0.004022 -5.7031e-4,7.5195e-4 -0.002315,0.002773 -0.003876,0.004492 -0.002407,0.002649 -0.004881,0.005547 -0.009171,0.0107422 -4.4354e-4,5.3711e-4 -9.8139e-4,0.001416 -0.001195,0.001953 -3.5407e-4,8.8931e-4 -3.1789e-4,9.1116e-4 4.0493e-4,2.4448e-4 0.002694,-0.002485 0.003856,-0.003702 0.005581,-0.005846 0.001064,-0.001323 0.003417,-0.003988 0.005228,-0.005922 0.001811,-0.001934 0.003714,-0.004131 0.00423,-0.004883 5.1583e-4,-7.5195e-4 0.002236,-0.002466 0.003822,-0.003809 0.002753,-0.002331 0.003005,-0.002441 0.005534,-0.002436 0.001457,3.12e-6 0.004337,2.4731e-4 0.006399,5.4254e-4 0.002063,2.9522e-4 0.005113,6.575e-4 0.006779,8.0508e-4 0.002761,2.4458e-4 0.002989,3.4344e-4 0.002576,0.001118 -2.4939e-4,4.6711e-4 -5.5235e-4,0.001728 -6.7327e-4,0.002802 -1.9702e-4,0.00175 -1.5321e-4,0.001831 4.2204e-4,7.8125e-4 3.5304e-4,-6.4453e-4 0.001101,-0.00175 0.001662,-0.002457 9.1318e-4,-0.00115 0.001222,-0.001258 0.00294,-0.001031 0.001056,1.3995e-4 0.002341,4.7737e-4 0.002857,7.4981e-4 5.1563e-4,2.7245e-4 0.001922,8.0476e-4 0.003125,0.001183 0.001203,3.7815e-4 0.002361,8.5504e-4 0.002573,0.00106 4.6232e-4,4.4687e-4 0.003052,-0.001721 0.003052,-0.002555 0,-5.6082e-4 0.002331,-5.9271e-4 0.006407,-8.768e-5 6.0204e-4,7.458e-5 9.484e-4,-1.227e-5 7.697e-4,-1.9297e-4 -4.6411e-4,-4.6934e-4 -0.007106,-0.001625 -0.007799,-0.001357 -3.1868e-4,1.231e-4 -7.6224e-4,8.3288e-4 -9.8568e-4,0.001577 -2.2344e-4,7.4441e-4 -6.747e-4,0.001353 -0.001003,0.001353 -0.001035,0 -0.003275,-8.6561e-4 -0.004703,-0.001817 -7.5702e-4,-5.0443e-4 -0.002093,-9.1715e-4 -0.002969,-9.1715e-4 -8.7578e-4,0 -0.001592,-1.4145e-4 -0.001592,-3.1434e-4 0,-3.563e-4 0.003913,-0.003858 0.008181,-0.00732 0.001578,-0.00128 0.005434,-0.004729 0.00857,-0.007666 0.003136,-0.002936 0.005943,-0.005432 0.006237,-0.005546 2.9408e-4,-1.136e-4 0.001991,2.1504e-4 0.00377,7.303e-4 0.0146723,0.004249 0.0317002,0.005939 0.0648043,0.006435 0.0155536,2.3272e-4 0.0208187,4.4276e-4 0.0236827,9.4474e-4 0.002025,3.5502e-4 0.003811,5.6501e-4 0.003969,4.6665e-4 6.2453e-4,-3.9033e-4 -6.0629e-4,-9.7128e-4 -0.003434,-0.001621 -0.002502,-5.747e-4 -0.006401,-7.2834e-4 -0.024843,-9.7913e-4 -0.0284467,-3.8683e-4 -0.0399318,-0.001266 -0.054375,-0.004164 -0.003781,-7.5856e-4 -0.008387,-0.001796 -0.010234,-0.002306 -0.003774,-0.001041 -0.005703,-0.001178 -0.005703,-4.0545e-4 z m -0.11903125,0.004118 c 0.001332,7.6948e-4 0.0133196,0.003208 0.018643,0.003792 0.003292,3.6136e-4 0.009133,6.24e-4 0.0138258,6.2169e-4 0.009937,-4.88e-6 0.009459,2.266e-5 0.008628,-4.9676e-4 -4.1408e-4,-2.588e-4 -0.004229,-4.7226e-4 -0.009656,-5.403e-4 -0.00981,-1.2299e-4 -0.015513,-7.0905e-4 -0.0245982,-0.002528 -0.00617,-0.001235 -0.007879,-0.001447 -0.006842,-8.4853e-4 z m -0.0293982,0.004288 c -2.39e-4,0.001687 -2.6103e-4,0.004544 -4.894e-5,0.006348 0.001141,0.009705 0.002316,0.0184602 0.002826,0.021053 5.6684e-4,0.002884 9.3388e-4,0.0104482 0.001611,0.0332031 3.3583e-4,0.0112852 0.001349,0.0200299 0.002795,0.0241211 8.2336e-4,0.00233 0.001618,0.002823 9.4359e-4,5.8594e-4 -8.9437e-4,-0.002966 -0.00203,-0.0133649 -0.002139,-0.0195961 -6.2e-5,-0.003527 -2.336e-4,-0.006535 -3.8133e-4,-0.006684 -1.4774e-4,-1.494e-4 -3.1535e-4,-0.005701 -3.7248e-4,-0.0123375 -1.0508e-4,-0.0122064 -2.9739e-4,-0.0146379 -0.00202,-0.0255424 -0.001318,-0.008344 -0.001986,-0.0154697 -0.001895,-0.0202149 4.237e-5,-0.002202 -1.3928e-4,-0.004004 -4.037e-4,-0.004004 -2.6443e-4,0 -6.7632e-4,0.001381 -9.1532e-4,0.003068 z m 0.25456427,0.006209 c -0.001189,5.9082e-4 -0.006206,0.003678 -0.0111487,0.00686 -0.0106008,0.006825 -0.0162779,0.0099 -0.0268599,0.0145457 l -0.007811,0.00343 -0.005001,-4.0972e-4 c -0.009581,-7.8493e-4 -0.0369234,-0.003265 -0.0436188,-0.003957 -0.005984,-6.1816e-4 -0.006722,-6.2896e-4 -0.006557,-9.602e-5 2.1191e-4,6.877e-4 0.003362,0.00107 0.0211125,0.002565 0.006359,5.3545e-4 0.0159219,0.001415 0.02125,0.001954 0.005328,5.3927e-4 0.0100391,9.8199e-4 0.0104688,9.8384e-4 4.2969e-4,1.95e-6 7.8125e-4,3.5492e-4 7.8125e-4,7.8461e-4 0,9.518e-4 9.7386e-4,0.00102 0.001776,1.2487e-4 5.5038e-4,-6.1467e-4 9.992e-4,-6.1445e-4 0.007062,3.51e-6 0.008538,8.7019e-4 0.009593,9.2031e-4 0.009633,4.5758e-4 3.675e-5,-4.2287e-4 -0.00384,-0.001112 -0.00871,-0.001548 -0.005983,-5.3581e-4 -0.006024,-6.6175e-4 -8.6896e-4,-0.00267 0.008514,-0.003317 0.0175275,-0.008107 0.0297015,-0.0157861 0.006617,-0.004174 0.0120312,-0.007753 0.0120312,-0.007953 0,-6.2294e-4 -9.9588e-4,-4.0457e-4 -0.00324,7.1052e-4 z m -0.0396872,0.005315 c -0.002813,0.00132 -0.005432,0.002859 -0.00582,0.003419 -3.88e-4,5.6028e-4 -0.001672,0.001703 -0.002853,0.002539 -0.003926,0.002779 -0.004131,0.002951 -0.003777,0.003173 5.2534e-4,3.2833e-4 0.006085,-0.002952 0.007877,-0.004648 8.5937e-4,-8.1318e-4 0.002828,-0.002032 0.004375,-0.002708 0.003292,-0.001439 0.006875,-0.003494 0.006875,-0.003943 0,-7.0207e-4 -0.001817,-1.1187e-4 -0.006677,0.002169 z m -0.0575731,0.005145 c -0.00147,0.001891 -0.001816,0.004265 -6.843e-4,0.004702 3.7964e-4,1.4664e-4 0.002488,3.5679e-4 0.004684,4.6699e-4 l 0.003994,2.0037e-4 0.001577,-0.002228 c 0.001668,-0.002357 0.001599,-0.002957 -3.3564e-4,-0.002957 -0.001481,0 -0.005609,-0.001203 -0.005609,-0.001635 0,-1.7505e-4 -5.0646e-4,-3.1827e-4 -0.001125,-3.1827e-4 -7.1576e-4,0 -0.001626,6.4369e-4 -0.0025,0.001768 z m 0.004392,1.834e-4 c 0.001126,4.2889e-4 0.002539,7.8045e-4 0.00314,7.8125e-4 0.001259,1.56e-6 0.001412,8.4693e-4 3.7519e-4,0.002078 -9.9371e-4,0.00118 -0.001648,0.00138 -0.003896,0.001191 -0.004184,-3.5235e-4 -0.004907,-5.3727e-4 -0.004196,-0.001073 3.7111e-4,-2.7947e-4 4.9136e-4,-6.2274e-4 2.6722e-4,-7.6282e-4 -3.3858e-4,-2.1162e-4 0.00162,-0.002994 0.002108,-0.002994 8.54e-5,0 0.001076,3.5091e-4 0.002202,7.7979e-4 z m 0.016924,0.00182 c -0.002207,0.00176 -0.003316,0.003005 -0.003313,0.003722 1.25e-6,2.8268e-4 5.2069e-4,-1.34e-5 0.001154,-6.5792e-4 0.002068,-0.002104 0.004979,-0.003785 0.00617,-0.003564 6.1106e-4,1.1358e-4 0.001884,3.2181e-4 0.00283,4.6272e-4 0.001898,2.8298e-4 0.002065,5.9276e-4 0.001,0.001857 -0.001041,0.001236 -0.001576,0.001358 -0.004482,0.00102 -0.001437,-1.6701e-4 -0.002869,-1.4766e-4 -0.003183,4.3e-5 -7.9291e-4,4.8177e-4 0.002292,0.001157 0.005286,0.001157 0.002221,0 0.002563,-1.4263e-4 0.003709,-0.001547 0.001463,-0.001793 0.001616,-0.002972 4.2318e-4,-0.003258 -4.6173e-4,-1.1073e-4 -0.002386,-3.2207e-4 -0.004275,-4.6964e-4 -0.003429,-2.6779e-4 -0.003439,-2.6545e-4 -0.00532,0.001234 z M 0.425,0.80771421 c 0,7.4821e-4 0.001611,0.001223 0.004082,0.001204 0.001364,-1.066e-5 0.006797,5.3979e-4 0.0120715,0.001223 0.005275,6.834e-4 0.009733,0.001154 0.009906,0.001045 6.0225e-4,-3.764e-4 -4.1725e-4,-9.3084e-4 -0.00214,-0.001164 C 0.43153548,0.80767138 0.425,0.80704057 0.425,0.80771421 Z m 0.002421,0.0139158 c -0.007323,0.001628 -0.008465,0.001986 -0.0108596,0.0034 -0.002855,0.001686 -0.009434,0.002812 -0.015427,0.002642 -0.00722,-2.0493e-4 -0.006276,5.1469e-4 0.001392,0.001061 0.00454,3.2327e-4 0.0123724,-0.001186 0.0152729,-0.002943 0.00178,-0.001078 0.007615,-0.002741 0.014076,-0.004011 0.003984,-7.8318e-4 0.0153211,-4.4516e-4 0.0209947,6.2599e-4 0.002781,5.2512e-4 0.007281,0.001073 0.01,0.001217 0.005544,2.9448e-4 0.0121298,9.413e-4 0.0129978,0.001277 3.1494e-4,1.2164e-4 -2.77e-4,5.019e-4 -0.001315,8.45e-4 -0.00553,0.001827 -0.007539,0.00255 -0.00924,0.003326 -0.001031,4.7051e-4 -0.003448,0.001329 -0.005371,0.001907 -0.005741,0.001728 -0.024316,0.0121413 -0.024316,0.0136328 0,4.1173e-4 2.5765e-4,6.4909e-4 5.7256e-4,5.2745e-4 3.149e-4,-1.2164e-4 0.001182,9.2267e-4 0.001926,0.002321 7.4437e-4,0.001398 0.001631,0.002542 0.00197,0.002542 8.0256e-4,0 1.9778e-4,-0.001282 -0.001748,-0.003706 l -0.001564,-0.001948 0.005516,-0.003235 c 0.009044,-0.005304 0.014864,-0.00806 0.0216227,-0.0102399 0.003516,-0.001134 0.008165,-0.002769 0.0103308,-0.003634 0.006837,-0.00273 0.004575,-0.003873 -0.009094,-0.004592 -0.00425,-2.2373e-4 -0.008577,-7.1095e-4 -0.0109375,-0.001232 -0.003113,-6.8661e-4 -0.005619,-8.8772e-4 -0.0123435,-9.9081e-4 -0.008266,-1.2671e-4 -0.00856,-1.0212e-4 -0.0144543,0.001208 z m 0.36663633,0.0867187 c -0.001496,0.001427 -0.002174,0.004961 -0.002178,0.01134 l -6.25e-6,0.005822 -0.002218,-0.001427 c -0.001687,-0.001086 -0.002721,-0.001427 -0.004324,-0.001427 -0.002989,0 -0.003997,3.2505e-4 -0.005084,0.001638 -0.001328,0.001605 -6.2393e-4,0.003138 0.002165,0.004712 0.003473,0.001961 0.0100856,0.002896 0.0100856,0.001426 0,-3.3565e-4 -2.1693e-4,-3.382e-4 -8.4975e-4,-9.96e-6 -0.001072,5.5614e-4 -0.006151,-7.4354e-4 -0.008682,-0.002222 -0.003037,-0.001774 -0.001769,-0.004764 0.00202,-0.004764 0.001531,0 0.005931,0.00264 0.006602,0.003962 2.0269e-4,3.9911e-4 7.0113e-4,7.2558e-4 0.001108,7.2548e-4 5.4337e-4,-1.3e-7 7.4831e-4,-0.002095 7.7381e-4,-0.00791 3.563e-5,-0.008073 6.0319e-4,-0.0106967 0.00262,-0.0121092 8.8687e-4,-6.2103e-4 8.8287e-4,-6.8359e-4 -4.375e-5,-6.8359e-4 -5.6094e-4,0 -0.001457,4.1711e-4 -0.001992,9.2692e-4 z m 0.0300054,0.0138324 c -0.001933,2.5109e-4 -0.003966,0.00162 -0.006068,0.004084 -0.001055,0.001238 -0.002271,0.00225 -0.002701,0.00225 -4.3e-4,0 -0.00144,-0.001165 -0.002244,-0.002589 -0.001638,-0.002899 -0.003736,-0.004201 -0.005211,-0.003233 -4.5987e-4,3.0171e-4 -0.001584,0.001691 -0.002498,0.003088 -9.1394e-4,0.001396 -0.001816,0.002759 -0.002006,0.003027 -1.8925e-4,2.6856e-4 -9.45e-5,4.8829e-4 2.1044e-4,4.8829e-4 3.05e-4,0 0.00153,-0.001316 0.002723,-0.002925 0.001193,-0.001609 0.002477,-0.002927 0.002855,-0.00293 6.7694e-4,-4.57e-6 0.001798,0.001433 0.003495,0.004485 0.001535,0.002759 0.003804,0.002291 0.006784,-0.001399 0.001643,-0.002034 0.003848,-0.003554 0.005785,-0.003987 0.001161,-2.5977e-4 2.7807e-4,-5.4152e-4 -0.001125,-3.5922e-4 z m 0.00551,0.001635 c -0.001871,4.9153e-4 -0.002967,0.001893 -0.002754,0.003523 4.0381e-4,0.003085 0.003616,0.004822 0.005799,0.003136 0.002043,-0.001577 0.001062,-0.004494 -0.001654,-0.00492 -8.6919e-4,-1.3634e-4 -0.001425,-4.0492e-4 -0.001235,-5.9685e-4 5.4681e-4,-5.5294e-4 0.003906,-4.0623e-4 0.00597,2.6071e-4 0.002777,8.9768e-4 0.00364,4.6263e-4 0.001059,-5.3426e-4 -0.002669,-0.001031 -0.005339,-0.001354 -0.007186,-8.6871e-4 z m 0.001304,0.002475 c 0.001139,5.2035e-4 0.001687,0.003097 7.7943e-4,0.003664 -0.001381,8.6279e-4 -0.004186,-0.002152 -0.003318,-0.003566 4.5519e-4,-7.414e-4 0.001079,-7.6551e-4 0.002539,-9.815e-5 z M 0.744375,0.9245339 c -0.002211,2.0371e-4 -0.00429,0.001542 -0.004743,0.003054 -5.0275e-4,0.001675 8.46e-4,0.0179949 0.001628,0.0196989 3.9663e-4,8.6435e-4 3.8463e-4,0.001389 -3.5e-5,0.001552 -3.4912e-4,1.3485e-4 9.369e-5,4.5264e-4 9.8407e-4,7.0619e-4 8.9037e-4,2.5355e-4 0.003555,0.001427 0.005922,0.002607 0.002367,0.00118 0.004459,0.002146 0.004649,0.002146 0.001206,0 -2.26e-4,-9.7228e-4 -0.004025,-0.002733 -0.00418,-0.001937 -0.00433,-0.002062 -0.003437,-0.002858 5.1344e-4,-4.5816e-4 9.3356e-4,-0.001009 9.3356e-4,-0.001224 0,-2.1485e-4 -4.3781e-4,5e-8 -9.7294e-4,4.7754e-4 -0.002081,0.001857 -0.002453,0.001186 -0.003398,-0.006129 -4.2187e-4,-0.003267 -4.5562e-4,-0.005377 -8.956e-5,-0.005606 0.001495,-9.3462e-4 0.00793,0.001588 0.0100285,0.003931 3.2356e-4,3.6135e-4 7.4631e-4,5.5826e-4 9.3944e-4,4.3755e-4 1.9312e-4,-1.207e-4 -3.8638e-4,-9.3037e-4 -0.001288,-0.001799 -0.001955,-0.001884 -0.006038,-0.003639 -0.00847,-0.003639 l -0.00175,0 0,-0.004073 c 0,-0.003978 4e-5,-0.004093 0.001719,-0.004918 0.002099,-0.001032 0.00453,-8.7251e-4 0.0092,6.0411e-4 0.003947,0.001248 0.006744,0.002839 0.007805,0.004441 9.1838e-4,0.001386 0.002208,0.001662 0.001552,3.3293e-4 -0.001285,-0.002604 -0.00346,-0.004017 -0.008878,-0.005767 -0.003099,-0.001001 -0.006062,-0.001446 -0.008272,-0.001242 z m 0.0193601,0.00268 c -1.375e-5,0.002817 -2.9987e-4,0.004128 -0.001477,0.006771 l -4.3506e-4,9.7657e-4 9.25e-4,-9.7657e-4 c 5.0875e-4,-5.371e-4 0.001268,-0.002161 0.001687,-0.003609 l 7.6225e-4,-0.002632 0.001416,0.002178 c 0.003033,0.004664 0.004975,0.004832 0.007654,6.621e-4 0.002836,-0.004414 0.001551,-0.004492 -0.001455,-8.789e-5 -6.875e-4,0.001007 -0.001531,0.001897 -0.001875,0.001976 -7.4919e-4,1.7387e-4 -0.002454,-0.001928 -0.004428,-0.005458 -0.001998,-0.003574 -0.002756,-0.00352 -0.002775,1.9953e-4 z m 0.0843999,6.1849e-4 c -0.001676,0.002379 -0.004547,0.0114417 -0.004062,0.0128225 2.2081e-4,6.2831e-4 6.7025e-4,0.001142 9.9874e-4,0.001142 3.7638e-4,0 3.7288e-4,-2.6213e-4 -9.37e-6,-7.0851e-4 -3.9519e-4,-4.6153e-4 -3.8394e-4,-0.001313 3.25e-5,-0.002441 3.5131e-4,-9.5309e-4 7.5925e-4,-0.002124 9.0644e-4,-0.002602 7.6918e-4,-0.002497 0.001311,-0.002842 0.004452,-0.00284 0.001641,1.17e-6 0.0038,2.6814e-4 0.004796,5.9293e-4 9.9644e-4,3.2478e-4 0.001937,5.1244e-4 0.002089,4.1702e-4 7.0999e-4,-4.4374e-4 -0.003859,-0.001403 -0.006683,-0.001403 -0.001801,0 -0.003156,-1.7728e-4 -0.003156,-4.1296e-4 0,-9.4102e-4 0.001504,-0.004134 0.002285,-0.00485 0.001011,-9.2693e-4 0.00107,-0.001378 1.8032e-4,-0.001378 -3.6313e-4,0 -0.001187,7.4708e-4 -0.00183,0.00166 z m 0.0151954,0.001357 c 0.00139,1.3025e-4 0.001665,3.0571e-4 0.001287,8.2038e-4 -0.001382,0.001881 7.9838e-4,0.006094 0.003786,0.007317 0.001212,4.9645e-4 0.001784,5.2874e-4 0.002878,1.6265e-4 0.001177,-3.9362e-4 0.001327,-7.0791e-4 0.001086,-0.002274 -1.5513e-4,-0.001009 -9.8156e-4,-0.002512 -0.001858,-0.00338 -8.6806e-4,-8.5938e-4 -0.001565,-0.001738 -0.001548,-0.001953 3.438e-5,-4.4753e-4 -0.002769,-8.8991e-4 -0.005524,-8.7181e-4 l -0.001875,1.23e-5 0.001768,1.657e-4 z m 0.005375,0.002309 c 7.1262e-4,5.662e-4 0.001615,0.001696 0.002005,0.00251 0.001483,0.003094 -0.001329,0.003685 -0.003679,7.7257e-4 -0.00261,-0.003235 -0.001358,-0.005691 0.001674,-0.003282 z m -0.051526,0.002886 c -1.7732e-4,1.7931e-4 2.9093e-4,3.8253e-4 0.001041,4.5161e-4 9.1312e-4,8.413e-5 0.001601,5.69e-4 0.002084,0.001469 3.9631e-4,7.3899e-4 0.001002,0.001402 0.001345,0.001474 7.6606e-4,1.596e-4 0.006101,-0.002206 0.005633,-0.002498 -1.8407e-4,-1.1504e-4 -0.001124,1.3276e-4 -0.002089,5.5066e-4 -0.003195,0.001384 -0.003258,0.001383 -0.004341,-3.739e-5 -9.9981e-4,-0.00131 -0.003008,-0.002081 -0.003672,-0.00141 z"
           id="path4144"
           inkscape:connector-curvature="0" /></g></g></g></svg>