<?xml version="1.0" encoding="UTF-8" standalone="no"?>
<!-- Created with Inkscape (http://www.inkscape.org/) -->

<svg
   xmlns:dc="http://purl.org/dc/elements/1.1/"
   xmlns:cc="http://creativecommons.org/ns#"
   xmlns:rdf="http://www.w3.org/1999/02/22-rdf-syntax-ns#"
   xmlns:svg="http://www.w3.org/2000/svg"
   xmlns="http://www.w3.org/2000/svg"
   xmlns:sodipodi="http://sodipodi.sourceforge.net/DTD/sodipodi-0.dtd"
   xmlns:inkscape="http://www.inkscape.org/namespaces/inkscape"
   id="svg5625"
   version="1.1"
   inkscape:version="0.91 r13725"
   xml:space="preserve"
   width="834.50159"
   height="460.83142"
   viewBox="0 0 834.50159 460.83142"
   sodipodi:docname="stick_focusgroup.svg"><metadata
     id="metadata5631"><rdf:RDF><cc:Work
         rdf:about=""><dc:format>image/svg+xml</dc:format><dc:type
           rdf:resource="http://purl.org/dc/dcmitype/StillImage" /><dc:title></dc:title></cc:Work></rdf:RDF></metadata><defs
     id="defs5629" /><sodipodi:namedview
     pagecolor="#ffffff"
     bordercolor="#666666"
     borderopacity="1"
     objecttolerance="10"
     gridtolerance="10"
     guidetolerance="10"
     inkscape:pageopacity="0"
     inkscape:pageshadow="2"
     inkscape:window-width="1680"
     inkscape:window-height="948"
     id="namedview5627"
     showgrid="false"
     fit-margin-top="0"
     fit-margin-left="0"
     fit-margin-right="0"
     fit-margin-bottom="0"
     inkscape:zoom="0.41077465"
     inkscape:cx="213.21367"
     inkscape:cy="355.2576"
     inkscape:window-x="0"
     inkscape:window-y="30"
     inkscape:window-maximized="1"
     inkscape:current-layer="g5635" /><g
     id="g5633"
     inkscape:groupmode="layer"
     inkscape:label="Teuns website diensten drawings_4"
     transform="matrix(1.25,0,0,-1.25,-478.75136,2762.5096)"><g
       id="g5635"
       transform="matrix(1600,0,0,2560,10,20)"><path
         id="path6209"
         style="fill:#000000"
         d="m 0.56817265,0.84273743 c -5.5924e-4,4.2116e-4 -5.5897e-4,6.1795e-4 1.25e-6,8.3432e-4 4.0318e-4,1.5573e-4 0.001521,0.00137 0.002485,0.002698 0.001602,0.002209 0.003383,0.00368 0.003992,0.003297 2.6305e-4,-1.6559e-4 -0.005125,-0.00738 -0.005512,-0.00738 -1.2848e-4,0 -5.6294e-4,2.4802e-4 -9.6547e-4,5.5116e-4 z m -0.0152316,-0.001086 c -1.9787e-4,1.2367e-4 -9.647e-5,6.5768e-4 2.2533e-4,0.001187 3.2181e-4,5.2901e-4 5.851e-4,0.001385 5.851e-4,0.001903 0,0.00106 0.00248,0.004477 0.00325,0.004477 7.4307e-4,0 6.0887e-4,-6.8803e-4 -3.6571e-4,-0.001875 -4.7639e-4,-5.8015e-4 -0.001198,-0.002062 -0.001605,-0.003294 -7.1214e-4,-0.00216 -0.001332,-0.002871 -0.00209,-0.002397 z m -0.01064,-0.001855 c 1.7943e-4,4.2883e-4 -1.1027e-4,0.001625 -6.4376e-4,0.002659 -9.6134e-4,0.001863 -0.004156,0.009311 -0.004156,0.00969 0,1.0839e-4 2.7403e-4,1.9707e-4 6.0895e-4,1.9707e-4 0.001037,0 0.002255,-0.001971 0.004028,-0.006517 0.001728,-0.004429 0.001895,-0.006387 5.6847e-4,-0.006659 -4.598e-4,-9.426e-5 -6.1074e-4,1.399e-4 -4.0584e-4,6.2961e-4 z m -0.28158509,4.4826e-4 c -0.001036,0.001295 -0.002235,0.003338 -0.002665,0.004538 -7.3069e-4,0.002041 -6.8688e-4,0.002295 6.7113e-4,0.003895 7.9906e-4,9.4141e-4 0.001728,0.001712 0.002064,0.001712 6.4347e-4,0 4.5595e-4,-5.7742e-4 -8.4237e-4,-0.002594 -6.6603e-4,-0.001035 -6.1421e-4,-0.001632 3.3059e-4,-0.003814 6.1624e-4,-0.001423 0.001651,-0.003237 0.002299,-0.004032 0.001317,-0.001614 0.001447,-0.002061 6.0208e-4,-0.002061 -3.1692e-4,0 -0.001424,0.00106 -0.002459,0.002355 z m 0.0139298,-0.0144209 c -4.5325e-4,4.5836e-4 7.5524e-4,0.001112 0.002074,0.001122 9.8835e-4,7.58e-6 0.001002,-4.8081e-4 3.125e-5,-0.001088 -9.3453e-4,-5.8407e-4 -0.001552,-5.9418e-4 -0.002106,-3.445e-5 z m -0.0127693,-0.002297 c 0,3.3143e-4 8.4429e-4,5.6639e-4 0.002247,6.2545e-4 0.001601,6.738e-5 0.002171,-5.014e-5 0.001983,-4.0844e-4 -3.7217e-4,-7.0825e-4 -0.004231,-9.0616e-4 -0.004231,-2.1701e-4 z m -0.007813,-0.0143509 c -0.009854,0.00137 -0.0148784,0.004337 -0.0154955,0.009148 -4.7806e-4,0.003727 0.001845,0.008173 0.00554,0.0106025 0.002051,0.001349 0.00191,0.002432 -5.4548e-4,0.004177 -0.003617,0.00257 -0.0104368,0.008232 -0.0104368,0.008665 0,6.5436e-4 7.7442e-4,5.1483e-4 0.005269,-9.4941e-4 0.003991,-0.0013 0.006606,-0.001723 0.006606,-0.001067 0,1.6497e-4 -6.5844e-4,9.1204e-4 -0.001463,0.00166 -0.002426,0.002256 -0.006852,0.007817 -0.006431,0.00808 5.203e-4,3.2519e-4 3.597e-4,4.6132e-4 0.004471,-0.00379 0.004909,-0.005076 0.005289,-0.005543 0.005294,-0.006501 5.63e-6,-0.001225 -0.001517,-0.001395 -0.005311,-5.9482e-4 l -0.003365,7.1001e-4 0.001321,-0.001202 c 7.2656e-4,-6.6085e-4 0.00268,-0.002366 0.00434,-0.003788 0.00166,-0.001423 0.003019,-0.002863 0.003019,-0.003201 0,-5.3092e-4 3.9242e-4,-5.0536e-4 0.002905,1.8915e-4 0.004573,0.001264 0.008961,5.7294e-4 0.0109254,-0.001721 4.2184e-4,-4.9263e-4 3.5876e-4,-6.8796e-4 -2.2219e-4,-6.8796e-4 -4.462e-4,0 -0.001089,3.9096e-4 -0.001428,8.6881e-4 -0.001518,0.002138 -0.007596,0.001632 -0.0126073,-0.001049 -0.002702,-0.001446 -0.005421,-0.004782 -0.006125,-0.007517 -9.8999e-4,-0.003847 0.002065,-0.00786 0.007239,-0.00951 0.005269,-0.00168 0.0151789,-0.002577 0.0214404,-0.00194 0.004256,4.3291e-4 0.009228,0.001538 0.008812,0.001958 -1.5722e-4,1.5899e-4 -0.001718,4.0784e-4 -0.003469,5.5299e-4 -0.003503,2.9039e-4 -0.009265,0.001743 -0.0103472,0.002608 -6.4945e-4,5.1922e-4 -0.002229,0.003935 -0.001912,0.004134 8.083e-5,5.052e-5 0.001608,-3.6e-4 0.003393,-9.1227e-4 0.00281,-8.6903e-4 0.003718,-9.673e-4 0.006752,-7.3039e-4 0.002797,2.1845e-4 0.004002,5.5436e-4 0.005966,0.001663 0.002395,0.001352 0.003561,0.0015 0.002863,3.6156e-4 -1.896e-4,-3.088e-4 -0.001389,-0.001059 -0.002664,-0.001667 -0.001907,-9.0922e-4 -0.003082,-0.001133 -0.006609,-0.001257 -0.003283,-1.1595e-4 -0.004668,3.51e-6 -0.005904,5.098e-4 -0.001907,7.8077e-4 -0.002421,5.9159e-4 -0.001902,-6.9979e-4 5.2713e-4,-0.001313 0.005621,-0.002624 0.0122064,-0.003142 l 0.005248,-4.1316e-4 0.002469,0.001739 c 0.003209,0.00226 0.004209,0.003516 0.004649,0.00584 6.4435e-4,0.0034 -0.004252,0.008547 -0.0108167,0.0113702 -0.001457,6.2635e-4 -0.003217,0.001139 -0.003911,0.001139 -6.9441e-4,0 -0.001491,2.5502e-4 -0.00177,5.6671e-4 -0.00118,0.001318 -0.0129047,0.002298 -0.0167015,0.001396 -0.001058,-2.5152e-4 -0.001603,-2.4823e-4 -0.001603,9.69e-6 0,0.001162 0.009644,0.001663 0.0149204,7.7531e-4 0.001488,-2.5045e-4 0.002817,-3.8563e-4 0.002954,-3.0039e-4 1.3638e-4,8.524e-5 8.1304e-4,0.001536 0.001504,0.003224 0.001423,0.003476 0.003038,0.005733 0.004277,0.005974 6.8716e-4,1.3395e-4 7.0147e-4,7e-8 7.784e-5,-7.2822e-4 -4.2025e-4,-4.9078e-4 -0.001544,-0.002695 -0.002498,-0.004899 l -0.001734,-0.004007 0.003948,-0.001596 c 0.007995,-0.003232 0.0131417,-0.008083 0.0130808,-0.0123296 -7.181e-5,-0.005009 -0.006682,-0.009655 -0.016412,-0.0115328 -0.004737,-9.1443e-4 -0.013953,-0.001002 -0.0198044,-1.8828e-4 z m 0.29561772,-0.012295 c -4.1712e-4,4.2182e-4 5.8854e-4,8.1342e-4 0.00398,0.00155 0.003656,7.9387e-4 0.003572,0.001351 -2.2295e-4,0.001471 -0.004725,1.4848e-4 -0.007188,4.7562e-4 -0.007188,9.5499e-4 0,3.01e-4 0.001752,3.6138e-4 0.005781,1.9927e-4 0.006655,-2.6771e-4 0.007507,-1.2103e-4 0.0196488,0.003382 0.00419,0.001209 0.0102365,0.002647 0.0134375,0.003196 0.0101393,0.001739 0.0198156,0.0037 0.0202051,0.004094 4.8331e-4,4.8875e-4 0.002177,4.963e-4 0.002177,9.69e-6 0,-8.3391e-4 -0.0112038,-0.003626 -0.0203125,-0.005062 -0.00275,-4.3354e-4 -0.006687,-0.001221 -0.00875,-0.00175 -0.007013,-0.001798 -0.0197359,-0.005614 -0.0208841,-0.006264 -0.001512,-8.5547e-4 -0.007458,-0.0022 -0.007873,-0.001781 z m 0.0136708,0.0431567 c -2.3454e-4,3.8199e-4 -0.001207,5.8594e-4 -0.002793,5.8594e-4 -0.002966,0 -0.003101,-2.4769e-4 -4.0188e-4,-7.3485e-4 0.002976,-5.3712e-4 0.003598,-5.0813e-4 0.003195,1.4891e-4 z m -0.15147602,0.00136 c 0,5.0339e-4 5.5621e-4,8.6105e-4 0.001592,0.001023 0.001815,2.8467e-4 0.00185,2.7124e-4 0.002435,-9.1837e-4 3.9231e-4,-7.977e-4 2.2624e-4,-8.7891e-4 -0.001797,-8.7891e-4 -0.001806,0 -0.00223,1.4709e-4 -0.00223,7.7381e-4 z m -0.0161823,3.02e-5 c -8.2213e-4,4.2792e-4 -0.001385,8.1758e-4 -0.00125,8.6591e-4 0.003445,0.001237 0.003971,0.001316 0.003486,5.2612e-4 -1.8179e-4,-2.9609e-4 -3.95e-5,-7.2023e-4 3.1617e-4,-9.4253e-4 6.4108e-4,-4.0067e-4 2.0534e-4,-0.001266 -6.2502e-4,-0.001241 -2.3752e-4,7.14e-6 -0.001105,3.631e-4 -0.001927,7.9101e-4 z m 0.009854,-0.007544 c -0.005655,1.0651e-4 -0.006805,2.3912e-4 -0.007753,8.936e-4 -6.1206e-4,4.227e-4 -0.001491,7.6854e-4 -0.001953,7.6854e-4 -4.6234e-4,0 -8.4063e-4,2.6367e-4 -8.4063e-4,5.8593e-4 0,7.7014e-4 4.2841e-4,7.3929e-4 0.002264,-1.6301e-4 0.001262,-6.2027e-4 0.002514,-7.4476e-4 0.007289,-7.2459e-4 0.006381,2.7e-5 0.008572,-2.5207e-4 0.008572,-0.001092 0,-3.0778e-4 -2.1094e-4,-5.2228e-4 -4.6875e-4,-4.7665e-4 -2.5781e-4,4.563e-5 -0.003457,1.3924e-4 -0.007109,2.0803e-4 z m 0.0132799,-0.00238 c 0.007974,0.002352 0.0130117,0.006506 0.0121041,0.009982 -0.001136,0.004352 -0.008439,0.0100814 -0.0146859,0.0115218 -0.001888,4.3534e-4 -0.00498,9.0953e-4 -0.00687,0.001054 l -0.003437,2.6224e-4 0.002188,-8.2916e-4 c 0.002132,-8.0828e-4 0.00618,-0.003397 0.006227,-0.003983 5.938e-5,-7.4122e-4 -0.001703,-1.6452e-4 -0.003286,0.001075 -0.002154,0.001687 -0.006155,0.003009 -0.008781,0.002901 -0.001085,-4.447e-5 -0.002485,5.524e-5 -0.003113,2.2156e-4 -0.001178,3.1237e-4 -0.008337,-8.3733e-4 -0.008926,-0.001434 -1.7574e-4,-1.7772e-4 6.471e-4,-3.2313e-4 0.001829,-3.2313e-4 0.002511,0 0.006112,-8.6251e-4 0.007283,-0.001745 0.001232,-9.2807e-4 2.178e-4,-0.001224 -0.001284,-3.7465e-4 -9.679e-4,5.4746e-4 -0.002504,7.7816e-4 -0.005892,8.851e-4 -0.004082,1.2883e-4 -0.004935,2.492e-5 -0.007803,-9.5079e-4 -0.004576,-0.001557 -0.005763,-0.002772 -0.006122,-0.006267 -4.0187e-4,-0.003914 7.9628e-4,-0.005802 0.00526,-0.008288 0.003712,-0.002068 0.0101364,-0.004213 0.0142227,-0.00475 0.001415,-1.8591e-4 0.005808,-3.0236e-4 0.009761,-2.5877e-4 0.006612,7.291e-5 0.007519,1.7694e-4 0.0113271,0.0013 z M 0.5428286,0.81876529 c 2.2106e-4,2.2355e-4 0.00153,8.5147e-4 0.002908,0.001395 0.001379,5.4391e-4 0.00241,0.001046 0.002291,0.001116 -1.1841e-4,6.991e-5 -0.0019,-3.971e-5 -0.003959,-2.436e-4 -0.002491,-2.4664e-4 -0.004216,-2.3606e-4 -0.005156,3.164e-5 -0.001956,5.5693e-4 -0.001767,9.847e-5 5.8476e-4,-0.001418 0.002134,-0.001376 0.002695,-0.001524 0.003331,-8.8168e-4 z m 0.0100828,0.0117369 c -0.001438,0.001049 -9.0685e-4,0.001919 0.001172,0.001919 0.001446,0 0.001601,-1.3426e-4 0.001426,-0.001239 -2.4135e-4,-0.001527 -0.001121,-0.001758 -0.002597,-6.797e-4 z m -0.0118172,-0.00131 c -0.002463,7.7035e-4 -0.002233,0.001667 4.2611e-4,0.001667 0.001916,0 0.002127,-1.0427e-4 0.001978,-9.7718e-4 -2.1827e-4,-0.00128 -3.7495e-4,-0.001324 -0.002404,-6.8971e-4 z m 0.0247216,-0.012098 c 0.00361,0.001056 0.0116846,0.005198 0.0116846,0.005995 0,6.591e-4 -0.009938,1.8118e-4 -0.0132813,-6.387e-4 -6.2689e-4,-1.5373e-4 -0.001094,-9.01e-5 -0.001094,1.4907e-4 0,6.0829e-4 0.005864,0.001604 0.0110933,0.001883 0.002641,1.41e-4 0.004827,4.6482e-4 0.00524,7.7626e-4 3.9025e-4,2.9389e-4 8.4021e-4,0.001718 9.9991e-4,0.003165 6.5352e-4,0.005921 -0.005069,0.0107771 -0.0141461,0.0120023 -0.001741,2.35e-4 -0.00206,1.8161e-4 -0.001768,-2.954e-4 6.3692e-4,-0.001037 -7.6656e-4,-0.00137 -0.004903,-0.001163 -0.007239,3.6317e-4 -0.0181468,-0.001929 -0.0216847,-0.004557 -0.002671,-0.001984 -0.00379,-0.004376 -0.003447,-0.007369 1.6673e-4,-0.001456 7.5583e-4,-0.003171 0.001309,-0.00381 5.5328e-4,-6.3906e-4 0.001017,-0.001009 0.001031,-8.2113e-4 1.375e-5,1.8744e-4 4.4891e-4,1.2093e-4 9.6699e-4,-1.478e-4 0.001127,-5.8475e-4 0.007105,-2.5584e-4 0.0110134,6.0598e-4 0.006037,0.001331 0.004442,-0.001223 -0.002424,-0.003882 -0.001461,-5.6572e-4 -0.002656,-0.00119 -0.002656,-0.001387 0,-1.9713e-4 0.001477,-7.2543e-4 0.003281,-0.001174 0.004884,-0.001214 0.0133828,-9.1184e-4 0.0187841,6.679e-4 z M 0.4943832,0.77763649 c 1.581e-5,5.9777e-4 0.00433,0.002008 0.011896,0.003887 0.009895,0.002459 0.0242544,0.005382 0.0247902,0.005047 7.7832e-4,-4.8645e-4 -8.4763e-4,-0.001036 -0.005394,-0.001824 -0.007032,-0.001218 -0.0270567,-0.005877 -0.0287275,-0.006684 -0.001561,-7.5384e-4 -0.002577,-9.2315e-4 -0.002564,-4.2701e-4 z m -0.0219923,3.9309e-4 c -0.004654,0.004763 -0.006317,0.006608 -0.006332,0.007023 -2.45e-5,6.8664e-4 -0.003616,0.001019 -0.007629,7.0536e-4 -0.002128,-1.6619e-4 -0.00343,-1.2158e-4 -0.00343,1.1759e-4 0,2.1198e-4 0.002146,5.1112e-4 0.00477,6.6476e-4 0.004419,2.5879e-4 0.005442,1.6026e-4 0.0139063,-0.001339 0.009918,-0.001756 0.0158337,-0.003355 0.0181714,-0.00491 0.002047,-0.001362 0.001192,-0.001678 -0.001338,-4.9455e-4 -0.00114,5.3344e-4 -0.002916,0.001228 -0.003947,0.001545 -0.003869,0.001186 -0.0183102,0.004024 -0.0188279,0.003701 -2.3829e-4,-1.4893e-4 0.002321,-0.003056 0.00534,-0.006066 7.1532e-4,-7.1314e-4 0.001301,-0.00146 0.001301,-0.00166 0,-6.9237e-4 -9.4217e-4,-3.5381e-4 -0.001985,7.1315e-4 z m -0.0756761,-0.004362 c -6.5462e-4,4.0914e-4 0.001267,0.003188 0.004494,0.0065 0.001731,0.001776 0.004275,0.005212 0.005653,0.007635 0.00284,0.004994 0.004509,0.007194 0.006312,0.008321 6.8578e-4,4.2861e-4 0.001079,9.4866e-4 8.7468e-4,0.001156 -2.047e-4,2.0701e-4 -0.002448,3.7638e-4 -0.004986,3.7638e-4 -0.002538,0 -0.004776,1.6364e-4 -0.004973,3.6363e-4 -0.001194,0.001208 0.00625,0.001275 0.0177858,1.5978e-4 0.007165,-6.9252e-4 0.0129755,-9.708e-4 0.0223172,-0.001069 l 0.0126296,-1.3265e-4 -9.5698e-4,0.001157 c -5.2633e-4,6.3614e-4 -8.0242e-4,0.001253 -6.135e-4,0.001371 0.001387,8.6682e-4 0.006785,-0.005544 0.006202,-0.007365 -2.3156e-4,-7.2364e-4 -1.0074e-4,-0.001125 3.6662e-4,-0.001125 3.9967e-4,0 0.004058,0.001055 0.008129,0.002344 0.007482,0.002369 0.0088,0.002661 0.0088,0.001953 0,-2.1484e-4 -4.3847e-4,-3.9063e-4 -9.7439e-4,-3.9063e-4 -5.425e-4,0 -7.8825e-4,-1.8822e-4 -5.5445e-4,-4.2466e-4 3.0238e-4,-3.058e-4 6.101e-4,-3.058e-4 0.001099,0 9.6287e-4,6.0179e-4 0.005671,5.1631e-4 0.0104295,-1.8935e-4 0.004462,-6.6177e-4 0.0176127,-0.002297 0.0215625,-0.002681 0.008598,-8.3596e-4 0.0210649,-0.003442 0.0198711,-0.004155 -2.7287e-4,-1.628e-4 -0.002947,2.1981e-4 -0.005942,8.5025e-4 -0.002995,6.3043e-4 -0.0125577,0.002041 -0.02125,0.003134 -0.008692,0.001093 -0.0172815,0.002174 -0.019087,0.002401 -0.002611,3.2885e-4 -0.003621,3.0047e-4 -0.004934,-1.3864e-4 -0.001458,-4.8758e-4 -0.001726,-4.7791e-4 -0.002292,8.276e-5 -5.6955e-4,5.6433e-4 -9.9387e-4,4.9411e-4 -0.003816,-6.3152e-4 -0.004464,-0.00178 -0.0168811,-0.005671 -0.0180989,-0.005671 -0.001796,0 -0.001088,5.6338e-4 0.001954,0.001554 0.001633,5.3148e-4 0.003161,0.001138 0.003397,0.001348 5.6098e-4,5.0068e-4 3.019e-5,0.002405 -0.001168,0.00419 -0.001194,0.001779 -0.002428,0.001957 -0.009885,0.001427 -0.007577,-5.389e-4 -0.023785,2.2838e-4 -0.032134,0.001521 -0.001191,1.8438e-4 -0.00143,1.0549e-4 -0.001136,-3.7403e-4 2.1549e-4,-3.5098e-4 -1.6416e-4,-9.1159e-4 -8.9873e-4,-0.001327 -0.001797,-0.001016 -0.002811,-0.002359 -0.006209,-0.008222 -0.001779,-0.00307 -0.004521,-0.006776 -0.006775,-0.009159 -0.002082,-0.002201 -0.003786,-0.004231 -0.003786,-0.004511 0,-5.2834e-4 -7.6829e-4,-6.8005e-4 -0.001411,-2.7856e-4 z m 0.011444,-0.001813 c -0.00152,5.9902e-4 0.001546,0.001787 0.00649,0.002514 0.0101948,0.001499 0.0383134,0.001941 0.049949,7.8526e-4 0.00347,-3.4482e-4 0.007499,-5.2501e-4 0.008954,-4.0043e-4 0.002378,2.0368e-4 0.004092,-1.942e-4 0.002865,-6.6474e-4 -0.001153,-4.4195e-4 -0.008502,-3.9289e-4 -0.014524,9.695e-5 -0.009892,8.0468e-4 -0.0383367,3.5613e-4 -0.045879,-7.2345e-4 -0.003052,-4.3686e-4 -0.005864,-0.001057 -0.00625,-0.001379 -4.7243e-4,-3.9407e-4 -9.9575e-4,-4.6857e-4 -0.001605,-2.2852e-4 z m -0.007065,-8.1753e-4 c -0.004939,6.4042e-4 -0.00675,0.001384 -0.0025,0.001027 0.00478,-4.0184e-4 0.009862,-0.001091 0.0104375,-0.001417 8.6956e-4,-4.9098e-4 -0.002372,-3.3177e-4 -0.007937,3.8986e-4 z m -0.0494796,-0.007027 c -1.9094e-4,1.931e-4 2.6136e-4,8.3461e-4 0.001005,0.001426 l 0.001352,0.001074 -0.001767,8.269e-4 c -0.006752,0.003159 -0.012312,0.005534 -0.0148248,0.006332 -0.005449,0.00173 -0.0120432,0.002894 -0.0163959,0.002894 -0.004092,0 -0.006008,7.508e-4 -0.002077,8.138e-4 0.00355,5.689e-5 0.004947,2.2177e-4 0.00537,6.3359e-4 6.333e-4,6.1707e-4 0.004554,0.001741 0.0147863,0.004238 0.005156,0.001259 0.008883,0.002353 0.008281,0.002431 -6.0156e-4,7.872e-5 -0.001094,3.2991e-4 -0.001094,5.582e-4 0,8.443e-4 0.0131714,-8.0628e-4 0.020625,-0.002585 0.003266,-7.7914e-4 0.007836,-0.001625 0.0101562,-0.00188 0.00232,-2.5493e-4 0.004219,-6.0351e-4 0.004219,-7.7463e-4 0,-8.0164e-4 -0.008692,3.5531e-4 -0.0166271,0.002213 -0.005949,0.001393 -0.0138224,0.00261 -0.0141386,0.002186 -3.1096e-4,-4.1702e-4 -0.008884,-0.002726 -0.0160647,-0.004327 -0.010789,-0.002405 -0.0106334,-0.00228 -0.004338,-0.003506 0.006334,-0.001234 0.0112969,-0.002914 0.0189684,-0.006421 0.003087,-0.001411 0.005857,-0.002566 0.006156,-0.002566 2.9898e-4,0 0.003117,0.001374 0.006262,0.003053 0.003145,0.001679 0.007125,0.003698 0.008844,0.004486 0.001719,7.8859e-4 0.003421,0.001587 0.003783,0.001774 0.002787,0.001439 0.006027,0.002486 0.006596,0.00213 4.3858e-4,-2.7411e-4 -9.0357e-4,-0.001056 -0.004244,-0.002473 -0.004221,-0.00179 -0.0128986,-0.006009 -0.0182464,-0.008871 l -0.001639,-8.7718e-4 0.001719,-8.1555e-4 c 0.001751,-8.3107e-4 0.00224,-0.001532 0.001068,-0.001532 -3.5766e-4,0 -0.001471,3.7919e-4 -0.002474,8.4264e-4 -0.001512,6.9881e-4 -0.001988,7.5732e-4 -0.002787,3.4279e-4 -5.2999e-4,-2.7491e-4 -9.6363e-4,-7.3161e-4 -9.6363e-4,-0.001015 0,-6.5198e-4 -0.001051,-0.001079 -0.001511,-6.1345e-4 z m 0.1743233,-0.0509588 c 0.0327915,0.002285 0.0541891,0.005498 0.0719772,0.0108082 0.016342,0.004878 0.0277118,0.0116975 0.0318756,0.0191179 0.002208,0.003935 0.002787,0.0111601 0.001175,0.0146613 -0.002558,0.005555 -0.009954,0.0120394 -0.0197982,0.0173586 -0.004175,0.002256 -0.0153781,0.007448 -0.0166484,0.007716 -2.5074e-4,5.284e-5 -0.001385,-0.001027 -0.002521,-0.0024 -0.002048,-0.002475 -0.00418,-0.00408 -0.004857,-0.003656 -1.9372e-4,1.2108e-4 9.8985e-4,0.001664 0.00263,0.003428 0.003513,0.003779 0.00397,0.003272 -0.005708,0.006329 -0.021701,0.006857 -0.0533449,0.0124869 -0.0984375,0.0175147 -0.013952,0.001556 -0.0346919,0.00324 -0.0453125,0.003679 -0.003094,1.2808e-4 -0.007031,3.0631e-4 -0.00875,3.9607e-4 -0.001719,8.976e-5 -0.009875,3.0287e-4 -0.018125,4.7358e-4 -0.00825,1.7071e-4 -0.0135463,3.6302e-4 -0.0117696,4.2735e-4 0.001856,6.721e-5 0.00355,3.5801e-4 0.003983,6.8359e-4 0.001014,7.6328e-4 0.001088,7.6679e-4 -0.0125256,-5.883e-4 -0.0310247,-0.003088 -0.051296,-0.006597 -0.0720775,-0.0124756 l -0.004265,-0.001207 0.002322,-0.001771 c 0.003119,-0.002379 0.002138,-0.002805 -0.001066,-4.6246e-4 l -0.002526,0.001847 -0.007288,-0.002358 c -0.008524,-0.002759 -0.018736,-0.007379 -0.0261775,-0.0118439 -0.006022,-0.003614 -0.00612,-0.003442 0.002271,-0.003969 0.002437,-1.5297e-4 0.004431,-4.3607e-4 0.004431,-6.2911e-4 0,-4.0341e-4 -0.001489,-4.0603e-4 -0.008379,-1.477e-5 -0.005766,3.274e-4 -0.005656,3.7168e-4 -0.0100659,-0.004047 -0.007908,-0.007923 -0.009559,-0.0168851 -0.004398,-0.0238667 0.006767,-0.009154 0.0197306,-0.0156522 0.0427353,-0.0214214 0.0182271,-0.004571 0.0315072,-0.006202 0.068531,-0.008418 0.0109919,-6.5792e-4 0.020695,-0.001269 0.0215625,-0.001358 0.003093,-3.1757e-4 0.0329804,-0.002559 0.0415773,-0.003119 0.004812,-3.131e-4 0.0142344,-7.5637e-4 0.0209375,-9.8506e-4 0.006703,-2.2869e-4 0.0135938,-4.7998e-4 0.0153125,-5.5844e-4 0.007582,-3.461e-4 0.0411567,1.3542e-4 0.049375,7.0814e-4 z m -0.05,-0.001489 c -0.001719,7.834e-5 -0.008609,3.296e-4 -0.0153125,5.5836e-4 -0.0132819,4.5327e-4 -0.0186003,7.8351e-4 -0.05,0.003105 -0.0115156,8.513e-4 -0.0283906,0.002001 -0.0375,0.002554 -0.03321,0.002018 -0.0443699,0.003338 -0.0615625,0.007283 -0.0267603,0.006141 -0.043206,0.0146121 -0.0489835,0.0252319 -0.001479,0.002719 -0.001827,0.009016 -6.7037e-4,0.0121502 0.001205,0.003267 0.004376,0.00776 0.007714,0.0109311 0.001849,0.001757 0.003183,0.00326 0.002964,0.003341 -2.1939e-4,8.07e-5 -0.001946,2.7461e-4 -0.003836,4.3091e-4 -0.0101811,8.4171e-4 -0.0156858,0.003788 -0.014706,0.007872 5.5445e-4,0.002311 0.004551,0.007156 0.00868,0.0105228 0.001868,0.001523 0.003499,0.003103 0.003624,0.003511 2.7514e-4,8.929e-4 0.002402,0.001266 0.002402,4.2147e-4 0,-3.2012e-4 -2.6199e-4,-6.4062e-4 -5.8221e-4,-7.1224e-4 -9.4085e-4,-2.1041e-4 -0.007406,-0.006489 -0.009803,-0.00952 -0.005486,-0.006937 -0.00252,-0.009738 0.0118118,-0.0111542 l 0.004239,-4.1897e-4 0.005539,0.003294 c 0.003046,0.001812 0.007288,0.004153 0.009425,0.005202 l 0.003886,0.001908 -0.002727,0.001522 c -0.0015,8.3735e-4 -0.004274,0.002235 -0.006164,0.003105 -0.009211,0.00424 -0.0145621,0.008596 -0.0153263,0.0124732 -3.0689e-4,0.001557 -2.2887e-4,0.002246 2.5433e-4,0.002246 3.8335e-4,0 6.9701e-4,-5.8072e-4 6.9701e-4,-0.00129 0,-0.002863 0.006063,-0.008111 0.0130637,-0.0113078 0.001924,-8.7878e-4 0.00535,-0.002614 0.007612,-0.003857 l 0.004114,-0.002259 0.003218,0.001354 c 0.00177,7.4494e-4 0.006073,0.002302 0.009563,0.00346 l 0.006345,0.002105 -0.002631,0.001038 c -0.0037,0.00146 -0.010536,0.003102 -0.0178196,0.004281 -0.007439,0.001204 -0.008155,0.001221 -0.0111497,2.6652e-4 -0.001278,-4.0716e-4 -0.002471,-5.9043e-4 -0.002653,-4.0726e-4 -3.7186e-4,3.7605e-4 0.002288,0.0013 0.004847,0.001683 0.002214,3.3161e-4 0.0126081,-0.001076 0.0186479,-0.002525 0.002597,-6.231e-4 0.006374,-0.001755 0.008394,-0.002515 0.004173,-0.001571 0.002652,-0.001715 0.0137593,0.001308 0.0117165,0.003189 0.0302103,0.006768 0.0447076,0.008652 0.003598,4.6764e-4 0.0131366,0.00154 0.0211961,0.002383 0.00806,8.4318e-4 0.0148432,0.001666 0.0150748,0.001828 7.2578e-4,5.0763e-4 0.001168,0.003224 5.2506e-4,0.003224 -3.3293e-4,0 -7.6721e-4,-2.6367e-4 -9.6507e-4,-5.8594e-4 -9.3175e-4,-0.001518 -0.001449,-2.2602e-4 -0.001424,0.003556 1.5e-5,0.002278 -9.613e-5,0.004219 -2.4694e-4,0.004313 -4.352e-4,2.72e-4 -0.008611,-0.003308 -0.0114256,-0.005004 -0.001407,-8.4738e-4 -0.003499,-0.002586 -0.004648,-0.003863 -0.001953,-0.00217 -0.003106,-0.002878 -0.003106,-0.001908 0,2.2814e-4 7.0516e-4,0.001346 0.001567,0.002485 0.002015,0.002663 0.006841,0.005491 0.0129642,0.007598 0.00532,0.00183 0.004863,0.001302 0.00519,0.006006 l 1.0176e-4,0.001465 -0.002923,0 c -0.007685,0 -0.0188296,0.003655 -0.0233204,0.007649 -0.003145,0.002797 -0.003381,0.008923 -4.4331e-4,0.0115015 0.001341,0.001177 0.008618,0.004422 0.013074,0.005831 0.005151,0.001628 0.016018,0.002092 0.0228713,9.761e-4 0.007073,-0.001151 0.0135445,-0.004772 0.0170692,-0.009551 0.003292,-0.004463 0.002302,-0.007875 -0.003333,-0.0114995 -0.004885,-0.003141 -0.0152957,-0.00564 -0.0207739,-0.004985 -9.6322e-4,1.1508e-4 -0.001452,3.785e-5 -0.001224,-1.9332e-4 2.0939e-4,-2.1174e-4 4.3767e-4,-0.003138 5.0729e-4,-0.006502 9.945e-5,-0.004806 3.0568e-4,-0.006117 9.6219e-4,-0.006117 9.1019e-4,0 0.001071,-5.4068e-4 8.7485e-4,-0.002942 l -1.2862e-4,-0.001574 0.006451,4.7038e-4 c 0.003548,2.5871e-4 0.007927,4.8381e-4 0.009732,5.0022e-4 0.001973,1.793e-5 0.003281,2.0397e-4 0.003281,4.6643e-4 0,9.1556e-4 -0.012512,0.007828 -0.0150452,0.008311 -0.001637,3.1263e-4 -0.002642,0.001408 -0.001292,0.001408 0.001884,0 0.0158726,-0.007111 0.0173409,-0.008815 0.001143,-0.001326 0.001203,-0.001341 0.005425,-0.001341 0.00794,0 0.0179463,-0.00134 0.0179463,-0.002403 0,-4.7466e-4 -4.3417e-4,-4.1774e-4 -0.002687,3.5229e-4 -0.001773,6.061e-4 -0.003913,6.7949e-4 -0.0188752,6.4744e-4 -0.0179097,-3.836e-5 -0.0223519,-3.2e-4 -0.0226967,-0.001439 -1.8732e-4,-6.0791e-4 5.7152e-4,-6.7626e-4 0.007807,-7.0324e-4 0.004408,-1.645e-5 0.008436,-7.949e-5 0.008952,-1.4012e-4 5.1563e-4,-6.063e-5 0.005238,-2.3123e-4 0.0104942,-3.7912e-4 0.005256,-1.4788e-4 0.009897,-3.3636e-4 0.0103125,-4.1883e-4 4.1567e-4,-8.248e-5 0.002865,-2.5653e-4 0.005443,-3.8678e-4 0.0100047,-5.0544e-4 0.0179226,-0.001174 0.035,-0.002955 0.008078,-8.4258e-4 0.0173594,-0.001893 0.020625,-0.002333 0.003266,-4.4073e-4 0.008047,-0.001071 0.010625,-0.0014 0.0263414,-0.003362 0.0561251,-0.009557 0.0715004,-0.014872 0.002716,-9.3889e-4 0.005056,-0.001633 0.005201,-0.001542 0.001027,6.4185e-4 0.005545,0.008132 0.007602,0.0126047 0.004247,0.009232 0.007906,0.0148612 0.009165,0.014101 2.6464e-4,-1.5981e-4 5.95e-5,-5.9927e-4 -4.558e-4,-9.7656e-4 -5.1532e-4,-3.7729e-4 -0.002405,-0.003762 -0.004199,-0.007522 -0.005079,-0.0106445 -0.006917,-0.014056 -0.008875,-0.0164814 -9.9533e-4,-0.001233 -0.001812,-0.002318 -0.001812,-0.00241 0,-9.115e-5 0.001475,-7.5534e-4 0.003277,-0.001476 0.001802,-7.2064e-4 0.005906,-0.002593 0.009119,-0.004161 0.006587,-0.003214 0.006562,-0.003214 0.009039,5.54e-5 0.002052,0.002709 0.004921,0.004216 0.0105242,0.005529 0.006553,0.001535 0.006623,0.001597 0.005227,0.004574 -0.003031,0.006466 -0.0107679,0.0169402 -0.0156644,0.0212082 -0.003468,0.003023 -0.008412,0.006004 -0.0128825,0.007767 -0.005942,0.002344 -0.0144435,0.004849 -0.0187507,0.005525 l -0.004082,6.4086e-4 -0.004935,-0.003084 c -0.007335,-0.004584 -0.014122,-0.006278 -0.0235043,-0.005867 -0.007597,3.3288e-4 -0.0147698,0.003359 -0.0180124,0.007598 -0.002168,0.002834 -0.002444,0.007512 -6.0253e-4,0.0101879 0.002336,0.003394 0.008155,0.006001 0.0159345,0.007139 0.001719,2.514e-4 0.003547,6.1266e-4 0.004062,8.0279e-4 0.003789,0.001397 0.0114207,0.001673 0.0165741,5.9928e-4 0.005279,-0.0011 0.009374,-0.004088 0.0112628,-0.008219 0.001023,-0.002237 0.001035,-0.005851 2.5e-5,-0.007321 -3.5969e-4,-5.2343e-4 3.4493e-4,-7.5552e-4 0.003988,-0.001313 0.008239,-0.001262 0.0223787,-0.006329 0.0276049,-0.009891 0.0102596,-0.006994 0.0199181,-0.0205191 0.0240184,-0.0336325 8.3375e-4,-0.002667 0.001904,-0.005127 0.002377,-0.005469 4.7375e-4,-3.4129e-4 0.001016,-0.00106 0.001205,-0.001597 1.8875e-4,-5.3711e-4 0.001038,-0.002119 0.001888,-0.003516 9.3394e-4,-0.001535 0.001967,-0.00461 0.002613,-0.007776 5.8737e-4,-0.00288 0.001427,-0.005872 0.001865,-0.006649 4.3837e-4,-7.7652e-4 9.8425e-4,-0.002375 0.001213,-0.003552 2.2887e-4,-0.001177 6.6918e-4,-0.003283 9.7843e-4,-0.00468 3.0925e-4,-0.001396 7.2307e-4,-0.003286 9.1963e-4,-0.004199 3.7075e-4,-0.001722 -3.8375e-4,-0.00222 -0.00146,-9.6338e-4 -6.79e-4,7.93e-4 -0.001004,0.002108 -0.001952,0.007897 -3.6937e-4,0.002256 -0.001089,0.005024 -0.0016,0.006151 -5.1075e-4,0.001127 -0.001358,0.004098 -0.001884,0.006602 -9.8031e-4,0.004672 -0.003456,0.0100404 -0.005518,0.0119671 -6.3975e-4,5.9769e-4 -0.001685,0.002707 -0.002323,0.004687 -6.3762e-4,0.00198 -0.001301,0.00398 -0.001475,0.004444 -3.0475e-4,8.1378e-4 -5.3856e-4,7.7448e-4 -0.006635,-0.001115 -0.004704,-0.001458 -0.006582,-0.002262 -0.007346,-0.003143 -5.6479e-4,-6.513e-4 -0.001943,-0.002059 -0.003064,-0.003128 l -0.002037,-0.001944 0.00374,-0.002499 c 0.0104324,-0.00697 0.0150209,-0.0129959 0.0150209,-0.019726 0,-0.0159254 -0.0180542,-0.0269296 -0.055968,-0.0341131 -0.012696,-0.002406 -0.0291202,-0.004238 -0.054657,-0.006098 C 0.5173558,0.71166295 0.482223,0.71127386 0.4759353,0.71156043 Z"
         inkscape:connector-curvature="0" /></g></g></svg>